<svg version="1" xmlns="http://www.w3.org/2000/svg" width="248" height="248" viewBox="0 0 186.000000 186.000000"><path d="M0 93v93h186V0H0v93zm86-27.8c0 1.3-.8 1.8-2.5 1.8-1.4 0-2.8.6-3.1 1.4-.8 2 15.8 46 16.7 44.4 1.8-3.3 14.2-36.7 14.6-39.5.7-3.9-1-6.3-4.3-6.3-1.7 0-2.4-.6-2.4-2 0-1.8.7-1.9 9-1.8 8 .2 9 .4 9 2 0 1-.7 1.8-1.5 1.8-2.5 0-4.8 4.9-16.1 34.1-6 15.4-11.3 27.9-12 27.9-.7 0-3.8-6.6-7-14.8-16.6-42.8-17.9-45.7-20.1-46.7C65 67 64 65.8 64 65c0-1.3 1.8-1.6 11-1.6 9.9 0 11 .2 11 1.8z"/></svg>