<svg xmlns="http://www.w3.org/2000/svg" width="364" height="364">
  <path fill-rule="evenodd" d="M244.4 83.4H119.6a36.2 36.2 0 0 0-36.2 36.2v124.8a36.2 36.2 0 0 0 36.2 36.2h124.8a36.2 36.2 0 0 0 36.2-36.2V119.6a36.2 36.2 0 0 0-36.2-36.2zM182 247a64.9 64.9 0 1 1 64.9-65 65 65 0 0 1-64.9 65zm67-116.4a15.4 15.4 0 1 1 15.3-15.3 15.4 15.4 0 0 1-15.3 15.3zm-67 14a37.5 37.5 0 1 0 37.5 37.5 37.5 37.5 0 0 0-37.5-37.5zM0 0v364h364V0H0zm308 244.4a63.6 63.6 0 0 1-63.6 63.6H119.6A63.6 63.6 0 0 1 56 244.4V119.6A63.6 63.6 0 0 1 119.6 56h124.8a63.6 63.6 0 0 1 63.6 63.6v124.8z"/>
</svg>
