<?xml version="1.0" encoding="UTF-8"?><!DOCTYPE svg PUBLIC "-//W3C//DTD SVG 1.1//EN" "http://www.w3.org/Graphics/SVG/1.1/DTD/svg11.dtd"><svg xmlns="http://www.w3.org/2000/svg"><symbol id="facebook-icon"><path fill-rule="evenodd" d="M0 0v612h612V0H0zm404.9 168.4H357c-9.4 0-19 9.8-19 17.1v48.8h66.8c-2.7 37.4-8.2 71.6-8.2 71.6h-59v212H250v-212h-43v-71.4h43v-58.3c0-10.6-2.2-82 90-82h65v74.2z"/></symbol><symbol id="instagram-icon"><path fill-rule="evenodd" d="M244.4 83.4H119.6a36.2 36.2 0 0 0-36.2 36.2v124.8a36.2 36.2 0 0 0 36.2 36.2h124.8a36.2 36.2 0 0 0 36.2-36.2V119.6a36.2 36.2 0 0 0-36.2-36.2zM182 247a64.9 64.9 0 1 1 64.9-65 65 65 0 0 1-64.9 65zm67-116.4a15.4 15.4 0 1 1 15.3-15.3 15.4 15.4 0 0 1-15.3 15.3zm-67 14a37.5 37.5 0 1 0 37.5 37.5 37.5 37.5 0 0 0-37.5-37.5zM0 0v364h364V0H0zm308 244.4a63.6 63.6 0 0 1-63.6 63.6H119.6A63.6 63.6 0 0 1 56 244.4V119.6A63.6 63.6 0 0 1 119.6 56h124.8a63.6 63.6 0 0 1 63.6 63.6v124.8z"/></symbol><symbol id="pinterest-icon"><path fill-rule="evenodd" d="M0 0v612h612V0H0zm338.726 400.335c-26.324 0-51.077-14.145-59.489-30.34 0 0-14.144 56.076-17.1 66.957-10.545 38.249-41.6 76.5-43.962 79.6a3.257 3.257 0 0 1-5.816-1.38c-.648-4.918-8.58-53.126.733-92.443l31.3-132.659s-7.762-15.526-7.762-38.5c0-36.114 20.923-63.024 47-63.024 22.158 0 32.788 16.594 32.788 36.555 0 22.221-14.145 55.575-21.49 86.374-6.067 25.841 12.91 46.849 38.4 46.849 46.179 0 77.167-59.173 77.167-129.31 0-53.378-35.883-93.343-101.271-93.343-73.8 0-119.811 55.093-119.811 116.547 0 21.259 6.277 36.22 16.09 47.749 4.5 5.4 5.064 7.512 3.515 13.642-1.233 4.5-3.85 15.211-5.064 19.542-1.548 6.133-6.633 8.329-12.177 6.048C157.857 325.3 142 288.1 142 246.164c0-69.129 58.191-152.01 173.922-152.01 92.941 0 154.078 67.27 154.078 139.438 0 95.455-53.04 166.743-131.274 166.743z"/></symbol><symbol id="vk_icon"><g fill="#FFF"><path d="M16.637 14.495c.402-.019.719-.082.951-.188.326-.145.54-.33.641-.559.101-.229.15-.496.15-.797 0-.232-.058-.465-.174-.697-.116-.232-.322-.405-.617-.517-.264-.1-.592-.155-.984-.165a76.242 76.242 0 0 0-1.652-.014h-.339v2.965h.565c.571 0 1.057-.009 1.459-.028zm1.481 2.589c-.282-.081-.672-.125-1.166-.132a127.97 127.97 0 0 0-1.55-.009h-.79v3.493h.264c1.014 0 1.74-.003 2.18-.009a3.2 3.2 0 0 0 1.212-.245c.377-.157.633-.364.774-.625s.214-.562.214-.9c0-.446-.088-.788-.261-1.03-.17-.241-.464-.423-.877-.543z"/><path d="M16 0C7.164 0 0 7.164 0 16c0 8.837 7.164 16 16 16 8.837 0 16-7.163 16-16 0-8.836-7.163-16-16-16zm6.602 20.531a3.73 3.73 0 0 1-1.124 1.327c-.552.415-1.161.71-1.823.886s-1.501.264-2.519.264h-6.121V8.987h5.443c1.13 0 1.957.038 2.48.113a5.126 5.126 0 0 1 1.561.5c.533.27.929.632 1.189 1.087.26.455.392.975.392 1.558 0 .678-.179 1.278-.536 1.795-.358.518-.863.92-1.517 1.208v.075c.917.182 1.642.559 2.179 1.13.537.571.807 1.325.807 2.261 0 .678-.138 1.283-.411 1.817z"/></g></symbol></svg>