<svg  xmlns="http://www.w3.org/2000/svg"
 xmlns:xlink="http://www.w3.org/1999/xlink"
 width="612px" height="612px">
<path fill-rule="evenodd"  fill="rgb(0, 0, 0)"
 d="M-0.000,-0.000 L-0.000,612.000 L612.000,612.000 L612.000,-0.000 L-0.000,-0.000 ZM458.796,338.587 C472.845,352.293 487.701,365.197 500.310,380.350 C505.882,387.045 511.151,393.952 515.168,401.710 C520.870,412.825 515.702,425.004 505.773,425.675 L444.068,425.648 C428.142,426.957 415.450,420.535 404.746,409.640 C396.234,400.964 388.278,391.678 380.061,382.707 C376.718,379.014 373.182,375.560 368.979,372.805 C360.550,367.343 353.238,369.001 348.420,377.780 C343.520,386.724 342.369,396.652 341.917,406.611 C341.246,421.147 336.859,424.950 322.269,425.649 C291.054,427.096 261.449,422.352 233.955,406.639 C209.674,392.774 190.883,373.175 174.525,351.013 C142.644,307.804 118.227,260.368 96.305,211.566 C91.350,200.568 94.969,194.674 107.063,194.461 C127.226,194.063 147.380,194.112 167.515,194.435 C175.705,194.572 181.139,199.252 184.271,206.989 C195.167,233.764 208.496,259.245 225.226,282.887 C229.700,289.177 234.251,295.441 240.699,299.883 C247.847,304.810 253.309,303.200 256.680,295.195 C258.825,290.111 259.764,284.704 260.216,279.269 C261.819,260.662 262.011,242.036 259.250,223.485 C257.536,211.889 250.979,204.392 239.417,202.199 C233.523,201.075 234.407,198.909 237.245,195.531 C242.227,189.727 246.915,186.107 256.201,186.107 L325.937,186.107 C336.936,188.252 339.403,193.206 340.897,204.261 L340.952,281.762 C340.822,286.045 343.098,298.730 350.779,301.540 C356.934,303.575 361.031,298.620 364.726,294.714 C381.427,276.991 393.344,256.035 403.992,234.352 C408.707,224.819 412.778,214.917 416.739,205.006 C419.658,197.673 424.209,194.062 432.480,194.192 L499.621,194.274 C501.601,194.274 503.637,194.274 505.590,194.596 C516.883,196.549 519.989,201.422 516.479,212.476 C510.997,229.793 500.258,244.252 489.794,258.733 C478.574,274.235 466.638,289.195 455.502,304.779 C445.330,319.049 446.132,326.223 458.796,338.587 Z"/>
</svg>
