<?xml version="1.0" standalone="no"?>
<!DOCTYPE svg PUBLIC "-//W3C//DTD SVG 1.1//EN" "http://www.w3.org/Graphics/SVG/1.1/DTD/svg11.dtd" >
<svg>
<metadata>
Created by FontForge 20090622 at Wed Oct 31 17:22:31 2018
 By deploy user
&#194;&#169; 2014 - 2018 Adobe Systems Incorporated (http://www.adobe.com/), with Reserved Font Name &#226;&#128;&#152;Source&#226;&#128;&#153;.
</metadata>
<defs>
<font id="SourceSerifPro-Light" horiz-adv-x="0" >
  <font-face 
    font-family="Source Serif Pro Light"
    font-weight="300"
    font-stretch="normal"
    units-per-em="1000"
    panose-1="2 4 3 3 5 4 5 2 2 4"
    ascent="730"
    descent="-270"
    x-height="472"
    cap-height="674"
    bbox="-213 -335 2230 976"
    underline-thickness="50"
    underline-position="-25"
    unicode-range="U+0021-U+1F16B"
  />
<missing-glyph horiz-adv-x="640" 
d="M80 0v674h480v-674h-480zM141 33h358l-179 274zM119 614v-554l182 277zM340 337l181 -277v554zM141 641l179 -274l179 274h-358z" />
    <glyph glyph-name="f_f" unicode="ff" horiz-adv-x="655" 
d="M34 0v26l92 10q2 116 2 174v226h-94v30l94 8q4 85 21.5 137t51.5 87q54 57 127 57q31 0 54.5 -11.5t29.5 -30.5q-1 -13 -11.5 -21.5t-27.5 -8.5q-24 0 -64 29l-19 15q-36 -11 -64 -48q-49 -67 -48 -207h232l19 2q7 160 70 224q53 57 124 57q32 0 55 -11.5t29 -30.5
q-2 -30 -39 -30q-24 0 -64 29l-20 15q-35 -13 -61 -48q-46 -61 -45 -207h154v-36h-153v-226q0 -58 2 -174l100 -10v-26h-246v26l92 10q2 116 2 174v226h-251v-226q0 -58 2 -174l100 -10v-26h-246z" />
    <glyph glyph-name="f_i" unicode="fi" horiz-adv-x="618" 
d="M34 0v26l92 10q2 116 2 174v226h-94v30l94 8q4 81 23 134t60 92q56 55 144 55q50 0 84.5 -18.5t38.5 -46.5q-2 -11 -11.5 -19t-23.5 -8q-24 0 -61 34l-28 32q-72 -5 -116 -50q-61 -61 -60 -207h236l72 10l12 -8l-3 -122v-142q0 -72 2 -174l77 -10v-26h-214v26l84 10
q2 102 2 174v49q0 99 -3 177h-265v-226q0 -58 2 -174l100 -10v-26h-246z" />
    <glyph glyph-name="f_l" unicode="fl" horiz-adv-x="602" 
d="M40 0l-6 26l92 10q2 116 2 174v226h-94v30l94 8q4 87 23.5 139.5t61.5 87.5q63 54 143 54q60 0 90 -22l26 12l9 -6l-3 -144v-385q0 -68 2 -174l90 -10v-26h-235v26l92 10q2 106 2 174v475h-3q-33 0 -80 35l-10 8q-61 -11 -100 -51q-31 -31 -45 -78t-13 -127h153v-36h-153
v-226q0 -58 2 -174l100 -10v-26h-240z" />
    <glyph glyph-name="f_f_i" unicode="ffi" horiz-adv-x="918" 
d="M34 0v26l92 10q2 116 2 174v226h-94v30l94 8q4 85 21.5 137t51.5 87q54 57 127 57q31 0 54.5 -11.5t29.5 -30.5q-1 -13 -11.5 -21.5t-27.5 -8.5q-24 0 -64 29l-19 15q-36 -11 -64 -48q-49 -67 -48 -207h232l19 2q4 81 23 134t60 92q56 55 144 55q50 0 84.5 -18.5
t38.5 -46.5q-2 -11 -11.5 -19t-23.5 -8q-24 0 -61 34l-28 32q-72 -5 -116 -50q-61 -61 -60 -207h236l72 10l12 -8l-3 -122v-142q0 -72 2 -174l77 -10v-26h-214v26l84 10q2 102 2 174v49q0 99 -3 177h-265v-226q0 -58 2 -174l100 -10v-26h-246v26l92 10q2 116 2 174v226h-251
v-226q0 -58 2 -174l100 -10v-26h-246z" />
    <glyph glyph-name="f_f_l" unicode="ffl" horiz-adv-x="903" 
d="M34 0v26l92 10q2 116 2 174v226h-94v30l94 8q4 85 21.5 137t51.5 87q54 57 127 57q31 0 54.5 -11.5t29.5 -30.5q-1 -13 -11.5 -21.5t-27.5 -8.5q-24 0 -64 29l-19 15q-36 -11 -64 -48q-49 -67 -48 -207h232l19 2q4 87 23.5 139.5t61.5 87.5q63 54 143 54q60 0 90 -22
l26 12l9 -6l-3 -144v-385q0 -68 2 -174l90 -10v-26h-235v26l92 10q2 106 2 174v475h-3q-33 0 -80 35l-10 8q-61 -11 -100 -51q-31 -31 -45 -78t-13 -127h153v-36h-153v-226q0 -58 2 -174l100 -10v-26h-240l-6 26l92 10q2 116 2 174v226h-251v-226q0 -58 2 -174l100 -10v-26
h-246z" />
    <glyph glyph-name="f_t" unicode="ft" horiz-adv-x="632" 
d="M128 210v226h-94v30l94 8q7 160 70 224q53 57 124 57q32 0 55 -11.5t29 -30.5q-2 -30 -39 -30q-24 0 -64 29l-20 15q-35 -13 -61 -48q-46 -61 -45 -207h240l17 143h36l-4 -143h141v-36h-142v-328q0 -86 65 -86q35 0 72 22l14 -20q-37 -37 -98 -37q-106 0 -103 119
q0 9 0.5 32t0.5 40v258h-238v-226q0 -58 2 -174l100 -10v-26h-246v26l92 10q2 116 2 174z" />
    <glyph glyph-name=".notdef" horiz-adv-x="640" 
d="M80 0v674h480v-674h-480zM141 33h358l-179 274zM119 614v-554l182 277zM340 337l181 -277v554zM141 641l179 -274l179 274h-358z" />
    <glyph glyph-name=".null" 
 />
    <glyph glyph-name="nonmarkingreturn" horiz-adv-x="333" 
 />
    <glyph glyph-name="space" unicode="&#xa0;" horiz-adv-x="242" 
 />
    <glyph glyph-name="space" unicode=" " horiz-adv-x="242" 
 />
    <glyph glyph-name="exclam" unicode="!" horiz-adv-x="264" 
d="M132 -11q-18 0 -31 12.5t-13 30.5t12.5 31t31.5 13t31.5 -13t12.5 -31t-12.5 -30.5t-31.5 -12.5zM132 692q34 0 34 -41q0 -1 -14 -263l-8 -199h-24l-7 199q-14 262 -14 263q0 41 33 41z" />
    <glyph glyph-name="quotedbl" unicode="&#x22;" horiz-adv-x="314" 
d="M81 744q32 0 32 -43q0 -15 -2 -40t-5.5 -59.5t-4.5 -51.5l-8 -97h-24l-8 97q-1 21 -6.5 76.5t-5.5 74.5q0 43 32 43zM233 744q32 0 32 -43q0 -15 -2 -40t-5.5 -59.5t-4.5 -51.5l-8 -97h-24l-8 97q-1 21 -6.5 76.5t-5.5 74.5q0 43 32 43z" />
    <glyph glyph-name="numbersign" unicode="#" horiz-adv-x="516" 
d="M158 246h171l26 174h-171zM90 0l30 197h-96v49h103l26 174h-96v48h103l28 183h31l-28 -183h171l28 183h32l-28 -183h98v-48h-105l-27 -174h99v-49h-106l-30 -197h-31l30 197h-171l-30 -197h-31z" />
    <glyph glyph-name="dollar" unicode="$" horiz-adv-x="493" 
d="M240 -115v102q-78 1 -127 38t-61 102q6 25 32 25q31 0 40 -39l19 -73q41 -20 97 -22v290l-16 6q-75 31 -112 74.5t-37 107.5q0 72 46.5 117t118.5 50v94h30v-93q65 -4 111 -41.5t57 -98.5q-6 -25 -31 -25q-30 0 -40 39l-20 75q-34 17 -77 19v-279l4 -1q94 -37 130 -84
t36 -109q0 -74 -47.5 -119t-123.5 -52v-103h-29zM393 152q0 48 -27 80.5t-97 63.5v-277q56 6 90 41.5t34 91.5zM122 504q0 -91 118 -139v266q-54 -6 -86 -38.5t-32 -88.5z" />
    <glyph glyph-name="percent" unicode="%" horiz-adv-x="860" 
d="M207 -23l-22 16l473 680l22 -17zM126 457q0 -181 84 -181q36 0 59.5 42t23.5 139q0 98 -23.5 140t-59.5 42q-84 0 -84 -182zM210 664q55 0 92.5 -51.5t37.5 -155.5q0 -103 -37.5 -154t-92.5 -51q-56 0 -94 51t-38 154q0 104 38 155.5t94 51.5zM568 196q0 -181 84 -181
q36 0 59.5 42t23.5 139q0 98 -23.5 140t-59.5 42q-84 0 -84 -182zM652 403q55 0 92.5 -51.5t37.5 -155.5q0 -103 -37.5 -154t-92.5 -51q-56 0 -94 51t-38 154q0 104 38 155.5t94 51.5z" />
    <glyph glyph-name="ampersand" unicode="&#x26;" horiz-adv-x="715" 
d="M210 437q6 -8 16.5 -20t12.5 -15q64 41 94.5 76.5t30.5 83.5q0 45 -27 72.5t-71 27.5q-45 0 -76.5 -29.5t-31.5 -75.5q0 -31 10.5 -57.5t41.5 -62.5zM516 26l-54 61q-84 -100 -214 -100q-92 0 -149 53t-57 130q0 131 157 213l-18 21q-65 74 -65 147q0 62 43 99.5
t107 37.5q67 0 103.5 -35.5t36.5 -90.5q0 -53 -37.5 -94t-113.5 -84l85 -93l135 -145q68 103 89 241l-83 9v28h191v-28l-73 -9q-30 -153 -106 -261l85 -91l96 -10l-3 -26q-28 -7 -60 -7q-65 0 -95 34zM314 251l-98 113q-123 -72 -123 -180q0 -63 45.5 -110.5t119.5 -47.5
q113 0 186 81z" />
    <glyph glyph-name="quotesingle" unicode="'" horiz-adv-x="162" 
d="M81 744q32 0 32 -43q0 -15 -2 -40t-5.5 -59.5t-4.5 -51.5l-8 -97h-24l-8 97q-1 21 -6.5 76.5t-5.5 74.5q0 43 32 43z" />
    <glyph glyph-name="parenleft" unicode="(" horiz-adv-x="322" 
d="M137 278q0 -131 35.5 -235t126.5 -236l-17 -14q-194 214 -194 485t194 485l17 -14q-91 -132 -126.5 -236t-35.5 -235z" />
    <glyph glyph-name="parenright" unicode=")" horiz-adv-x="322" 
d="M185 278q0 131 -35.5 235t-126.5 236l17 14q194 -214 194 -485t-194 -485l-17 14q91 132 126.5 236t35.5 235z" />
    <glyph glyph-name="asterisk" unicode="*" horiz-adv-x="443" 
d="M222 754q26 0 26 -29q0 -1 -11 -111l-6 -56l52 23q101 46 114 46q11 0 18 -7.5t7 -18.5q0 -16 -18.5 -23.5t-70.5 -17.5l-41 -8l-55 -12l38 -42l26 -28.5l23 -25t16.5 -19t12 -18t3.5 -13.5q0 -10 -7.5 -17t-17.5 -7q-5 0 -10 2t-10.5 8t-9.5 11.5t-10.5 16.5l-11.5 19.5
t-13.5 24.5t-15.5 28l-28 49l-28 -49l-15 -26.5l-14 -24.5l-11.5 -20t-11 -17t-10 -11.5t-10.5 -8t-10 -2.5q-10 0 -17.5 7t-7.5 17q0 6 3.5 13t12 17.5l16 19l23.5 25.5l27 29l37 42l-55 11q-101 21 -113 27q-17 8 -17 23q0 11 7.5 18.5t18.5 7.5t114 -47l51 -22l-6 56
q-11 110 -11 111q0 29 27 29z" />
    <glyph glyph-name="plus" unicode="+" horiz-adv-x="530" 
d="M244 89v225h-208v39h208v220h42v-220h208v-39h-208v-225h-42z" />
    <glyph glyph-name="comma" unicode="," horiz-adv-x="300" 
d="M195 7q0 -67 -41 -127.5t-102 -92.5l-11 20q98 63 118 164l-28 22q-28 23 -28 49q0 18 11 30t30 12q23 0 43 -19q8 -25 8 -58z" />
    <glyph glyph-name="hyphen" unicode="&#x2010;" horiz-adv-x="310" 
d="M40 228v42h230v-42h-230z" />
    <glyph glyph-name="hyphen" unicode="&#xad;" horiz-adv-x="310" 
d="M40 228v42h230v-42h-230z" />
    <glyph glyph-name="hyphen" unicode="-" horiz-adv-x="310" 
d="M40 228v42h230v-42h-230z" />
    <glyph glyph-name="period" unicode="." horiz-adv-x="300" 
d="M150 -13q-21 0 -35 14.5t-14 33.5q0 20 14 34.5t35 14.5t35 -14.5t14 -34.5q0 -19 -14 -33.5t-35 -14.5z" />
    <glyph glyph-name="slash" unicode="/" horiz-adv-x="305" 
d="M1 -160l268 870h35l-267 -870h-36z" />
    <glyph glyph-name="zero" unicode="0" horiz-adv-x="493" 
d="M104 324q0 -161 41 -234t102 -73q60 0 101 73.5t41 233.5q0 162 -41 236t-101 74q-61 0 -102 -74t-41 -236zM247 664q84 0 141 -84.5t57 -255.5t-57 -254t-141 -83t-141 83t-57 254t57 255.5t141 84.5z" />
    <glyph glyph-name="one" unicode="1" horiz-adv-x="493" 
d="M88 610l186 50l14 -11l-4 -145v-292q0 -56 2 -174l148 -12v-26h-355v26l154 13q2 116 2 173v395l-147 -25v28z" />
    <glyph glyph-name="two" unicode="2" horiz-adv-x="493" 
d="M49 0v39l174 195q77 88 108 145t31 111q0 64 -36.5 104t-101.5 40q-38 0 -79 -16l-28 -66q-13 -40 -38 -40q-21 0 -32 21q18 62 69.5 96.5t119.5 34.5q86 0 133 -46t47 -125q0 -57 -37 -117t-139 -170l-145 -157h353v-49h-399z" />
    <glyph glyph-name="three" unicode="3" horiz-adv-x="493" 
d="M163 358h40q72 0 116.5 39t44.5 107q0 61 -35 95.5t-98 34.5q-41 0 -79 -14l-21 -61q-6 -20 -14 -28t-23 -8q-23 0 -30 23q16 59 63.5 88.5t111.5 29.5q81 0 129.5 -44t48.5 -115q0 -57 -37.5 -101t-103.5 -62q79 -11 120.5 -55.5t41.5 -114.5q0 -82 -59 -133.5
t-151 -51.5q-71 0 -118.5 30.5t-65.5 90.5q8 25 33 25q23 0 36 -39l21 -61q42 -16 85 -16q79 0 122 42t43 113q0 74 -44 113.5t-132 39.5h-45v33z" />
    <glyph glyph-name="four" unicode="4" horiz-adv-x="493" 
d="M478 210h-114v-210h-49v210h-285v32l301 417h33v-409h114v-40zM71 250h244v340z" />
    <glyph glyph-name="five" unicode="5" horiz-adv-x="493" 
d="M442 203q0 -95 -61 -155.5t-164 -60.5q-70 0 -116.5 31t-62.5 91q8 23 32 23q13 0 21 -8.5t15 -28.5l23 -63q38 -15 83 -15q84 0 130.5 48t46.5 131q0 85 -44.5 129.5t-121.5 44.5q-67 0 -113 -23l-22 3l21 301h317v-49h-288l-14 -216q51 20 110 20q95 0 151.5 -54.5
t56.5 -148.5z" />
    <glyph glyph-name="six" unicode="6" horiz-adv-x="493" 
d="M251 17q59 0 99.5 50t40.5 129q0 78 -36.5 121t-99.5 43q-81 0 -151 -74q-2 -26 -2 -39q0 -106 39.5 -168t109.5 -62zM444 198q0 -89 -57 -150t-136 -61q-95 0 -149 71.5t-54 192.5q0 156 102.5 273t276.5 140l5 -22q-141 -30 -223.5 -115.5t-101.5 -208.5q69 78 162 78
q81 0 128 -54.5t47 -143.5z" />
    <glyph glyph-name="seven" unicode="7" horiz-adv-x="493" 
d="M138 6l260 596h-351v49h392v-32l-246 -619h-49z" />
    <glyph glyph-name="eight" unicode="8" horiz-adv-x="493" 
d="M119 513q0 -48 31.5 -86.5t106.5 -72.5q59 34 85 70t26 85q0 53 -32 89t-90 36q-52 0 -89.5 -33.5t-37.5 -87.5zM49 146q0 57 38 99.5t117 80.5q-132 66 -132 178q0 72 50.5 116t124.5 44q75 0 121 -42.5t46 -111.5q0 -103 -132 -168q87 -40 124.5 -84.5t37.5 -107.5
q0 -73 -55.5 -118t-142.5 -45q-92 0 -144.5 42.5t-52.5 116.5zM98 149q0 -59 40 -95.5t108 -36.5t108.5 36t40.5 94q0 50 -37.5 89t-127.5 78q-70 -37 -101 -74.5t-31 -90.5z" />
    <glyph glyph-name="nine" unicode="9" horiz-adv-x="493" 
d="M95 467q0 -78 43 -123t110 -45q80 0 135 63q1 11 1 32q0 113 -41.5 176.5t-106.5 63.5q-60 0 -100.5 -45t-40.5 -122zM438 402q0 -146 -89 -257.5t-263 -160.5l-8 25q265 94 301 318q-56 -64 -145 -64q-84 0 -139 55.5t-54 146.5q1 88 57 143.5t141 55.5q89 0 144 -71
t55 -191z" />
    <glyph glyph-name="colon" unicode=":" horiz-adv-x="300" 
d="M150 388q-21 0 -35 14.5t-14 33.5q0 20 14 34.5t35 14.5t35 -14.5t14 -34.5q0 -19 -14 -33.5t-35 -14.5zM150 -13q-21 0 -35 14.5t-14 33.5q0 20 14 34.5t35 14.5t35 -14.5t14 -34.5q0 -19 -14 -33.5t-35 -14.5z" />
    <glyph glyph-name="semicolon" unicode=";" horiz-adv-x="300" 
d="M150 388q-21 0 -35 14.5t-14 33.5q0 20 14 34.5t35 14.5t35 -14.5t14 -34.5q0 -19 -14 -33.5t-35 -14.5zM195 7q0 -67 -41 -127.5t-102 -92.5l-11 20q98 63 118 164l-28 22q-28 23 -28 49q0 18 11 30t30 12q23 0 43 -19q8 -25 8 -58z" />
    <glyph glyph-name="less" unicode="&#x3c;" horiz-adv-x="530" 
d="M62 318v31l386 230l19 -34l-360 -211l360 -212l-19 -33z" />
    <glyph glyph-name="equal" unicode="=" horiz-adv-x="530" 
d="M494 214h-458v39h458v-39zM494 414h-458v39h458v-39z" />
    <glyph glyph-name="greater" unicode="&#x3e;" horiz-adv-x="530" 
d="M468 349v-31l-386 -230l-19 34l360 211l-360 212l19 33z" />
    <glyph glyph-name="question" unicode="?" horiz-adv-x="384" 
d="M140 -11q-18 0 -31 12.5t-13 30.5t12.5 31t31.5 13t31.5 -13t12.5 -31t-12.5 -30.5t-31.5 -12.5zM330 486q0 -94 -91 -139l-34 -17q-35 -18 -45 -30t-9 -38l3 -73h-25l-8 38q-12 53 -12 67q0 22 16 38t58 37l39 18q40 23 56.5 47.5t16.5 61.5q0 55 -44 99l-128 20
q-50 7 -50 40q0 29 35 38q59 -12 106 -35.5t81.5 -68.5t34.5 -103z" />
    <glyph glyph-name="at" unicode="@" horiz-adv-x="822" 
d="M282 198q0 -51 20.5 -78.5t56.5 -27.5q50 0 119 68l47 241q-26 39 -71 39q-66 0 -119 -77t-53 -165zM567 54q-41 0 -63.5 21.5t-24.5 61.5q-69 -83 -136 -83q-47 0 -76 32t-29 95q0 102 68.5 196.5t155.5 94.5q43 0 75 -32l27 26l15 -10l-58 -289q-17 -83 57 -83
q65 0 119 69.5t54 187.5q0 135 -79.5 214t-207.5 79q-164 0 -276 -127t-112 -303q0 -155 91.5 -243t229.5 -88q95 0 168 35l9 -20q-82 -43 -188 -43q-156 0 -253.5 93t-97.5 259q0 193 125 329t310 136q144 0 230.5 -90.5t86.5 -236.5q0 -129 -69 -205t-151 -76z" />
    <glyph glyph-name="A" unicode="A" horiz-adv-x="657" 
d="M313 607l-111 -341h224zM9 0v28l82 9l214 643h37l217 -644l93 -8v-28h-257v28l107 9l-66 199h-243l-65 -199l92 -9v-28h-211z" />
    <glyph glyph-name="B" unicode="B" horiz-adv-x="608" 
d="M156 310v54q0 183 -1 274l-102 8v28h259q104 0 159 -43.5t55 -116.5q0 -59 -40 -102.5t-119 -58.5q98 -11 145.5 -57t47.5 -115q0 -79 -62 -130t-183 -51h-262v28l102 8q1 91 1 274zM285 335h-75q0 -215 2 -303h94q95 0 146 39t51 111q0 153 -218 153zM293 642h-81
q-2 -91 -2 -277h66q96 0 146 38.5t50 109.5q0 64 -42.5 96.5t-136.5 32.5z" />
    <glyph glyph-name="C" unicode="C" horiz-adv-x="639" 
d="M388 20q81 0 145 35l18 124h39l-4 -142q-89 -51 -199 -51q-148 0 -239 97.5t-91 253.5q0 154 93 252.5t237 98.5q104 0 191 -51l4 -141h-39l-18 122q-60 37 -131 37q-123 0 -199 -86t-76 -232q0 -147 74.5 -232t194.5 -85z" />
    <glyph glyph-name="D" unicode="D" horiz-adv-x="709" 
d="M156 333v24q0 190 -1 281l-102 8v28h272q153 0 240 -88t87 -250q0 -156 -91 -246t-249 -90h-259v28l102 8q1 91 1 297zM210 333q0 -209 2 -301h90q141 0 214.5 80t73.5 224q0 149 -71 227.5t-205 78.5h-102q-2 -91 -2 -285v-24z" />
    <glyph glyph-name="E" unicode="E" horiz-adv-x="602" 
d="M156 310v54q0 183 -1 274l-102 8v28h483l9 -163h-37l-19 130h-277q-2 -91 -2 -283h179l11 96h30v-224h-30l-11 96h-179q0 -206 2 -293h294l18 130h37l-8 -163h-500v28l102 8q1 91 1 274z" />
    <glyph glyph-name="F" unicode="F" horiz-adv-x="579" 
d="M156 310v54q0 183 -1 274l-102 8v28h484l9 -163h-37l-18 130h-279q-2 -91 -2 -283h182l11 96h30v-228h-30l-12 100h-181q0 -203 2 -290l108 -8v-28h-267v28l102 8q1 91 1 274z" />
    <glyph glyph-name="G" unicode="G" horiz-adv-x="684" 
d="M601 95v-49q-105 -60 -213 -60q-148 0 -239.5 98t-91.5 253t93 253t240 98q112 0 201 -55l4 -141h-39l-18 123q-62 40 -143 40q-124 0 -200 -86t-76 -232q0 -147 74.5 -232t200.5 -85q80 0 153 37v38q0 63 -2 189l-114 7v28h242v-28l-70 -6q-2 -114 -2 -190z" />
    <glyph glyph-name="H" unicode="H" horiz-adv-x="792" 
d="M156 310v54q0 183 -1 274l-102 8v28h261v-28l-102 -8q-2 -90 -2 -270h372q0 184 -1 270l-102 8v28h261v-28l-102 -8q-2 -90 -2 -274v-54q0 -183 2 -274l102 -8v-28h-261v28l102 8q1 91 1 301h-372q0 -214 2 -301l102 -8v-28h-261v28l102 8q1 91 1 274z" />
    <glyph glyph-name="I" unicode="I" horiz-adv-x="366" 
d="M156 310v54q0 183 -1 274l-102 8v28h261v-28l-102 -8q-2 -90 -2 -274v-54q0 -183 2 -274l102 -8v-28h-261v28l102 8q1 91 1 274z" />
    <glyph glyph-name="J" unicode="J" horiz-adv-x="363" 
d="M55 646v28h271v-28l-101 -8q-2 -91 -2 -277v-162q0 -107 -6 -160q-9 -89 -61 -140.5t-123 -51.5q-57 0 -69 32q7 34 48 34q31 0 65 -22l15 -10q79 45 79 177q0 102 -5 580z" />
    <glyph glyph-name="K" unicode="K" horiz-adv-x="664" 
d="M156 310v54q0 183 -1 274l-102 8v28h261v-28l-103 -8q-2 -90 -2 -274v-97l304 369l-98 10v28h227v-28l-85 -9l-191 -230l212 -371l87 -8v-28h-239v28l94 8l-188 330l-123 -148q0 -112 2 -182l103 -8v-28h-261v28l102 8q1 91 1 274z" />
    <glyph glyph-name="L" unicode="L" horiz-adv-x="577" 
d="M156 364q0 184 -1 274l-102 8v28h261v-28l-102 -8q-2 -91 -2 -296v-53q0 -165 2 -256h269l22 140h38l-10 -173h-478v28l102 8q1 91 1 274v54z" />
    <glyph glyph-name="M" unicode="M" horiz-adv-x="899" 
d="M44 0v28l91 9v601l-97 8v28h153l249 -598l243 598h163v-28l-102 -8q-1 -90 -1 -274v-54q0 -183 1 -274l102 -8v-28h-257v28l99 8q1 91 1 268l2 298l-245 -602h-28l-253 603l5 -226v-340l94 -9v-28h-220z" />
    <glyph glyph-name="N" unicode="N" horiz-adv-x="733" 
d="M462 646v28h232v-28l-89 -9v-644h-25l-412 590v-546l110 -9v-28h-233v28l88 9v596l-5 7l-87 6v28h130l400 -577v540z" />
    <glyph glyph-name="O" unicode="O" horiz-adv-x="706" 
d="M119 337q0 -133 62.5 -225t171.5 -92q110 0 172.5 92t62.5 225t-62.5 225.5t-172.5 92.5q-109 0 -171.5 -92.5t-62.5 -225.5zM353 688q125 0 211 -96t86 -255q0 -157 -86 -254t-211 -97t-210.5 96t-85.5 255q0 157 86 254t210 97z" />
    <glyph glyph-name="P" unicode="P" horiz-adv-x="582" 
d="M156 310v54q0 183 -1 274l-102 8v28h259q114 0 173 -52t59 -143t-67.5 -146.5t-201.5 -55.5h-65q0 -159 2 -241l108 -8v-28h-267v28l102 8q1 91 1 274zM301 642h-89q-2 -91 -2 -278v-57h64q110 0 162 46t52 126q0 163 -187 163z" />
    <glyph glyph-name="Q" unicode="Q" horiz-adv-x="706" 
d="M119 337q0 -133 62.5 -225t171.5 -92q110 0 172.5 92t62.5 225t-62.5 225.5t-172.5 92.5q-109 0 -171.5 -92.5t-62.5 -225.5zM353 688q125 0 211 -96t86 -255q0 -150 -78.5 -245.5t-195.5 -104.5q1 -74 37 -115.5t97 -41.5q45 0 90 16l8 -22q-47 -30 -113 -30
q-84 0 -128.5 57t-44.5 137q-114 12 -189.5 106t-75.5 243q0 157 86 254t210 97z" />
    <glyph glyph-name="R" unicode="R" horiz-adv-x="648" 
d="M318 642h-106q-2 -92 -2 -298h110q78 0 125.5 43.5t47.5 110.5q0 144 -175 144zM156 310v54q0 183 -1 274l-102 8v28h267q110 0 169 -45.5t59 -130.5q0 -67 -44 -114.5t-122 -61.5q38 -10 59.5 -34.5t37.5 -73.5l61 -179l90 -7v-28q-24 -7 -67 -7q-39 0 -56.5 11
t-25.5 37l-54 172q-18 58 -45.5 79.5t-92.5 21.5h-79q0 -192 2 -278l102 -8v-28h-261v28l102 8q1 91 1 274z" />
    <glyph glyph-name="S" unicode="S" horiz-adv-x="513" 
d="M238 20q81 0 129 36t48 105q0 53 -31.5 85.5t-115.5 65.5l-37 15q-81 33 -121.5 78.5t-40.5 111.5q0 82 58.5 126.5t145.5 44.5q89 0 162 -50l-4 -124h-37l-15 113q-46 28 -107 28q-69 0 -111.5 -33t-42.5 -95q0 -52 31 -85.5t92 -57.5l39 -15q105 -42 144.5 -86.5
t39.5 -114.5q0 -83 -63 -132.5t-162 -49.5q-109 0 -190 54l5 131h36l15 -116q57 -35 133 -35z" />
    <glyph glyph-name="T" unicode="T" horiz-adv-x="597" 
d="M271 310v54q0 186 -1 277h-194l-19 -136h-37l9 169h539l9 -169h-37l-19 136h-194q-1 -91 -1 -277v-54q0 -183 1 -274l112 -8v-28h-281v28l112 8q1 91 1 274z" />
    <glyph glyph-name="U" unicode="U" horiz-adv-x="733" 
d="M193 266q0 -236 182 -236q101 0 146.5 59t45.5 195v353l-114 9v28h237v-28l-89 -9v-379q0 -136 -59.5 -204t-172.5 -68q-109 0 -169.5 64.5t-60.5 199.5v111q0 186 -2 277l-91 8v28h255v-28l-107 -9q-1 -91 -1 -276v-95z" />
    <glyph glyph-name="V" unicode="V" horiz-adv-x="659" 
d="M320 -7l-227 645l-87 8v28h251v-30l-106 -7l190 -562l182 562l-103 7v30h229v-28l-89 -9l-212 -644h-28z" />
    <glyph glyph-name="W" unicode="W" horiz-adv-x="964" 
d="M662 -7l-178 580l-174 -580h-28l-179 645l-90 8v28h245v-28l-99 -9l147 -545l167 545l-99 9v28h245v-28l-103 -9l166 -549l141 549l-97 9v28h228v-28l-95 -9l-169 -644h-28z" />
    <glyph glyph-name="X" unicode="X" horiz-adv-x="641" 
d="M27 646v28h249v-28l-100 -8l153 -255l154 254l-99 9v28h229v-28l-91 -9l-176 -283l190 -318l90 -8v-28h-250v28l100 8l-163 273l-167 -272l99 -9v-28h-229v28l89 9l191 300l-180 301z" />
    <glyph glyph-name="Y" unicode="Y" horiz-adv-x="634" 
d="M389 646v28h226v-28l-87 -9l-183 -369q0 -164 2 -232l112 -8v-28h-282v28l112 8q2 73 2 230l-185 372l-82 8v28h247v-28l-104 -8l162 -335l163 334z" />
    <glyph glyph-name="Z" unicode="Z" horiz-adv-x="553" 
d="M76 505h-37l8 169h460v-26l-416 -615h375l24 136h37l-9 -169h-492v26l417 615h-344z" />
    <glyph glyph-name="bracketleft" unicode="[" horiz-adv-x="307" 
d="M102 158v240q0 212 -3 317h164v-29l-115 -9q-2 -91 -2 -279v-240q0 -186 2 -279l115 -9v-29h-164q3 103 3 317z" />
    <glyph glyph-name="backslash" unicode="\" horiz-adv-x="305" 
d="M304 -160h-36l-267 870h35z" />
    <glyph glyph-name="bracketright" unicode="]" horiz-adv-x="307" 
d="M205 398v-240q0 -212 3 -317h-164v29l115 9q2 91 2 279v240q0 186 -2 279l-115 9v29h164q-3 -103 -3 -317z" />
    <glyph glyph-name="asciicircum" unicode="^" horiz-adv-x="530" 
d="M89 233l156 253h39l161 -253l-29 -21l-152 233l-146 -233z" />
    <glyph glyph-name="underscore" unicode="_" horiz-adv-x="510" 
d="M40 -55v42h430v-42h-430z" />
    <glyph glyph-name="grave" unicode="&#x2cb;" horiz-adv-x="400" 
d="M250 574l-17 -13l-116 114q-30 30 -30 46q0 11 7.5 18t17.5 7q16 0 42 -35z" />
    <glyph glyph-name="grave" unicode="`" horiz-adv-x="400" 
d="M250 574l-17 -13l-116 114q-30 30 -30 46q0 11 7.5 18t17.5 7q16 0 42 -35z" />
    <glyph glyph-name="a" unicode="a" horiz-adv-x="506" 
d="M421 -12q-68 0 -77 91q-47 -50 -82.5 -71t-81.5 -21q-56 0 -91.5 31.5t-35.5 88.5q0 50 36 85.5t119 64.5q60 20 135 37v28q0 76 -26 104t-84 28q-45 0 -83 -19l-19 -64q-9 -31 -35 -31t-31 28q15 55 62 86t116 31q76 0 112.5 -37t36.5 -119v-221q0 -47 11 -66t34 -19
q19 0 41 19l14 -17q-28 -37 -71 -37zM105 117q0 -43 25 -65.5t68 -22.5q35 0 66 18t79 63v158q-63 -15 -126 -38q-112 -42 -112 -113z" />
    <glyph glyph-name="b" unicode="b" horiz-adv-x="578" 
d="M321 24q66 0 110 54.5t44 159.5q0 100 -42 154.5t-110 54.5q-76 0 -147 -74v-278q68 -71 145 -71zM41 0v26l84 9q2 102 2 175v479l-88 4v26l124 26l15 -8l-3 -142v-191q68 81 161 81q85 0 138.5 -67t53.5 -176q0 -115 -55.5 -185t-145.5 -70q-89 0 -152 78l-5 -71z" />
    <glyph glyph-name="c" unicode="c" horiz-adv-x="487" 
d="M277 454q-77 0 -126.5 -58.5t-49.5 -155.5q0 -96 50 -154t128 -58q91 0 150 71l17 -11q-57 -101 -176 -101q-100 0 -161 68t-61 180q0 113 67.5 181.5t161.5 68.5q58 0 104 -31t63 -84q-6 -27 -32 -27q-27 0 -37 30l-22 63q-36 18 -76 18z" />
    <glyph glyph-name="d" unicode="d" horiz-adv-x="571" 
d="M103 230q0 -99 43.5 -152.5t113.5 -53.5q79 0 142 76v280q-66 67 -135 67q-72 0 -118 -55t-46 -162zM548 0l-144 -8l-2 73q-60 -78 -153 -78q-88 0 -143.5 68t-55.5 174q0 116 60 186t152 70q80 0 141 -74v278l-89 4v26l126 26l14 -8l-3 -140v-563l97 -8v-26z" />
    <glyph glyph-name="e" unicode="e" horiz-adv-x="498" 
d="M267 454q-64 0 -110 -50.5t-53 -132.5h261q20 0 28 10.5t8 33.5q0 57 -37 98t-97 41zM269 485q81 0 131.5 -53t50.5 -134q0 -32 -7 -57l-341 1q1 -106 51.5 -160t127.5 -54q89 0 150 67l16 -14q-62 -94 -177 -94q-95 0 -158 64.5t-63 183.5q0 111 64 180.5t155 69.5z" />
    <glyph glyph-name="f" unicode="f" horiz-adv-x="354" 
d="M128 210v226h-94v30l94 8q7 160 70 224q53 57 124 57q32 0 55 -11.5t29 -30.5q-2 -30 -39 -30q-24 0 -64 29l-20 15q-35 -13 -61 -48q-46 -61 -45 -207h154v-36h-153v-226q0 -58 2 -174l100 -10v-26h-246v26l92 10q2 116 2 174z" />
    <glyph glyph-name="g" unicode="g" horiz-adv-x="512" 
d="M239 456q-55 0 -88.5 -38t-33.5 -98q0 -61 33 -99t87 -38q55 0 89 38.5t34 99.5q0 60 -33 97.5t-88 37.5zM68 320q0 75 47.5 120t123.5 45q68 0 113 -36l115 31l15 -10v-43h-108q35 -43 35 -107q0 -75 -48 -120t-123 -45q-41 0 -75 14q-42 -47 -42 -81q0 -49 79 -49h139
q69 0 105 -30.5t36 -88.5q0 -67 -60.5 -115t-170.5 -48q-97 0 -150.5 35t-53.5 94q0 71 89 116q-57 17 -57 68q0 49 66 109q-75 41 -75 141zM252 -210q86 0 133.5 33.5t47.5 85.5q0 82 -104 82h-122q-32 0 -55 4q-57 -44 -57 -99q0 -52 41 -79t116 -27z" />
    <glyph glyph-name="h" unicode="h" horiz-adv-x="605" 
d="M127 210v479l-88 4v26l124 26l15 -8l-3 -142v-214q91 104 193 104q61 0 92.5 -41.5t31.5 -134.5v-99q0 -74 2 -174l77 -10v-26h-214v26l84 10q2 102 2 174v96q0 72 -23.5 103t-70.5 31q-85 0 -173 -93v-137q0 -72 2 -174l77 -10v-26h-214v26l84 10q2 102 2 174z" />
    <glyph glyph-name="i" unicode="i" horiz-adv-x="301" 
d="M149 627q-19 0 -32.5 12t-13.5 32t13.5 32.5t32.5 12.5t32.5 -12.5t13.5 -32.5t-13.5 -32t-32.5 -12zM257 26v-26h-214v26l84 10q2 102 2 174v48q0 109 -2 162l-89 4v26l130 32l12 -8l-2 -124v-140q0 -72 2 -174z" />
    <glyph glyph-name="j" unicode="j" horiz-adv-x="277" 
d="M146 627q-19 0 -32.5 12t-13.5 32t13.5 32.5t32.5 12.5t32.5 -12.5t13.5 -32.5t-13.5 -32t-32.5 -12zM126 86v172q0 93 -3 162l-88 4v26l129 32l12 -8l-2 -124v-228q0 -152 -10 -215t-43 -103q-47 -57 -116 -57q-32 0 -50 10.5t-21 24.5q9 28 44 28q27 0 60 -19l17 -10
q24 13 39 38q32 54 32 267z" />
    <glyph glyph-name="k" unicode="k" horiz-adv-x="543" 
d="M39 719l126 26l14 -8l-3 -142v-369l202 207l-85 11v28h225v-28l-93 -8l-131 -132l170 -270l76 -8v-26h-114l-168 268l-82 -83q0 -59 2 -149l81 -10v-26h-220v26l86 10q2 106 2 174v479l-88 4v26z" />
    <glyph glyph-name="l" unicode="l" horiz-adv-x="300" 
d="M39 719l126 26l14 -8l-3 -142v-385q0 -68 2 -174l90 -10v-26h-235v26l92 10q2 106 2 174v479l-88 4v26z" />
    <glyph glyph-name="m" unicode="m" horiz-adv-x="894" 
d="M656 485q125 0 125 -171v-104q0 -74 2 -174l77 -10v-26h-214v26l84 10q2 102 2 174v97q0 133 -92 133q-81 0 -163 -86q2 -28 2 -45v-99q0 -74 2 -174l77 -10v-26h-214v26l84 10q2 102 2 174v96q0 134 -88 134q-79 0 -165 -91v-139q0 -72 2 -174l77 -10v-26h-214v26l84 10
q2 102 2 174v48q0 93 -3 162l-88 4v26l122 32l12 -8l5 -92q91 103 182 103q93 0 114 -101q85 101 184 101z" />
    <glyph glyph-name="n" unicode="n" horiz-adv-x="604" 
d="M368 485q61 0 92 -41.5t31 -134.5v-99q0 -74 2 -174l77 -10v-26h-214v26l84 10q2 102 2 174v96q0 72 -23.5 103t-69.5 31q-84 0 -172 -92v-138q0 -72 2 -174l77 -10v-26h-214v26l84 10q2 102 2 174v48q0 93 -3 162l-88 4v26l122 32l12 -8l5 -92q91 103 192 103z" />
    <glyph glyph-name="o" unicode="o" horiz-adv-x="542" 
d="M271 -13q-90 0 -155.5 64t-65.5 183t65.5 185t155.5 66q89 0 155.5 -66t66.5 -185t-66 -183t-156 -64zM271 17q77 0 121.5 57.5t44.5 159.5q0 103 -45 161.5t-121 58.5q-77 0 -121.5 -58.5t-44.5 -161.5t44.5 -160t121.5 -57z" />
    <glyph glyph-name="p" unicode="p" horiz-adv-x="577" 
d="M474 237q0 100 -41.5 155t-109.5 55q-74 0 -145 -71v-287q65 -65 141 -65q67 0 111 53.5t44 159.5zM128 -33v289q0 95 -3 164l-87 4v26l122 32l12 -8l3 -70q70 81 161 81q85 0 138.5 -67.5t53.5 -176.5q0 -116 -55.5 -185t-146.5 -69q-90 0 -150 71v-90q0 -67 2 -175
l98 -10v-26h-236v26l86 10q2 106 2 174z" />
    <glyph glyph-name="q" unicode="q" horiz-adv-x="550" 
d="M103 230q0 -100 43.5 -153t113.5 -53q79 0 143 77v278q-67 68 -136 68q-72 0 -118 -55t-46 -162zM453 -32q0 -59 2 -175l87 -10v-26h-236v26l97 10q2 116 2 175v101q-61 -82 -156 -82q-88 0 -143.5 67.5t-55.5 174.5q0 116 59.5 186t150.5 70q82 0 146 -76l32 70l18 -6
l-3 -135v-370z" />
    <glyph glyph-name="r" unicode="r" horiz-adv-x="411" 
d="M43 0v26l83 10q2 102 2 174v48q0 93 -3 162l-88 4v26l122 32l12 -8l6 -125q23 61 66.5 98.5t91.5 37.5q23 0 42.5 -9t26.5 -21q0 -47 -42 -47q-23 0 -54 26l-11 10q-76 -32 -120 -145v-89q0 -72 2 -174l90 -10v-26h-226z" />
    <glyph glyph-name="s" unicode="s" horiz-adv-x="429" 
d="M201 -13q-71 0 -145 34l-4 104h35l16 -88q42 -20 100 -20q63 0 96 25.5t33 67.5q0 35 -22.5 57t-79.5 42l-47 17q-119 43 -119 130q0 56 42.5 92.5t118.5 36.5q67 0 135 -41l-3 -94h-33l-11 80q-41 24 -91 24q-54 0 -82 -24t-28 -62q0 -35 22 -55.5t76 -40.5l42 -16
q70 -26 99 -57.5t29 -77.5q0 -57 -46.5 -95.5t-132.5 -38.5z" />
    <glyph glyph-name="t" unicode="t" horiz-adv-x="328" 
d="M161 108q0 -86 65 -86q35 0 73 22l13 -20q-37 -37 -98 -37q-105 0 -103 119q0 9 0.5 32t0.5 40v258h-99v30l100 7l17 142h37l-5 -143h141v-36h-142v-328z" />
    <glyph glyph-name="u" unicode="u" horiz-adv-x="595" 
d="M551 0l-121 -7l-3 95q-81 -101 -181 -101q-69 0 -102 42.5t-32 142.5l3 259l-82 10v27l124 8l9 -11l-4 -139v-148q0 -79 24.5 -112.5t75.5 -33.5q87 0 164 88l2 312l-81 9v27l123 8l9 -11l-3 -139v-291l75 -9v-26z" />
    <glyph glyph-name="v" unicode="v" horiz-adv-x="497" 
d="M307 444v28h186v-28l-64 -8l-165 -442h-27l-176 443l-67 7v28h212v-28l-86 -8l140 -374l134 373z" />
    <glyph glyph-name="w" unicode="w" horiz-adv-x="763" 
d="M573 444v28h183v-28l-61 -9l-145 -441h-24l-140 404l-143 -404h-25l-155 442l-66 8v28h207v-28l-85 -8l120 -364l130 364l-75 8v28h198v-28l-76 -8l130 -364l113 363z" />
    <glyph glyph-name="x" unicode="x" horiz-adv-x="510" 
d="M311 444v28h180v-28l-65 -8l-147 -192l150 -209l71 -9v-26h-208v26l78 9l-122 174l-130 -174l75 -9v-26h-183v26l67 9l154 198l-144 203l-70 8v28h197v-28l-72 -8l120 -169l124 168z" />
    <glyph glyph-name="y" unicode="y" horiz-adv-x="500" 
d="M67 -253q-29 0 -52 12t-26 33q6 29 46 29q26 0 60 -28l8 -8q74 36 118 156l16 44l-177 454l-67 7v26h212v-27l-88 -7l144 -388l139 387l-88 9v26h188v-26l-62 -8l-180 -480q-79 -211 -191 -211z" />
    <glyph glyph-name="z" unicode="z" horiz-adv-x="456" 
d="M53 472h354v-26l-304 -417h262l25 120h33l-8 -149h-371v26l303 417h-246l-22 -110l-33 4z" />
    <glyph glyph-name="braceleft" unicode="{" horiz-adv-x="346" 
d="M40 264v28q127 12 127 96q0 20 -23 90t-23 114q0 123 156 123h39v-29l-33 -2q-67 -5 -92 -25.5t-25 -68.5q0 -44 16.5 -110t16.5 -87q0 -96 -99 -115q99 -19 99 -115q0 -21 -16.5 -87t-16.5 -110q0 -48 25 -68.5t92 -25.5l33 -2v-29h-39q-156 0 -156 123q0 43 23 113.5
t23 90.5q0 84 -127 96z" />
    <glyph glyph-name="bar" unicode="|" horiz-adv-x="244" 
d="M103 -250v1000h38v-1000h-38z" />
    <glyph glyph-name="braceright" unicode="}" horiz-adv-x="346" 
d="M306 292v-28q-127 -12 -127 -96q0 -20 23 -90.5t23 -113.5q0 -123 -156 -123h-39v29l33 2q67 5 92 25.5t25 68.5q0 44 -16.5 110t-16.5 87q0 96 99 115q-99 19 -99 115q0 21 16.5 87t16.5 110q0 48 -25 68.5t-92 25.5l-33 2v29h39q156 0 156 -123q0 -44 -23 -114t-23 -90
q0 -84 127 -96z" />
    <glyph glyph-name="asciitilde" unicode="~" horiz-adv-x="530" 
d="M282 357q41 -40 84 -40q63 0 75 87l34 -5q-4 -56 -33 -88.5t-79 -32.5q-55 0 -111 53q-42 42 -84 42q-65 0 -77 -88l-33 6q4 56 33 88t79 32q53 0 112 -54z" />
    <glyph glyph-name="exclamdown" unicode="&#xa1;" horiz-adv-x="264" 
d="M133 493q19 0 31.5 -12.5t12.5 -30.5t-12.5 -31t-31.5 -13t-31.5 13t-12.5 31t12.5 30.5t31.5 12.5zM133 -210q-34 0 -34 41q0 1 14 263l8 199h24l7 -199q14 -262 14 -263q0 -41 -33 -41z" />
    <glyph glyph-name="cent" unicode="&#xa2;" horiz-adv-x="493" 
d="M281 -48h-31v113q-90 5 -145.5 73.5t-55.5 176.5q0 105 58 172.5t143 77.5v99h31v-98q57 -2 101 -33t60 -82q-6 -27 -32 -27q-30 0 -41 42l-18 52q-34 15 -70 17v-430q91 3 146 71l17 -11q-53 -94 -163 -101v-112zM102 319q0 -88 40.5 -145.5t107.5 -66.5v426
q-66 -9 -107 -66.5t-41 -147.5z" />
    <glyph glyph-name="sterling" unicode="&#xa3;" horiz-adv-x="493" 
d="M39 0v33q115 81 115 208q0 30 -6 54h-109v35h99q-4 13 -13.5 37t-15 39.5t-10 39.5t-4.5 47q0 76 48.5 123.5t126.5 47.5q64 0 111 -35t63 -92q-8 -21 -30 -21q-27 0 -38 39l-26 63q-33 16 -72 16q-59 0 -93 -36.5t-34 -102.5q0 -29 4.5 -56t13.5 -60.5t12 -48.5h203v-35
h-197q3 -22 3 -47q0 -126 -94 -200h361v-48h-418z" />
    <glyph glyph-name="currency" unicode="&#xa4;" horiz-adv-x="494" 
d="M119 333q0 -57 37.5 -93.5t91.5 -36.5q53 0 90 37.5t37 92.5q0 56 -37 93t-90 37q-54 0 -91.5 -37t-37.5 -93zM83 333q0 64 40 109l-37 25q-57 37 -57 59q0 10 7.5 18t18.5 8q21 0 58 -57l27 -38q46 38 108 38q61 0 107 -38l26 37q37 57 59 57q10 0 18 -7.5t8 -18.5
q0 -21 -57 -58l-37 -26q40 -45 40 -108q0 -65 -40 -108l36 -26q57 -38 57 -59q0 -10 -7.5 -17.5t-18.5 -7.5q-21 0 -58 57l-26 37q-46 -38 -107 -38t-109 38l-26 -37q-37 -57 -59 -57q-10 0 -18 7.5t-8 18.5q0 21 57 58l38 26q-40 45 -40 108z" />
    <glyph glyph-name="yen" unicode="&#xa5;" horiz-adv-x="493" 
d="M55 146v34h168v85h-168v35h153l-145 317l-69 7v27h215v-27l-90 -8l138 -312l138 311l-89 9v27h193v-27l-69 -9l-144 -315h152v-35h-168v-1v-84h168v-34h-168q0 -19 2 -109l107 -9v-28h-265v28l107 9q2 90 2 109h-168z" />
    <glyph glyph-name="brokenbar" unicode="&#xa6;" horiz-adv-x="244" 
d="M104 -250v450h38v-450h-38zM142 320h-38v430h38v-430z" />
    <glyph glyph-name="section" unicode="&#xa7;" horiz-adv-x="483" 
d="M264 688q62 0 104.5 -29.5t54.5 -78.5q-6 -26 -31 -26q-23 0 -39 31l-27 61q-27 12 -59 12q-57 0 -87 -26.5t-30 -71.5q0 -40 29.5 -68t101.5 -61q80 -36 113.5 -69.5t33.5 -85.5q0 -82 -90 -133q45 -43 45 -100q0 -62 -45 -102.5t-121 -40.5q-62 0 -104 29.5t-54 78.5
q6 26 31 26q24 0 39 -31l27 -61q29 -12 59 -12q60 0 91.5 28t31.5 74q0 43 -29 71.5t-102 62.5q-78 35 -112.5 71t-34.5 91q0 82 85 130q-40 40 -40 94q0 58 42 97t117 39zM229 210q58 -26 91 -52q65 46 65 108q0 39 -28.5 65t-99.5 57q-57 26 -94 54q-59 -40 -59 -105
q0 -42 29.5 -70t95.5 -57z" />
    <glyph glyph-name="dieresis" unicode="&#xa8;" horiz-adv-x="400" 
d="M298 625q-17 0 -29 11t-12 29t12 29t29 11t29 -11t12 -29t-12 -29t-29 -11zM102 625q-17 0 -29 11t-12 29t12 29t29 11t29 -11t12 -29t-12 -29t-29 -11z" />
    <glyph glyph-name="copyright" unicode="&#xa9;" horiz-adv-x="758" 
d="M66 339q0 -148 88.5 -236t224.5 -88q135 0 224.5 89t89.5 235q0 145 -89 232.5t-225 87.5t-224.5 -87t-88.5 -233zM30 339q0 159 100.5 254t248.5 95q149 0 249 -95t100 -254q0 -160 -100.5 -256.5t-248.5 -96.5t-248.5 96.5t-100.5 256.5zM396 159q43 0 76 16l10 74h32
l-2 -88q-52 -30 -118 -30q-87 0 -140.5 58t-53.5 150q0 91 54.5 150t139.5 59q60 0 114 -30l2 -89h-32l-11 76q-30 15 -68 15q-69 0 -111 -48.5t-42 -132.5q0 -83 41.5 -131.5t108.5 -48.5z" />
    <glyph glyph-name="ordfeminine" unicode="&#xaa;" horiz-adv-x="339" 
d="M264 502q0 -49 25 -49q13 0 29 13l11 -10q-19 -30 -51 -30q-50 0 -55 56q-32 -32 -54.5 -45.5t-52.5 -13.5q-38 0 -62 21.5t-24 59.5q0 33 24 57t82 43q21 7 86 23v20q0 49 -16 66.5t-53 17.5q-25 0 -48 -9l-12 -41q-6 -27 -29 -27q-22 0 -25 22q11 37 44.5 58t82.5 21
q50 0 74 -25.5t24 -82.5v-145zM74 512q0 -28 17 -42t42 -14q20 0 38.5 10.5t50.5 37.5v104q-52 -13 -77 -23q-71 -26 -71 -73z" />
    <glyph glyph-name="guillemotleft" unicode="&#xab;" horiz-adv-x="477" 
d="M238 49l-214 188v31l214 188l17 -19l-175 -184l175 -185zM432 49l-214 188v31l214 188l17 -19l-175 -184l175 -185z" />
    <glyph glyph-name="logicalnot" unicode="&#xac;" horiz-adv-x="530" 
d="M33 352v39h459v-222h-41v183h-418z" />
    <glyph glyph-name="registered" unicode="&#xae;" horiz-adv-x="458" 
d="M57 516q0 -76 50.5 -125t121.5 -49t121.5 49t50.5 125q0 75 -51 123.5t-121 48.5t-121 -48.5t-51 -123.5zM30 516q0 87 59 141.5t140 54.5t140 -54.5t59 -141.5t-59 -142.5t-140 -55.5q-82 0 -140.5 55.5t-58.5 142.5zM330 432v-13q-9 -2 -23 -2q-30 0 -35 19l-13 47
q-7 26 -36 26h-17v-75l28 -2v-13h-87v13l28 2v171l-28 3v13h83q35 0 54 -14t19 -38q0 -43 -51 -53q30 -6 39 -33l14 -49zM224 607h-18v-84h20q22 0 33.5 12t11.5 32q0 40 -47 40z" />
    <glyph glyph-name="macron" unicode="&#x2c9;" horiz-adv-x="400" 
d="M76 617v40h248v-40h-248z" />
    <glyph glyph-name="macron" unicode="&#xaf;" horiz-adv-x="400" 
d="M76 617v40h248v-40h-248z" />
    <glyph glyph-name="degree" unicode="&#xb0;" horiz-adv-x="313" 
d="M157 475q37 0 62 25.5t25 66.5t-25 67.5t-62 26.5t-62 -26.5t-25 -67.5t25 -66.5t62 -25.5zM157 447q-50 0 -84.5 33.5t-34.5 86.5t35 87t84 34t84 -34t35 -87t-34.5 -86.5t-84.5 -33.5z" />
    <glyph glyph-name="plusminus" unicode="&#xb1;" horiz-adv-x="530" 
d="M494 0h-458v38h458v-38zM244 98v216h-208v39h208v212h42v-212h208v-39h-208v-216h-42z" />
    <glyph glyph-name="two.sups" unicode="&#xb2;" horiz-adv-x="352" 
d="M52 433v34l113 113q80 81 80 148q0 38 -22 60.5t-62 22.5q-19 0 -42 -6l-15 -40q-9 -35 -29 -35q-16 0 -26 17q9 43 44 66t83 23q57 0 87 -29t30 -75q0 -37 -22.5 -72.5t-79.5 -92.5l-94 -89h215v-45h-260z" />
    <glyph glyph-name="three.sups" unicode="&#xb3;" horiz-adv-x="352" 
d="M124 654h26q44 0 70 21.5t26 59.5q0 36 -21.5 56t-59.5 20q-20 0 -44 -6l-10 -36q-7 -31 -29 -31q-18 0 -24 17q9 40 41 60.5t76 20.5q52 0 84.5 -26.5t32.5 -70.5q0 -35 -22.5 -61.5t-60.5 -36.5q47 -7 72.5 -34.5t25.5 -68.5q0 -53 -39.5 -83.5t-97.5 -30.5
q-104 0 -124 82q5 19 25 19t28 -33l12 -37q21 -7 48 -7q48 0 74.5 24.5t26.5 66.5q0 87 -107 87h-29v28z" />
    <glyph glyph-name="acute" unicode="&#x2ca;" horiz-adv-x="400" 
d="M150 574l96 137q24 35 42 35q10 0 17.5 -7t7.5 -18q0 -15 -31 -46l-116 -114z" />
    <glyph glyph-name="acute" unicode="&#xb4;" horiz-adv-x="400" 
d="M150 574l96 137q24 35 42 35q10 0 17.5 -7t7.5 -18q0 -15 -31 -46l-116 -114z" />
    <glyph glyph-name="mu" unicode="&#x3bc;" horiz-adv-x="570" 
d="M99 -181l13 270l-12 381l47 12l10 -7q-2 -67 -5 -147t-5 -126.5t-2 -84.5q44 -83 126 -83q85 0 143 112l-4 324l47 12l10 -7q-3 -61 -7 -132.5t-6 -103.5t-3 -68t-1 -63q1 -45 11.5 -61t34.5 -16q19 0 45 13l7 -17q-23 -40 -67 -40q-34 0 -49.5 27t-17.5 89
q-54 -116 -152 -116q-36 0 -70 20t-53 58l16 -242l-45 -12z" />
    <glyph glyph-name="mu" unicode="&#xb5;" horiz-adv-x="570" 
d="M99 -181l13 270l-12 381l47 12l10 -7q-2 -67 -5 -147t-5 -126.5t-2 -84.5q44 -83 126 -83q85 0 143 112l-4 324l47 12l10 -7q-3 -61 -7 -132.5t-6 -103.5t-3 -68t-1 -63q1 -45 11.5 -61t34.5 -16q19 0 45 13l7 -17q-23 -40 -67 -40q-34 0 -49.5 27t-17.5 89
q-54 -116 -152 -116q-36 0 -70 20t-53 58l16 -242l-45 -12z" />
    <glyph glyph-name="paragraph" unicode="&#xb6;" horiz-adv-x="600" 
d="M331 641v-474q-127 0 -206 69.5t-79 184.5t85 184t231 69h185v-28l-101 -8q-2 -90 -2 -274v-184q0 -208 3 -310h-50q2 102 2 310v461h-68z" />
    <glyph glyph-name="periodcentered" unicode="&#xb7;" horiz-adv-x="300" 
d="M150 275q-21 0 -35 14.5t-14 33.5q0 20 14 34.5t35 14.5t35 -14.5t14 -34.5q0 -19 -14 -33.5t-35 -14.5z" />
    <glyph glyph-name="cedilla" unicode="&#xb8;" horiz-adv-x="400" 
d="M149 -81l13 82h27l-8 -60q42 -5 67.5 -26t25.5 -53q0 -35 -26.5 -56.5t-74.5 -21.5q-32 0 -62 10l6 21q36 -6 51 -6q63 0 63 53t-82 57z" />
    <glyph glyph-name="one.sups" unicode="&#xb9;" horiz-adv-x="352" 
d="M77 804l123 31l9 -7v-363l93 -11v-21h-234v21l97 11v325l-88 -12v26z" />
    <glyph glyph-name="ordmasculine" unicode="&#xba;" horiz-adv-x="363" 
d="M182 730q-49 0 -76.5 -37t-27.5 -105t27.5 -104.5t76.5 -36.5t76.5 37t27.5 104q0 68 -28 105t-76 37zM182 755q60 0 104.5 -44.5t44.5 -122.5q0 -77 -44 -121t-105 -44t-105.5 44t-44.5 121q0 78 45 122.5t105 44.5z" />
    <glyph glyph-name="guillemotright" unicode="&#xbb;" horiz-adv-x="477" 
d="M45 456l214 -188v-31l-214 -188l-17 19l175 185l-175 184zM239 456l214 -188v-31l-214 -188l-17 19l175 185l-175 184z" />
    <glyph glyph-name="onequarter" unicode="&#xbc;" horiz-adv-x="860" 
d="M229 -23l-22 16l473 680l22 -17zM84 632l123 31l9 -7v-363l93 -11v-21h-234v21l97 11v325l-88 -12v26zM484 116v31l191 253h29v-247h71v-37h-71v-116h-42v116h-178zM517 153h145v195z" />
    <glyph glyph-name="onehalf" unicode="&#xbd;" horiz-adv-x="860" 
d="M196 -23l-22 16l473 680l22 -17zM76 632l123 31l9 -7v-363l93 -11v-21h-234v21l97 11v325l-88 -12v26zM520 0v34l113 113q80 81 80 148q0 38 -22 60.5t-62 22.5q-19 0 -42 -6l-15 -40q-9 -35 -29 -35q-16 0 -26 17q9 43 44 66t83 23q57 0 87 -29t30 -75
q0 -37 -22.5 -72.5t-79.5 -92.5l-94 -89h215v-45h-260z" />
    <glyph glyph-name="threequarters" unicode="&#xbe;" horiz-adv-x="860" 
d="M238 -23l-22 16l473 680l22 -17zM166 482h26q44 0 70 21.5t26 59.5q0 36 -21.5 56t-59.5 20q-20 0 -44 -6l-10 -36q-7 -31 -29 -31q-18 0 -24 17q9 40 41 60.5t76 20.5q52 0 84.5 -26.5t32.5 -70.5q0 -35 -22.5 -61.5t-60.5 -36.5q47 -7 72.5 -34.5t25.5 -68.5
q0 -53 -39.5 -83.5t-97.5 -30.5q-104 0 -124 82q5 19 25 19t28 -33l12 -37q21 -7 48 -7q48 0 74.5 24.5t26.5 66.5q0 87 -107 87h-29v28zM493 116v31l191 253h29v-247h71v-37h-71v-116h-42v116h-178zM526 153h145v195z" />
    <glyph glyph-name="questiondown" unicode="&#xbf;" horiz-adv-x="384" 
d="M244 494q18 0 31 -13t13 -30q0 -18 -12.5 -31t-31.5 -13t-31.5 13t-12.5 31t12.5 30.5t31.5 12.5zM54 -3q0 94 91 139l34 17q35 18 45 30t9 38l-3 73h25l8 -38q12 -53 12 -67q0 -22 -16 -38t-58 -37l-39 -18q-40 -23 -56.5 -47.5t-16.5 -61.5q0 -55 44 -99l128 -20
q50 -8 50 -40q0 -29 -35 -38q-59 12 -106 35.5t-81.5 68.5t-34.5 103z" />
    <glyph glyph-name="Agrave" unicode="&#xc0;" horiz-adv-x="657" 
d="M313 607l-111 -341h224zM9 0v28l82 9l214 643h37l217 -644l93 -8v-28h-257v28l107 9l-66 199h-243l-65 -199l92 -9v-28h-211zM373 743l-12 -16q-26 14 -118 69q-27 16 -37.5 26t-10.5 21q0 10 7.5 16.5t18.5 6.5q16 0 53 -34z" />
    <glyph glyph-name="Aacute" unicode="&#xc1;" horiz-adv-x="657" 
d="M313 607l-111 -341h224zM9 0v28l82 9l214 643h37l217 -644l93 -8v-28h-257v28l107 9l-66 199h-243l-65 -199l92 -9v-28h-211zM261 743l99 90q37 33 53 33q11 0 18.5 -6.5t7.5 -16.5q0 -11 -10.5 -20.5t-36.5 -25.5l-119 -70z" />
    <glyph glyph-name="Acircumflex" unicode="&#xc2;" horiz-adv-x="657" 
d="M313 607l-111 -341h224zM9 0v28l82 9l214 643h37l217 -644l93 -8v-28h-257v28l107 9l-66 199h-243l-65 -199l92 -9v-28h-211zM334 839l130 -112l-13 -16l-128 80l-128 -80l-13 16l130 112h22z" />
    <glyph glyph-name="Atilde" unicode="&#xc3;" horiz-adv-x="657" 
d="M313 607l-111 -341h224zM9 0v28l82 9l214 643h37l217 -644l93 -8v-28h-257v28l107 9l-66 199h-243l-65 -199l92 -9v-28h-211zM151 746q19 106 97 106q41 0 82 -39q33 -33 51 -39q9 -3 19 -3q48 0 71 76l22 -7q-19 -106 -97 -106q-43 0 -82 39l-7 7l-7.5 7.5l-6.5 6.5
t-7.5 6.5t-7 5t-8 4.5t-8 3t-9 2.5t-9.5 0.5q-47 0 -71 -77z" />
    <glyph glyph-name="Adieresis" unicode="&#xc4;" horiz-adv-x="657" 
d="M313 607l-111 -341h224zM9 0v28l82 9l214 643h37l217 -644l93 -8v-28h-257v28l107 9l-66 199h-243l-65 -199l92 -9v-28h-211zM214 752q-17 0 -29.5 11.5t-12.5 29.5t12.5 29.5t29.5 11.5t29.5 -11.5t12.5 -29.5t-12.5 -29.5t-29.5 -11.5zM426 752q-18 0 -30 11.5
t-12 29.5t12 29.5t30 11.5q17 0 29.5 -11.5t12.5 -29.5t-12.5 -29.5t-29.5 -11.5z" />
    <glyph glyph-name="Aring" unicode="&#xc5;" horiz-adv-x="657" 
d="M313 607l-111 -341h224zM9 0v28l82 9l214 643h37l217 -644l93 -8v-28h-257v28l107 9l-66 199h-243l-65 -199l92 -9v-28h-211zM322 748q24 0 40 18t16 42q0 25 -15.5 43t-40.5 18t-40.5 -18t-15.5 -43q0 -24 16 -42t40 -18zM322 722q-35 0 -61.5 24t-26.5 62
q0 39 26.5 63.5t61.5 24.5t61.5 -24.5t26.5 -63.5q0 -38 -26.5 -62t-61.5 -24z" />
    <glyph glyph-name="AE" unicode="&#xc6;" horiz-adv-x="910" 
d="M266 289h199v347h-12zM9 0v28l83 9l322 602l-76 7v28h506l9 -163h-37l-19 130h-278q-2 -91 -2 -283h180l11 96h30v-224h-30l-11 96h-180q0 -206 2 -293h295l18 130h37l-9 -163h-497v28l101 8q1 81 1 222h-215l-119 -221l89 -9v-28h-211z" />
    <glyph glyph-name="Ccedilla" unicode="&#xc7;" horiz-adv-x="639" 
d="M388 20q81 0 145 35l18 124h39l-4 -142q-89 -51 -196 -51l-6 -45q42 -5 67.5 -26t25.5 -53q0 -35 -26.5 -56.5t-74.5 -21.5q-32 0 -62 10l6 21q36 -6 51 -6q63 0 63 53t-82 57l11 68q-138 8 -222 104.5t-84 245.5q0 154 93 252.5t237 98.5q104 0 191 -51l4 -141h-39
l-18 122q-60 37 -131 37q-123 0 -199 -86t-76 -232q0 -147 74.5 -232t194.5 -85z" />
    <glyph glyph-name="Egrave" unicode="&#xc8;" horiz-adv-x="602" 
d="M156 310v54q0 183 -1 274l-102 8v28h483l9 -163h-37l-19 130h-277q-2 -91 -2 -283h179l11 96h30v-224h-30l-11 96h-179q0 -206 2 -293h294l18 130h37l-8 -163h-500v28l102 8q1 91 1 274zM360 743l-12 -16q-26 14 -118 69q-27 16 -37.5 26t-10.5 21q0 10 7.5 16.5
t18.5 6.5q16 0 53 -34z" />
    <glyph glyph-name="Eacute" unicode="&#xc9;" horiz-adv-x="602" 
d="M156 310v54q0 183 -1 274l-102 8v28h483l9 -163h-37l-19 130h-277q-2 -91 -2 -283h179l11 96h30v-224h-30l-11 96h-179q0 -206 2 -293h294l18 130h37l-8 -163h-500v28l102 8q1 91 1 274zM270 743l99 90q37 33 53 33q11 0 18.5 -6.5t7.5 -16.5q0 -11 -10.5 -20.5
t-36.5 -25.5l-119 -70z" />
    <glyph glyph-name="Ecircumflex" unicode="&#xca;" horiz-adv-x="602" 
d="M156 310v54q0 183 -1 274l-102 8v28h483l9 -163h-37l-19 130h-277q-2 -91 -2 -283h179l11 96h30v-224h-30l-11 96h-179q0 -206 2 -293h294l18 130h37l-8 -163h-500v28l102 8q1 91 1 274zM348 847l130 -112l-13 -16l-128 80l-128 -80l-13 16l130 112h22z" />
    <glyph glyph-name="Edieresis" unicode="&#xcb;" horiz-adv-x="602" 
d="M156 310v54q0 183 -1 274l-102 8v28h483l9 -163h-37l-19 130h-277q-2 -91 -2 -283h179l11 96h30v-224h-30l-11 96h-179q0 -206 2 -293h294l18 130h37l-8 -163h-500v28l102 8q1 91 1 274zM224 752q-17 0 -29.5 11.5t-12.5 29.5t12.5 29.5t29.5 11.5t29.5 -11.5t12.5 -29.5
t-12.5 -29.5t-29.5 -11.5zM436 752q-18 0 -30 11.5t-12 29.5t12 29.5t30 11.5q17 0 29.5 -11.5t12.5 -29.5t-12.5 -29.5t-29.5 -11.5z" />
    <glyph glyph-name="Igrave" unicode="&#xcc;" horiz-adv-x="366" 
d="M156 310v54q0 183 -1 274l-102 8v28h261v-28l-102 -8q-2 -90 -2 -274v-54q0 -183 2 -274l102 -8v-28h-261v28l102 8q1 91 1 274zM236 743l-12 -16q-26 14 -118 69q-27 16 -37.5 26t-10.5 21q0 10 7.5 16.5t18.5 6.5q16 0 53 -34z" />
    <glyph glyph-name="Iacute" unicode="&#xcd;" horiz-adv-x="366" 
d="M156 310v54q0 183 -1 274l-102 8v28h261v-28l-102 -8q-2 -90 -2 -274v-54q0 -183 2 -274l102 -8v-28h-261v28l102 8q1 91 1 274zM138 743l99 90q37 33 53 33q11 0 18.5 -6.5t7.5 -16.5q0 -11 -10.5 -20.5t-36.5 -25.5l-119 -70z" />
    <glyph glyph-name="Icircumflex" unicode="&#xce;" horiz-adv-x="366" 
d="M156 310v54q0 183 -1 274l-102 8v28h261v-28l-102 -8q-2 -90 -2 -274v-54q0 -183 2 -274l102 -8v-28h-261v28l102 8q1 91 1 274zM194 847l130 -112l-13 -16l-128 80l-128 -80l-13 16l130 112h22z" />
    <glyph glyph-name="Idieresis" unicode="&#xcf;" horiz-adv-x="366" 
d="M156 310v54q0 183 -1 274l-102 8v28h261v-28l-102 -8q-2 -90 -2 -274v-54q0 -183 2 -274l102 -8v-28h-261v28l102 8q1 91 1 274zM77 752q-17 0 -29.5 11.5t-12.5 29.5t12.5 29.5t29.5 11.5t29.5 -11.5t12.5 -29.5t-12.5 -29.5t-29.5 -11.5zM289 752q-18 0 -30 11.5
t-12 29.5t12 29.5t30 11.5q17 0 29.5 -11.5t12.5 -29.5t-12.5 -29.5t-29.5 -11.5z" />
    <glyph glyph-name="Eth" unicode="&#xd0;" horiz-adv-x="709" 
d="M53 646v28h272q153 0 240 -88t87 -250q0 -156 -91 -246t-249 -90h-259v28l102 8q1 91 1 293h-103v32h103q0 191 -1 277zM387 329h-177q0 -209 2 -297h90q141 0 214.5 80t73.5 224q0 149 -71 227.5t-205 78.5h-102q-2 -91 -2 -281h177v-32z" />
    <glyph glyph-name="Ntilde" unicode="&#xd1;" horiz-adv-x="733" 
d="M462 646v28h232v-28l-89 -9v-644h-25l-412 590v-546l110 -9v-28h-233v28l88 9v596l-5 7l-87 6v28h130l400 -577v540zM194 742q19 106 97 106q41 0 82 -39q33 -33 51 -39q9 -3 19 -3q48 0 71 76l22 -7q-19 -106 -97 -106q-43 0 -82 39l-7 7l-7.5 7.5l-6.5 6.5t-7.5 6.5
t-7 5t-8 4.5t-8 3t-9 2.5t-9.5 0.5q-47 0 -71 -77z" />
    <glyph glyph-name="Ograve" unicode="&#xd2;" horiz-adv-x="706" 
d="M119 337q0 -133 62.5 -225t171.5 -92q110 0 172.5 92t62.5 225t-62.5 225.5t-172.5 92.5q-109 0 -171.5 -92.5t-62.5 -225.5zM353 688q125 0 211 -96t86 -255q0 -157 -86 -254t-211 -97t-210.5 96t-85.5 255q0 157 86 254t210 97zM407 743l-12 -16q-26 14 -118 69
q-27 16 -37.5 26t-10.5 21q0 10 7.5 16.5t18.5 6.5q16 0 53 -34z" />
    <glyph glyph-name="Oacute" unicode="&#xd3;" horiz-adv-x="706" 
d="M119 337q0 -133 62.5 -225t171.5 -92q110 0 172.5 92t62.5 225t-62.5 225.5t-172.5 92.5q-109 0 -171.5 -92.5t-62.5 -225.5zM353 688q125 0 211 -96t86 -255q0 -157 -86 -254t-211 -97t-210.5 96t-85.5 255q0 157 86 254t210 97zM309 743l99 90q37 33 53 33
q11 0 18.5 -6.5t7.5 -16.5q0 -11 -10.5 -20.5t-36.5 -25.5l-119 -70z" />
    <glyph glyph-name="Ocircumflex" unicode="&#xd4;" horiz-adv-x="706" 
d="M119 337q0 -133 62.5 -225t171.5 -92q110 0 172.5 92t62.5 225t-62.5 225.5t-172.5 92.5q-109 0 -171.5 -92.5t-62.5 -225.5zM353 688q125 0 211 -96t86 -255q0 -157 -86 -254t-211 -97t-210.5 96t-85.5 255q0 157 86 254t210 97zM365 847l130 -112l-13 -16l-128 80
l-128 -80l-13 16l130 112h22z" />
    <glyph glyph-name="Otilde" unicode="&#xd5;" horiz-adv-x="706" 
d="M119 337q0 -133 62.5 -225t171.5 -92q110 0 172.5 92t62.5 225t-62.5 225.5t-172.5 92.5q-109 0 -171.5 -92.5t-62.5 -225.5zM353 688q125 0 211 -96t86 -255q0 -157 -86 -254t-211 -97t-210.5 96t-85.5 255q0 157 86 254t210 97zM183 746q19 106 97 106q41 0 82 -39
q33 -33 51 -39q9 -3 19 -3q48 0 71 76l22 -7q-19 -106 -97 -106q-43 0 -82 39l-7 7l-7.5 7.5l-6.5 6.5t-7.5 6.5t-7 5t-8 4.5t-8 3t-9 2.5t-9.5 0.5q-47 0 -71 -77z" />
    <glyph glyph-name="Odieresis" unicode="&#xd6;" horiz-adv-x="706" 
d="M119 337q0 -133 62.5 -225t171.5 -92q110 0 172.5 92t62.5 225t-62.5 225.5t-172.5 92.5q-109 0 -171.5 -92.5t-62.5 -225.5zM353 688q125 0 211 -96t86 -255q0 -157 -86 -254t-211 -97t-210.5 96t-85.5 255q0 157 86 254t210 97zM248 752q-17 0 -29.5 11.5t-12.5 29.5
t12.5 29.5t29.5 11.5t29.5 -11.5t12.5 -29.5t-12.5 -29.5t-29.5 -11.5zM460 752q-18 0 -30 11.5t-12 29.5t12 29.5t30 11.5q17 0 29.5 -11.5t12.5 -29.5t-12.5 -29.5t-29.5 -11.5z" />
    <glyph glyph-name="multiply" unicode="&#xd7;" horiz-adv-x="530" 
d="M451 120l-186 186l-186 -186l-27 27l186 187l-186 186l27 27l186 -186l186 186l28 -28l-186 -185l186 -186z" />
    <glyph glyph-name="Oslash" unicode="&#xd8;" horiz-adv-x="706" 
d="M639 672l-69 -87q80 -98 80 -248q0 -157 -86 -254t-211 -97q-115 0 -195 80l-67 -84l-28 23l70 88q-76 97 -76 244q0 157 86 254t210 97q111 0 193 -77l66 83zM115 337q0 -119 50 -204l353 443q-64 79 -165 79q-111 0 -174.5 -92.5t-63.5 -225.5zM592 337q0 123 -53 209
l-353 -444q64 -82 167 -82q112 0 175.5 92t63.5 225z" />
    <glyph glyph-name="Ugrave" unicode="&#xd9;" horiz-adv-x="733" 
d="M193 266q0 -236 182 -236q101 0 146.5 59t45.5 195v353l-114 9v28h237v-28l-89 -9v-379q0 -136 -59.5 -204t-172.5 -68q-109 0 -169.5 64.5t-60.5 199.5v111q0 186 -2 277l-91 8v28h255v-28l-107 -9q-1 -91 -1 -276v-95zM414 739l-12 -16q-26 14 -118 69q-27 16 -37.5 26
t-10.5 21q0 10 7.5 16.5t18.5 6.5q16 0 53 -34z" />
    <glyph glyph-name="Uacute" unicode="&#xda;" horiz-adv-x="733" 
d="M193 266q0 -236 182 -236q101 0 146.5 59t45.5 195v353l-114 9v28h237v-28l-89 -9v-379q0 -136 -59.5 -204t-172.5 -68q-109 0 -169.5 64.5t-60.5 199.5v111q0 186 -2 277l-91 8v28h255v-28l-107 -9q-1 -91 -1 -276v-95zM332 739l99 90q37 33 53 33q11 0 18.5 -6.5
t7.5 -16.5q0 -11 -10.5 -20.5t-36.5 -25.5l-119 -70z" />
    <glyph glyph-name="Ucircumflex" unicode="&#xdb;" horiz-adv-x="733" 
d="M193 266q0 -236 182 -236q101 0 146.5 59t45.5 195v353l-114 9v28h237v-28l-89 -9v-379q0 -136 -59.5 -204t-172.5 -68q-109 0 -169.5 64.5t-60.5 199.5v111q0 186 -2 277l-91 8v28h255v-28l-107 -9q-1 -91 -1 -276v-95zM392 843l130 -112l-13 -16l-128 80l-128 -80
l-13 16l130 112h22z" />
    <glyph glyph-name="Udieresis" unicode="&#xdc;" horiz-adv-x="733" 
d="M193 266q0 -236 182 -236q101 0 146.5 59t45.5 195v353l-114 9v28h237v-28l-89 -9v-379q0 -136 -59.5 -204t-172.5 -68q-109 0 -169.5 64.5t-60.5 199.5v111q0 186 -2 277l-91 8v28h255v-28l-107 -9q-1 -91 -1 -276v-95zM278 752q-17 0 -29.5 11.5t-12.5 29.5t12.5 29.5
t29.5 11.5t29.5 -11.5t12.5 -29.5t-12.5 -29.5t-29.5 -11.5zM490 752q-18 0 -30 11.5t-12 29.5t12 29.5t30 11.5q17 0 29.5 -11.5t12.5 -29.5t-12.5 -29.5t-29.5 -11.5z" />
    <glyph glyph-name="Yacute" unicode="&#xdd;" horiz-adv-x="634" 
d="M389 646v28h226v-28l-87 -9l-183 -369q0 -164 2 -232l112 -8v-28h-282v28l112 8q2 73 2 230l-185 372l-82 8v28h247v-28l-104 -8l162 -335l163 334zM300 739l99 90q37 33 53 33q11 0 18.5 -6.5t7.5 -16.5q0 -11 -10.5 -20.5t-36.5 -25.5l-119 -70z" />
    <glyph glyph-name="Thorn" unicode="&#xde;" horiz-adv-x="600" 
d="M156 310v54q0 183 -1 274l-102 8v28h266v-28l-107 -8q0 -16 -0.5 -49t-0.5 -49h102q125 0 186.5 -51t61.5 -138q0 -82 -61 -133t-198 -51h-91q0 -22 0.5 -65.5t0.5 -65.5l107 -8v-28h-266v28l102 8q1 91 1 274zM210 310v-111h99q196 0 196 156q0 153 -197 153h-97
q-1 -47 -1 -143v-55z" />
    <glyph glyph-name="germandbls" unicode="&#xdf;" horiz-adv-x="577" 
d="M124 210v233q0 162 55 228q61 84 168 84q68 0 107.5 -35t39.5 -93q0 -39 -21.5 -71t-66.5 -72q-65 -59 -65 -114q0 -32 18 -53.5t62 -46.5q68 -40 94 -74.5t26 -77.5q0 -61 -39 -96t-114 -35q-64 0 -132 28l-3 108h31l18 -88q42 -18 87 -18q52 0 78 25t26 68q0 32 -21 59
t-76 57q-49 28 -74.5 58t-25.5 75q0 69 77 137q39 36 55.5 63.5t16.5 61.5q0 47 -25.5 75.5t-80.5 28.5q-84 0 -124 -65q-23 -32 -32.5 -78t-9.5 -138v-234q0 -70 4 -210h-147v26l91 10q3 87 3 174z" />
    <glyph glyph-name="agrave" unicode="&#xe0;" horiz-adv-x="506" 
d="M421 -12q-68 0 -77 91q-47 -50 -82.5 -71t-81.5 -21q-56 0 -91.5 31.5t-35.5 88.5q0 50 36 85.5t119 64.5q60 20 135 37v28q0 76 -26 104t-84 28q-45 0 -83 -19l-19 -64q-9 -31 -35 -31t-31 28q15 55 62 86t116 31q76 0 112.5 -37t36.5 -119v-221q0 -47 11 -66t34 -19
q19 0 41 19l14 -17q-28 -37 -71 -37zM304 574l-17 -13l-116 114q-30 30 -30 46q0 11 7.5 18t17.5 7q16 0 42 -35zM105 117q0 -43 25 -65.5t68 -22.5q35 0 66 18t79 63v158q-63 -15 -126 -38q-112 -42 -112 -113z" />
    <glyph glyph-name="aacute" unicode="&#xe1;" horiz-adv-x="506" 
d="M421 -12q-68 0 -77 91q-47 -50 -82.5 -71t-81.5 -21q-56 0 -91.5 31.5t-35.5 88.5q0 50 36 85.5t119 64.5q60 20 135 37v28q0 76 -26 104t-84 28q-45 0 -83 -19l-19 -64q-9 -31 -35 -31t-31 28q15 55 62 86t116 31q76 0 112.5 -37t36.5 -119v-221q0 -47 11 -66t34 -19
q19 0 41 19l14 -17q-28 -37 -71 -37zM213 574l96 137q24 35 42 35q10 0 17.5 -7t7.5 -18q0 -15 -31 -46l-116 -114zM105 117q0 -43 25 -65.5t68 -22.5q35 0 66 18t79 63v158q-63 -15 -126 -38q-112 -42 -112 -113z" />
    <glyph glyph-name="acircumflex" unicode="&#xe2;" horiz-adv-x="506" 
d="M421 -12q-68 0 -77 91q-47 -50 -82.5 -71t-81.5 -21q-56 0 -91.5 31.5t-35.5 88.5q0 50 36 85.5t119 64.5q60 20 135 37v28q0 76 -26 104t-84 28q-45 0 -83 -19l-19 -64q-9 -31 -35 -31t-31 28q15 55 62 86t116 31q76 0 112.5 -37t36.5 -119v-221q0 -47 11 -66t34 -19
q19 0 41 19l14 -17q-28 -37 -71 -37zM362 550l-116 120l-116 -120l-15 14l120 165h22l120 -165zM105 117q0 -43 25 -65.5t68 -22.5q35 0 66 18t79 63v158q-63 -15 -126 -38q-112 -42 -112 -113z" />
    <glyph glyph-name="atilde" unicode="&#xe3;" horiz-adv-x="506" 
d="M421 -12q-68 0 -77 91q-47 -50 -82.5 -71t-81.5 -21q-56 0 -91.5 31.5t-35.5 88.5q0 50 36 85.5t119 64.5q60 20 135 37v28q0 76 -26 104t-84 28q-45 0 -83 -19l-19 -64q-9 -31 -35 -31t-31 28q15 55 62 86t116 31q76 0 112.5 -37t36.5 -119v-221q0 -47 11 -66t34 -19
q19 0 41 19l14 -17q-28 -37 -71 -37zM89 594q17 107 88 107q38 0 73 -39q2 -2 7.5 -8.5t7.5 -8t7 -7t7.5 -7t7 -5t8 -4.5t8.5 -2t10 -1q43 0 64 76l20 -6q-17 -106 -88 -106q-39 0 -73 38q-2 3 -8.5 9.5t-9 9.5t-7.5 8t-8.5 7l-8.5 5t-10 4t-11 1q-43 0 -64 -77zM105 117
q0 -43 25 -65.5t68 -22.5q35 0 66 18t79 63v158q-63 -15 -126 -38q-112 -42 -112 -113z" />
    <glyph glyph-name="adieresis" unicode="&#xe4;" horiz-adv-x="506" 
d="M421 -12q-68 0 -77 91q-47 -50 -82.5 -71t-81.5 -21q-56 0 -91.5 31.5t-35.5 88.5q0 50 36 85.5t119 64.5q60 20 135 37v28q0 76 -26 104t-84 28q-45 0 -83 -19l-19 -64q-9 -31 -35 -31t-31 28q15 55 62 86t116 31q76 0 112.5 -37t36.5 -119v-221q0 -47 11 -66t34 -19
q19 0 41 19l14 -17q-28 -37 -71 -37zM147 625q-17 0 -29 11t-12 29t12 29t29 11t29 -11t12 -29t-12 -29t-29 -11zM343 625q-17 0 -29 11t-12 29t12 29t29 11t29 -11t12 -29t-12 -29t-29 -11zM105 117q0 -43 25 -65.5t68 -22.5q35 0 66 18t79 63v158q-63 -15 -126 -38
q-112 -42 -112 -113z" />
    <glyph glyph-name="aring" unicode="&#xe5;" horiz-adv-x="506" 
d="M421 -12q-68 0 -77 91q-47 -50 -82.5 -71t-81.5 -21q-56 0 -91.5 31.5t-35.5 88.5q0 50 36 85.5t119 64.5q60 20 135 37v28q0 76 -26 104t-84 28q-45 0 -83 -19l-19 -64q-9 -31 -35 -31t-31 28q15 55 62 86t116 31q76 0 112.5 -37t36.5 -119v-221q0 -47 11 -66t34 -19
q19 0 41 19l14 -17q-28 -37 -71 -37zM251 589q27 0 44 19.5t17 45.5t-17 45.5t-44 19.5t-44 -19.5t-17 -45.5t17 -45.5t44 -19.5zM251 561q-38 0 -65.5 25.5t-27.5 67.5q0 41 27.5 66.5t65.5 25.5t65.5 -25t27.5 -67q0 -41 -27.5 -67t-65.5 -26zM105 117q0 -43 25 -65.5
t68 -22.5q35 0 66 18t79 63v158q-63 -15 -126 -38q-112 -42 -112 -113z" />
    <glyph glyph-name="ae" unicode="&#xe6;" horiz-adv-x="787" 
d="M556 454q-63 0 -109 -49.5t-53 -133.5h261q36 0 36 44q0 57 -37 98t-98 41zM560 -13q-62 0 -112.5 28t-78.5 83q-61 -65 -100.5 -88t-85.5 -23q-58 0 -94 31.5t-36 89.5q0 50 35.5 85t119.5 63q63 21 135 37v29q0 76 -26 104t-83 28q-44 0 -83 -18l-17 -68
q-9 -30 -37 -30q-27 0 -32 29q15 56 62 87t116 31q121 0 143 -102q63 102 172 102q82 0 132.5 -53t50.5 -135q0 -31 -7 -56h-341q1 -104 51.5 -158.5t127.5 -54.5q88 0 150 67l16 -14q-63 -94 -178 -94zM105 116q0 -41 25.5 -64t70.5 -23q32 0 65.5 18.5t92.5 72.5
q-20 51 -20 115q0 12 2 32q-70 -18 -124 -38q-112 -42 -112 -113z" />
    <glyph glyph-name="ccedilla" unicode="&#xe7;" horiz-adv-x="487" 
d="M277 454q-77 0 -126.5 -58.5t-49.5 -155.5q0 -96 50 -154t128 -58q91 0 150 71l17 -11q-55 -97 -167 -101l-6 -46q42 -5 67.5 -26t25.5 -53q0 -35 -26.5 -56.5t-74.5 -21.5q-32 0 -62 10l6 21q36 -6 51 -6q63 0 63 53t-82 57l11 69q-92 6 -148 73.5t-56 173.5
q0 113 67.5 181.5t161.5 68.5q58 0 104 -31t63 -84q-6 -27 -32 -27q-27 0 -37 30l-22 63q-36 18 -76 18z" />
    <glyph glyph-name="egrave" unicode="&#xe8;" horiz-adv-x="498" 
d="M267 454q-64 0 -110 -50.5t-53 -132.5h261q20 0 28 10.5t8 33.5q0 57 -37 98t-97 41zM269 485q81 0 131.5 -53t50.5 -134q0 -32 -7 -57l-341 1q1 -106 51.5 -160t127.5 -54q89 0 150 67l16 -14q-62 -94 -177 -94q-95 0 -158 64.5t-63 183.5q0 111 64 180.5t155 69.5z
M305 574l-17 -13l-116 114q-30 30 -30 46q0 11 7.5 18t17.5 7q16 0 42 -35z" />
    <glyph glyph-name="eacute" unicode="&#xe9;" horiz-adv-x="498" 
d="M267 454q-64 0 -110 -50.5t-53 -132.5h261q20 0 28 10.5t8 33.5q0 57 -37 98t-97 41zM269 485q81 0 131.5 -53t50.5 -134q0 -32 -7 -57l-341 1q1 -106 51.5 -160t127.5 -54q89 0 150 67l16 -14q-62 -94 -177 -94q-95 0 -158 64.5t-63 183.5q0 111 64 180.5t155 69.5z
M223 574l96 137q24 35 42 35q10 0 17.5 -7t7.5 -18q0 -15 -31 -46l-116 -114z" />
    <glyph glyph-name="ecircumflex" unicode="&#xea;" horiz-adv-x="498" 
d="M267 454q-64 0 -110 -50.5t-53 -132.5h261q20 0 28 10.5t8 33.5q0 57 -37 98t-97 41zM269 485q81 0 131.5 -53t50.5 -134q0 -32 -7 -57l-341 1q1 -106 51.5 -160t127.5 -54q89 0 150 67l16 -14q-62 -94 -177 -94q-95 0 -158 64.5t-63 183.5q0 111 64 180.5t155 69.5z
M385 550l-116 120l-116 -120l-15 14l120 165h22l120 -165z" />
    <glyph glyph-name="edieresis" unicode="&#xeb;" horiz-adv-x="498" 
d="M267 454q-64 0 -110 -50.5t-53 -132.5h261q20 0 28 10.5t8 33.5q0 57 -37 98t-97 41zM269 485q81 0 131.5 -53t50.5 -134q0 -32 -7 -57l-341 1q1 -106 51.5 -160t127.5 -54q89 0 150 67l16 -14q-62 -94 -177 -94q-95 0 -158 64.5t-63 183.5q0 111 64 180.5t155 69.5z
M169 625q-17 0 -29 11t-12 29t12 29t29 11t29 -11t12 -29t-12 -29t-29 -11zM365 625q-17 0 -29 11t-12 29t12 29t29 11t29 -11t12 -29t-12 -29t-29 -11z" />
    <glyph glyph-name="igrave" unicode="&#xec;" horiz-adv-x="301" 
d="M43 0v26l84 10q2 102 2 174v48q0 93 -3 162l-88 4v26l131 32l12 -8l-3 -124v-140q0 -72 2 -174l77 -10v-26h-214zM177 574l-17 -13l-116 114q-30 30 -30 46q0 11 7.5 18t17.5 7q16 0 42 -35z" />
    <glyph glyph-name="iacute" unicode="&#xed;" horiz-adv-x="301" 
d="M43 0v26l84 10q2 102 2 174v48q0 93 -3 162l-88 4v26l131 32l12 -8l-3 -124v-140q0 -72 2 -174l77 -10v-26h-214zM128 574l96 137q24 35 42 35q10 0 17.5 -7t7.5 -18q0 -15 -31 -46l-116 -114z" />
    <glyph glyph-name="icircumflex" unicode="&#xee;" horiz-adv-x="301" 
d="M43 0v26l84 10q2 102 2 174v48q0 93 -3 162l-88 4v26l131 32l12 -8l-3 -124v-140q0 -72 2 -174l77 -10v-26h-214zM259 550l-116 120l-116 -120l-15 14l120 165h22l120 -165z" />
    <glyph glyph-name="idieresis" unicode="&#xef;" horiz-adv-x="301" 
d="M43 0v26l84 10q2 102 2 174v48q0 93 -3 162l-88 4v26l131 32l12 -8l-3 -124v-140q0 -72 2 -174l77 -10v-26h-214zM42 625q-17 0 -29 11t-12 29t12 29t29 11t29 -11t12 -29t-12 -29t-29 -11zM238 625q-17 0 -29 11t-12 29t12 29t29 11t29 -11t12 -29t-12 -29t-29 -11z" />
    <glyph glyph-name="eth" unicode="&#xf0;" horiz-adv-x="543" 
d="M264 -13q-92 0 -153 66t-61 178q0 110 62 175.5t154 65.5q109 0 162 -99q-28 148 -121 242l-146 -75l-13 26l137 71q-57 51 -136 94l15 24q90 -43 155 -101l159 82l12 -26l-149 -77q144 -143 144 -363q0 -133 -59.5 -208t-161.5 -75zM268 17q77 0 121.5 60.5t44.5 158.5
q0 99 -46.5 152t-119.5 53q-74 0 -118.5 -56t-44.5 -156q0 -97 45.5 -154.5t117.5 -57.5z" />
    <glyph glyph-name="ntilde" unicode="&#xf1;" horiz-adv-x="604" 
d="M368 485q61 0 92 -41.5t31 -134.5v-99q0 -74 2 -174l77 -10v-26h-214v26l84 10q2 102 2 174v96q0 72 -23.5 103t-69.5 31q-84 0 -172 -92v-138q0 -72 2 -174l77 -10v-26h-214v26l84 10q2 102 2 174v48q0 93 -3 162l-88 4v26l122 32l12 -8l5 -92q91 103 192 103zM148 594
q17 107 88 107q38 0 73 -39q2 -2 7.5 -8.5t7.5 -8t7 -7t7.5 -7t7 -5t8 -4.5t8.5 -2t10 -1q43 0 64 76l20 -6q-17 -106 -88 -106q-39 0 -73 38q-2 3 -8.5 9.5t-9 9.5t-7.5 8t-8.5 7l-8.5 5t-10 4t-11 1q-43 0 -64 -77z" />
    <glyph glyph-name="ograve" unicode="&#xf2;" horiz-adv-x="542" 
d="M271 -13q-90 0 -155.5 64t-65.5 183t65.5 185t155.5 66q89 0 155.5 -66t66.5 -185t-66 -183t-156 -64zM271 17q77 0 121.5 57.5t44.5 159.5q0 103 -45 161.5t-121 58.5q-77 0 -121.5 -58.5t-44.5 -161.5t44.5 -160t121.5 -57zM317 574l-17 -13l-116 114q-30 30 -30 46
q0 11 7.5 18t17.5 7q16 0 42 -35z" />
    <glyph glyph-name="oacute" unicode="&#xf3;" horiz-adv-x="542" 
d="M271 -13q-90 0 -155.5 64t-65.5 183t65.5 185t155.5 66q89 0 155.5 -66t66.5 -185t-66 -183t-156 -64zM271 17q77 0 121.5 57.5t44.5 159.5q0 103 -45 161.5t-121 58.5q-77 0 -121.5 -58.5t-44.5 -161.5t44.5 -160t121.5 -57zM229 574l96 137q24 35 42 35q10 0 17.5 -7
t7.5 -18q0 -15 -31 -46l-116 -114z" />
    <glyph glyph-name="ocircumflex" unicode="&#xf4;" horiz-adv-x="542" 
d="M271 17q77 0 121.5 57.5t44.5 159.5q0 103 -45 161.5t-121 58.5q-77 0 -121.5 -58.5t-44.5 -161.5t44.5 -160t121.5 -57zM271 -13q-90 0 -155.5 64t-65.5 183t65.5 185t155.5 66q89 0 155.5 -66t66.5 -185t-66 -183t-156 -64zM387 550l-116 120l-116 -120l-15 14l120 165
h22l120 -165z" />
    <glyph glyph-name="otilde" unicode="&#xf5;" horiz-adv-x="542" 
d="M271 -13q-90 0 -155.5 64t-65.5 183t65.5 185t155.5 66q89 0 155.5 -66t66.5 -185t-66 -183t-156 -64zM271 17q77 0 121.5 57.5t44.5 159.5q0 103 -45 161.5t-121 58.5q-77 0 -121.5 -58.5t-44.5 -161.5t44.5 -160t121.5 -57zM117 594q17 107 88 107q38 0 73 -39
q2 -2 7.5 -8.5t7.5 -8t7 -7t7.5 -7t7 -5t8 -4.5t8.5 -2t10 -1q43 0 64 76l20 -6q-17 -106 -88 -106q-39 0 -73 38q-2 3 -8.5 9.5t-9 9.5t-7.5 8t-8.5 7l-8.5 5t-10 4t-11 1q-43 0 -64 -77z" />
    <glyph glyph-name="odieresis" unicode="&#xf6;" horiz-adv-x="542" 
d="M271 -13q-90 0 -155.5 64t-65.5 183t65.5 185t155.5 66q89 0 155.5 -66t66.5 -185t-66 -183t-156 -64zM271 17q77 0 121.5 57.5t44.5 159.5q0 103 -45 161.5t-121 58.5q-77 0 -121.5 -58.5t-44.5 -161.5t44.5 -160t121.5 -57zM369 625q-17 0 -29 11t-12 29t12 29t29 11
t29 -11t12 -29t-12 -29t-29 -11zM173 625q-17 0 -29 11t-12 29t12 29t29 11t29 -11t12 -29t-12 -29t-29 -11z" />
    <glyph glyph-name="divide" unicode="&#xf7;" horiz-adv-x="530" 
d="M265 96q-19 0 -32.5 13t-13.5 32t13 31.5t33 12.5t33 -12.5t13 -31.5t-13.5 -32t-32.5 -13zM265 479q-19 0 -32.5 13t-13.5 32t13 31.5t33 12.5t33 -12.5t13 -31.5t-13.5 -32t-32.5 -13zM494 314h-458v39h458v-39z" />
    <glyph glyph-name="oslash" unicode="&#xf8;" horiz-adv-x="542" 
d="M481 478l-51 -63q63 -68 63 -181q0 -119 -66 -183t-156 -64q-84 0 -143 52l-50 -61l-23 18l52 64q-57 67 -57 174q0 119 65.5 185t155.5 66q79 0 138 -50l49 61zM104 234q0 -85 31 -139l250 311q-43 48 -114 48q-78 0 -122.5 -58.5t-44.5 -161.5zM271 17q77 0 122.5 57.5
t45.5 159.5q0 90 -36 148l-251 -313q43 -52 119 -52z" />
    <glyph glyph-name="ugrave" unicode="&#xf9;" horiz-adv-x="595" 
d="M551 0l-121 -7l-3 95q-81 -101 -181 -101q-69 0 -102 42.5t-32 142.5l3 259l-82 10v27l124 8l9 -11l-4 -139v-148q0 -79 24.5 -112.5t75.5 -33.5q87 0 164 88l2 312l-81 9v27l123 8l9 -11l-3 -139v-291l75 -9v-26zM325 574l-17 -13l-116 114q-30 30 -30 46q0 11 7.5 18
t17.5 7q16 0 42 -35z" />
    <glyph glyph-name="uacute" unicode="&#xfa;" horiz-adv-x="595" 
d="M551 0l-121 -7l-3 95q-81 -101 -181 -101q-69 0 -102 42.5t-32 142.5l3 259l-82 10v27l124 8l9 -11l-4 -139v-148q0 -79 24.5 -112.5t75.5 -33.5q87 0 164 88l2 312l-81 9v27l123 8l9 -11l-3 -139v-291l75 -9v-26zM250 574l96 137q24 35 42 35q10 0 17.5 -7t7.5 -18
q0 -15 -31 -46l-116 -114z" />
    <glyph glyph-name="ucircumflex" unicode="&#xfb;" horiz-adv-x="595" 
d="M551 0l-121 -7l-3 95q-81 -101 -181 -101q-69 0 -102 42.5t-32 142.5l3 259l-82 10v27l124 8l9 -11l-4 -139v-148q0 -79 24.5 -112.5t75.5 -33.5q87 0 164 88l2 312l-81 9v27l123 8l9 -11l-3 -139v-291l75 -9v-26zM406 550l-116 120l-116 -120l-15 14l120 165h22
l120 -165z" />
    <glyph glyph-name="udieresis" unicode="&#xfc;" horiz-adv-x="595" 
d="M551 0l-121 -7l-3 95q-81 -101 -181 -101q-69 0 -102 42.5t-32 142.5l3 259l-82 10v27l124 8l9 -11l-4 -139v-148q0 -79 24.5 -112.5t75.5 -33.5q87 0 164 88l2 312l-81 9v27l123 8l9 -11l-3 -139v-291l75 -9v-26zM197 625q-17 0 -29 11t-12 29t12 29t29 11t29 -11
t12 -29t-12 -29t-29 -11zM393 625q-17 0 -29 11t-12 29t12 29t29 11t29 -11t12 -29t-12 -29t-29 -11z" />
    <glyph glyph-name="yacute" unicode="&#xfd;" horiz-adv-x="500" 
d="M67 -253q-29 0 -52 12t-26 33q6 29 46 29q26 0 60 -28l8 -8q74 36 118 156l16 44l-177 454l-67 7v26h212v-27l-88 -7l144 -388l139 387l-88 9v26h188v-26l-62 -8l-180 -480q-79 -211 -191 -211zM243 574l96 137q24 35 42 35q10 0 17.5 -7t7.5 -18q0 -15 -31 -46
l-116 -114z" />
    <glyph glyph-name="thorn" unicode="&#xfe;" horiz-adv-x="568" 
d="M465 238q0 100 -42 154.5t-110 54.5q-74 0 -145 -72v-282q69 -69 143 -69q66 0 110 54t44 160zM267 -217v-26h-237v26l87 10q2 106 2 174v722l-88 4v26l124 26l15 -8l-3 -142v-189q68 79 159 79q85 0 139 -67t54 -177q0 -116 -55.5 -185t-146.5 -69q-87 0 -150 75v-95
q0 -68 2 -174z" />
    <glyph glyph-name="ydieresis" unicode="&#xff;" horiz-adv-x="500" 
d="M67 -253q-29 0 -52 12t-26 33q6 29 46 29q26 0 60 -28l8 -8q74 36 118 156l16 44l-177 454l-67 7v26h212v-27l-88 -7l144 -388l139 387l-88 9v26h188v-26l-62 -8l-180 -480q-79 -211 -191 -211zM169 625q-17 0 -29 11t-12 29t12 29t29 11t29 -11t12 -29t-12 -29t-29 -11z
M365 625q-17 0 -29 11t-12 29t12 29t29 11t29 -11t12 -29t-12 -29t-29 -11z" />
    <glyph glyph-name="Amacron" unicode="&#x100;" horiz-adv-x="657" 
d="M175 764v40h296v-40h-296zM313 607l-111 -341h224zM9 0v28l82 9l214 643h37l217 -644l93 -8v-28h-257v28l107 9l-66 199h-243l-65 -199l92 -9v-28h-211z" />
    <glyph glyph-name="amacron" unicode="&#x101;" horiz-adv-x="506" 
d="M421 -12q-68 0 -77 91q-47 -50 -82.5 -71t-81.5 -21q-56 0 -91.5 31.5t-35.5 88.5q0 50 36 85.5t119 64.5q60 20 135 37v28q0 76 -26 104t-84 28q-45 0 -83 -19l-19 -64q-9 -31 -35 -31t-31 28q15 55 62 86t116 31q76 0 112.5 -37t36.5 -119v-221q0 -47 11 -66t34 -19
q19 0 41 19l14 -17q-28 -37 -71 -37zM121 617v40h248v-40h-248zM105 117q0 -43 25 -65.5t68 -22.5q35 0 66 18t79 63v158q-63 -15 -126 -38q-112 -42 -112 -113z" />
    <glyph glyph-name="Abreve" unicode="&#x102;" horiz-adv-x="657" 
d="M313 607l-111 -341h224zM9 0v28l82 9l214 643h37l217 -644l93 -8v-28h-257v28l107 9l-66 199h-243l-65 -199l92 -9v-28h-211zM185 852l21 7q29 -88 117 -88q87 0 117 88l21 -7q-9 -49 -44.5 -85t-93.5 -36t-93.5 36t-44.5 85z" />
    <glyph glyph-name="abreve" unicode="&#x103;" horiz-adv-x="506" 
d="M421 -12q-68 0 -77 91q-47 -50 -82.5 -71t-81.5 -21q-56 0 -91.5 31.5t-35.5 88.5q0 50 36 85.5t119 64.5q60 20 135 37v28q0 76 -26 104t-84 28q-45 0 -83 -19l-19 -64q-9 -31 -35 -31t-31 28q15 55 62 86t116 31q76 0 112.5 -37t36.5 -119v-221q0 -47 11 -66t34 -19
q19 0 41 19l14 -17q-28 -37 -71 -37zM104 725l21 7q35 -109 124 -109t124 109l21 -7q-9 -63 -47 -103.5t-98 -40.5t-98 40.5t-47 103.5zM105 117q0 -43 25 -65.5t68 -22.5q35 0 66 18t79 63v158q-63 -15 -126 -38q-112 -42 -112 -113z" />
    <glyph glyph-name="Aogonek" unicode="&#x104;" horiz-adv-x="657" 
d="M313 607l-111 -341h224zM9 0v28l82 9l214 643h37l217 -644l93 -8v-28h-89q-56 -51 -56 -112q0 -35 18.5 -54t48.5 -19q31 0 60 21l12 -15q-31 -43 -92 -43q-39 0 -64 23.5t-25 65.5q0 37 21.5 72.5t52.5 60.5h-144v28l107 9l-66 199h-243l-65 -199l92 -9v-28h-211z" />
    <glyph glyph-name="aogonek" unicode="&#x105;" horiz-adv-x="506" 
d="M333 -128q0 65 87 118q-70 4 -76 87q-47 -49 -82.5 -69.5t-81.5 -20.5q-56 0 -91.5 31.5t-35.5 88.5q0 50 35.5 85t119.5 64q65 22 135 36v30q0 76 -26 104t-84 28q-43 0 -82 -18l-17 -68q-9 -30 -37 -30q-27 0 -32 29q15 56 62 87t116 31q76 0 112.5 -37t36.5 -119v-218
q0 -87 42 -87q21 0 45 18l13 -16q-8 -9 -39 -32q-79 -52 -79 -102q0 -34 18.5 -53t47.5 -19q33 0 60 21l11 -15q-31 -43 -91 -43q-38 0 -62.5 23.5t-24.5 65.5zM105 117q0 -43 25 -65.5t68 -22.5q35 0 66.5 17.5t78.5 62.5v157q-71 -16 -126 -37q-112 -42 -112 -112z" />
    <glyph glyph-name="Cacute" unicode="&#x106;" horiz-adv-x="639" 
d="M388 20q81 0 145 35l18 124h39l-4 -142q-89 -51 -199 -51q-148 0 -239 97.5t-91 253.5q0 154 93 252.5t237 98.5q104 0 191 -51l4 -141h-39l-18 122q-60 37 -131 37q-123 0 -199 -86t-76 -232q0 -147 74.5 -232t194.5 -85zM327 743l99 90q37 33 53 33q11 0 18.5 -6.5
t7.5 -16.5q0 -11 -10.5 -20.5t-36.5 -25.5l-119 -70z" />
    <glyph glyph-name="cacute" unicode="&#x107;" horiz-adv-x="487" 
d="M277 454q-77 0 -126.5 -58.5t-49.5 -155.5q0 -96 50 -154t128 -58q91 0 150 71l17 -11q-57 -101 -176 -101q-100 0 -161 68t-61 180q0 113 67.5 181.5t161.5 68.5q58 0 104 -31t63 -84q-6 -27 -32 -27q-27 0 -37 30l-22 63q-36 18 -76 18zM232 574l96 137q24 35 42 35
q10 0 17.5 -7t7.5 -18q0 -15 -31 -46l-116 -114z" />
    <glyph glyph-name="Ccircumflex" unicode="&#x108;" horiz-adv-x="639" 
d="M388 20q81 0 145 35l18 124h39l-4 -142q-89 -51 -199 -51q-148 0 -239 97.5t-91 253.5q0 154 93 252.5t237 98.5q104 0 191 -51l4 -141h-39l-18 122q-60 37 -131 37q-123 0 -199 -86t-76 -232q0 -147 74.5 -232t194.5 -85zM385 847l130 -112l-13 -16l-128 80l-128 -80
l-13 16l130 112h22z" />
    <glyph glyph-name="ccircumflex" unicode="&#x109;" horiz-adv-x="487" 
d="M277 454q-77 0 -126.5 -58.5t-49.5 -155.5q0 -96 50 -154t128 -58q91 0 150 71l17 -11q-57 -101 -176 -101q-100 0 -161 68t-61 180q0 113 67.5 181.5t161.5 68.5q58 0 104 -31t63 -84q-6 -27 -32 -27q-27 0 -37 30l-22 63q-36 18 -76 18zM389 550l-116 120l-116 -120
l-15 14l120 165h22l120 -165z" />
    <glyph glyph-name="Cdotaccent" unicode="&#x10a;" horiz-adv-x="639" 
d="M388 20q81 0 145 35l18 124h39l-4 -142q-89 -51 -199 -51q-148 0 -239 97.5t-91 253.5q0 154 93 252.5t237 98.5q104 0 191 -51l4 -141h-39l-18 122q-60 37 -131 37q-123 0 -199 -86t-76 -232q0 -147 74.5 -232t194.5 -85zM365 750q-19 0 -32.5 13t-13.5 32t13.5 32
t32.5 13t32.5 -13t13.5 -32t-13.5 -32t-32.5 -13z" />
    <glyph glyph-name="cdotaccent" unicode="&#x10b;" horiz-adv-x="487" 
d="M277 454q-77 0 -126.5 -58.5t-49.5 -155.5q0 -96 50 -154t128 -58q91 0 150 71l17 -11q-57 -101 -176 -101q-100 0 -161 68t-61 180q0 113 67.5 181.5t161.5 68.5q58 0 104 -31t63 -84q-6 -27 -32 -27q-27 0 -37 30l-22 63q-36 18 -76 18zM283 611q-19 0 -32.5 12.5
t-13.5 31.5q0 20 13.5 32.5t32.5 12.5t32.5 -12.5t13.5 -32.5q0 -19 -13.5 -31.5t-32.5 -12.5z" />
    <glyph glyph-name="Ccaron" unicode="&#x10c;" horiz-adv-x="639" 
d="M388 20q81 0 145 35l18 124h39l-4 -142q-89 -51 -199 -51q-148 0 -239 97.5t-91 253.5q0 154 93 252.5t237 98.5q104 0 191 -51l4 -141h-39l-18 122q-60 37 -131 37q-123 0 -199 -86t-76 -232q0 -147 74.5 -232t194.5 -85zM268 866l112 -89l112 89l16 -15l-107 -115h-42
l-107 115z" />
    <glyph glyph-name="ccaron" unicode="&#x10d;" horiz-adv-x="487" 
d="M277 454q-77 0 -126.5 -58.5t-49.5 -155.5q0 -96 50 -154t128 -58q91 0 150 71l17 -11q-57 -101 -176 -101q-100 0 -161 68t-61 180q0 113 67.5 181.5t161.5 68.5q58 0 104 -31t63 -84q-6 -27 -32 -27q-27 0 -37 30l-22 63q-36 18 -76 18zM158 725l116 -108l116 108
l16 -14l-111 -141h-42l-111 141z" />
    <glyph glyph-name="Dcaron" unicode="&#x10e;" horiz-adv-x="709" 
d="M156 333v24q0 190 -1 281l-102 8v28h272q153 0 240 -88t87 -250q0 -156 -91 -246t-249 -90h-259v28l102 8q1 91 1 297zM210 333q0 -209 2 -301h90q141 0 214.5 80t73.5 224q0 149 -71 227.5t-205 78.5h-102q-2 -91 -2 -285v-24zM221 866l112 -89l112 89l16 -15l-107 -115
h-42l-107 115z" />
    <glyph glyph-name="dcaron" unicode="&#x10f;" horiz-adv-x="591" 
d="M576 752q24 0 24 -27q0 -14 -22 -131l-13 -65h-21l2 215q13 8 30 8zM103 230q0 -99 43.5 -152.5t113.5 -53.5q79 0 142 76v280q-66 67 -135 67q-72 0 -118 -55t-46 -162zM548 0l-144 -8l-2 73q-60 -78 -153 -78q-88 0 -143.5 68t-55.5 174q0 116 60 186t152 70
q80 0 141 -74v278l-89 4v26l126 26l14 -8l-3 -140v-563l97 -8v-26z" />
    <glyph glyph-name="Dcroat" unicode="&#x110;" horiz-adv-x="709" 
d="M53 646v28h272q153 0 240 -88t87 -250q0 -156 -91 -246t-249 -90h-259v28l102 8q1 91 1 293h-103v32h103q0 191 -1 277zM387 329h-177q0 -209 2 -297h90q141 0 214.5 80t73.5 224q0 149 -71 227.5t-205 78.5h-102q-2 -91 -2 -281h177v-32z" />
    <glyph glyph-name="dcroat" unicode="&#x111;" horiz-adv-x="571" 
d="M103 226q0 -98 43.5 -150t113.5 -52q79 0 142 76v267q-66 67 -134 67q-73 0 -119 -53t-46 -155zM209 568v33h194v90l-89 2v26l126 26l14 -8l-3 -136h89v-33h-89v-533l97 -9v-26l-144 -8l-2 73q-60 -78 -153 -78q-88 0 -143.5 66.5t-55.5 171.5q0 111 59.5 179t150.5 68
q82 0 143 -74v170h-194z" />
    <glyph glyph-name="Emacron" unicode="&#x112;" horiz-adv-x="602" 
d="M156 310v54q0 183 -1 274l-102 8v28h483l9 -163h-37l-19 130h-277q-2 -91 -2 -283h179l11 96h30v-224h-30l-11 96h-179q0 -206 2 -293h294l18 130h37l-8 -163h-500v28l102 8q1 91 1 274zM191 764v40h296v-40h-296z" />
    <glyph glyph-name="emacron" unicode="&#x113;" horiz-adv-x="498" 
d="M267 454q-64 0 -110 -50.5t-53 -132.5h261q20 0 28 10.5t8 33.5q0 57 -37 98t-97 41zM269 485q81 0 131.5 -53t50.5 -134q0 -32 -7 -57l-341 1q1 -106 51.5 -160t127.5 -54q89 0 150 67l16 -14q-62 -94 -177 -94q-95 0 -158 64.5t-63 183.5q0 111 64 180.5t155 69.5z
M141 617v40h248v-40h-248z" />
    <glyph glyph-name="Ebreve" unicode="&#x114;" horiz-adv-x="602" 
d="M156 310v54q0 183 -1 274l-102 8v28h483l9 -163h-37l-19 130h-277q-2 -91 -2 -283h179l11 96h30v-224h-30l-11 96h-179q0 -206 2 -293h294l18 130h37l-8 -163h-500v28l102 8q1 91 1 274zM187 856l21 7q29 -88 117 -88q87 0 117 88l21 -7q-9 -49 -44.5 -85t-93.5 -36
t-93.5 36t-44.5 85z" />
    <glyph glyph-name="ebreve" unicode="&#x115;" horiz-adv-x="498" 
d="M267 454q-64 0 -110 -50.5t-53 -132.5h261q20 0 28 10.5t8 33.5q0 57 -37 98t-97 41zM269 485q81 0 131.5 -53t50.5 -134q0 -32 -7 -57l-341 1q1 -106 51.5 -160t127.5 -54q89 0 150 67l16 -14q-62 -94 -177 -94q-95 0 -158 64.5t-63 183.5q0 111 64 180.5t155 69.5z
M123 725l21 7q35 -109 124 -109t124 109l21 -7q-9 -63 -47 -103.5t-98 -40.5t-98 40.5t-47 103.5z" />
    <glyph glyph-name="Edotaccent" unicode="&#x116;" horiz-adv-x="602" 
d="M156 310v54q0 183 -1 274l-102 8v28h483l9 -163h-37l-19 130h-277q-2 -91 -2 -283h179l11 96h30v-224h-30l-11 96h-179q0 -206 2 -293h294l18 130h37l-8 -163h-500v28l102 8q1 91 1 274zM335 750q-19 0 -32.5 13t-13.5 32t13.5 32t32.5 13t32.5 -13t13.5 -32t-13.5 -32
t-32.5 -13z" />
    <glyph glyph-name="edotaccent" unicode="&#x117;" horiz-adv-x="498" 
d="M267 454q-64 0 -110 -50.5t-53 -132.5h261q20 0 28 10.5t8 33.5q0 57 -37 98t-97 41zM269 485q81 0 131.5 -53t50.5 -134q0 -32 -7 -57l-341 1q1 -106 51.5 -160t127.5 -54q89 0 150 67l16 -14q-62 -94 -177 -94q-95 0 -158 64.5t-63 183.5q0 111 64 180.5t155 69.5z
M270 611q-19 0 -32.5 12.5t-13.5 31.5q0 20 13.5 32.5t32.5 12.5t32.5 -12.5t13.5 -32.5q0 -19 -13.5 -31.5t-32.5 -12.5z" />
    <glyph glyph-name="Eogonek" unicode="&#x118;" horiz-adv-x="602" 
d="M156 310v54q0 183 -1 274l-102 8v28h483l9 -163h-37l-19 130h-277q-2 -91 -2 -283h179l11 96h30v-224h-30l-11 96h-179q0 -206 2 -293h294l18 130h37l-8 -163h-66q-56 -51 -56 -112q0 -35 18.5 -54t48.5 -19q31 0 60 21l12 -15q-31 -43 -92 -43q-39 0 -64 23.5t-25 65.5
q0 37 21.5 72.5t52.5 60.5h-410v28l102 8q1 91 1 274z" />
    <glyph glyph-name="eogonek" unicode="&#x119;" horiz-adv-x="498" 
d="M266 454q-63 0 -109 -49.5t-53 -133.5h261q20 0 28 10.5t8 33.5q0 57 -37 98t-98 41zM260 -128q0 64 68 121q-28 -6 -57 -6q-95 0 -158 65t-63 185q0 109 64 178.5t154 69.5q82 0 132.5 -52.5t50.5 -134.5q0 -32 -7 -56h-341q1 -104 51.5 -159t127.5 -55q88 0 150 67
l16 -14q-22 -35 -74 -73q-32 -23 -52.5 -55t-20.5 -61q0 -34 18.5 -53t48.5 -19q33 0 59 21l11 -15q-31 -43 -91 -43q-38 0 -62.5 23.5t-24.5 65.5z" />
    <glyph glyph-name="Ecaron" unicode="&#x11a;" horiz-adv-x="602" 
d="M156 310v54q0 183 -1 274l-102 8v28h483l9 -163h-37l-19 130h-277q-2 -91 -2 -283h179l11 96h30v-224h-30l-11 96h-179q0 -206 2 -293h294l18 130h37l-8 -163h-500v28l102 8q1 91 1 274zM227 866l112 -89l112 89l16 -15l-107 -115h-42l-107 115z" />
    <glyph glyph-name="ecaron" unicode="&#x11b;" horiz-adv-x="498" 
d="M267 454q-64 0 -110 -50.5t-53 -132.5h261q20 0 28 10.5t8 33.5q0 57 -37 98t-97 41zM269 485q81 0 131.5 -53t50.5 -134q0 -32 -7 -57l-341 1q1 -106 51.5 -160t127.5 -54q89 0 150 67l16 -14q-62 -94 -177 -94q-95 0 -158 64.5t-63 183.5q0 111 64 180.5t155 69.5z
M153 725l116 -108l116 108l16 -14l-111 -141h-42l-111 141z" />
    <glyph glyph-name="Gcircumflex" unicode="&#x11c;" horiz-adv-x="684" 
d="M601 95v-49q-105 -60 -213 -60q-148 0 -239.5 98t-91.5 253t93 253t240 98q112 0 201 -55l4 -141h-39l-18 123q-62 40 -143 40q-124 0 -200 -86t-76 -232q0 -147 74.5 -232t200.5 -85q80 0 153 37v38q0 63 -2 189l-114 7v28h242v-28l-70 -6q-2 -114 -2 -190zM397 847
l130 -112l-13 -16l-128 80l-128 -80l-13 16l130 112h22z" />
    <glyph glyph-name="gcircumflex" unicode="&#x11d;" horiz-adv-x="512" 
d="M239 456q-55 0 -88.5 -38t-33.5 -98q0 -61 33 -99t87 -38q55 0 89 38.5t34 99.5q0 60 -33 97.5t-88 37.5zM68 320q0 75 47.5 120t123.5 45q68 0 113 -36l115 31l15 -10v-43h-108q35 -43 35 -107q0 -75 -48 -120t-123 -45q-41 0 -75 14q-42 -47 -42 -81q0 -49 79 -49h139
q69 0 105 -30.5t36 -88.5q0 -67 -60.5 -115t-170.5 -48q-97 0 -150.5 35t-53.5 94q0 71 89 116q-57 17 -57 68q0 49 66 109q-75 41 -75 141zM252 -210q86 0 133.5 33.5t47.5 85.5q0 82 -104 82h-122q-32 0 -55 4q-57 -44 -57 -99q0 -52 41 -79t116 -27zM350 550l-116 120
l-116 -120l-15 14l120 165h22l120 -165z" />
    <glyph glyph-name="Gbreve" unicode="&#x11e;" horiz-adv-x="684" 
d="M601 95v-49q-105 -60 -213 -60q-148 0 -239.5 98t-91.5 253t93 253t240 98q112 0 201 -55l4 -141h-39l-18 123q-62 40 -143 40q-124 0 -200 -86t-76 -232q0 -147 74.5 -232t200.5 -85q80 0 153 37v38q0 63 -2 189l-114 7v28h242v-28l-70 -6q-2 -114 -2 -190zM235 856
l21 7q29 -88 117 -88q87 0 117 88l21 -7q-9 -49 -44.5 -85t-93.5 -36t-93.5 36t-44.5 85z" />
    <glyph glyph-name="gbreve" unicode="&#x11f;" horiz-adv-x="512" 
d="M239 456q-55 0 -88.5 -38t-33.5 -98q0 -61 33 -99t87 -38q55 0 89 38.5t34 99.5q0 60 -33 97.5t-88 37.5zM68 320q0 75 47.5 120t123.5 45q68 0 113 -36l115 31l15 -10v-43h-108q35 -43 35 -107q0 -75 -48 -120t-123 -45q-41 0 -75 14q-42 -47 -42 -81q0 -49 79 -49h139
q69 0 105 -30.5t36 -88.5q0 -67 -60.5 -115t-170.5 -48q-97 0 -150.5 35t-53.5 94q0 71 89 116q-57 17 -57 68q0 49 66 109q-75 41 -75 141zM252 -210q86 0 133.5 33.5t47.5 85.5q0 82 -104 82h-122q-32 0 -55 4q-57 -44 -57 -99q0 -52 41 -79t116 -27zM98 725l21 7
q35 -109 124 -109t124 109l21 -7q-9 -63 -47 -103.5t-98 -40.5t-98 40.5t-47 103.5z" />
    <glyph glyph-name="Gdotaccent" unicode="&#x120;" horiz-adv-x="684" 
d="M601 95v-49q-105 -60 -213 -60q-148 0 -239.5 98t-91.5 253t93 253t240 98q112 0 201 -55l4 -141h-39l-18 123q-62 40 -143 40q-124 0 -200 -86t-76 -232q0 -147 74.5 -232t200.5 -85q80 0 153 37v38q0 63 -2 189l-114 7v28h242v-28l-70 -6q-2 -114 -2 -190zM381 750
q-19 0 -32.5 13t-13.5 32t13.5 32t32.5 13t32.5 -13t13.5 -32t-13.5 -32t-32.5 -13z" />
    <glyph glyph-name="gdotaccent" unicode="&#x121;" horiz-adv-x="512" 
d="M239 456q-55 0 -88.5 -38t-33.5 -98q0 -61 33 -99t87 -38q55 0 89 38.5t34 99.5q0 60 -33 97.5t-88 37.5zM68 320q0 75 47.5 120t123.5 45q68 0 113 -36l115 31l15 -10v-43h-108q35 -43 35 -107q0 -75 -48 -120t-123 -45q-41 0 -75 14q-42 -47 -42 -81q0 -49 79 -49h139
q69 0 105 -30.5t36 -88.5q0 -67 -60.5 -115t-170.5 -48q-97 0 -150.5 35t-53.5 94q0 71 89 116q-57 17 -57 68q0 49 66 109q-75 41 -75 141zM245 611q-19 0 -32.5 12.5t-13.5 31.5q0 20 13.5 32.5t32.5 12.5t32.5 -12.5t13.5 -32.5q0 -19 -13.5 -31.5t-32.5 -12.5zM252 -210
q86 0 133.5 33.5t47.5 85.5q0 82 -104 82h-122q-32 0 -55 4q-57 -44 -57 -99q0 -52 41 -79t116 -27z" />
    <glyph glyph-name="uni0122" unicode="&#x122;" horiz-adv-x="684" 
d="M601 95v-49q-105 -60 -213 -60q-148 0 -239.5 98t-91.5 253t93 253t240 98q112 0 201 -55l4 -141h-39l-18 123q-62 40 -143 40q-124 0 -200 -86t-76 -232q0 -147 74.5 -232t200.5 -85q80 0 153 37v38q0 63 -2 189l-114 7v28h242v-28l-70 -6q-2 -114 -2 -190zM433 -109
q0 -46 -33.5 -80.5t-83.5 -49.5l-8 21q61 24 86 71q-42 17 -42 49q0 17 11 27t27 10q22 0 37 -14q6 -18 6 -34z" />
    <glyph glyph-name="uni0123" unicode="&#x123;" horiz-adv-x="512" 
d="M208 626q0 46 34 80.5t84 49.5l8 -21q-62 -24 -86 -71q42 -18 42 -49q0 -17 -11 -27t-28 -10q-21 0 -36 14q-7 17 -7 34zM239 456q-55 0 -88.5 -38t-33.5 -98q0 -61 33 -99t87 -38q55 0 89 38.5t34 99.5q0 60 -33 97.5t-88 37.5zM68 320q0 75 47.5 120t123.5 45
q68 0 113 -36l115 31l15 -10v-43h-108q35 -43 35 -107q0 -75 -48 -120t-123 -45q-41 0 -75 14q-42 -47 -42 -81q0 -49 79 -49h139q69 0 105 -30.5t36 -88.5q0 -67 -60.5 -115t-170.5 -48q-97 0 -150.5 35t-53.5 94q0 71 89 116q-57 17 -57 68q0 49 66 109q-75 41 -75 141z
M252 -210q86 0 133.5 33.5t47.5 85.5q0 82 -104 82h-122q-32 0 -55 4q-57 -44 -57 -99q0 -52 41 -79t116 -27z" />
    <glyph glyph-name="Hcircumflex" unicode="&#x124;" horiz-adv-x="792" 
d="M156 310v54q0 183 -1 274l-102 8v28h261v-28l-102 -8q-2 -90 -2 -270h372q0 184 -1 270l-102 8v28h261v-28l-102 -8q-2 -90 -2 -274v-54q0 -183 2 -274l102 -8v-28h-261v28l102 8q1 91 1 301h-372q0 -214 2 -301l102 -8v-28h-261v28l102 8q1 91 1 274zM407 847l130 -112
l-13 -16l-128 80l-128 -80l-13 16l130 112h22z" />
    <glyph glyph-name="hcircumflex" unicode="&#x125;" horiz-adv-x="605" 
d="M127 210v479l-88 4v26l124 26l15 -8l-3 -142v-214q91 104 193 104q61 0 92.5 -41.5t31.5 -134.5v-99q0 -74 2 -174l77 -10v-26h-214v26l84 10q2 102 2 174v96q0 72 -23.5 103t-70.5 31q-85 0 -173 -93v-137q0 -72 2 -174l77 -10v-26h-214v26l84 10q2 102 2 174zM293 889
l130 -112l-13 -16l-128 80l-128 -80l-13 16l130 112h22z" />
    <glyph glyph-name="Hbar" unicode="&#x126;" horiz-adv-x="793" 
d="M156 310v54v123h-121v32h121q0 20 -0.5 59.5t-0.5 59.5l-102 8v28h261v-28l-102 -8q-1 -20 -1.5 -59.5t-0.5 -59.5h372q0 20 -0.5 59.5t-0.5 59.5l-102 8v28h261v-28l-102 -8q0 -20 -1 -59.5t-1 -59.5h122v-32h-122v-123v-54q0 -183 2 -274l102 -8v-28h-261v28l102 8
q1 91 1 281h-372q0 -196 2 -281l102 -8v-28h-261v28l102 8q1 91 1 274zM210 364v-16h372v16v123h-372v-123z" />
    <glyph glyph-name="hbar" unicode="&#x127;" horiz-adv-x="605" 
d="M41 0v26l84 10q2 102 2 174v356h-88v33h88v90l-88 4v26l124 26l15 -8l-3 -138h194v-33h-194v-206q91 104 193 104q61 0 92.5 -41.5t31.5 -134.5v-78q0 -74 2 -174l77 -10v-26h-214v26l84 10q2 102 2 174v76q0 71 -23.5 102t-70.5 31q-86 0 -173 -92v-117q0 -72 2 -174
l77 -10v-26h-214z" />
    <glyph glyph-name="Itilde" unicode="&#x128;" horiz-adv-x="366" 
d="M156 310v54q0 183 -1 274l-102 8v28h261v-28l-102 -8q-2 -90 -2 -274v-54q0 -183 2 -274l102 -8v-28h-261v28l102 8q1 91 1 274zM12 746q19 106 97 106q41 0 82 -39q33 -33 51 -39q9 -3 19 -3q48 0 71 76l22 -7q-19 -106 -97 -106q-43 0 -82 39l-7 7l-7.5 7.5l-6.5 6.5
t-7.5 6.5t-7 5t-8 4.5t-8 3t-9 2.5t-9.5 0.5q-47 0 -71 -77z" />
    <glyph glyph-name="itilde" unicode="&#x129;" horiz-adv-x="301" 
d="M43 0v26l84 10q2 102 2 174v48q0 93 -3 162l-88 4v26l131 32l12 -8l-3 -124v-140q0 -72 2 -174l77 -10v-26h-214zM-4 594q17 107 88 107q38 0 73 -39q2 -2 7.5 -8.5t7.5 -8t7 -7t7.5 -7t7 -5t8 -4.5t8.5 -2t10 -1q43 0 64 76l20 -6q-17 -106 -88 -106q-39 0 -73 38
q-2 3 -8.5 9.5t-9 9.5t-7.5 8t-8.5 7l-8.5 5t-10 4t-11 1q-43 0 -64 -77z" />
    <glyph glyph-name="Imacron" unicode="&#x12a;" horiz-adv-x="366" 
d="M156 310v54q0 183 -1 274l-102 8v28h261v-28l-102 -8q-2 -90 -2 -274v-54q0 -183 2 -274l102 -8v-28h-261v28l102 8q1 91 1 274zM35 764v40h296v-40h-296z" />
    <glyph glyph-name="imacron" unicode="&#x12b;" horiz-adv-x="301" 
d="M43 0v26l84 10q2 102 2 174v48q0 93 -3 162l-88 4v26l131 32l12 -8l-3 -124v-140q0 -72 2 -174l77 -10v-26h-214zM14 617v40h248v-40h-248z" />
    <glyph glyph-name="Iogonek" unicode="&#x12e;" horiz-adv-x="366" 
d="M110 -133q0 37 21.5 72.5t52.5 60.5h-131v28l102 8q1 91 1 274v54q0 183 -1 274l-102 8v28h261v-28l-102 -8q-2 -90 -2 -274v-54q0 -183 2 -274l102 -8v-28h-106q-56 -51 -56 -112q0 -35 18.5 -54t48.5 -19q31 0 60 21l12 -15q-31 -43 -92 -43q-39 0 -64 23.5t-25 65.5z
" />
    <glyph glyph-name="iogonek" unicode="&#x12f;" horiz-adv-x="301" 
d="M149 627q-19 0 -32.5 12t-13.5 32t13.5 32.5t32.5 12.5t32.5 -12.5t13.5 -32.5t-13.5 -32t-32.5 -12zM76 -133q0 37 21.5 72.5t52.5 60.5h-107v26l84 10q2 102 2 174v48q0 109 -2 162l-89 4v26l130 32l12 -8l-2 -124v-140q0 -72 2 -174l77 -10v-26h-83q-56 -51 -56 -112
q0 -35 18.5 -54t48.5 -19q31 0 60 21l12 -15q-31 -43 -92 -43q-39 0 -64 23.5t-25 65.5z" />
    <glyph glyph-name="Idotaccent" unicode="&#x130;" horiz-adv-x="366" 
d="M156 310v54q0 183 -1 274l-102 8v28h261v-28l-102 -8q-2 -90 -2 -274v-54q0 -183 2 -274l102 -8v-28h-261v28l102 8q1 91 1 274zM183 750q-19 0 -32.5 13t-13.5 32t13.5 32t32.5 13t32.5 -13t13.5 -32t-13.5 -32t-32.5 -13z" />
    <glyph glyph-name="dotlessi" unicode="&#x131;" horiz-adv-x="301" 
d="M43 0v26l84 10q2 102 2 174v48q0 93 -3 162l-88 4v26l131 32l12 -8l-3 -124v-140q0 -72 2 -174l77 -10v-26h-214z" />
    <glyph glyph-name="Jcircumflex" unicode="&#x134;" horiz-adv-x="363" 
d="M55 646v28h271v-28l-101 -8q-2 -91 -2 -277v-162q0 -107 -6 -160q-9 -89 -61 -140.5t-123 -51.5q-57 0 -69 32q7 34 48 34q31 0 65 -22l15 -10q79 45 79 177q0 102 -5 580zM204 847l130 -112l-13 -16l-128 80l-128 -80l-13 16l130 112h22z" />
    <glyph glyph-name="jcircumflex" unicode="&#x135;" horiz-adv-x="277" 
d="M126 76v180q0 92 -3 162l-88 4v26l129 31l12 -7l-2 -124v-230q0 -152 -10 -214.5t-43 -102.5q-45 -54 -112 -54q-68 0 -75 35q9 28 44 28q27 0 60 -19l14 -8q25 15 37 33q23 36 30 90t7 170zM255 550l-116 120l-116 -120l-15 14l120 165h22l120 -165z" />
    <glyph glyph-name="uni0136" unicode="&#x136;" horiz-adv-x="664" 
d="M156 310v54q0 183 -1 274l-102 8v28h261v-28l-103 -8q-2 -90 -2 -274v-97l304 369l-98 10v28h227v-28l-85 -9l-191 -230l212 -371l87 -8v-28h-239v28l94 8l-188 330l-123 -148q0 -112 2 -182l103 -8v-28h-261v28l102 8q1 91 1 274zM406 -109q0 -46 -33.5 -80.5
t-83.5 -49.5l-8 21q61 24 86 71q-42 17 -42 49q0 17 11 27t27 10q22 0 37 -14q6 -18 6 -34z" />
    <glyph glyph-name="uni0137" unicode="&#x137;" horiz-adv-x="543" 
d="M39 719l126 26l14 -8l-3 -142v-369l202 207l-85 11v28h225v-28l-93 -8l-131 -132l170 -270l76 -8v-26h-114l-168 268l-82 -83q0 -59 2 -149l81 -10v-26h-220v26l86 10q2 106 2 174v479l-88 4v26zM345 -109q0 -46 -33.5 -80.5t-83.5 -49.5l-8 21q61 24 86 71
q-42 17 -42 49q0 17 11 27t27 10q22 0 37 -14q6 -18 6 -34z" />
    <glyph glyph-name="kgreenlandic" unicode="&#x138;" horiz-adv-x="547" 
d="M42 0v26l84 10q2 102 2 174v46q0 92 -3 162l-88 4v26l131 31l12 -7l-3 -111v-136l202 205l-86 12v27h225v-27l-93 -9l-130 -130l170 -268l77 -9v-26h-115l-167 268l-83 -83q0 -63 2 -149l77 -10v-26h-214z" />
    <glyph glyph-name="Lacute" unicode="&#x139;" horiz-adv-x="577" 
d="M156 364q0 184 -1 274l-102 8v28h261v-28l-102 -8q-2 -91 -2 -296v-53q0 -165 2 -256h269l22 140h38l-10 -173h-478v28l102 8q1 91 1 274v54zM175 743l99 90q37 33 53 33q11 0 18.5 -6.5t7.5 -16.5q0 -11 -10.5 -20.5t-36.5 -25.5l-119 -70z" />
    <glyph glyph-name="lacute" unicode="&#x13a;" horiz-adv-x="300" 
d="M39 719l126 26l14 -8l-3 -142v-385q0 -68 2 -174l90 -10v-26h-235v26l92 10q2 106 2 174v479l-88 4v26zM119 784l99 90q37 33 53 33q11 0 18.5 -6.5t7.5 -16.5q0 -11 -10.5 -20.5t-36.5 -25.5l-119 -70z" />
    <glyph glyph-name="uni013B" unicode="&#x13b;" horiz-adv-x="577" 
d="M156 364q0 184 -1 274l-102 8v28h261v-28l-102 -8q-2 -91 -2 -296v-53q0 -165 2 -256h269l22 140h38l-10 -173h-478v28l102 8q1 91 1 274v54zM348 -109q0 -46 -33.5 -80.5t-83.5 -49.5l-8 21q61 24 86 71q-42 17 -42 49q0 17 11 27t27 10q22 0 37 -14q6 -18 6 -34z" />
    <glyph glyph-name="uni013C" unicode="&#x13c;" horiz-adv-x="300" 
d="M39 719l126 26l14 -8l-3 -142v-385q0 -68 2 -174l90 -10v-26h-235v26l92 10q2 106 2 174v479l-88 4v26zM190 -109q0 -46 -33.5 -80.5t-83.5 -49.5l-8 21q61 24 86 71q-42 17 -42 49q0 17 11 27t27 10q22 0 37 -14q6 -18 6 -34z" />
    <glyph glyph-name="Lcaron" unicode="&#x13d;" horiz-adv-x="577" 
d="M464 742q24 0 24 -27q0 -14 -22 -131l-13 -65h-21l2 215q13 8 30 8zM156 364q0 184 -1 274l-102 8v28h261v-28l-102 -8q-2 -91 -2 -296v-53q0 -165 2 -256h269l22 140h38l-10 -173h-478v28l102 8q1 91 1 274v54z" />
    <glyph glyph-name="lcaron" unicode="&#x13e;" horiz-adv-x="316" 
d="M301 752q24 0 24 -27q0 -14 -22 -131l-12 -65h-22l3 215q12 8 29 8zM39 719l126 26l14 -8l-3 -142v-385q0 -68 2 -174l90 -10v-26h-235v26l92 10q2 106 2 174v479l-88 4v26z" />
    <glyph glyph-name="Ldot" unicode="&#x13f;" horiz-adv-x="577" 
d="M156 364q0 184 -1 274l-102 8v28h261v-28l-102 -8q-2 -91 -2 -296v-53q0 -165 2 -256h269l22 140h38l-10 -173h-478v28l102 8q1 91 1 274v54zM457 329q-21 0 -35 14.5t-14 33.5q0 20 14 34.5t35 14.5t35 -14.5t14 -34.5q0 -19 -14 -33.5t-35 -14.5z" />
    <glyph glyph-name="ldot" unicode="&#x140;" horiz-adv-x="305" 
d="M39 719l126 26l14 -8l-3 -142v-385q0 -68 2 -174l90 -10v-26h-235v26l92 10q2 106 2 174v479l-88 4v26zM302 325q-21 0 -35 14.5t-14 33.5q0 20 14 34.5t35 14.5t35 -14.5t14 -34.5q0 -19 -14 -33.5t-35 -14.5z" />
    <glyph glyph-name="Lslash" unicode="&#x141;" horiz-adv-x="577" 
d="M156 365q0 184 -1 274l-102 8v28h261v-28l-102 -8q-2 -91 -2 -290l186 107v-35l-186 -107v-24q0 -165 2 -256h269l22 140h38l-10 -173h-478v28l102 8q1 82 1 249l-103 -59v34l103 59v45z" />
    <glyph glyph-name="lslash" unicode="&#x142;" horiz-adv-x="300" 
d="M39 719l126 26l14 -8l-3 -142v-179l90 51v-35l-90 -49v-173q0 -68 2 -174l90 -10v-26h-235v26l92 10q2 106 2 174v147l-96 -53v34l96 54v297l-88 4v26z" />
    <glyph glyph-name="Nacute" unicode="&#x143;" horiz-adv-x="733" 
d="M462 646v28h232v-28l-89 -9v-644h-25l-412 590v-546l110 -9v-28h-233v28l88 9v596l-5 7l-87 6v28h130l400 -577v540zM323 737l99 90q37 33 53 33q11 0 18.5 -6.5t7.5 -16.5q0 -11 -10.5 -20.5t-36.5 -25.5l-119 -70z" />
    <glyph glyph-name="nacute" unicode="&#x144;" horiz-adv-x="604" 
d="M368 485q61 0 92 -41.5t31 -134.5v-99q0 -74 2 -174l77 -10v-26h-214v26l84 10q2 102 2 174v96q0 72 -23.5 103t-69.5 31q-84 0 -172 -92v-138q0 -72 2 -174l77 -10v-26h-214v26l84 10q2 102 2 174v48q0 93 -3 162l-88 4v26l122 32l12 -8l5 -92q91 103 192 103zM280 574
l96 137q24 35 42 35q10 0 17.5 -7t7.5 -18q0 -15 -31 -46l-116 -114z" />
    <glyph glyph-name="uni0145" unicode="&#x145;" horiz-adv-x="733" 
d="M462 646v28h232v-28l-89 -9v-644h-25l-412 590v-546l110 -9v-28h-233v28l88 9v596l-5 7l-87 6v28h130l400 -577v540zM435 -105q0 -46 -33.5 -80.5t-83.5 -49.5l-8 21q61 24 86 71q-42 17 -42 49q0 17 11 27t27 10q22 0 37 -14q6 -18 6 -34z" />
    <glyph glyph-name="uni0146" unicode="&#x146;" horiz-adv-x="604" 
d="M368 485q61 0 92 -41.5t31 -134.5v-99q0 -74 2 -174l77 -10v-26h-214v26l84 10q2 102 2 174v96q0 72 -23.5 103t-69.5 31q-84 0 -172 -92v-138q0 -72 2 -174l77 -10v-26h-214v26l84 10q2 102 2 174v48q0 93 -3 162l-88 4v26l122 32l12 -8l5 -92q91 103 192 103zM352 -109
q0 -46 -33.5 -80.5t-83.5 -49.5l-8 21q61 24 86 71q-42 17 -42 49q0 17 11 27t27 10q22 0 37 -14q6 -18 6 -34z" />
    <glyph glyph-name="Ncaron" unicode="&#x147;" horiz-adv-x="733" 
d="M462 646v28h232v-28l-89 -9v-644h-25l-412 590v-546l110 -9v-28h-233v28l88 9v596l-5 7l-87 6v28h130l400 -577v540zM251 862l112 -89l112 89l16 -15l-107 -115h-42l-107 115z" />
    <glyph glyph-name="ncaron" unicode="&#x148;" horiz-adv-x="604" 
d="M368 485q61 0 92 -41.5t31 -134.5v-99q0 -74 2 -174l77 -10v-26h-214v26l84 10q2 102 2 174v96q0 72 -23.5 103t-69.5 31q-84 0 -172 -92v-138q0 -72 2 -174l77 -10v-26h-214v26l84 10q2 102 2 174v48q0 93 -3 162l-88 4v26l122 32l12 -8l5 -92q91 103 192 103zM190 725
l116 -108l116 108l16 -14l-111 -141h-42l-111 141z" />
    <glyph glyph-name="napostrophe" unicode="&#x149;" horiz-adv-x="754" 
d="M518 485q61 0 92 -41.5t31 -134.5v-99q0 -74 2 -174l77 -10v-26h-214v26l84 10q2 102 2 174v96q0 72 -23.5 103t-69.5 31q-84 0 -172 -92v-138q0 -72 2 -174l77 -10v-26h-214v26l84 10q2 102 2 174v48q0 93 -3 162l-88 4v26l122 32l12 -8l5 -92q91 103 192 103zM162 676
q0 -52 -30 -99.5t-80 -81.5l-13 18q38 30 58.5 59t30.5 70l-26 21q-30 25 -30 53q0 18 10.5 28t27.5 10q20 0 32 -9q20 -31 20 -69z" />
    <glyph glyph-name="Omacron" unicode="&#x14c;" horiz-adv-x="706" 
d="M119 337q0 -133 62.5 -225t171.5 -92q110 0 172.5 92t62.5 225t-62.5 225.5t-172.5 92.5q-109 0 -171.5 -92.5t-62.5 -225.5zM353 688q125 0 211 -96t86 -255q0 -157 -86 -254t-211 -97t-210.5 96t-85.5 255q0 157 86 254t210 97zM206 764v40h296v-40h-296z" />
    <glyph glyph-name="omacron" unicode="&#x14d;" horiz-adv-x="542" 
d="M271 -13q-90 0 -155.5 64t-65.5 183t65.5 185t155.5 66q89 0 155.5 -66t66.5 -185t-66 -183t-156 -64zM271 17q77 0 121.5 57.5t44.5 159.5q0 103 -45 161.5t-121 58.5q-77 0 -121.5 -58.5t-44.5 -161.5t44.5 -160t121.5 -57zM147 617v40h248v-40h-248z" />
    <glyph glyph-name="uni014E" unicode="&#x14e;" horiz-adv-x="706" 
d="M119 337q0 -133 62.5 -225t171.5 -92q110 0 172.5 92t62.5 225t-62.5 225.5t-172.5 92.5q-109 0 -171.5 -92.5t-62.5 -225.5zM353 688q125 0 211 -96t86 -255q0 -157 -86 -254t-211 -97t-210.5 96t-85.5 255q0 157 86 254t210 97zM215 866l21 7q29 -88 117 -88
q87 0 117 88l21 -7q-9 -49 -44.5 -85t-93.5 -36t-93.5 36t-44.5 85z" />
    <glyph glyph-name="uni014F" unicode="&#x14f;" horiz-adv-x="542" 
d="M271 -13q-90 0 -155.5 64t-65.5 183t65.5 185t155.5 66q89 0 155.5 -66t66.5 -185t-66 -183t-156 -64zM271 17q77 0 121.5 57.5t44.5 159.5q0 103 -45 161.5t-121 58.5q-77 0 -121.5 -58.5t-44.5 -161.5t44.5 -160t121.5 -57zM126 725l21 7q35 -109 124 -109t124 109
l21 -7q-9 -63 -47 -103.5t-98 -40.5t-98 40.5t-47 103.5z" />
    <glyph glyph-name="Ohungarumlaut" unicode="&#x150;" horiz-adv-x="706" 
d="M119 337q0 -133 62.5 -225t171.5 -92q110 0 172.5 92t62.5 225t-62.5 225.5t-172.5 92.5q-109 0 -171.5 -92.5t-62.5 -225.5zM353 688q125 0 211 -96t86 -255q0 -157 -86 -254t-211 -97t-210.5 96t-85.5 255q0 157 86 254t210 97zM264 732l71 115q15 28 36 28
q10 0 16.5 -6.5t6.5 -16.5q0 -15 -17 -33l-96 -99zM404 732l70 115q16 28 36 28q10 0 16.5 -6.5t6.5 -16.5q0 -14 -16 -33l-96 -99z" />
    <glyph glyph-name="ohungarumlaut" unicode="&#x151;" horiz-adv-x="542" 
d="M271 -13q-90 0 -155.5 64t-65.5 183t65.5 185t155.5 66q89 0 155.5 -66t66.5 -185t-66 -183t-156 -64zM271 17q77 0 121.5 57.5t44.5 159.5q0 103 -45 161.5t-121 58.5q-77 0 -121.5 -58.5t-44.5 -161.5t44.5 -160t121.5 -57zM186 567l60 144q15 35 36 35q10 0 17 -7
t7 -17q0 -17 -15 -37l-86 -129zM323 567l60 144q15 35 36 35q10 0 17 -7t7 -17q0 -15 -15 -37l-86 -129z" />
    <glyph glyph-name="OE" unicode="&#x152;" horiz-adv-x="922" 
d="M120 337q0 -64 15.5 -119.5t47 -100.5t83.5 -71t120 -26q53 0 88 11q2 92 2 279v54q0 187 -2 280q-40 11 -88 11q-68 0 -120 -26t-83.5 -71t-47 -101t-15.5 -120zM844 163h37l-9 -163h-373q-60 -14 -116 -14q-144 0 -235 96t-91 255t91 255t235 96q57 0 116 -14h357
l9 -163h-37l-19 130h-277q-2 -91 -2 -283h178l11 96h30v-224h-30l-11 96h-178q0 -206 2 -293h294z" />
    <glyph glyph-name="oe" unicode="&#x153;" horiz-adv-x="880" 
d="M271 454q-77 0 -121.5 -58.5t-44.5 -161.5q0 -102 44.5 -159.5t121.5 -57.5t121.5 56.5t44.5 158.5q0 103 -44.5 162.5t-121.5 59.5zM648 454q-63 0 -108.5 -50.5t-52.5 -132.5h259q21 0 29 10.5t8 33.5q0 57 -36.5 98t-98.5 41zM829 81q-60 -94 -177 -94
q-63 0 -113.5 32t-76.5 92q-27 -60 -79.5 -92t-111.5 -32q-90 0 -155.5 64t-65.5 183t65.5 185t155.5 66q60 0 113.5 -33.5t79.5 -95.5q26 59 77 94t109 35q83 0 133 -53t50 -135q0 -36 -7 -56h-340q1 -105 51.5 -159t126.5 -54q93 0 150 67z" />
    <glyph glyph-name="Racute" unicode="&#x154;" horiz-adv-x="648" 
d="M287 743l99 90q37 33 53 33q11 0 18.5 -6.5t7.5 -16.5q0 -11 -10.5 -20.5t-36.5 -25.5l-119 -70zM156 310v54q0 183 -1 274l-102 8v28h267q110 0 169 -45.5t59 -130.5q0 -67 -44 -114.5t-122 -61.5q38 -10 59.5 -34.5t37.5 -73.5l61 -179l90 -7v-28q-24 -7 -67 -7
q-39 0 -56.5 11t-25.5 37l-54 172q-18 58 -45.5 79.5t-92.5 21.5h-79q0 -192 2 -278l102 -8v-28h-261v28l102 8q1 91 1 274zM318 642h-106q-2 -92 -2 -298h110q78 0 125.5 43.5t47.5 110.5q0 144 -175 144z" />
    <glyph glyph-name="racute" unicode="&#x155;" horiz-adv-x="411" 
d="M43 0v26l83 10q2 102 2 174v48q0 93 -3 162l-88 4v26l122 32l12 -8l6 -125q23 61 66.5 98.5t91.5 37.5q23 0 42.5 -9t26.5 -21q0 -47 -42 -47q-23 0 -54 26l-11 10q-76 -32 -120 -145v-89q0 -72 2 -174l90 -10v-26h-226zM192 574l96 137q24 35 42 35q10 0 17.5 -7
t7.5 -18q0 -15 -31 -46l-116 -114z" />
    <glyph glyph-name="uni0156" unicode="&#x156;" horiz-adv-x="648" 
d="M156 310v54q0 183 -1 274l-102 8v28h267q110 0 169 -45.5t59 -130.5q0 -67 -44 -114.5t-122 -61.5q38 -10 59.5 -34.5t37.5 -73.5l61 -179l90 -7v-28q-24 -7 -67 -7q-39 0 -56.5 11t-25.5 37l-54 172q-18 58 -45.5 79.5t-92.5 21.5h-79q0 -192 2 -278l102 -8v-28h-261v28
l102 8q1 91 1 274zM318 642h-106q-2 -92 -2 -298h110q78 0 125.5 43.5t47.5 110.5q0 144 -175 144zM413 -105q0 -46 -33.5 -80.5t-83.5 -49.5l-8 21q61 24 86 71q-42 17 -42 49q0 17 11 27t27 10q22 0 37 -14q6 -18 6 -34z" />
    <glyph glyph-name="uni0157" unicode="&#x157;" horiz-adv-x="411" 
d="M43 0v26l83 10q2 102 2 174v48q0 93 -3 162l-88 4v26l122 32l12 -8l6 -125q23 61 66.5 98.5t91.5 37.5q23 0 42.5 -9t26.5 -21q0 -47 -42 -47q-23 0 -54 26l-11 10q-76 -32 -120 -145v-89q0 -72 2 -174l90 -10v-26h-226zM189 -109q0 -46 -33.5 -80.5t-83.5 -49.5l-8 21
q61 24 86 71q-42 17 -42 49q0 17 11 27t27 10q22 0 37 -14q6 -18 6 -34z" />
    <glyph glyph-name="Rcaron" unicode="&#x158;" horiz-adv-x="648" 
d="M156 310v54q0 183 -1 274l-102 8v28h267q110 0 169 -45.5t59 -130.5q0 -67 -44 -114.5t-122 -61.5q38 -10 59.5 -34.5t37.5 -73.5l61 -179l90 -7v-28q-24 -7 -67 -7q-39 0 -56.5 11t-25.5 37l-54 172q-18 58 -45.5 79.5t-92.5 21.5h-79q0 -192 2 -278l102 -8v-28h-261v28
l102 8q1 91 1 274zM318 642h-106q-2 -92 -2 -298h110q78 0 125.5 43.5t47.5 110.5q0 144 -175 144zM210 866l112 -89l112 89l16 -15l-107 -115h-42l-107 115z" />
    <glyph glyph-name="rcaron" unicode="&#x159;" horiz-adv-x="411" 
d="M43 0v26l83 10q2 102 2 174v48q0 93 -3 162l-88 4v26l122 32l12 -8l6 -125q23 61 66.5 98.5t91.5 37.5q23 0 42.5 -9t26.5 -21q0 -47 -42 -47q-23 0 -54 26l-11 10q-76 -32 -120 -145v-89q0 -72 2 -174l90 -10v-26h-226zM107 725l116 -108l116 108l16 -14l-111 -141h-42
l-111 141z" />
    <glyph glyph-name="Sacute" unicode="&#x15a;" horiz-adv-x="513" 
d="M238 20q81 0 129 36t48 105q0 53 -31.5 85.5t-115.5 65.5l-37 15q-81 33 -121.5 78.5t-40.5 111.5q0 82 58.5 126.5t145.5 44.5q89 0 162 -50l-4 -124h-37l-15 113q-46 28 -107 28q-69 0 -111.5 -33t-42.5 -95q0 -52 31 -85.5t92 -57.5l39 -15q105 -42 144.5 -86.5
t39.5 -114.5q0 -83 -63 -132.5t-162 -49.5q-109 0 -190 54l5 131h36l15 -116q57 -35 133 -35zM220 743l99 90q37 33 53 33q11 0 18.5 -6.5t7.5 -16.5q0 -11 -10.5 -20.5t-36.5 -25.5l-119 -70z" />
    <glyph glyph-name="sacute" unicode="&#x15b;" horiz-adv-x="429" 
d="M201 -13q-71 0 -145 34l-4 104h35l16 -88q42 -20 100 -20q63 0 96 25.5t33 67.5q0 35 -22.5 57t-79.5 42l-47 17q-119 43 -119 130q0 56 42.5 92.5t118.5 36.5q67 0 135 -41l-3 -94h-33l-11 80q-41 24 -91 24q-54 0 -82 -24t-28 -62q0 -35 22 -55.5t76 -40.5l42 -16
q70 -26 99 -57.5t29 -77.5q0 -57 -46.5 -95.5t-132.5 -38.5zM188 574l96 137q24 35 42 35q10 0 17.5 -7t7.5 -18q0 -15 -31 -46l-116 -114z" />
    <glyph glyph-name="Scircumflex" unicode="&#x15c;" horiz-adv-x="513" 
d="M238 20q81 0 129 36t48 105q0 53 -31.5 85.5t-115.5 65.5l-37 15q-81 33 -121.5 78.5t-40.5 111.5q0 82 58.5 126.5t145.5 44.5q89 0 162 -50l-4 -124h-37l-15 113q-46 28 -107 28q-69 0 -111.5 -33t-42.5 -95q0 -52 31 -85.5t92 -57.5l39 -15q105 -42 144.5 -86.5
t39.5 -114.5q0 -83 -63 -132.5t-162 -49.5q-109 0 -190 54l5 131h36l15 -116q57 -35 133 -35zM279 847l130 -112l-13 -16l-128 80l-128 -80l-13 16l130 112h22z" />
    <glyph glyph-name="scircumflex" unicode="&#x15d;" horiz-adv-x="429" 
d="M201 -13q-71 0 -145 34l-4 104h35l16 -88q42 -20 100 -20q63 0 96 25.5t33 67.5q0 35 -22.5 57t-79.5 42l-47 17q-119 43 -119 130q0 56 42.5 92.5t118.5 36.5q67 0 135 -41l-3 -94h-33l-11 80q-41 24 -91 24q-54 0 -82 -24t-28 -62q0 -35 22 -55.5t76 -40.5l42 -16
q70 -26 99 -57.5t29 -77.5q0 -57 -46.5 -95.5t-132.5 -38.5zM339 550l-116 120l-116 -120l-15 14l120 165h22l120 -165z" />
    <glyph glyph-name="uni015E" unicode="&#x15e;" horiz-adv-x="513" 
d="M238 20q81 0 129 36t48 105q0 53 -31.5 85.5t-115.5 65.5l-37 15q-81 33 -121.5 78.5t-40.5 111.5q0 82 58.5 126.5t145.5 44.5q89 0 162 -50l-4 -124h-37l-15 113q-46 28 -107 28q-69 0 -111.5 -33t-42.5 -95q0 -52 31 -85.5t92 -57.5l39 -15q105 -42 144.5 -86.5
t39.5 -114.5q0 -78 -56 -127t-146 -54l-6 -46q42 -5 67.5 -26t25.5 -53q0 -35 -26.5 -56.5t-74.5 -21.5q-32 0 -62 10l6 21q36 -6 51 -6q63 0 63 53t-82 57l11 67q-106 1 -186 54l5 131h36l15 -116q57 -35 133 -35z" />
    <glyph glyph-name="uni015F" unicode="&#x15f;" horiz-adv-x="429" 
d="M182 -81l11 68q-65 1 -137 34l-4 104h35l16 -88q42 -20 100 -20q63 0 96 25.5t33 67.5q0 35 -22.5 57t-79.5 42l-47 17q-119 43 -119 130q0 56 42.5 92.5t118.5 36.5q67 0 135 -41l-3 -94h-33l-11 80q-41 24 -91 24q-54 0 -82 -24t-28 -62q0 -35 22 -55.5t76 -40.5
l42 -16q70 -26 99 -57.5t29 -77.5q0 -53 -41.5 -91t-118.5 -42l-6 -47q42 -5 67.5 -26t25.5 -53q0 -35 -26.5 -56.5t-74.5 -21.5q-32 0 -62 10l6 21q36 -6 51 -6q63 0 63 53t-82 57z" />
    <glyph glyph-name="Scaron" unicode="&#x160;" horiz-adv-x="513" 
d="M238 20q81 0 129 36t48 105q0 53 -31.5 85.5t-115.5 65.5l-37 15q-81 33 -121.5 78.5t-40.5 111.5q0 82 58.5 126.5t145.5 44.5q89 0 162 -50l-4 -124h-37l-15 113q-46 28 -107 28q-69 0 -111.5 -33t-42.5 -95q0 -52 31 -85.5t92 -57.5l39 -15q105 -42 144.5 -86.5
t39.5 -114.5q0 -83 -63 -132.5t-162 -49.5q-109 0 -190 54l5 131h36l15 -116q57 -35 133 -35zM163 866l112 -89l112 89l16 -15l-107 -115h-42l-107 115z" />
    <glyph glyph-name="scaron" unicode="&#x161;" horiz-adv-x="429" 
d="M201 -13q-71 0 -145 34l-4 104h35l16 -88q42 -20 100 -20q63 0 96 25.5t33 67.5q0 35 -22.5 57t-79.5 42l-47 17q-119 43 -119 130q0 56 42.5 92.5t118.5 36.5q67 0 135 -41l-3 -94h-33l-11 80q-41 24 -91 24q-54 0 -82 -24t-28 -62q0 -35 22 -55.5t76 -40.5l42 -16
q70 -26 99 -57.5t29 -77.5q0 -57 -46.5 -95.5t-132.5 -38.5zM111 725l116 -108l116 108l16 -14l-111 -141h-42l-111 141z" />
    <glyph glyph-name="uni0162" unicode="&#x162;" horiz-adv-x="597" 
d="M272 -81l13 81h-127v28l112 8q1 91 1 274v54q0 186 -1 277h-194l-19 -136h-37l9 169h539l9 -169h-37l-19 136h-194q-1 -91 -1 -277v-54q0 -183 1 -274l112 -8v-28h-127l-8 -59q42 -5 67.5 -26t25.5 -53q0 -35 -26.5 -56.5t-74.5 -21.5q-32 0 -62 10l6 21q36 -6 51 -6
q63 0 63 53t-82 57z" />
    <glyph glyph-name="uni0163" unicode="&#x163;" horiz-adv-x="328" 
d="M161 108q0 -86 65 -86q35 0 73 22l13 -20q-37 -37 -94 -37l-6 -46q42 -5 67.5 -26t25.5 -53q0 -35 -26.5 -56.5t-74.5 -21.5q-32 0 -62 10l6 21q36 -6 51 -6q63 0 63 53t-82 57l11 70q-82 12 -80 117q0 9 0.5 32t0.5 40v258h-99v30l100 7l17 142h37l-5 -143h141v-36h-142
v-328z" />
    <glyph glyph-name="Tcaron" unicode="&#x164;" horiz-adv-x="597" 
d="M271 310v54q0 186 -1 277h-194l-19 -136h-37l9 169h539l9 -169h-37l-19 136h-194q-1 -91 -1 -277v-54q0 -183 1 -274l112 -8v-28h-281v28l112 8q1 91 1 274zM187 866l112 -89l112 89l16 -15l-107 -115h-42l-107 115z" />
    <glyph glyph-name="tcaron" unicode="&#x165;" horiz-adv-x="328" 
d="M293 752q24 0 24 -27q0 -14 -22 -131l-13 -65h-21l2 215q13 8 30 8zM161 108q0 -86 65 -86q35 0 73 22l13 -20q-37 -37 -98 -37q-105 0 -103 119q0 9 0.5 32t0.5 40v258h-99v30l100 7l17 142h37l-5 -143h141v-36h-142v-328z" />
    <glyph glyph-name="Utilde" unicode="&#x168;" horiz-adv-x="733" 
d="M193 266q0 -236 182 -236q101 0 146.5 59t45.5 195v353l-114 9v28h237v-28l-89 -9v-379q0 -136 -59.5 -204t-172.5 -68q-109 0 -169.5 64.5t-60.5 199.5v111q0 186 -2 277l-91 8v28h255v-28l-107 -9q-1 -91 -1 -276v-95zM200 746q19 106 97 106q41 0 82 -39
q33 -33 51 -39q9 -3 19 -3q48 0 71 76l22 -7q-19 -106 -97 -106q-43 0 -82 39l-7 7l-7.5 7.5l-6.5 6.5t-7.5 6.5t-7 5t-8 4.5t-8 3t-9 2.5t-9.5 0.5q-47 0 -71 -77z" />
    <glyph glyph-name="utilde" unicode="&#x169;" horiz-adv-x="595" 
d="M551 0l-121 -7l-3 95q-81 -101 -181 -101q-69 0 -102 42.5t-32 142.5l3 259l-82 10v27l124 8l9 -11l-4 -139v-148q0 -79 24.5 -112.5t75.5 -33.5q87 0 164 88l2 312l-81 9v27l123 8l9 -11l-3 -139v-291l75 -9v-26zM144 594q17 107 88 107q38 0 73 -39q2 -2 7.5 -8.5
t7.5 -8t7 -7t7.5 -7t7 -5t8 -4.5t8.5 -2t10 -1q43 0 64 76l20 -6q-17 -106 -88 -106q-39 0 -73 38q-2 3 -8.5 9.5t-9 9.5t-7.5 8t-8.5 7l-8.5 5t-10 4t-11 1q-43 0 -64 -77z" />
    <glyph glyph-name="Umacron" unicode="&#x16a;" horiz-adv-x="733" 
d="M193 266q0 -236 182 -236q101 0 146.5 59t45.5 195v353l-114 9v28h237v-28l-89 -9v-379q0 -136 -59.5 -204t-172.5 -68q-109 0 -169.5 64.5t-60.5 199.5v111q0 186 -2 277l-91 8v28h255v-28l-107 -9q-1 -91 -1 -276v-95zM232 764v40h296v-40h-296z" />
    <glyph glyph-name="umacron" unicode="&#x16b;" horiz-adv-x="595" 
d="M551 0l-121 -7l-3 95q-81 -101 -181 -101q-69 0 -102 42.5t-32 142.5l3 259l-82 10v27l124 8l9 -11l-4 -139v-148q0 -79 24.5 -112.5t75.5 -33.5q87 0 164 88l2 312l-81 9v27l123 8l9 -11l-3 -139v-291l75 -9v-26zM172 617v40h248v-40h-248z" />
    <glyph glyph-name="Ubreve" unicode="&#x16c;" horiz-adv-x="733" 
d="M193 266q0 -236 182 -236q101 0 146.5 59t45.5 195v353l-114 9v28h237v-28l-89 -9v-379q0 -136 -59.5 -204t-172.5 -68q-109 0 -169.5 64.5t-60.5 199.5v111q0 186 -2 277l-91 8v28h255v-28l-107 -9q-1 -91 -1 -276v-95zM237 856l21 7q29 -88 117 -88q87 0 117 88l21 -7
q-9 -49 -44.5 -85t-93.5 -36t-93.5 36t-44.5 85z" />
    <glyph glyph-name="ubreve" unicode="&#x16d;" horiz-adv-x="595" 
d="M551 0l-121 -7l-3 95q-81 -101 -181 -101q-69 0 -102 42.5t-32 142.5l3 259l-82 10v27l124 8l9 -11l-4 -139v-148q0 -79 24.5 -112.5t75.5 -33.5q87 0 164 88l2 312l-81 9v27l123 8l9 -11l-3 -139v-291l75 -9v-26zM153 725l21 7q35 -109 124 -109t124 109l21 -7
q-9 -63 -47 -103.5t-98 -40.5t-98 40.5t-47 103.5z" />
    <glyph glyph-name="Uring" unicode="&#x16e;" horiz-adv-x="733" 
d="M193 266q0 -236 182 -236q101 0 146.5 59t45.5 195v353l-114 9v28h237v-28l-89 -9v-379q0 -136 -59.5 -204t-172.5 -68q-109 0 -169.5 64.5t-60.5 199.5v111q0 186 -2 277l-91 8v28h255v-28l-107 -9q-1 -91 -1 -276v-95zM378 748q24 0 40 18t16 42q0 25 -15.5 43
t-40.5 18t-40.5 -18t-15.5 -43q0 -24 16 -42t40 -18zM378 722q-35 0 -61.5 24t-26.5 62q0 39 26.5 63.5t61.5 24.5t61.5 -24.5t26.5 -63.5q0 -38 -26.5 -62t-61.5 -24z" />
    <glyph glyph-name="uring" unicode="&#x16f;" horiz-adv-x="595" 
d="M551 0l-121 -7l-3 95q-81 -101 -181 -101q-69 0 -102 42.5t-32 142.5l3 259l-82 10v27l124 8l9 -11l-4 -139v-148q0 -79 24.5 -112.5t75.5 -33.5q87 0 164 88l2 312l-81 9v27l123 8l9 -11l-3 -139v-291l75 -9v-26zM290 589q27 0 44 19.5t17 45.5t-17 45.5t-44 19.5
t-44 -19.5t-17 -45.5t17 -45.5t44 -19.5zM290 561q-38 0 -65.5 25.5t-27.5 67.5q0 41 27.5 66.5t65.5 25.5t65.5 -25t27.5 -67q0 -41 -27.5 -67t-65.5 -26z" />
    <glyph glyph-name="Uhungarumlaut" unicode="&#x170;" horiz-adv-x="733" 
d="M193 266q0 -236 182 -236q101 0 146.5 59t45.5 195v353l-114 9v28h237v-28l-89 -9v-379q0 -136 -59.5 -204t-172.5 -68q-109 0 -169.5 64.5t-60.5 199.5v111q0 186 -2 277l-91 8v28h255v-28l-107 -9q-1 -91 -1 -276v-95zM289 732l71 115q15 28 36 28q10 0 16.5 -6.5
t6.5 -16.5q0 -15 -17 -33l-96 -99zM429 732l70 115q16 28 36 28q10 0 16.5 -6.5t6.5 -16.5q0 -14 -16 -33l-96 -99z" />
    <glyph glyph-name="uhungarumlaut" unicode="&#x171;" horiz-adv-x="595" 
d="M551 0l-121 -7l-3 95q-81 -101 -181 -101q-69 0 -102 42.5t-32 142.5l3 259l-82 10v27l124 8l9 -11l-4 -139v-148q0 -79 24.5 -112.5t75.5 -33.5q87 0 164 88l2 312l-81 9v27l123 8l9 -11l-3 -139v-291l75 -9v-26zM203 567l60 144q15 35 36 35q11 0 17.5 -7t6.5 -17
q0 -17 -15 -37l-86 -129zM340 567l60 144q15 35 36 35q10 0 17 -7t7 -17q0 -15 -15 -37l-86 -129z" />
    <glyph glyph-name="Uogonek" unicode="&#x172;" horiz-adv-x="733" 
d="M453 646v28h237v-28l-89 -9v-380q0 -174 -102 -238q-42 -27 -63.5 -61.5t-21.5 -66.5q0 -35 20.5 -54.5t52.5 -19.5q31 0 61 22l11 -15q-31 -43 -91 -43q-42 0 -68.5 24t-26.5 65q0 69 67 124q-34 -8 -68 -8q-233 0 -233 263v112q0 186 -2 277l-91 8v28h255v-28l-107 -9
q-1 -91 -1 -276v-96q0 -235 180 -235q102 0 148 58.5t46 194.5v354z" />
    <glyph glyph-name="uogonek" unicode="&#x173;" horiz-adv-x="595" 
d="M551 0l-46 -3q-70 -52 -70 -106q0 -35 18.5 -54.5t48.5 -19.5q32 0 60 22l11 -15q-31 -43 -92 -43q-39 0 -63.5 23.5t-24.5 65.5q0 68 85 126l-48 -3l-3 95q-81 -101 -181 -101q-69 0 -102 42.5t-32 142.5l3 259l-82 10v27l124 8l9 -11l-4 -139v-148q0 -79 24.5 -112.5
t75.5 -33.5q87 0 164 88l2 312l-81 9v27l123 8l9 -11l-3 -139v-291l75 -9v-26z" />
    <glyph glyph-name="Wcircumflex" unicode="&#x174;" horiz-adv-x="964" 
d="M662 -7l-178 580l-174 -580h-28l-179 645l-90 8v28h245v-28l-99 -9l147 -545l167 545l-99 9v28h245v-28l-103 -9l166 -549l141 549l-97 9v28h228v-28l-95 -9l-169 -644h-28zM502 847l130 -112l-13 -16l-128 80l-128 -80l-13 16l130 112h22z" />
    <glyph glyph-name="wcircumflex" unicode="&#x175;" horiz-adv-x="763" 
d="M573 444v28h183v-28l-61 -9l-145 -441h-24l-140 404l-143 -404h-25l-155 442l-66 8v28h207v-28l-85 -8l120 -364l130 364l-75 8v28h198v-28l-76 -8l130 -364l113 363zM506 550l-116 120l-116 -120l-15 14l120 165h22l120 -165z" />
    <glyph glyph-name="Ycircumflex" unicode="&#x176;" horiz-adv-x="634" 
d="M389 646v28h226v-28l-87 -9l-183 -369q0 -164 2 -232l112 -8v-28h-282v28l112 8q2 73 2 230l-185 372l-82 8v28h247v-28l-104 -8l162 -335l163 334zM337 847l130 -112l-13 -16l-128 80l-128 -80l-13 16l130 112h22z" />
    <glyph glyph-name="ycircumflex" unicode="&#x177;" horiz-adv-x="500" 
d="M67 -253q-29 0 -52 12t-26 33q6 29 46 29q26 0 60 -28l8 -8q74 36 118 156l16 44l-177 454l-67 7v26h212v-27l-88 -7l144 -388l139 387l-88 9v26h188v-26l-62 -8l-180 -480q-79 -211 -191 -211zM384 550l-116 120l-116 -120l-15 14l120 165h22l120 -165z" />
    <glyph glyph-name="Ydieresis" unicode="&#x178;" horiz-adv-x="634" 
d="M389 646v28h226v-28l-87 -9l-183 -369q0 -164 2 -232l112 -8v-28h-282v28l112 8q2 73 2 230l-185 372l-82 8v28h247v-28l-104 -8l162 -335l163 334zM231 752q-17 0 -29.5 11.5t-12.5 29.5t12.5 29.5t29.5 11.5t29.5 -11.5t12.5 -29.5t-12.5 -29.5t-29.5 -11.5zM443 752
q-18 0 -30 11.5t-12 29.5t12 29.5t30 11.5q17 0 29.5 -11.5t12.5 -29.5t-12.5 -29.5t-29.5 -11.5z" />
    <glyph glyph-name="Zacute" unicode="&#x179;" horiz-adv-x="553" 
d="M76 505h-37l8 169h460v-26l-416 -615h375l24 136h37l-9 -169h-492v26l417 615h-344zM236 743l99 90q37 33 53 33q11 0 18.5 -6.5t7.5 -16.5q0 -11 -10.5 -20.5t-36.5 -25.5l-119 -70z" />
    <glyph glyph-name="zacute" unicode="&#x17a;" horiz-adv-x="456" 
d="M53 472h354v-26l-304 -417h262l25 120h33l-8 -149h-371v26l303 417h-246l-22 -110l-33 4zM199 574l96 137q24 35 42 35q10 0 17.5 -7t7.5 -18q0 -15 -31 -46l-116 -114z" />
    <glyph glyph-name="Zdotaccent" unicode="&#x17b;" horiz-adv-x="553" 
d="M76 505h-37l8 169h460v-26l-416 -615h375l24 136h37l-9 -169h-492v26l417 615h-344zM283 750q-19 0 -32.5 13t-13.5 32t13.5 32t32.5 13t32.5 -13t13.5 -32t-13.5 -32t-32.5 -13z" />
    <glyph glyph-name="zdotaccent" unicode="&#x17c;" horiz-adv-x="456" 
d="M53 472h354v-26l-304 -417h262l25 120h33l-8 -149h-371v26l303 417h-246l-22 -110l-33 4zM243 611q-19 0 -32.5 12.5t-13.5 31.5q0 20 13.5 32.5t32.5 12.5t32.5 -12.5t13.5 -32.5q0 -19 -13.5 -31.5t-32.5 -12.5z" />
    <glyph glyph-name="Zcaron" unicode="&#x17d;" horiz-adv-x="553" 
d="M76 505h-37l8 169h460v-26l-416 -615h375l24 136h37l-9 -169h-492v26l417 615h-344zM168 866l112 -89l112 89l16 -15l-107 -115h-42l-107 115z" />
    <glyph glyph-name="zcaron" unicode="&#x17e;" horiz-adv-x="456" 
d="M53 472h354v-26l-304 -417h262l25 120h33l-8 -149h-371v26l303 417h-246l-22 -110l-33 4zM126 725l116 -108l116 108l16 -14l-111 -141h-42l-111 141z" />
    <glyph glyph-name="longs" unicode="&#x17f;" horiz-adv-x="350" 
d="M124 210v235q0 178 69 253q53 57 125 57q31 0 54.5 -11.5t28.5 -30.5q-2 -30 -39 -30q-25 0 -63 29l-20 15q-35 -13 -62 -49q-23 -31 -33.5 -83t-10.5 -148v-237q0 -87 3 -174l99 -10v-26h-245v26l91 10q3 87 3 174z" />
    <glyph glyph-name="uni018F" unicode="&#x18f;" horiz-adv-x="657" 
d="M57 276q0 51 7 84h478q-6 144 -75.5 217t-168.5 73q-112 0 -188 -86l-18 19q82 105 216 105q123 0 207.5 -90t84.5 -257q0 -162 -77.5 -258.5t-194.5 -96.5q-128 0 -199.5 80t-71.5 210zM330 20q99 0 154.5 81.5t57.5 226.5h-423q-5 -28 -5 -65q0 -102 57.5 -172.5
t158.5 -70.5z" />
    <glyph glyph-name="uni0192" unicode="&#x192;" horiz-adv-x="493" 
d="M101 355v35h127q16 159 76 223q46 51 112 51q60 0 95 -40q-4 -32 -36 -32q-29 0 -71 30l-17 12q-39 -13 -60 -44q-22 -33 -32.5 -75.5t-18.5 -124.5h139v-35h-141l-11 -127q-10 -114 -27 -175.5t-53 -101.5q-48 -51 -113 -51q-62 0 -94 41q4 31 35 31q27 0 70 -31l17 -12
q40 11 62 45q23 36 33.5 87t19.5 156l11 138h-123z" />
    <glyph glyph-name="Ohorn" unicode="&#x1a0;" horiz-adv-x="706" 
d="M119 337q0 -133 62.5 -225t171.5 -92q110 0 172.5 92t62.5 225t-62.5 225.5t-172.5 92.5q-109 0 -171.5 -92.5t-62.5 -225.5zM353 688q102 0 179 -65q74 18 74 83q0 19 -10 41t-10 30q0 10 7.5 17.5t19.5 7.5q13 0 21 -6q15 -26 15 -60q0 -45 -25 -80.5t-73 -49.5
q99 -101 99 -269q0 -157 -86 -254t-211 -97t-210.5 96t-85.5 255q0 157 86 254t210 97z" />
    <glyph glyph-name="ohorn" unicode="&#x1a1;" horiz-adv-x="542" 
d="M271 17q77 0 121.5 57.5t44.5 159.5q0 103 -45 161.5t-121 58.5q-77 0 -121.5 -58.5t-44.5 -161.5t44.5 -160t121.5 -57zM271 -13q-90 0 -155.5 64t-65.5 183t65.5 185t155.5 66q94 0 157 -67q71 19 71 82q0 19 -10 41t-10 30q0 10 7.5 17.5t19.5 7.5q13 0 21 -6
q15 -26 15 -60q0 -45 -25 -80.5t-74 -49.5q50 -66 50 -166q0 -119 -66 -183t-156 -64z" />
    <glyph glyph-name="Uhorn" unicode="&#x1af;" horiz-adv-x="733" 
d="M193 266q0 -236 182 -236q101 0 146.5 59t45.5 195v353l-114 9v28h138q98 0 98 38q0 18 -10 39t-10 29q0 11 7.5 18.5t19.5 7.5q14 0 21 -6q15 -28 15 -60q0 -90 -131 -102v-380q0 -136 -59.5 -204t-172.5 -68q-109 0 -169.5 64.5t-60.5 199.5v111q0 186 -2 277l-91 8v28
h255v-28l-107 -9q-1 -91 -1 -276v-95z" />
    <glyph glyph-name="uhorn" unicode="&#x1b0;" horiz-adv-x="595" 
d="M162 326v-148q0 -79 24.5 -112.5t75.5 -33.5q87 0 164 88l2 312l-81 9v27l123 8l9 -11l-1 -52q91 15 91 87q0 19 -10 41t-10 30q0 10 7.5 17.5t19.5 7.5q13 0 21 -6q15 -26 15 -60q0 -54 -34.5 -93t-100.5 -45l-1 -66v-291l75 -9v-26l-121 -7l-3 95q-81 -101 -181 -101
q-69 0 -102 42.5t-32 142.5l3 259l-82 10v27l124 8l9 -11z" />
    <glyph glyph-name="uni01CD" unicode="&#x1cd;" horiz-adv-x="657" 
d="M313 607l-111 -341h224zM9 0v28l82 9l214 643h37l217 -644l93 -8v-28h-257v28l107 9l-66 199h-243l-65 -199l92 -9v-28h-211zM209 866l112 -89l112 89l16 -15l-107 -115h-42l-107 115z" />
    <glyph glyph-name="uni01CE" unicode="&#x1ce;" horiz-adv-x="506" 
d="M421 -12q-68 0 -77 91q-47 -50 -82.5 -71t-81.5 -21q-56 0 -91.5 31.5t-35.5 88.5q0 50 36 85.5t119 64.5q60 20 135 37v28q0 76 -26 104t-84 28q-45 0 -83 -19l-19 -64q-9 -31 -35 -31t-31 28q15 55 62 86t116 31q76 0 112.5 -37t36.5 -119v-221q0 -47 11 -66t34 -19
q19 0 41 19l14 -17q-28 -37 -71 -37zM131 725l116 -108l116 108l16 -14l-111 -141h-42l-111 141zM105 117q0 -43 25 -65.5t68 -22.5q35 0 66 18t79 63v158q-63 -15 -126 -38q-112 -42 -112 -113z" />
    <glyph glyph-name="uni01CF" unicode="&#x1cf;" horiz-adv-x="366" 
d="M156 310v54q0 183 -1 274l-102 8v28h261v-28l-102 -8q-2 -90 -2 -274v-54q0 -183 2 -274l102 -8v-28h-261v28l102 8q1 91 1 274zM71 866l112 -89l112 89l16 -15l-107 -115h-42l-107 115z" />
    <glyph glyph-name="uni01D0" unicode="&#x1d0;" horiz-adv-x="301" 
d="M43 0v26l84 10q2 102 2 174v48q0 93 -3 162l-88 4v26l131 32l12 -8l-3 -124v-140q0 -72 2 -174l77 -10v-26h-214zM33 725l116 -108l116 108l16 -14l-111 -141h-42l-111 141z" />
    <glyph glyph-name="uni01D1" unicode="&#x1d1;" horiz-adv-x="706" 
d="M119 337q0 -133 62.5 -225t171.5 -92q110 0 172.5 92t62.5 225t-62.5 225.5t-172.5 92.5q-109 0 -171.5 -92.5t-62.5 -225.5zM353 688q125 0 211 -96t86 -255q0 -157 -86 -254t-211 -97t-210.5 96t-85.5 255q0 157 86 254t210 97zM241 866l112 -89l112 89l16 -15
l-107 -115h-42l-107 115z" />
    <glyph glyph-name="uni01D2" unicode="&#x1d2;" horiz-adv-x="542" 
d="M271 17q77 0 121.5 57.5t44.5 159.5q0 103 -45 161.5t-121 58.5q-77 0 -121.5 -58.5t-44.5 -161.5t44.5 -160t121.5 -57zM271 -13q-90 0 -155.5 64t-65.5 183t65.5 185t155.5 66q89 0 155.5 -66t66.5 -185t-66 -183t-156 -64zM155 725l116 -108l116 108l16 -14l-111 -141
h-42l-111 141z" />
    <glyph glyph-name="uni01D3" unicode="&#x1d3;" horiz-adv-x="733" 
d="M193 266q0 -236 182 -236q101 0 146.5 59t45.5 195v353l-114 9v28h237v-28l-89 -9v-379q0 -136 -59.5 -204t-172.5 -68q-109 0 -169.5 64.5t-60.5 199.5v111q0 186 -2 277l-91 8v28h255v-28l-107 -9q-1 -91 -1 -276v-95zM267 866l112 -89l112 89l16 -15l-107 -115h-42
l-107 115z" />
    <glyph glyph-name="uni01D4" unicode="&#x1d4;" horiz-adv-x="595" 
d="M551 0l-121 -7l-3 95q-81 -101 -181 -101q-69 0 -102 42.5t-32 142.5l3 259l-82 10v27l124 8l9 -11l-4 -139v-148q0 -79 24.5 -112.5t75.5 -33.5q87 0 164 88l2 312l-81 9v27l123 8l9 -11l-3 -139v-291l75 -9v-26zM182 725l116 -108l116 108l16 -14l-111 -141h-42
l-111 141z" />
    <glyph glyph-name="uni01D5" unicode="&#x1d5;" horiz-adv-x="733" 
d="M193 266q0 -236 182 -236q101 0 146.5 59t45.5 195v353l-114 9v28h237v-28l-89 -9v-379q0 -136 -59.5 -204t-172.5 -68q-109 0 -169.5 64.5t-60.5 199.5v111q0 186 -2 277l-91 8v28h255v-28l-107 -9q-1 -91 -1 -276v-95zM278 752q-17 0 -29.5 11.5t-12.5 29.5t12.5 29.5
t29.5 11.5t29.5 -11.5t12.5 -29.5t-12.5 -29.5t-29.5 -11.5zM490 752q-18 0 -30 11.5t-12 29.5t12 29.5t30 11.5q17 0 29.5 -11.5t12.5 -29.5t-12.5 -29.5t-29.5 -11.5zM236 906v40h296v-40h-296z" />
    <glyph glyph-name="uni01D6" unicode="&#x1d6;" horiz-adv-x="595" 
d="M551 0l-121 -7l-3 95q-81 -101 -181 -101q-69 0 -102 42.5t-32 142.5l3 259l-82 10v27l124 8l9 -11l-4 -139v-148q0 -79 24.5 -112.5t75.5 -33.5q87 0 164 88l2 312l-81 9v27l123 8l9 -11l-3 -139v-291l75 -9v-26zM200 593q-17 0 -29 11t-12 29t12 29t29 11t29 -11
t12 -29t-12 -29t-29 -11zM396 593q-17 0 -29 11t-12 29t12 29t29 11t29 -11t12 -29t-12 -29t-29 -11zM174 727v40h248v-40h-248z" />
    <glyph glyph-name="uni01D7" unicode="&#x1d7;" horiz-adv-x="733" 
d="M193 266q0 -236 182 -236q101 0 146.5 59t45.5 195v353l-114 9v28h237v-28l-89 -9v-379q0 -136 -59.5 -204t-172.5 -68q-109 0 -169.5 64.5t-60.5 199.5v111q0 186 -2 277l-91 8v28h255v-28l-107 -9q-1 -91 -1 -276v-95zM236 793q0 18 12.5 29.5t29.5 11.5t29.5 -11.5
t12.5 -29.5t-12.5 -29.5t-29.5 -11.5t-29.5 11.5t-12.5 29.5zM448 793q0 18 12 29.5t30 11.5q17 0 29.5 -11.5t12.5 -29.5t-12.5 -29.5t-29.5 -11.5q-18 0 -30 11.5t-12 29.5zM371 828l-15 16l76 85q25 29 43 29q11 0 18 -7t7 -17q0 -20 -38 -44z" />
    <glyph glyph-name="uni01D8" unicode="&#x1d8;" horiz-adv-x="595" 
d="M551 0l-121 -7l-3 95q-81 -101 -181 -101q-69 0 -102 42.5t-32 142.5l3 259l-82 10v27l124 8l9 -11l-4 -139v-148q0 -79 24.5 -112.5t75.5 -33.5q87 0 164 88l2 312l-81 9v27l123 8l9 -11l-3 -139v-291l75 -9v-26zM162 617q0 17 12 28.5t28 11.5q17 0 29 -11t12 -29
q0 -17 -12 -28t-29 -11q-16 0 -28 11t-12 28zM353 617q0 18 12 29t29 11q16 0 28 -11.5t12 -28.5t-12 -28t-28 -11q-17 0 -29 11t-12 28zM271 680l70 109q17 28 36 28q10 0 17 -6.5t7 -18.5q0 -15 -20 -35l-94 -90z" />
    <glyph glyph-name="uni01D9" unicode="&#x1d9;" horiz-adv-x="733" 
d="M193 266q0 -236 182 -236q101 0 146.5 59t45.5 195v353l-114 9v28h237v-28l-89 -9v-379q0 -136 -59.5 -204t-172.5 -68q-109 0 -169.5 64.5t-60.5 199.5v111q0 186 -2 277l-91 8v28h255v-28l-107 -9q-1 -91 -1 -276v-95zM278 752q-17 0 -29.5 11.5t-12.5 29.5t12.5 29.5
t29.5 11.5t29.5 -11.5t12.5 -29.5t-12.5 -29.5t-29.5 -11.5zM490 752q-18 0 -30 11.5t-12 29.5t12 29.5t30 11.5q17 0 29.5 -11.5t12.5 -29.5t-12.5 -29.5t-29.5 -11.5zM272 976l112 -89l112 89l16 -15l-107 -115h-42l-107 115z" />
    <glyph glyph-name="uni01DA" unicode="&#x1da;" horiz-adv-x="595" 
d="M551 0l-121 -7l-3 95q-81 -101 -181 -101q-69 0 -102 42.5t-32 142.5l3 259l-82 10v27l124 8l9 -11l-4 -139v-148q0 -79 24.5 -112.5t75.5 -33.5q87 0 164 88l2 312l-81 9v27l123 8l9 -11l-3 -139v-291l75 -9v-26zM200 593q-17 0 -29 11t-12 29t12 29t29 11t29 -11
t12 -29t-12 -29t-29 -11zM396 593q-17 0 -29 11t-12 29t12 29t29 11t29 -11t12 -29t-12 -29t-29 -11zM186 818l112 -89l112 89l16 -15l-107 -115h-42l-107 115z" />
    <glyph glyph-name="uni01DB" unicode="&#x1db;" horiz-adv-x="733" 
d="M193 266q0 -236 182 -236q101 0 146.5 59t45.5 195v353l-114 9v28h237v-28l-89 -9v-379q0 -136 -59.5 -204t-172.5 -68q-109 0 -169.5 64.5t-60.5 199.5v111q0 186 -2 277l-91 8v28h255v-28l-107 -9q-1 -91 -1 -276v-95zM236 793q0 18 12.5 29.5t29.5 11.5t29.5 -11.5
t12.5 -29.5t-12.5 -29.5t-29.5 -11.5t-29.5 11.5t-12.5 29.5zM448 793q0 18 12 29.5t30 11.5q17 0 29.5 -11.5t12.5 -29.5t-12.5 -29.5t-29.5 -11.5q-18 0 -30 11.5t-12 29.5zM307 890q-39 26 -39 43q0 11 8 18t19 7q17 0 42 -29l77 -85l-15 -16z" />
    <glyph glyph-name="uni01DC" unicode="&#x1dc;" horiz-adv-x="595" 
d="M551 0l-121 -7l-3 95q-81 -101 -181 -101q-69 0 -102 42.5t-32 142.5l3 259l-82 10v27l124 8l9 -11l-4 -139v-148q0 -79 24.5 -112.5t75.5 -33.5q87 0 164 88l2 312l-81 9v27l123 8l9 -11l-3 -139v-291l75 -9v-26zM162 617q0 17 12 28.5t28 11.5q17 0 29 -11t12 -29
q0 -17 -12 -28t-29 -11q-16 0 -28 11t-12 28zM353 617q0 18 12 29t29 11q16 0 28 -11.5t12 -28.5t-12 -28t-28 -11q-17 0 -29 11t-12 28zM309 667l-93 90q-20 20 -20 35q0 25 24 25q19 0 35 -28l70 -108z" />
    <glyph glyph-name="Gcaron" unicode="&#x1e6;" horiz-adv-x="684" 
d="M601 95v-49q-105 -60 -213 -60q-148 0 -239.5 98t-91.5 253t93 253t240 98q112 0 201 -55l4 -141h-39l-18 123q-62 40 -143 40q-124 0 -200 -86t-76 -232q0 -147 74.5 -232t200.5 -85q80 0 153 37v38q0 63 -2 189l-114 7v28h242v-28l-70 -6q-2 -114 -2 -190zM274 866
l112 -89l112 89l16 -15l-107 -115h-42l-107 115z" />
    <glyph glyph-name="gcaron" unicode="&#x1e7;" horiz-adv-x="512" 
d="M239 456q-55 0 -88.5 -38t-33.5 -98q0 -61 33 -99t87 -38q55 0 89 38.5t34 99.5q0 60 -33 97.5t-88 37.5zM68 320q0 75 47.5 120t123.5 45q68 0 113 -36l115 31l15 -10v-43h-108q35 -43 35 -107q0 -75 -48 -120t-123 -45q-41 0 -75 14q-42 -47 -42 -81q0 -49 79 -49h139
q69 0 105 -30.5t36 -88.5q0 -67 -60.5 -115t-170.5 -48q-97 0 -150.5 35t-53.5 94q0 71 89 116q-57 17 -57 68q0 49 66 109q-75 41 -75 141zM252 -210q86 0 133.5 33.5t47.5 85.5q0 82 -104 82h-122q-32 0 -55 4q-57 -44 -57 -99q0 -52 41 -79t116 -27zM125 725l116 -108
l116 108l16 -14l-111 -141h-42l-111 141z" />
    <glyph glyph-name="uni01F8" unicode="&#x1f8;" horiz-adv-x="733" 
d="M462 646v28h232v-28l-89 -9v-644h-25l-412 590v-546l110 -9v-28h-233v28l88 9v596l-5 7l-87 6v28h130l400 -577v540zM401 743l-12 -16q-26 14 -118 69q-27 16 -37.5 26t-10.5 21q0 10 7.5 16.5t18.5 6.5q16 0 53 -34z" />
    <glyph glyph-name="uni01F9" unicode="&#x1f9;" horiz-adv-x="604" 
d="M368 485q61 0 92 -41.5t31 -134.5v-99q0 -74 2 -174l77 -10v-26h-214v26l84 10q2 102 2 174v96q0 72 -23.5 103t-69.5 31q-84 0 -172 -92v-138q0 -72 2 -174l77 -10v-26h-214v26l84 10q2 102 2 174v48q0 93 -3 162l-88 4v26l122 32l12 -8l5 -92q91 103 192 103zM342 574
l-17 -13l-116 114q-30 30 -30 46q0 11 7.5 18t17.5 7q16 0 42 -35z" />
    <glyph glyph-name="uni0218" unicode="&#x218;" horiz-adv-x="513" 
d="M238 20q81 0 129 36t48 105q0 53 -31.5 85.5t-115.5 65.5l-37 15q-81 33 -121.5 78.5t-40.5 111.5q0 82 58.5 126.5t145.5 44.5q89 0 162 -50l-4 -124h-37l-15 113q-46 28 -107 28q-69 0 -111.5 -33t-42.5 -95q0 -52 31 -85.5t92 -57.5l39 -15q105 -42 144.5 -86.5
t39.5 -114.5q0 -83 -63 -132.5t-162 -49.5q-109 0 -190 54l5 131h36l15 -116q57 -35 133 -35zM312 -109q0 -46 -33.5 -80.5t-83.5 -49.5l-8 21q61 24 86 71q-42 17 -42 49q0 17 11 27t27 10q22 0 37 -14q6 -18 6 -34z" />
    <glyph glyph-name="uni0219" unicode="&#x219;" horiz-adv-x="429" 
d="M201 -13q-71 0 -145 34l-4 104h35l16 -88q42 -20 100 -20q63 0 96 25.5t33 67.5q0 35 -22.5 57t-79.5 42l-47 17q-119 43 -119 130q0 56 42.5 92.5t118.5 36.5q67 0 135 -41l-3 -94h-33l-11 80q-41 24 -91 24q-54 0 -82 -24t-28 -62q0 -35 22 -55.5t76 -40.5l42 -16
q70 -26 99 -57.5t29 -77.5q0 -57 -46.5 -95.5t-132.5 -38.5zM264 -109q0 -46 -33.5 -80.5t-83.5 -49.5l-8 21q61 24 86 71q-42 17 -42 49q0 17 11 27t27 10q22 0 37 -14q6 -18 6 -34z" />
    <glyph glyph-name="uni021A" unicode="&#x21a;" horiz-adv-x="597" 
d="M271 310v54q0 186 -1 277h-194l-19 -136h-37l9 169h539l9 -169h-37l-19 136h-194q-1 -91 -1 -277v-54q0 -183 1 -274l112 -8v-28h-281v28l112 8q1 91 1 274zM337 -109q0 -46 -33.5 -80.5t-83.5 -49.5l-8 21q61 24 86 71q-42 17 -42 49q0 17 11 27t27 10q22 0 37 -14
q6 -18 6 -34z" />
    <glyph glyph-name="uni021B" unicode="&#x21b;" horiz-adv-x="328" 
d="M161 108q0 -86 65 -86q35 0 73 22l13 -20q-37 -37 -98 -37q-105 0 -103 119q0 9 0.5 32t0.5 40v258h-99v30l100 7l17 142h37l-5 -143h141v-36h-142v-328zM250 -109q0 -46 -33.5 -80.5t-83.5 -49.5l-8 21q61 24 86 71q-42 17 -42 49q0 17 11 27t27 10q22 0 37 -14
q6 -18 6 -34z" />
    <glyph glyph-name="uni0237" unicode="&#x237;" horiz-adv-x="277" 
d="M126 76v180q0 92 -3 162l-88 4v26l129 31l12 -7l-2 -124v-230q0 -152 -10 -214.5t-43 -102.5q-45 -54 -112 -54q-68 0 -75 35q9 28 44 28q27 0 60 -19l14 -8q25 15 37 33q23 36 30 90t7 170z" />
    <glyph glyph-name="uni0251" unicode="&#x251;" horiz-adv-x="550" 
d="M103 229q0 -98 44 -151.5t113 -53.5q79 0 143 76v279q-61 68 -132 68q-74 0 -121 -55t-47 -163zM247 -13q-89 0 -143 64t-54 176q0 117 61 187.5t157 70.5q77 0 137 -74l33 68l18 -6l-3 -135v-232q0 -46 11 -64.5t33 -18.5t42 19l14 -17q-31 -37 -67 -37q-34 0 -53.5 22
t-24.5 61q-62 -84 -161 -84z" />
    <glyph glyph-name="uni0259" unicode="&#x259;" horiz-adv-x="502" 
d="M246 -13q-93 0 -148 58t-55 151q0 34 7 58h347q-7 89 -54.5 139.5t-119.5 50.5q-88 0 -150 -67l-16 14q65 94 177 94q94 0 156 -64.5t62 -184.5q0 -114 -59.5 -181.5t-146.5 -67.5zM247 17q65 0 108 54.5t43 153.5h-269q-20 0 -28 -10.5t-8 -33.5q0 -67 42.5 -115.5
t111.5 -48.5z" />
    <glyph glyph-name="uni0261" unicode="&#x261;" horiz-adv-x="548" 
d="M103 229q0 -98 44 -151.5t113 -53.5q79 0 143 76v279q-61 68 -132 68q-74 0 -121 -55t-47 -163zM247 -13q-89 0 -143 64t-54 176q0 117 61 187.5t157 70.5q77 0 137 -74l33 68l18 -6l-3 -135v-233q0 -123 -10 -181.5t-36 -95.5q-55 -81 -179 -81q-140 0 -174 123
q6 24 32 24q14 0 21.5 -8.5t14.5 -29.5l23 -62q40 -17 88 -17q41 0 79.5 17t59.5 53q17 28 23.5 72t7.5 146q-60 -78 -156 -78z" />
    <glyph glyph-name="h.sups" unicode="&#x2b0;" horiz-adv-x="401" 
d="M243 755q86 0 86 -115v-178l50 -8v-21h-147v21l55 8v171q0 45 -15 64.5t-45 19.5q-54 0 -108 -57v-198l50 -8v-21h-147v21l55 8v406l-57 4v21l89 20l10 -5v-221q58 68 124 68z" />
    <glyph glyph-name="j.sups" unicode="&#x2b2;" horiz-adv-x="185" 
d="M99 836q-15 0 -25 10t-10 25t10 24.5t25 9.5t25 -9.5t10 -24.5q0 -16 -10 -25.5t-25 -9.5zM80 483v219l-58 3v20l92 26l9 -5v-243q0 -92 -7 -132t-30 -66q-31 -36 -79 -36q-52 0 -56 27q6 26 33 26q22 0 44 -18l10 -8q10 7 20 18q14 23 18 58t4 111z" />
    <glyph glyph-name="r.sups" unicode="&#x2b3;" horiz-adv-x="275" 
d="M184 454v-21h-155v21l54 8v238l-58 4v21l86 27l8 -6l6 -81q17 41 45 65.5t59 24.5q34 0 41 -28q-2 -28 -31 -28q-17 0 -38 15l-6 4q-47 -26 -70 -89v-167z" />
    <glyph glyph-name="w.sups" unicode="&#x2b7;" horiz-adv-x="513" 
d="M386 720v23h123v-23l-42 -6l-99 -288h-18l-93 249l-93 -249h-19l-103 289l-44 5v23h143v-23l-53 -5l75 -219l83 219l-48 5v23h136v-23l-48 -6l80 -217l72 217z" />
    <glyph glyph-name="y.sups" unicode="&#x2b8;" horiz-adv-x="339" 
d="M211 720v23h127v-23l-45 -6l-114 -306q-51 -138 -127 -138q-23 0 -39 9.5t-18 24.5q4 23 33 23q20 0 44 -20l6 -6q46 24 82 121l-117 292l-46 6v23h152v-23l-60 -6l92 -234l85 234z" />
    <glyph glyph-name="quoteleft" unicode="&#x2018;" horiz-adv-x="210" 
d="M48 574q0 52 30 99.5t80 81.5l13 -18q-38 -30 -58.5 -59t-30.5 -70l26 -21q30 -25 30 -53q0 -18 -10.5 -28t-27.5 -10q-20 0 -32 9q-20 31 -20 69z" />
    <glyph glyph-name="quoteleft" unicode="&#x2bb;" horiz-adv-x="210" 
d="M48 574q0 52 30 99.5t80 81.5l13 -18q-38 -30 -58.5 -59t-30.5 -70l26 -21q30 -25 30 -53q0 -18 -10.5 -28t-27.5 -10q-20 0 -32 9q-20 31 -20 69z" />
    <glyph glyph-name="quoteright" unicode="&#x2019;" horiz-adv-x="210" 
d="M162 676q0 -52 -30 -99.5t-80 -81.5l-13 18q38 30 58.5 59t30.5 70l-26 21q-30 25 -30 53q0 18 10.5 28t27.5 10q20 0 32 -9q20 -31 20 -69z" />
    <glyph glyph-name="quoteright" unicode="&#x2bc;" horiz-adv-x="210" 
d="M162 676q0 -52 -30 -99.5t-80 -81.5l-13 18q38 30 58.5 59t30.5 70l-26 21q-30 25 -30 53q0 18 10.5 28t27.5 10q20 0 32 -9q20 -31 20 -69z" />
    <glyph glyph-name="uni02BE" unicode="&#x2be;" horiz-adv-x="161" 
d="M30 561v28q30 0 48 19t18 46q0 26 -18.5 45.5t-47.5 19.5v27q46 0 74 -25t28 -67q0 -43 -28 -68t-74 -25z" />
    <glyph glyph-name="uni02BF" unicode="&#x2bf;" horiz-adv-x="161" 
d="M30 654q0 43 27.5 67.5t74.5 24.5v-27q-30 0 -48 -19t-18 -46t18 -46t48 -19v-28q-47 0 -74.5 25t-27.5 68z" />
    <glyph glyph-name="circumflex" unicode="&#x2c6;" horiz-adv-x="400" 
d="M316 550l-116 120l-116 -120l-15 14l120 165h22l120 -165z" />
    <glyph glyph-name="caron" unicode="&#x2c7;" horiz-adv-x="400" 
d="M84 725l116 -108l116 108l16 -14l-111 -141h-42l-111 141z" />
    <glyph glyph-name="uni02C8" unicode="&#x2c8;" horiz-adv-x="99" 
d="M32 563l-6 191h47l-6 -191h-35z" />
    <glyph glyph-name="uni02CC" unicode="&#x2cc;" horiz-adv-x="99" 
d="M25 -265l6 191h36l6 -191h-48z" />
    <glyph glyph-name="breve" unicode="&#x2d8;" horiz-adv-x="400" 
d="M55 725l21 7q35 -109 124 -109t124 109l21 -7q-9 -63 -47 -103.5t-98 -40.5t-98 40.5t-47 103.5z" />
    <glyph glyph-name="dotaccent" unicode="&#x2d9;" horiz-adv-x="400" 
d="M200 611q-19 0 -32.5 12.5t-13.5 31.5q0 20 13.5 32.5t32.5 12.5t32.5 -12.5t13.5 -32.5q0 -19 -13.5 -31.5t-32.5 -12.5z" />
    <glyph glyph-name="ring" unicode="&#x2da;" horiz-adv-x="400" 
d="M200 589q27 0 44 19.5t17 45.5t-17 45.5t-44 19.5t-44 -19.5t-17 -45.5t17 -45.5t44 -19.5zM200 561q-38 0 -65.5 25.5t-27.5 67.5q0 41 27.5 66.5t65.5 25.5t65.5 -25t27.5 -67q0 -41 -27.5 -67t-65.5 -26z" />
    <glyph glyph-name="ogonek" unicode="&#x2db;" horiz-adv-x="400" 
d="M113 -133q0 41 25 79t60 62h23q-30 -23 -48 -56t-18 -64q0 -35 18.5 -54t48.5 -19q31 0 60 21l12 -15q-31 -43 -92 -43q-39 0 -64 23.5t-25 65.5z" />
    <glyph glyph-name="tilde" unicode="&#x2dc;" horiz-adv-x="400" 
d="M48 594q17 107 88 107q38 0 73 -39q2 -2 7.5 -8.5t7.5 -8t7 -7t7.5 -7t7 -5t8 -4.5t8.5 -2t10 -1q43 0 64 76l20 -6q-17 -106 -88 -106q-39 0 -73 38q-2 3 -8.5 9.5t-9 9.5t-7.5 8t-8.5 7l-8.5 5t-10 4t-11 1q-43 0 -64 -77z" />
    <glyph glyph-name="hungarumlaut" unicode="&#x2dd;" horiz-adv-x="400" 
d="M76 567l60 144q15 35 36 35q10 0 17 -7t7 -17q0 -17 -15 -37l-86 -129zM213 567l60 144q15 35 36 35q10 0 17 -7t7 -17q0 -15 -15 -37l-86 -129z" />
    <glyph glyph-name="l.sups" unicode="&#x2e1;" horiz-adv-x="198" 
d="M23 893l89 20l10 -5v-446l58 -8v-21h-160v21l59 8v406l-56 4v21z" />
    <glyph glyph-name="s.sups" unicode="&#x2e2;" horiz-adv-x="290" 
d="M136 423q-52 0 -99 25l-2 70h26l10 -56q30 -15 67 -15q40 0 61 15t21 41q0 22 -15 35.5t-53 27.5l-31 11q-79 30 -79 89q0 39 29.5 64t80.5 25q46 0 92 -26l-2 -65h-26l-7 51q-29 15 -58 15q-71 0 -71 -53q0 -21 15 -34t50 -26l27 -9q86 -31 86 -93q0 -40 -31.5 -66
t-90.5 -26z" />
    <glyph glyph-name="x.sups" unicode="&#x2e3;" horiz-adv-x="338" 
d="M204 720v23h118v-23l-42 -6l-91 -119l95 -134l47 -7v-21h-142v21l47 7l-76 106l-77 -106l47 -7v-21h-123v21l47 7l94 123l-92 131l-45 5v23h133v-23l-42 -5l74 -102l74 101z" />
    <glyph glyph-name="uni0300" unicode="&#x300;" 
d="M50 574l-17 -13l-116 114q-30 30 -30 46q0 11 7.5 18t17.5 7q16 0 42 -35z" />
    <glyph glyph-name="uni0301" unicode="&#x301;" 
d="M-50 574l96 137q24 35 42 35q10 0 17.5 -7t7.5 -18q0 -15 -31 -46l-116 -114z" />
    <glyph glyph-name="uni0302" unicode="&#x302;" 
d="M116 550l-116 120l-116 -120l-15 14l120 165h22l120 -165z" />
    <glyph glyph-name="uni0303" unicode="&#x303;" 
d="M-154 594q17 107 88 107q38 0 73 -39q2 -2 7.5 -8.5t7.5 -8t7 -7t7.5 -7t7 -5t8 -4.5t8.5 -2t10 -1q43 0 64 76l20 -6q-17 -106 -88 -106q-39 0 -73 38q-2 3 -8.5 9.5t-9 9.5t-7.5 8t-8.5 7l-8.5 5t-10 4t-11 1q-43 0 -64 -77z" />
    <glyph glyph-name="uni0304" unicode="&#x304;" 
d="M-124 617v40h248v-40h-248z" />
    <glyph glyph-name="uni0306" unicode="&#x306;" 
d="M-145 725l21 7q35 -109 124 -109t124 109l21 -7q-9 -63 -47 -103.5t-98 -40.5t-98 40.5t-47 103.5z" />
    <glyph glyph-name="uni0307" unicode="&#x307;" 
d="M0 611q-19 0 -32.5 12.5t-13.5 31.5q0 20 13.5 32.5t32.5 12.5t32.5 -12.5t13.5 -32.5q0 -19 -13.5 -31.5t-32.5 -12.5z" />
    <glyph glyph-name="uni0308" unicode="&#x308;" 
d="M98 625q-17 0 -29 11t-12 29t12 29t29 11t29 -11t12 -29t-12 -29t-29 -11zM-98 625q-17 0 -29 11t-12 29t12 29t29 11t29 -11t12 -29t-12 -29t-29 -11z" />
    <glyph glyph-name="uni0309" unicode="&#x309;" 
d="M-18 555l-6 21q62 14 62 57q0 26 -18 39.5t-66 21.5l7 42q112 -14 112 -95q0 -34 -24.5 -57.5t-66.5 -28.5z" />
    <glyph glyph-name="uni030A" unicode="&#x30a;" 
d="M0 589q27 0 44 19.5t17 45.5t-17 45.5t-44 19.5t-44 -19.5t-17 -45.5t17 -45.5t44 -19.5zM0 561q-38 0 -65.5 25.5t-27.5 67.5q0 41 27.5 66.5t65.5 25.5t65.5 -25t27.5 -67q0 -41 -27.5 -67t-65.5 -26z" />
    <glyph glyph-name="uni030B" unicode="&#x30b;" 
d="M-105 567l60 144q15 35 36 35q11 0 17.5 -7t6.5 -17q0 -17 -15 -37l-86 -129zM32 567l60 144q15 35 36 35q10 0 17 -7t7 -17q0 -15 -15 -37l-86 -129z" />
    <glyph glyph-name="uni030C" unicode="&#x30c;" 
d="M-116 725l116 -108l116 108l16 -14l-111 -141h-42l-111 141z" />
    <glyph glyph-name="uni031B" unicode="&#x31b;" 
d="M-2 392l-4 20q100 12 100 88q0 19 -10 41t-10 30q0 10 7.5 17.5t19.5 7.5q13 0 21 -6q15 -26 15 -60q0 -54 -35.5 -93t-103.5 -45z" />
    <glyph glyph-name="uni0323" unicode="&#x323;" 
d="M0 -180q-19 0 -32.5 12.5t-13.5 31.5q0 20 13.5 32.5t32.5 12.5t32.5 -12.5t13.5 -32.5q0 -19 -13.5 -31.5t-32.5 -12.5z" />
    <glyph glyph-name="uni0324" unicode="&#x324;" 
d="M98 -165q-17 0 -29 11t-12 29t12 29t29 11t29 -11t12 -29t-12 -29t-29 -11zM-98 -165q-17 0 -29 11t-12 29t12 29t29 11t29 -11t12 -29t-12 -29t-29 -11z" />
    <glyph glyph-name="uni0326" unicode="&#x326;" 
d="M46 -109q0 -46 -33.5 -80.5t-83.5 -49.5l-8 21q61 24 86 71q-42 17 -42 49q0 17 11 27t27 10q22 0 37 -14q6 -18 6 -34z" />
    <glyph glyph-name="uni0327" unicode="&#x327;" 
d="M-23 -81l13 82h27l-8 -60q42 -5 67.5 -26t25.5 -53q0 -35 -26.5 -56.5t-74.5 -21.5q-32 0 -62 10l6 21q36 -6 51 -6q63 0 63 53t-82 57z" />
    <glyph glyph-name="uni0328" unicode="&#x328;" 
d="M-87 -133q0 41 25 79t60 62h23q-30 -23 -48 -56t-18 -64q0 -35 18.5 -54t48.5 -19q31 0 60 21l12 -15q-31 -43 -92 -43q-39 0 -64 23.5t-25 65.5z" />
    <glyph glyph-name="uni0329" unicode="&#x329;" 
d="M-24 -265l6 191h36l6 -191h-48z" />
    <glyph glyph-name="uni032E" unicode="&#x32e;" 
d="M-145 -76l21 7q35 -109 124 -109t124 109l21 -7q-9 -63 -47 -103.5t-98 -40.5t-98 40.5t-47 103.5z" />
    <glyph glyph-name="uni0331" unicode="&#x331;" 
d="M-124 -150v40h248v-40h-248z" />
    <glyph glyph-name="uni0374" unicode="&#x374;" horiz-adv-x="237" 
d="M75 457l13 275q14 11 32 11q14 0 22.5 -9.5t8.5 -25.5q0 -27 -31 -159q-3 -10 -10 -42.5t-12 -52.5z" />
    <glyph glyph-name="uni0375" unicode="&#x375;" horiz-adv-x="237" 
d="M162 158l-13 -275q-14 -11 -32 -11q-14 0 -22.5 9.5t-8.5 25.5q0 27 31 159q3 11 10 43.5t12 51.5z" />
    <glyph glyph-name="uni037E" unicode="&#x37e;" horiz-adv-x="306" 
d="M152 388q-21 0 -35 14.5t-14 33.5q0 20 14 34.5t35 14.5t35 -14.5t14 -34.5q0 -19 -14 -33.5t-35 -14.5zM197 7q0 -67 -41 -127.5t-102 -92.5l-11 20q98 63 118 164l-28 22q-28 23 -28 49q0 18 11 30t30 12q23 0 43 -19q8 -25 8 -58z" />
    <glyph glyph-name="tonos" unicode="&#x384;" horiz-adv-x="400" 
d="M176 564l14 49l12.5 45t6.5 22q15 47 25 62t22 15q23 0 23 -24q0 -15 -27 -73q-22 -48 -53 -106z" />
    <glyph glyph-name="dieresistonos" unicode="&#x385;" horiz-adv-x="400" 
d="M183 565l-22 8q25 94 36 126q21 67 42 67q22 0 22 -22q0 -16 -27 -74q-29 -63 -51 -105zM313 627q-15 0 -26.5 10.5t-11.5 26.5t11 26t27 10t27 -10t11 -26t-11 -26.5t-27 -10.5zM99 627q-15 0 -26.5 10.5t-11.5 26.5t11 26t27 10t27 -10t11 -26t-11.5 -26.5t-26.5 -10.5
z" />
    <glyph glyph-name="Alphatonos" unicode="&#x386;" horiz-adv-x="667" 
d="M34 466q17 82 28 126q17 72 42 72q24 0 24 -25q0 -15 -8 -34q-23 -59 -63 -146zM19 0v28l82 9l214 643h37l217 -644l93 -8v-28h-257v28l107 9l-66 199h-243l-65 -199l92 -9v-28h-211zM323 607l-111 -341h224z" />
    <glyph glyph-name="anoteleia" unicode="&#x387;" horiz-adv-x="300" 
d="M150 386q-21 0 -35 14.5t-14 33.5q0 20 14 34.5t35 14.5t35 -14.5t14 -34.5q0 -19 -14 -33.5t-35 -14.5z" />
    <glyph glyph-name="Epsilontonos" unicode="&#x388;" horiz-adv-x="683" 
d="M-10 466q17 82 28 126q17 72 42 72q24 0 24 -25q0 -15 -8 -34q-23 -59 -63 -146zM236 310v54q0 183 -1 274l-102 8v28h483l9 -163h-37l-19 130h-277q-2 -91 -2 -283h179l11 96h30v-224h-30l-11 96h-179q0 -206 2 -293h294l18 130h37l-8 -163h-500v28l102 8q1 91 1 274z
" />
    <glyph glyph-name="Etatonos" unicode="&#x389;" horiz-adv-x="873" 
d="M-10 466q17 82 28 126q17 72 42 72q24 0 24 -25q0 -15 -8 -34q-23 -59 -63 -146zM236 310v54q0 183 -1 274l-102 8v28h261v-28l-102 -8q-2 -90 -2 -270h372q0 184 -1 270l-102 8v28h261v-28l-102 -8q-2 -90 -2 -274v-54q0 -183 2 -274l102 -8v-28h-261v28l102 8
q1 91 1 301h-372q0 -214 2 -301l102 -8v-28h-261v28l102 8q1 91 1 274z" />
    <glyph glyph-name="Iotatonos" unicode="&#x38a;" horiz-adv-x="447" 
d="M-10 466q17 82 28 126q17 72 42 72q24 0 24 -25q0 -15 -8 -34q-23 -59 -63 -146zM236 310v54q0 183 -1 274l-102 8v28h261v-28l-102 -8q-2 -90 -2 -274v-54q0 -183 2 -274l102 -8v-28h-261v28l102 8q1 91 1 274z" />
    <glyph glyph-name="Omicrontonos" unicode="&#x38c;" horiz-adv-x="762" 
d="M-10 466q17 82 28 126q17 72 42 72q24 0 24 -25q0 -15 -8 -34q-23 -59 -63 -146zM174 337q0 -133 62.5 -225t171.5 -92q110 0 172.5 92t62.5 225t-62.5 225.5t-172.5 92.5q-109 0 -171.5 -92.5t-62.5 -225.5zM408 688q125 0 211 -96t86 -255q0 -157 -86 -254t-211 -97
t-210.5 96t-85.5 255q0 157 86 254t210 97z" />
    <glyph glyph-name="Upsilontonos" unicode="&#x38e;" horiz-adv-x="750" 
d="M-10 466q17 82 28 126q17 72 42 72q24 0 24 -25q0 -15 -8 -34q-23 -59 -63 -146zM505 646v28h226v-28l-87 -9l-183 -369q0 -164 2 -232l112 -8v-28h-282v28l112 8q2 73 2 230l-185 372l-82 8v28h247v-28l-104 -8l162 -335l163 334z" />
    <glyph glyph-name="Omegatonos" unicode="&#x38f;" horiz-adv-x="794" 
d="M-12 466q17 82 28 126q11 43 20.5 57.5t21.5 14.5q25 0 25 -25q0 -10 -8 -34l-63 -146zM423 655q-100 0 -163.5 -73t-63.5 -195q0 -207 180 -350v-37h-268l-10 160h39l20 -115h166v2q-184 146 -184 339q0 75 25 135t67 95t91 53.5t101 18.5t101 -18.5t91 -53.5t67 -95
t25 -135q0 -193 -184 -339v-2h166l20 115h38l-10 -160h-267v37q180 143 180 350q0 122 -63.5 195t-163.5 73z" />
    <glyph glyph-name="iotadieresistonos" unicode="&#x390;" horiz-adv-x="268" 
d="M180 -13q-36 0 -54.5 26.5t-18.5 88.5l-1 365l47 13l10 -7q-17 -325 -17 -365q1 -44 12 -60.5t36 -16.5q19 0 45 13l7 -17q-25 -40 -66 -40zM139 566l-22 8q25 94 36 126q21 67 42 67q22 0 22 -22q0 -16 -27 -74q-29 -63 -51 -105zM269 628q-15 0 -26.5 10.5t-11.5 26.5
t11 26t27 10t27 -10t11 -26t-11 -26.5t-27 -10.5zM55 628q-15 0 -26.5 10.5t-11.5 26.5t11 26t27 10t27 -10t11 -26t-11.5 -26.5t-26.5 -10.5z" />
    <glyph glyph-name="Alpha" unicode="&#x391;" horiz-adv-x="657" 
d="M313 607l-111 -341h224zM9 0v28l82 9l214 643h37l217 -644l93 -8v-28h-257v28l107 9l-66 199h-243l-65 -199l92 -9v-28h-211z" />
    <glyph glyph-name="Beta" unicode="&#x392;" horiz-adv-x="608" 
d="M156 310v54q0 183 -1 274l-102 8v28h259q104 0 159 -43.5t55 -116.5q0 -59 -40 -102.5t-119 -58.5q98 -11 145.5 -57t47.5 -115q0 -79 -62 -130t-183 -51h-262v28l102 8q1 91 1 274zM285 335h-75q0 -215 2 -303h94q95 0 146 39t51 111q0 153 -218 153zM293 642h-81
q-2 -91 -2 -277h66q96 0 146 38.5t50 109.5q0 64 -42.5 96.5t-136.5 32.5z" />
    <glyph glyph-name="Gamma" unicode="&#x393;" horiz-adv-x="559" 
d="M53 646v28h464l9 -171h-37l-21 138h-256q-2 -91 -2 -277v-54q0 -183 2 -274l108 -8v-28h-267v28l102 8q1 91 1 274v54q0 183 -1 274z" />
    <glyph glyph-name="Delta" unicode="&#x2206;" horiz-adv-x="626" 
d="M33 0v28l260 652h36l261 -652v-28h-557zM78 49h444l-223 563z" />
    <glyph glyph-name="Delta" unicode="&#x394;" horiz-adv-x="626" 
d="M33 0v28l260 652h36l261 -652v-28h-557zM78 49h444l-223 563z" />
    <glyph glyph-name="Epsilon" unicode="&#x395;" horiz-adv-x="602" 
d="M156 310v54q0 183 -1 274l-102 8v28h483l9 -163h-37l-19 130h-277q-2 -91 -2 -283h179l11 96h30v-224h-30l-11 96h-179q0 -206 2 -293h294l18 130h37l-8 -163h-500v28l102 8q1 91 1 274z" />
    <glyph glyph-name="Zeta" unicode="&#x396;" horiz-adv-x="553" 
d="M76 505h-37l8 169h460v-26l-416 -615h375l24 136h37l-9 -169h-492v26l417 615h-344z" />
    <glyph glyph-name="Eta" unicode="&#x397;" horiz-adv-x="792" 
d="M156 310v54q0 183 -1 274l-102 8v28h261v-28l-102 -8q-2 -90 -2 -270h372q0 184 -1 270l-102 8v28h261v-28l-102 -8q-2 -90 -2 -274v-54q0 -183 2 -274l102 -8v-28h-261v28l102 8q1 91 1 301h-372q0 -214 2 -301l102 -8v-28h-261v28l102 8q1 91 1 274z" />
    <glyph glyph-name="Theta" unicode="&#x398;" horiz-adv-x="706" 
d="M471 248l-10 74h-215l-10 -74h-30v188h30l11 -74h213l11 74h29v-188h-29zM354 20q111 0 173.5 92t62.5 225q0 134 -62.5 226t-173.5 92t-173.5 -92t-62.5 -226q0 -133 62.5 -225t173.5 -92zM354 -14q-125 0 -211 96t-86 255q0 157 86 254t211 97t210.5 -96t85.5 -255
q0 -157 -86 -254t-210 -97z" />
    <glyph glyph-name="Iota" unicode="&#x399;" horiz-adv-x="366" 
d="M156 310v54q0 183 -1 274l-102 8v28h261v-28l-102 -8q-2 -90 -2 -274v-54q0 -183 2 -274l102 -8v-28h-261v28l102 8q1 91 1 274z" />
    <glyph glyph-name="Kappa" unicode="&#x39a;" horiz-adv-x="664" 
d="M156 310v54q0 183 -1 274l-102 8v28h261v-28l-103 -8q-2 -90 -2 -274v-97l304 369l-98 10v28h227v-28l-85 -9l-191 -230l212 -371l87 -8v-28h-239v28l94 8l-188 330l-123 -148q0 -112 2 -182l103 -8v-28h-261v28l102 8q1 91 1 274z" />
    <glyph glyph-name="Lambda" unicode="&#x39b;" horiz-adv-x="654" 
d="M302 680h37l218 -644l87 -8v-28h-251v28l107 9l-190 572l-187 -572l108 -9v-28h-229v28l87 9z" />
    <glyph glyph-name="Mu" unicode="&#x39c;" horiz-adv-x="899" 
d="M44 0v28l91 9v601l-97 8v28h153l249 -598l243 598h163v-28l-102 -8q-1 -90 -1 -274v-54q0 -183 1 -274l102 -8v-28h-257v28l99 8q1 91 1 268l2 298l-245 -602h-28l-253 603l5 -226v-340l94 -9v-28h-220z" />
    <glyph glyph-name="Nu" unicode="&#x39d;" horiz-adv-x="733" 
d="M462 646v28h232v-28l-89 -9v-644h-25l-412 590v-546l110 -9v-28h-233v28l88 9v596l-5 7l-87 6v28h130l400 -577v540z" />
    <glyph glyph-name="Xi" unicode="&#x39e;" horiz-adv-x="585" 
d="M428 244l-10 77h-251l-10 -77h-30v195h30l10 -75h251l10 75h30v-195h-30zM67 674h450l9 -164h-35l-17 117h-363l-17 -117h-35zM532 0h-479l-9 164h36l17 -117h391l17 117h36z" />
    <glyph glyph-name="Omicron" unicode="&#x39f;" horiz-adv-x="706" 
d="M119 337q0 -133 62.5 -225t171.5 -92q110 0 172.5 92t62.5 225t-62.5 225.5t-172.5 92.5q-109 0 -171.5 -92.5t-62.5 -225.5zM353 688q125 0 211 -96t86 -255q0 -157 -86 -254t-211 -97t-210.5 96t-85.5 255q0 157 86 254t210 97z" />
    <glyph glyph-name="Pi" unicode="&#x3a0;" horiz-adv-x="785" 
d="M156 310v54q0 183 -1 274l-102 8v28h679v-28l-102 -8q-2 -90 -2 -274v-54q0 -183 2 -274l102 -8v-28h-261v28l101 8q2 91 2 307v21q0 185 -2 276h-360q-2 -90 -2 -276v-21q0 -216 2 -307l102 -8v-28h-261v28l102 8q1 91 1 274z" />
    <glyph glyph-name="Rho" unicode="&#x3a1;" horiz-adv-x="582" 
d="M156 310v54q0 183 -1 274l-102 8v28h259q114 0 173 -52t59 -143t-67.5 -146.5t-201.5 -55.5h-65q0 -159 2 -241l108 -8v-28h-267v28l102 8q1 91 1 274zM301 642h-89q-2 -91 -2 -278v-57h64q110 0 162 46t52 126q0 163 -187 163z" />
    <glyph glyph-name="Sigma" unicode="&#x3a3;" horiz-adv-x="549" 
d="M510 0h-484v34l238 302l-223 312v26h451l8 -169h-37l-23 136h-334l210 -294l-233 -298h375l23 137h38z" />
    <glyph glyph-name="Tau" unicode="&#x3a4;" horiz-adv-x="597" 
d="M271 310v54q0 186 -1 277h-194l-19 -136h-37l9 169h539l9 -169h-37l-19 136h-194q-1 -91 -1 -277v-54q0 -183 1 -274l112 -8v-28h-281v28l112 8q1 91 1 274z" />
    <glyph glyph-name="Upsilon" unicode="&#x3a5;" horiz-adv-x="634" 
d="M389 646v28h226v-28l-87 -9l-183 -369q0 -164 2 -232l112 -8v-28h-282v28l112 8q2 73 2 230l-185 372l-82 8v28h247v-28l-104 -8l162 -335l163 334z" />
    <glyph glyph-name="Phi" unicode="&#x3a6;" horiz-adv-x="697" 
d="M218 657v28h261v-28l-104 -9q0 -46 -1 -70q130 -1 204.5 -66.5t74.5 -164.5q0 -97 -73 -163.5t-206 -66.5q0 -14 0.5 -42.5t0.5 -41.5l104 -10v-28h-261v28l104 9q0 57 1 85q-135 1 -207 67t-72 163q0 100 74.5 165.5t203.5 65.5v71zM100 350q0 -90 59.5 -145.5
t163.5 -55.5v161v54v182q-105 -1 -164 -54t-59 -142zM373 310q0 -107 1 -161q104 1 163.5 56.5t59.5 144.5t-59.5 142.5t-163.5 53.5q-1 -60 -1 -181v-55z" />
    <glyph glyph-name="Chi" unicode="&#x3a7;" horiz-adv-x="641" 
d="M27 646v28h249v-28l-100 -8l153 -255l154 254l-99 9v28h229v-28l-91 -9l-176 -283l190 -318l90 -8v-28h-250v28l100 8l-163 273l-167 -272l99 -9v-28h-229v28l89 9l191 300l-180 301z" />
    <glyph glyph-name="Psi" unicode="&#x3a8;" horiz-adv-x="736" 
d="M97 508l-11 72q-5 31 -19.5 45.5t-45.5 17.5l-26 3v28h35q56 0 79 -23.5t31 -79.5l9 -61q16 -114 56 -160t136 -50v10v54q0 183 -1 274l-92 8v28h241v-28l-92 -8q-2 -90 -2 -274v-54v-10q96 4 136 50t56 160l9 58q8 58 32 82t79 24h34v-28l-26 -3q-30 -3 -44.5 -17.5
t-19.5 -45.5l-11 -72q-20 -130 -72 -183t-173 -58q0 -154 2 -231l102 -8v-28h-261v28l102 8q1 77 1 231q-121 5 -172.5 58t-71.5 183z" />
    <glyph glyph-name="Omega" unicode="&#x2126;" horiz-adv-x="743" 
d="M372 655q-100 0 -163.5 -73t-63.5 -195q0 -207 180 -350v-37h-268l-10 160h39l20 -115h166v2q-184 146 -184 339q0 75 25 135t67 95t91 53.5t101 18.5t101 -18.5t91 -53.5t67 -95t25 -135q0 -193 -184 -339v-2h166l20 115h38l-10 -160h-267v37q180 143 180 350
q0 122 -63.5 195t-163.5 73z" />
    <glyph glyph-name="Omega" unicode="&#x3a9;" horiz-adv-x="743" 
d="M372 655q-100 0 -163.5 -73t-63.5 -195q0 -207 180 -350v-37h-268l-10 160h39l20 -115h166v2q-184 146 -184 339q0 75 25 135t67 95t91 53.5t101 18.5t101 -18.5t91 -53.5t67 -95t25 -135q0 -193 -184 -339v-2h166l20 115h38l-10 -160h-267v37q180 143 180 350
q0 122 -63.5 195t-163.5 73z" />
    <glyph glyph-name="Iotadieresis" unicode="&#x3aa;" horiz-adv-x="366" 
d="M156 310v54q0 183 -1 274l-102 8v28h261v-28l-102 -8q-2 -90 -2 -274v-54q0 -183 2 -274l102 -8v-28h-261v28l102 8q1 91 1 274zM77 752q-17 0 -29.5 11.5t-12.5 29.5t12.5 29.5t29.5 11.5t29.5 -11.5t12.5 -29.5t-12.5 -29.5t-29.5 -11.5zM289 752q-18 0 -30 11.5
t-12 29.5t12 29.5t30 11.5q17 0 29.5 -11.5t12.5 -29.5t-12.5 -29.5t-29.5 -11.5z" />
    <glyph glyph-name="Upsilondieresis" unicode="&#x3ab;" horiz-adv-x="634" 
d="M389 646v28h226v-28l-87 -9l-183 -369q0 -164 2 -232l112 -8v-28h-282v28l112 8q2 73 2 230l-185 372l-82 8v28h247v-28l-104 -8l162 -335l163 334zM231 752q-17 0 -29.5 11.5t-12.5 29.5t12.5 29.5t29.5 11.5t29.5 -11.5t12.5 -29.5t-12.5 -29.5t-29.5 -11.5zM443 752
q-18 0 -30 11.5t-12 29.5t12 29.5t30 11.5q17 0 29.5 -11.5t12.5 -29.5t-12.5 -29.5t-29.5 -11.5z" />
    <glyph glyph-name="alphatonos" unicode="&#x3ac;" horiz-adv-x="555" 
d="M99 248q0 -112 44 -170t112 -58q55 0 94.5 40.5t43.5 110.5l12 165q-18 56 -56.5 86.5t-90.5 30.5q-71 0 -115 -57.5t-44 -147.5zM247 -13q-84 0 -142 63t-58 186q0 116 66 182.5t149 66.5q100 0 147 -97l7 79l42 13l10 -7q-34 -261 -34 -358q0 -47 11.5 -65t36.5 -18
q21 0 42 12l9 -18q-25 -39 -67 -39q-31 0 -47.5 21.5t-21.5 72.5q-46 -94 -150 -94zM265 564l14 49l12.5 45t6.5 22q15 47 25 62t22 15q23 0 23 -24q0 -15 -27 -73q-22 -48 -53 -106z" />
    <glyph glyph-name="epsilontonos" unicode="&#x3ad;" horiz-adv-x="423" 
d="M47 116q0 49 38 83t112 43q-129 20 -129 117q0 54 45 90t125 36q93 0 138 -48q2 -16 -7 -26.5t-24 -10.5q-22 0 -48 22l-41 36h-18q-57 0 -90 -25.5t-33 -67.5q0 -97 149 -97q24 0 34 1v-44q-9 2 -22 2q-175 0 -175 -100q0 -99 132 -99q79 0 154 54l15 -17
q-73 -78 -184 -78q-77 0 -124 35t-47 94zM219 564l14 49l12.5 45t6.5 22q15 47 25 62t22 15q23 0 23 -24q0 -15 -27 -73q-22 -48 -53 -106z" />
    <glyph glyph-name="etatonos" unicode="&#x3ae;" horiz-adv-x="540" 
d="M409 -182l8 151l6 339q1 65 -28 97t-81 32q-45 0 -88 -29t-69 -82l3 -326l-45 -9l-10 8l8 147l3 229q0 35 -11 50t-36 15q-15 0 -32 -3l-7 19q20 26 57 26q35 0 51.5 -25.5t18.5 -93.5q26 57 77 89.5t95 32.5q58 0 93 -40t36 -127l6 -496l-45 -12zM265 564l14 49l12.5 45
t6.5 22q15 47 25 62t22 15q23 0 23 -24q0 -15 -27 -73q-22 -48 -53 -106z" />
    <glyph glyph-name="iotatonos" unicode="&#x3af;" horiz-adv-x="268" 
d="M180 -13q-36 0 -54.5 26.5t-18.5 88.5l-1 365l47 13l10 -7q-17 -325 -17 -365q1 -44 12 -60.5t36 -16.5q19 0 45 13l7 -17q-25 -40 -66 -40zM115 564l14 49l12.5 45t6.5 22q15 47 25 62t22 15q23 0 23 -24q0 -15 -27 -73q-22 -48 -53 -106z" />
    <glyph glyph-name="upsilondieresistonos" unicode="&#x3b0;" horiz-adv-x="536" 
d="M105 167q0 44 6 110t6 90q0 42 -10.5 57.5t-38.5 15.5q-16 0 -29 -3l-8 19q20 26 62 26q39 0 54.5 -25t15.5 -84q0 -31 -6 -92.5t-6 -105.5q0 -152 141 -152q72 0 114 54.5t42 162.5q0 37 -4 76q-50 105 -50 133q0 16 8.5 26t22.5 10q16 0 26 -10q29 -110 29 -223
q0 -135 -52.5 -200t-143.5 -65q-82 0 -130.5 44t-48.5 136zM255 566l-22 8q25 94 36 126q21 67 42 67q22 0 22 -22q0 -16 -27 -74q-29 -63 -51 -105zM171 628q-15 0 -26.5 10.5t-11.5 26.5t11 26t27 10t27 -10t11 -26t-11.5 -26.5t-26.5 -10.5zM385 628q-15 0 -26.5 10.5
t-11.5 26.5t11 26t27 10t27 -10t11 -26t-11 -26.5t-27 -10.5z" />
    <glyph glyph-name="alpha" unicode="&#x3b1;" horiz-adv-x="555" 
d="M99 248q0 -112 44 -170t112 -58q55 0 94.5 40.5t43.5 110.5l12 165q-18 56 -56.5 86.5t-90.5 30.5q-71 0 -115 -57.5t-44 -147.5zM247 -13q-84 0 -142 63t-58 186q0 116 66 182.5t149 66.5q100 0 147 -97l7 79l42 13l10 -7q-34 -261 -34 -358q0 -47 11.5 -65t36.5 -18
q21 0 42 12l9 -18q-25 -39 -67 -39q-31 0 -47.5 21.5t-21.5 72.5q-46 -94 -150 -94z" />
    <glyph glyph-name="beta" unicode="&#x3b2;" horiz-adv-x="569" 
d="M152 515v-420q75 -65 159 -65q75 0 118 44t43 116q0 84 -54 132t-162 44l-7 34q172 37 172 179q0 65 -32 100.5t-88 35.5q-72 0 -110.5 -52t-38.5 -148zM98 -181l5 182l1 495q0 119 53 184t147 65q73 0 120.5 -43.5t47.5 -122.5q0 -64 -41 -117t-117 -75
q101 -5 154.5 -56t53.5 -144q0 -90 -58 -145t-145 -55q-108 0 -172 82l7 -246l-45 -12z" />
    <glyph glyph-name="gamma" unicode="&#x3b3;" horiz-adv-x="483" 
d="M207 -182l15 197q-39 144 -100 311q-27 71 -42.5 91.5t-43.5 20.5q-14 0 -28 -3l-8 19q26 26 57 26q34 0 58 -26.5t50 -104.5q61 -189 85 -298q93 173 128 287q-6 62 -6 94q0 53 34 53q16 0 24 -10q3 -16 3 -37q0 -126 -175 -427l3 -189l-44 -12z" />
    <glyph glyph-name="delta" unicode="&#x3b4;" horiz-adv-x="522" 
d="M47 231q0 98 55 165t153 83q-143 81 -143 159q0 53 48.5 80t125.5 27q111 0 177 -73q1 -17 -8 -27t-24 -10q-21 0 -49 25l-58 55q-20 2 -29 2q-142 -2 -142 -77q0 -34 31.5 -64.5t111.5 -80.5q100 -64 137.5 -122t37.5 -143q0 -103 -60 -173t-149 -70q-95 0 -155 66.5
t-60 177.5zM99 239q0 -102 45.5 -161t119.5 -59q70 0 112.5 56t42.5 152q0 81 -29 131.5t-111 102.5q-180 -40 -180 -222z" />
    <glyph glyph-name="epsilon" unicode="&#x3b5;" horiz-adv-x="423" 
d="M47 116q0 49 38 83t112 43q-129 20 -129 117q0 54 45 90t125 36q93 0 138 -48q2 -16 -7 -26.5t-24 -10.5q-22 0 -48 22l-41 36h-18q-57 0 -90 -25.5t-33 -67.5q0 -97 149 -97q24 0 34 1v-44q-9 2 -22 2q-175 0 -175 -100q0 -99 132 -99q79 0 154 54l15 -17
q-73 -78 -184 -78q-77 0 -124 35t-47 94z" />
    <glyph glyph-name="zeta" unicode="&#x3b6;" horiz-adv-x="406" 
d="M206 -188l-4 46q157 14 157 77q0 24 -18 39.5t-68 28.5l-103 25q-125 32 -125 146q0 80 76 207.5t225 319.5l-279 -6v46l319 -6l3 -31q-152 -201 -222.5 -321t-70.5 -200q0 -47 25.5 -74t90.5 -43l76 -19q58 -14 82 -40t24 -63q0 -53 -48.5 -90.5t-139.5 -41.5z" />
    <glyph glyph-name="eta" unicode="&#x3b7;" horiz-adv-x="540" 
d="M409 -182l8 151l6 339q1 65 -28 97t-81 32q-45 0 -88 -29t-69 -82l3 -326l-45 -9l-10 8l8 147l3 229q0 35 -11 50t-36 15q-15 0 -32 -3l-7 19q20 26 57 26q35 0 51.5 -25.5t18.5 -93.5q26 57 77 89.5t95 32.5q58 0 93 -40t36 -127l6 -496l-45 -12z" />
    <glyph glyph-name="theta" unicode="&#x3b8;" horiz-adv-x="504" 
d="M249 -13q-195 0 -195 374q0 199 55.5 291.5t145.5 92.5q91 0 143.5 -93t52.5 -291q0 -197 -55.5 -285.5t-146.5 -88.5zM252 715q-146 0 -150 -324h301q-4 161 -45.5 242.5t-105.5 81.5zM255 17q148 0 148 334h-301q3 -170 44.5 -252t108.5 -82z" />
    <glyph glyph-name="iota" unicode="&#x3b9;" horiz-adv-x="268" 
d="M180 -13q-36 0 -54.5 26.5t-18.5 88.5l-1 365l47 13l10 -7q-17 -325 -17 -365q1 -44 12 -60.5t36 -16.5q19 0 45 13l7 -17q-25 -40 -66 -40z" />
    <glyph glyph-name="kappa" unicode="&#x3ba;" horiz-adv-x="519" 
d="M102 -1l11 169l3 207q0 35 -11 50t-36 15q-15 0 -32 -3l-7 19q20 26 54 26q38 0 55.5 -28t17.5 -96l-3 -188q77 156 208 269q49 42 101 46q26 -7 26 -30q0 -35 -60 -38l-49 -3q-62 -50 -125 -127q103 -176 119 -198q39 -50 71 -52q30 0 48 10l7 -18q-25 -42 -67 -42
q-34 0 -72 51.5t-126 220.5q-59 -91 -82 -134q-1 -43 -5 -125l-35 -9z" />
    <glyph glyph-name="lambda" unicode="&#x3bb;" horiz-adv-x="513" 
d="M361 127l-94 311l-190 -445l-48 5l-5 9l225 484l-36 102q-20 56 -43 77.5t-61 21.5q-36 0 -75 -27l-14 27q42 53 96 53q42 0 72 -30t52 -96l158 -477q21 -64 35.5 -84.5t36.5 -20.5q24 0 46 9l7 -18q-11 -17 -30.5 -29t-36.5 -12q-27 0 -48.5 28t-46.5 112z" />
    <glyph glyph-name="nu" unicode="&#x3bd;" horiz-adv-x="483" 
d="M221 -1q-31 152 -108 354q-20 50 -36 67.5t-41 17.5q-16 0 -29 -3l-7 19q24 26 57 26q34 0 57 -27t46 -91q68 -192 89 -315l22.5 43.5l22.5 43.5l18.5 37.5t19 40.5l16 38t17 44t14.5 44q-7 60 -7 94q0 53 35 53q16 0 23 -10q3 -11 3 -37q0 -134 -182 -440z" />
    <glyph glyph-name="xi" unicode="&#x3be;" horiz-adv-x="427" 
d="M226 -188l-3 46q156 13 156 77q0 24 -18.5 40.5t-68.5 27.5l-101 23q-64 15 -100.5 55.5t-36.5 106.5q0 73 49 123t135 63q-68 13 -104.5 55t-36.5 100q0 68 49.5 113t122.5 60l-222 -5v43l354 -5l-2 -33q-128 -4 -193 -50t-65 -115q0 -60 44 -98t137 -38q39 0 56 1v-50
q-11 0 -36 0.5t-33 0.5q-111 0 -160 -45t-49 -110q0 -56 28.5 -87.5t98.5 -46.5l80 -17q108 -23 108 -101q0 -56 -48.5 -93t-140.5 -41z" />
    <glyph glyph-name="omicron" unicode="&#x3bf;" horiz-adv-x="516" 
d="M255 -13q-88 0 -148 63t-60 186q0 116 66 182.5t149 66.5q91 0 149 -64.5t58 -180.5q0 -120 -65.5 -186.5t-148.5 -66.5zM260 19q73 0 115 57.5t42 146.5q0 106 -42.5 168t-116.5 62q-71 0 -115 -57.5t-44 -147.5q0 -112 46.5 -170.5t114.5 -58.5z" />
    <glyph glyph-name="pi" unicode="&#x3c0;" horiz-adv-x="592" 
d="M22 415l-4 25q77 32 193 32h356l2 -46l-148 4l6 -320q1 -46 14.5 -62.5t43.5 -16.5q27 0 51 13l7 -17q-28 -40 -75 -40q-45 0 -66.5 27.5t-21.5 89.5q2 155 6 326h-184q-2 -240 -14 -356q-4 -42 -29 -63.5t-63 -21.5q-19 0 -29.5 9.5t-10.5 24.5q0 22 19 32q42 4 75 4
q20 147 22 370z" />
    <glyph glyph-name="rho" unicode="&#x3c1;" horiz-adv-x="546" 
d="M135 249l-2 -143q61 -83 154 -83q76 0 117.5 56t41.5 152q0 105 -45 163.5t-112 58.5q-72 0 -112.5 -54t-41.5 -150zM82 -181l3 173l1 232q0 125 56 193t155 68q90 0 145.5 -66.5t55.5 -178.5q0 -115 -60 -184t-149 -69q-103 0 -159 90l8 -254l-45 -12z" />
    <glyph glyph-name="uni03C2" unicode="&#x3c2;" horiz-adv-x="453" 
d="M210 -188l-4 46q157 14 157 79q0 22 -18.5 37.5t-67.5 28.5l-80 21q-73 19 -110.5 66.5t-37.5 136.5q0 122 66 190t170 68q81 0 126 -54q3 -18 -6.5 -28t-25.5 -10q-21 0 -41 20l-48 46h-1q-89 0 -139 -55t-50 -160q0 -79 28 -120t88 -57l78 -20q58 -16 81 -40.5
t23 -62.5q0 -53 -48.5 -90.5t-139.5 -41.5z" />
    <glyph glyph-name="sigma" unicode="&#x3c3;" horiz-adv-x="572" 
d="M257 -13q-93 0 -151.5 64.5t-58.5 171.5q0 116 66.5 183t189.5 67h247l2 -49l-219 13q63 -27 100 -85.5t37 -126.5q0 -109 -62.5 -173.5t-150.5 -64.5zM99 233q0 -97 47 -155.5t117 -58.5q69 0 113.5 55.5t44.5 153.5q0 76 -40.5 135t-111.5 77q-170 -17 -170 -207z" />
    <glyph glyph-name="tau" unicode="&#x3c4;" horiz-adv-x="461" 
d="M22 415l-4 25q80 32 218 32h200l2 -44l-193 3l1 -318q1 -47 15.5 -64.5t42.5 -17.5q27 0 51 13l7 -17q-28 -40 -75 -40q-45 0 -66.5 27.5t-21.5 89.5q0 110 12 326z" />
    <glyph glyph-name="upsilon" unicode="&#x3c5;" horiz-adv-x="536" 
d="M105 167q0 44 6 110t6 90q0 42 -10.5 57.5t-38.5 15.5q-16 0 -29 -3l-8 19q20 26 62 26q39 0 54.5 -25t15.5 -84q0 -31 -6 -92.5t-6 -105.5q0 -152 141 -152q72 0 114 54.5t42 162.5q0 37 -4 76q-50 105 -50 133q0 16 8.5 26t22.5 10q16 0 26 -10q29 -110 29 -223
q0 -135 -52.5 -200t-143.5 -65q-82 0 -130.5 44t-48.5 136z" />
    <glyph glyph-name="phi" unicode="&#x3c6;" horiz-adv-x="686" 
d="M100 237q0 -105 59 -160.5t162 -57.5l7 434q-112 -1 -170 -59t-58 -157zM586 237q0 100 -55 158t-167 58v-434q113 2 167.5 60t54.5 158zM312 -192l8 179q-125 3 -199 67.5t-74 179.5q0 112 77.5 181.5t203.5 69.5l2 135h34v-135q132 -1 203.5 -66.5t71.5 -176.5
q0 -115 -74.5 -184t-200.5 -71l5 -174l-47 -12z" />
    <glyph glyph-name="chi" unicode="&#x3c7;" horiz-adv-x="481" 
d="M14 424l-9 24q29 35 69 35q37 0 64 -28.5t52 -94.5l57 -152l146 275l42 -4l5 -8l-174 -309l75 -190q25 -63 48.5 -89t51.5 -26q25 0 44 12l11 -20q-23 -39 -65 -39q-39 0 -64.5 33.5t-53.5 110.5l-63 178l-167 -319l-39 8l-5 8l194 352l-68 157q-27 61 -46.5 80t-52.5 19
q-24 0 -52 -13z" />
    <glyph glyph-name="psi" unicode="&#x3c8;" horiz-adv-x="702" 
d="M351 -193l6 180q-246 2 -246 190q0 37 2.5 101t2.5 89q0 42 -10 57t-38 15q-14 0 -31 -3l-7 19q20 26 58 26q40 0 57 -25t17 -83q0 -33 -2.5 -93t-2.5 -101q0 -79 48.5 -118t151.5 -40l6 595h32l5 -595q105 5 157 66.5t52 194.5v25q-41 116 -41 140q0 18 10 28t26 10
q17 0 27 -13q11 -82 11 -195q0 -278 -242 -289l2 -176l-41 -12z" />
    <glyph glyph-name="omega" unicode="&#x3c9;" horiz-adv-x="714" 
d="M223 -13q-69 0 -122.5 59t-53.5 175q0 105 55.5 174.5t158.5 88.5l4 -26q-166 -44 -166 -239q0 -97 38 -147.5t91 -50.5q48 0 77.5 30.5t29.5 87.5q0 16 -2.5 79t-3.5 106l51 7l6 -5q-1 -40 -5 -104.5t-4 -80.5q0 -57 32.5 -88.5t80.5 -31.5q51 0 88 48.5t37 149.5
q0 195 -167 239l6 26q102 -19 157.5 -87.5t55.5 -173.5q0 -120 -54 -178t-125 -58q-49 0 -84.5 27.5t-47.5 77.5q-13 -51 -47.5 -78t-85.5 -27z" />
    <glyph glyph-name="iotadieresis" unicode="&#x3ca;" horiz-adv-x="268" 
d="M180 -13q-36 0 -54.5 26.5t-18.5 88.5l-1 365l47 13l10 -7q-17 -325 -17 -365q1 -44 12 -60.5t36 -16.5q19 0 45 13l7 -17q-25 -40 -66 -40zM231 625q-17 0 -29 11t-12 29t12 29t29 11t29 -11t12 -29t-12 -29t-29 -11zM35 625q-17 0 -29 11t-12 29t12 29t29 11t29 -11
t12 -29t-12 -29t-29 -11z" />
    <glyph glyph-name="upsilondieresis" unicode="&#x3cb;" horiz-adv-x="536" 
d="M105 167q0 44 6 110t6 90q0 42 -10.5 57.5t-38.5 15.5q-16 0 -29 -3l-8 19q20 26 62 26q39 0 54.5 -25t15.5 -84q0 -31 -6 -92.5t-6 -105.5q0 -152 141 -152q72 0 114 54.5t42 162.5q0 37 -4 76q-50 105 -50 133q0 16 8.5 26t22.5 10q16 0 26 -10q29 -110 29 -223
q0 -135 -52.5 -200t-143.5 -65q-82 0 -130.5 44t-48.5 136zM165 625q-17 0 -29 11t-12 29t12 29t29 11t29 -11t12 -29t-12 -29t-29 -11zM361 625q-17 0 -29 11t-12 29t12 29t29 11t29 -11t12 -29t-12 -29t-29 -11z" />
    <glyph glyph-name="omicrontonos" unicode="&#x3cc;" horiz-adv-x="516" 
d="M255 -13q-88 0 -148 63t-60 186q0 116 66 182.5t149 66.5q91 0 149 -64.5t58 -180.5q0 -120 -65.5 -186.5t-148.5 -66.5zM260 19q73 0 115 57.5t42 146.5q0 106 -42.5 168t-116.5 62q-71 0 -115 -57.5t-44 -147.5q0 -112 46.5 -170.5t114.5 -58.5zM247 564l14 49l12.5 45
t6.5 22q15 47 25 62t22 15q23 0 23 -24q0 -15 -27 -73q-22 -48 -53 -106z" />
    <glyph glyph-name="upsilontonos" unicode="&#x3cd;" horiz-adv-x="536" 
d="M105 167q0 44 6 110t6 90q0 42 -10.5 57.5t-38.5 15.5q-16 0 -29 -3l-8 19q20 26 62 26q39 0 54.5 -25t15.5 -84q0 -31 -6 -92.5t-6 -105.5q0 -152 141 -152q72 0 114 54.5t42 162.5q0 37 -4 76q-50 105 -50 133q0 16 8.5 26t22.5 10q16 0 26 -10q29 -110 29 -223
q0 -135 -52.5 -200t-143.5 -65q-82 0 -130.5 44t-48.5 136zM250 564l14 49l12.5 45t6.5 22q15 47 25 62t22 15q23 0 23 -24q0 -15 -27 -73q-22 -48 -53 -106z" />
    <glyph glyph-name="omegatonos" unicode="&#x3ce;" horiz-adv-x="714" 
d="M223 -13q-69 0 -122.5 59t-53.5 175q0 105 55.5 174.5t158.5 88.5l4 -26q-166 -44 -166 -239q0 -97 38 -147.5t91 -50.5q48 0 77.5 30.5t29.5 87.5q0 16 -2.5 79t-3.5 106l51 7l6 -5q-1 -40 -5 -104.5t-4 -80.5q0 -57 32.5 -88.5t80.5 -31.5q51 0 88 48.5t37 149.5
q0 195 -167 239l6 26q102 -19 157.5 -87.5t55.5 -173.5q0 -120 -54 -178t-125 -58q-49 0 -84.5 27.5t-47.5 77.5q-13 -51 -47.5 -78t-85.5 -27zM346 564l14 49l12.5 45t6.5 22q15 47 25 62t22 15q23 0 23 -24q0 -15 -27 -73q-22 -48 -53 -106z" />
    <glyph glyph-name="uni03D7" unicode="&#x3d7;" horiz-adv-x="621" 
d="M159 -9l-11 8l11 169l2 207q1 35 -9.5 50t-36.5 15q-15 0 -32 -3l-7 19q20 26 54 26q38 0 55.5 -28t17.5 -96q0 -60 -4 -190q78 161 209 271q49 42 101 46q26 -7 26 -30q0 -35 -61 -38l-48 -3q-64 -52 -125 -128q80 -139 127.5 -196.5t86.5 -57.5q21 0 46 10l6 -17
q-111 -229 -316 -229q-106 0 -167 61.5t-70 162.5l25 4q32 -179 221 -179q76 0 145.5 37t115.5 107q-12 -2 -19 -2q-47 0 -93 61t-126 214q-52 -78 -86 -140q-2 -82 -4 -122z" />
    <glyph glyph-name="uni03D9" unicode="&#x3d9;" horiz-adv-x="521" 
d="M260 19q73 0 115 57.5t42 146.5q0 106 -42.5 168t-116.5 62q-71 0 -115 -57.5t-44 -147.5q0 -112 46.5 -170.5t114.5 -58.5zM291 -178l-45 -12l-11 8l10 169q-84 4 -141 67t-57 182q0 116 66 182.5t149 66.5q91 0 149 -64.5t58 -180.5q0 -109 -55.5 -174.5t-131.5 -76.5z
" />
    <glyph glyph-name="uni03DB" unicode="&#x3db;" horiz-adv-x="445" 
d="M210 -188l-3 46q156 13 156 79q0 22 -18 37.5t-67 28.5l-77 20q-75 20 -113 67.5t-38 138.5q0 103 52 164t137 74l63 9q44 8 63.5 20t28.5 38l16 47l25 -4l-14 -59q-11 -44 -38.5 -62.5t-84.5 -27.5l-67 -10q-70 -10 -107.5 -55.5t-37.5 -125.5q0 -69 31.5 -109.5
t99.5 -59.5l80 -22q56 -15 78.5 -39t22.5 -61q0 -55 -48 -92.5t-140 -41.5z" />
    <glyph glyph-name="uni03DD" unicode="&#x3dd;" horiz-adv-x="421" 
d="M99 -182l13 275l-13 373l309 10v-44l-254 6q-1 -48 -2.5 -93.5l-3 -88t-2.5 -62.5l242 5v-44l-242 9q-1 -24 -1 -71l10 -271l-45 -12z" />
    <glyph glyph-name="uni03E1" unicode="&#x3e1;" horiz-adv-x="550" 
d="M367 -170q69 149 69 329q0 33 -3 65l-317 -130l-17 47l331 113q-13 103 -53 188l-331 -125l-12 47l330 103q-53 100 -137 164.5t-185 81.5l3 22q129 -8 230 -87.5t154 -202.5t53 -266q0 -93 -23.5 -190t-67.5 -169z" />
    <glyph glyph-name="uni0400" unicode="&#x400;" horiz-adv-x="602" 
d="M156 310v54q0 183 -1 274l-102 8v28h483l9 -163h-37l-19 130h-277q-2 -91 -2 -283h179l11 96h30v-224h-30l-11 96h-179q0 -206 2 -293h294l18 130h37l-8 -163h-500v28l102 8q1 91 1 274zM360 743l-12 -16q-26 14 -118 69q-27 16 -37.5 26t-10.5 21q0 10 7.5 16.5
t18.5 6.5q16 0 53 -34z" />
    <glyph glyph-name="uni0401" unicode="&#x401;" horiz-adv-x="602" 
d="M156 310v54q0 183 -1 274l-102 8v28h483l9 -163h-37l-19 130h-277q-2 -91 -2 -283h179l11 96h30v-224h-30l-11 96h-179q0 -206 2 -293h294l18 130h37l-8 -163h-500v28l102 8q1 91 1 274zM224 752q-17 0 -29.5 11.5t-12.5 29.5t12.5 29.5t29.5 11.5t29.5 -11.5t12.5 -29.5
t-12.5 -29.5t-29.5 -11.5zM436 752q-18 0 -30 11.5t-12 29.5t12 29.5t30 11.5q17 0 29.5 -11.5t12.5 -29.5t-12.5 -29.5t-29.5 -11.5z" />
    <glyph glyph-name="uni0402" unicode="&#x402;" horiz-adv-x="702" 
d="M20 505l9 169h539l9 -169h-37l-19 136h-204q-1 -91 -1 -269q53 7 110 7q116 0 178 -61t62 -157q0 -87 -55 -149t-155 -71l-8 27q79 13 120 62.5t41 130.5q0 86 -48 135.5t-151 49.5q-55 0 -94 -5v-31q0 -208 2 -310h-170v28l112 8q1 91 1 274v54q0 186 -1 277h-184
l-19 -136h-37z" />
    <glyph glyph-name="uni0403" unicode="&#x403;" horiz-adv-x="559" 
d="M53 646v28h464l9 -171h-37l-21 138h-256q-2 -91 -2 -277v-54q0 -183 2 -274l108 -8v-28h-267v28l102 8q1 91 1 274v54q0 183 -1 274zM254 743l99 90q37 33 53 33q11 0 18.5 -6.5t7.5 -16.5q0 -11 -10.5 -20.5t-36.5 -25.5l-119 -70z" />
    <glyph glyph-name="uni0404" unicode="&#x404;" horiz-adv-x="623" 
d="M370 -14q-146 0 -229.5 97t-83.5 254t84 254t228 97q103 0 191 -49l4 -143h-39l-18 125q-59 34 -132 34q-124 0 -191 -75.5t-71 -222.5h237l11 97h29v-225h-29l-11 96h-237q3 -150 69.5 -227.5t188.5 -77.5q80 0 145 34l18 125h39l-4 -144q-91 -49 -199 -49z" />
    <glyph glyph-name="uni0405" unicode="&#x405;" horiz-adv-x="513" 
d="M238 20q81 0 129 36t48 105q0 53 -31.5 85.5t-115.5 65.5l-37 15q-81 33 -121.5 78.5t-40.5 111.5q0 82 58.5 126.5t145.5 44.5q89 0 162 -50l-4 -124h-37l-15 113q-46 28 -107 28q-69 0 -111.5 -33t-42.5 -95q0 -52 31 -85.5t92 -57.5l39 -15q105 -42 144.5 -86.5
t39.5 -114.5q0 -83 -63 -132.5t-162 -49.5q-109 0 -190 54l5 131h36l15 -116q57 -35 133 -35z" />
    <glyph glyph-name="uni0406" unicode="&#x406;" horiz-adv-x="366" 
d="M156 310v54q0 183 -1 274l-102 8v28h261v-28l-102 -8q-2 -90 -2 -274v-54q0 -183 2 -274l102 -8v-28h-261v28l102 8q1 91 1 274z" />
    <glyph glyph-name="uni0407" unicode="&#x407;" horiz-adv-x="366" 
d="M156 310v54q0 183 -1 274l-102 8v28h261v-28l-102 -8q-2 -90 -2 -274v-54q0 -183 2 -274l102 -8v-28h-261v28l102 8q1 91 1 274zM77 752q-17 0 -29.5 11.5t-12.5 29.5t12.5 29.5t29.5 11.5t29.5 -11.5t12.5 -29.5t-12.5 -29.5t-29.5 -11.5zM289 752q-18 0 -30 11.5
t-12 29.5t12 29.5t30 11.5q17 0 29.5 -11.5t12.5 -29.5t-12.5 -29.5t-29.5 -11.5z" />
    <glyph glyph-name="uni0408" unicode="&#x408;" horiz-adv-x="363" 
d="M55 646v28h271v-28l-101 -8q-2 -91 -2 -277v-162q0 -107 -6 -160q-9 -89 -61 -140.5t-123 -51.5q-57 0 -69 32q7 34 48 34q31 0 65 -22l15 -10q79 45 79 177q0 102 -5 580z" />
    <glyph glyph-name="uni0409" unicode="&#x409;" horiz-adv-x="890" 
d="M166 646v28h467v-28l-102 -8q-2 -90 -2 -260q45 6 89 6q117 1 178.5 -50.5t61.5 -138.5t-61.5 -141t-179.5 -54h-245v28l101 8q2 90 2 274v54q0 186 -2 277h-175q-13 -270 -58 -440q-59 -215 -173 -215q-57 0 -57 54q12 26 46 26q24 0 54 -25q31 25 53 62.5t41 106.5
q45 175 58 427zM529 310q0 -186 2 -278h78q192 0 192 162q0 77 -46.5 117.5t-152.5 40.5q-38 0 -73 -6v-36z" />
    <glyph glyph-name="uni040A" unicode="&#x40a;" horiz-adv-x="967" 
d="M449 646v28h271v-28l-112 -9q-1 -89 -1 -258q53 5 95 5q113 0 173 -52t60 -139q0 -86 -60.5 -139.5t-175.5 -53.5h-250v28l102 8q1 91 1 282v27h-342v-27q0 -191 2 -282l102 -8v-28h-261v28l102 8q1 91 1 274v54q0 183 -1 274l-102 8v28h261v-28l-102 -8q-2 -90 -2 -261
h342q0 177 -1 261zM607 310q0 -186 1 -278h83q187 0 187 158q0 80 -45 121t-147 41q-37 0 -79 -5v-37z" />
    <glyph glyph-name="uni040B" unicode="&#x40b;" horiz-adv-x="770" 
d="M20 505l9 169h549l9 -169h-37l-19 136h-204q-1 -91 -1 -265q52 8 140 8q90 0 142 -43.5t52 -133.5v-171l80 -8v-28h-134q3 100 3 199q0 153 -162 153q-75 0 -121 -6v-36q0 -183 1 -274l105 -8v-28h-274v28l112 8q1 91 1 274v54q0 186 -1 277h-194l-19 -136h-37z" />
    <glyph glyph-name="uni040C" unicode="&#x40c;" horiz-adv-x="658" 
d="M331 743l99 90q37 33 53 33q11 0 18.5 -6.5t7.5 -16.5q0 -11 -10.5 -20.5t-36.5 -25.5l-119 -70zM483 41l-63 178q-23 61 -57 85t-96 24h-57q0 -205 2 -292l102 -8v-28h-261v28l102 8q1 91 1 274v54q0 183 -1 274l-102 8v28h261v-28l-102 -8q-2 -90 -2 -279h55
q58 0 87 26.5t71 122.5q45 103 79 140.5t81 40.5q37 -5 37 -38q0 -15 -12 -26t-36 -11t-51 6q-31 -41 -69 -124q-34 -73 -59.5 -105.5t-58.5 -45.5q101 -24 139 -127l70 -183l107 -8v-27q-30 -7 -75 -7q-43 0 -62.5 10t-29.5 38z" />
    <glyph glyph-name="uni040D" unicode="&#x40d;" horiz-adv-x="799" 
d="M485 646v28h261v-28l-101 -8q-2 -90 -2 -274v-54q0 -183 2 -274l101 -8v-28h-261v28l102 8q2 91 2 282v233l-379 -480v-35l104 -8v-28h-261v28l102 8q1 91 1 274v54q0 183 -1 274l-102 8v28h261v-28l-102 -8q-2 -90 -2 -274v-243l379 481v36zM427 743l-12 -16
q-26 14 -118 69q-27 16 -37.5 26t-10.5 21q0 10 7.5 16.5t18.5 6.5q16 0 53 -34z" />
    <glyph glyph-name="uni040E" unicode="&#x40e;" horiz-adv-x="582" 
d="M8 646v28h234v-28l-99 -8l172 -409l159 408l-93 9v28h216v-28l-81 -8l-198 -475q-37 -94 -74.5 -135.5t-87.5 -41.5q-57 0 -60 54q12 26 48 26q29 0 62 -29q39 31 83 130l-205 471zM316 731q-65 0 -109 36.5t-44 97.5q9 21 29 21q15 0 24 -11.5t9 -30.5q0 -21 -4 -49
q36 -35 95 -35t95 35q-4 28 -4 49q0 19 9 30.5t24 11.5q20 0 29 -21q0 -61 -44 -97.5t-109 -36.5z" />
    <glyph glyph-name="uni040F" unicode="&#x40f;" horiz-adv-x="775" 
d="M461 646v28h261v-28l-102 -8q-1 -90 -1 -274v-54q0 -183 1 -274l102 -8v-28h-307l-9 -199h-37l-9 199h-307v28l102 8q1 91 1 274v54q0 184 -1 274l-102 8v28h261v-28l-102 -8q-2 -90 -2 -274v-54q0 -186 2 -277h351q1 91 1 277v54q0 184 -1 274z" />
    <glyph glyph-name="uni0410" unicode="&#x410;" horiz-adv-x="657" 
d="M313 607l-111 -341h224zM9 0v28l82 9l214 643h37l217 -644l93 -8v-28h-257v28l107 9l-66 199h-243l-65 -199l92 -9v-28h-211z" />
    <glyph glyph-name="uni0411" unicode="&#x411;" horiz-adv-x="604" 
d="M53 646v28h460l9 -163h-37l-19 130h-254q-2 -91 -2 -269q53 7 110 7q117 0 178.5 -51t61.5 -137t-61 -138.5t-179 -52.5h-267v28l102 8q1 91 1 274v54q0 183 -1 274zM210 310q0 -186 2 -278h100q192 0 192 158q0 76 -46.5 116t-152.5 40q-56 0 -95 -5v-31z" />
    <glyph glyph-name="uni0412" unicode="&#x412;" horiz-adv-x="608" 
d="M156 310v54q0 183 -1 274l-102 8v28h259q104 0 159 -43.5t55 -116.5q0 -59 -40 -102.5t-119 -58.5q98 -11 145.5 -57t47.5 -115q0 -79 -62 -130t-183 -51h-262v28l102 8q1 91 1 274zM285 335h-75q0 -215 2 -303h94q95 0 146 39t51 111q0 153 -218 153zM293 642h-81
q-2 -91 -2 -277h66q96 0 146 38.5t50 109.5q0 64 -42.5 96.5t-136.5 32.5z" />
    <glyph glyph-name="uni0413" unicode="&#x413;" horiz-adv-x="559" 
d="M53 646v28h464l9 -171h-37l-21 138h-256q-2 -91 -2 -277v-54q0 -183 2 -274l108 -8v-28h-267v28l102 8q1 91 1 274v54q0 183 -1 274z" />
    <glyph glyph-name="uni0414" unicode="&#x414;" horiz-adv-x="692" 
d="M171 646v28h472v-28l-102 -8q-2 -91 -2 -281v-29q0 -203 2 -295h100l-3 -206h-36l-15 173h-517l-18 -173h-36l-2 206h45q90 112 140 256t62 348zM485 357q0 193 -2 284h-181q-25 -393 -193 -608h374q2 92 2 295v29z" />
    <glyph glyph-name="uni0415" unicode="&#x415;" horiz-adv-x="602" 
d="M156 310v54q0 183 -1 274l-102 8v28h483l9 -163h-37l-19 130h-277q-2 -91 -2 -283h179l11 96h30v-224h-30l-11 96h-179q0 -206 2 -293h294l18 130h37l-8 -163h-500v28l102 8q1 91 1 274z" />
    <glyph glyph-name="uni0416" unicode="&#x416;" horiz-adv-x="919" 
d="M749 41l-64 178q-21 58 -55.5 81.5t-96.5 23.5h-48q0 -201 1 -288l103 -8v-28h-259v28l103 8q1 91 1 288h-48q-61 0 -96 -23.5t-57 -81.5l-63 -178q-10 -28 -29.5 -38t-62.5 -10q-47 0 -75 7v27l107 8l70 182q36 100 133 124q-31 13 -55.5 46.5t-58.5 108.5
q-41 86 -69 123q-28 -5 -49 -5q-24 0 -36 11t-12 26q0 14 10.5 25t27.5 13q45 -3 79 -40.5t79 -140.5q43 -98 73 -126t87 -28h45q0 198 -1 284l-103 8v28h259v-28l-103 -8q-1 -90 -1 -284h45q56 0 86 28t74 126q46 104 79 141t79 40q17 -2 27.5 -13t10.5 -25
q0 -15 -12.5 -26t-35.5 -11q-21 0 -49 5q-32 -42 -69 -123q-34 -75 -58.5 -108.5t-55.5 -46.5q97 -24 133 -124l70 -182l107 -8v-27q-30 -7 -75 -7q-44 0 -63.5 10t-28.5 38z" />
    <glyph glyph-name="uni0417" unicode="&#x417;" horiz-adv-x="542" 
d="M495 178q0 -85 -67 -138.5t-181 -53.5q-173 0 -211 131q8 24 33 24q14 0 22 -9t15 -30l21 -59q42 -23 114 -23q90 0 143.5 43.5t53.5 119.5q0 151 -199 151h-33v32h25q92 0 140 40t48 109q0 140 -164 140q-75 0 -129 -24l-14 -115h-38l-4 126q80 46 191 46
q104 0 157.5 -45.5t53.5 -127.5q0 -57 -40.5 -101.5t-113.5 -61.5q90 -11 133.5 -58t43.5 -116z" />
    <glyph glyph-name="uni0418" unicode="&#x418;" horiz-adv-x="799" 
d="M485 646v28h261v-28l-101 -8q-2 -90 -2 -274v-54q0 -183 2 -274l101 -8v-28h-261v28l102 8q2 91 2 282v233l-379 -480v-35l104 -8v-28h-261v28l102 8q1 91 1 274v54q0 183 -1 274l-102 8v28h261v-28l-102 -8q-2 -90 -2 -274v-243l379 481v36z" />
    <glyph glyph-name="uni0419" unicode="&#x419;" horiz-adv-x="799" 
d="M485 646v28h261v-28l-101 -8q-2 -90 -2 -274v-54q0 -183 2 -274l101 -8v-28h-261v28l102 8q2 91 2 282v233l-379 -480v-35l104 -8v-28h-261v28l102 8q1 91 1 274v54q0 183 -1 274l-102 8v28h261v-28l-102 -8q-2 -90 -2 -274v-243l379 481v36zM400 731q-65 0 -109 36.5
t-44 97.5q9 21 29 21q15 0 24 -11.5t9 -30.5q0 -21 -4 -49q36 -35 95 -35t95 35q-4 28 -4 49q0 19 9 30.5t24 11.5q20 0 29 -21q0 -61 -44 -97.5t-109 -36.5z" />
    <glyph glyph-name="uni041A" unicode="&#x41a;" horiz-adv-x="658" 
d="M483 41l-63 178q-23 61 -57 85t-96 24h-57q0 -205 2 -292l102 -8v-28h-261v28l102 8q1 91 1 274v54q0 183 -1 274l-102 8v28h261v-28l-102 -8q-2 -90 -2 -279h55q58 0 87 26.5t71 122.5q45 103 79 140.5t81 40.5q37 -5 37 -38q0 -15 -12 -26t-36 -11t-51 6
q-31 -41 -69 -124q-34 -73 -59.5 -105.5t-58.5 -45.5q101 -24 139 -127l70 -183l107 -8v-27q-30 -7 -75 -7q-43 0 -62.5 10t-29.5 38z" />
    <glyph glyph-name="uni041B" unicode="&#x41b;" horiz-adv-x="693" 
d="M166 646v28h467v-28l-102 -8q-2 -91 -2 -274v-54q0 -183 2 -274l102 -8v-28h-261v28l101 8q2 90 2 274v54q0 186 -2 277h-175q-13 -270 -58 -440q-59 -215 -171 -215q-27 0 -43 14t-16 40q12 26 46 26q24 0 54 -25q31 25 53 62.5t41 106.5q45 175 58 427z" />
    <glyph glyph-name="uni041C" unicode="&#x41c;" horiz-adv-x="899" 
d="M44 0v28l91 9v601l-97 8v28h153l249 -598l243 598h163v-28l-102 -8q-1 -90 -1 -274v-54q0 -183 1 -274l102 -8v-28h-257v28l99 8q1 91 1 268l2 298l-245 -602h-28l-253 603l5 -226v-340l94 -9v-28h-220z" />
    <glyph glyph-name="uni041D" unicode="&#x41d;" horiz-adv-x="792" 
d="M156 310v54q0 183 -1 274l-102 8v28h261v-28l-102 -8q-2 -90 -2 -270h372q0 184 -1 270l-102 8v28h261v-28l-102 -8q-2 -90 -2 -274v-54q0 -183 2 -274l102 -8v-28h-261v28l102 8q1 91 1 301h-372q0 -214 2 -301l102 -8v-28h-261v28l102 8q1 91 1 274z" />
    <glyph glyph-name="uni041E" unicode="&#x41e;" horiz-adv-x="706" 
d="M119 337q0 -133 62.5 -225t171.5 -92q110 0 172.5 92t62.5 225t-62.5 225.5t-172.5 92.5q-109 0 -171.5 -92.5t-62.5 -225.5zM353 688q125 0 211 -96t86 -255q0 -157 -86 -254t-211 -97t-210.5 96t-85.5 255q0 157 86 254t210 97z" />
    <glyph glyph-name="uni041F" unicode="&#x41f;" horiz-adv-x="781" 
d="M53 0v28l102 8q1 91 1 274v54q0 183 -1 274l-102 8v28h676v-28l-103 -8q-1 -90 -1 -274v-54q0 -183 1 -274l103 -8v-28h-261v28l101 8q1 90 1 274v54q0 186 -1 278h-357q-2 -91 -2 -278v-54q0 -184 2 -274l102 -8v-28h-261z" />
    <glyph glyph-name="uni0420" unicode="&#x420;" horiz-adv-x="582" 
d="M156 310v54q0 183 -1 274l-102 8v28h259q114 0 173 -52t59 -143t-67.5 -146.5t-201.5 -55.5h-65q0 -159 2 -241l108 -8v-28h-267v28l102 8q1 91 1 274zM301 642h-89q-2 -91 -2 -278v-57h64q110 0 162 46t52 126q0 163 -187 163z" />
    <glyph glyph-name="uni0421" unicode="&#x421;" horiz-adv-x="639" 
d="M388 20q81 0 145 35l18 124h39l-4 -142q-89 -51 -199 -51q-148 0 -239 97.5t-91 253.5q0 154 93 252.5t237 98.5q104 0 191 -51l4 -141h-39l-18 122q-60 37 -131 37q-123 0 -199 -86t-76 -232q0 -147 74.5 -232t194.5 -85z" />
    <glyph glyph-name="uni0422" unicode="&#x422;" horiz-adv-x="597" 
d="M271 310v54q0 186 -1 277h-194l-19 -136h-37l9 169h539l9 -169h-37l-19 136h-194q-1 -91 -1 -277v-54q0 -183 1 -274l112 -8v-28h-281v28l112 8q1 91 1 274z" />
    <glyph glyph-name="uni0423" unicode="&#x423;" horiz-adv-x="582" 
d="M8 646v28h234v-28l-99 -8l172 -409l159 408l-93 9v28h216v-28l-81 -8l-198 -475q-37 -94 -74.5 -135.5t-87.5 -41.5q-57 0 -60 54q12 26 48 26q29 0 62 -29q39 31 83 130l-205 471z" />
    <glyph glyph-name="uni0424" unicode="&#x424;" horiz-adv-x="700" 
d="M220 657v28h261v-28l-105 -9q-1 -26 -1 -80h26q128 0 198.5 -60t70.5 -169q0 -108 -72.5 -168.5t-196.5 -60.5h-26q0 -56 1 -84l105 -9v-28h-261v28l105 9q0 56 1 84h-27q-123 0 -196 60t-73 169q0 110 71 169.5t198 59.5h27q-1 27 -1 80zM300 140h26v161v68v168h-26
q-109 0 -162.5 -54t-53.5 -144q0 -89 55.5 -144t160.5 -55zM374 301v-161h26q105 0 160.5 55t55.5 144q0 90 -53.5 144t-162.5 54h-26v-168v-68z" />
    <glyph glyph-name="uni0425" unicode="&#x425;" horiz-adv-x="641" 
d="M27 646v28h249v-28l-100 -8l153 -255l154 254l-99 9v28h229v-28l-91 -9l-176 -283l190 -318l90 -8v-28h-250v28l100 8l-163 273l-167 -272l99 -9v-28h-229v28l89 9l191 300l-180 301z" />
    <glyph glyph-name="uni0426" unicode="&#x426;" horiz-adv-x="775" 
d="M462 646v28h261v-28l-103 -8q-1 -90 -1 -274v-54q0 -186 1 -277h106l-6 -206h-36l-13 173h-618v28l102 8q1 91 1 274v54q0 184 -1 274l-102 8v28h261v-28l-102 -8q-2 -90 -2 -274v-54q0 -186 2 -277h351q1 91 1 277v54q0 184 -1 274z" />
    <glyph glyph-name="uni0427" unicode="&#x427;" horiz-adv-x="707" 
d="M37 646v28h251v-28l-102 -8q0 -25 -0.5 -75t-0.5 -72q0 -97 34.5 -133t120.5 -36q68 0 156 13v29q0 183 -1 274l-102 8v28h261v-28l-102 -8q-1 -90 -1 -274v-54q0 -183 1 -274l102 -8v-28h-261v28l102 8q1 91 1 268q-107 -20 -169 -20q-99 0 -148 40t-49 150v164z" />
    <glyph glyph-name="uni0428" unicode="&#x428;" horiz-adv-x="1055" 
d="M745 646v28h258v-28l-103 -8q-1 -90 -1 -274v-54q0 -183 1 -274l103 -8v-28h-951v28l103 8q1 91 1 274v54q0 184 -1 274l-103 8v28h258v-28l-98 -8q-2 -90 -2 -274v-54q0 -186 2 -277h287q1 92 1 295v29q0 190 -1 281l-97 8v28h253v-28l-99 -8q-1 -90 -1 -281v-29
q0 -203 1 -295h287q2 91 2 277v54q0 184 -2 274z" />
    <glyph glyph-name="uni0429" unicode="&#x429;" horiz-adv-x="1055" 
d="M745 646v28h258v-28l-103 -8q-1 -91 -1 -281v-29q0 -203 1 -295h106l-6 -206h-36l-12 173h-900v28l103 8q1 91 1 274v54q0 184 -1 274l-103 8v28h258v-28l-98 -8q-2 -90 -2 -274v-54q0 -186 2 -277h287q1 92 1 295v29q0 190 -1 281l-97 8v28h253v-28l-99 -8
q-1 -90 -1 -281v-29q0 -203 1 -295h287q2 92 2 295v29q0 191 -2 281z" />
    <glyph glyph-name="uni042A" unicode="&#x42a;" horiz-adv-x="705" 
d="M20 505l9 169h411v-28l-109 -8q-1 -90 -1 -260q52 6 102 6q115 1 178 -51t63 -141t-62.5 -140.5t-178.5 -51.5h-259v28l101 8q1 91 1 274v54q0 186 -1 277h-198l-19 -136h-37zM330 310q0 -186 1 -278h93q193 0 193 160t-201 160q-44 0 -86 -6v-36z" />
    <glyph glyph-name="uni042B" unicode="&#x42b;" horiz-adv-x="897" 
d="M53 646v28h271v-28l-112 -9q-2 -89 -2 -259q52 6 103 6q109 1 169 -51.5t60 -139.5q0 -89 -59.5 -141t-170.5 -52h-259v28l102 8q1 91 1 274v54q0 183 -1 274zM583 646v28h261v-28l-102 -8q-1 -90 -1 -274v-54q0 -183 1 -274l102 -8v-28h-261v28l102 8q1 91 1 274v54
q0 183 -1 274zM210 310q0 -186 2 -278h92q182 0 182 157q0 163 -188 163q-46 0 -88 -6v-36z" />
    <glyph glyph-name="uni042C" unicode="&#x42c;" horiz-adv-x="597" 
d="M53 646v28h271v-28l-112 -9q-2 -89 -2 -260q56 7 115 7q117 1 178.5 -51.5t61.5 -140.5q0 -85 -61.5 -138.5t-178.5 -53.5h-272v28l102 8q1 91 1 274v54q0 183 -1 274zM210 310q0 -186 2 -278h105q192 0 192 159q0 161 -199 161q-62 0 -100 -6v-36z" />
    <glyph glyph-name="uni042D" unicode="&#x42d;" horiz-adv-x="620" 
d="M54 37l-4 142h39l18 -124q64 -35 147 -35q116 0 182.5 78.5t69.5 226.5h-234l-11 -96h-30v225h30l11 -97h234q-4 146 -70.5 222t-187.5 76q-76 0 -135 -36l-18 -123h-39l4 141q88 51 192 51q144 0 227.5 -95.5t83.5 -255.5q0 -161 -82 -256t-229 -95q-109 0 -198 51z" />
    <glyph glyph-name="uni042E" unicode="&#x42e;" horiz-adv-x="980" 
d="M645 20q71 0 122 45t74.5 115t23.5 157t-23.5 157.5t-74.5 115.5t-122 45q-106 0 -163.5 -91t-57.5 -222q0 -89 23.5 -160.5t74.5 -116.5t123 -45zM645 -14q-123 0 -200.5 93t-79.5 255h-157q0 -212 1 -298l102 -8v-28h-258v28l102 8q1 91 1 274v54q0 183 -1 274l-102 8
v28h258v-28l-102 -8q-1 -90 -1 -272h158q6 146 83.5 234t195.5 88q123 0 200.5 -94t77.5 -257t-77 -257t-201 -94z" />
    <glyph glyph-name="uni042F" unicode="&#x42f;" horiz-adv-x="645" 
d="M9 0v28l95 7l70 174q20 52 40.5 77t55.5 35q-75 13 -118 60t-43 113q0 86 60.5 133t164.5 47h262v-28l-102 -8q-1 -91 -1 -274v-54q0 -183 1 -274l102 -8v-28h-261v28l102 8q1 91 1 274h-77q-63 0 -88 -20t-47 -78l-67 -171q-10 -27 -26 -38t-50 -11q-44 0 -74 8z
M326 340h112q0 215 -1 302h-93q-88 0 -134 -37.5t-46 -109.5q0 -66 45 -110.5t117 -44.5z" />
    <glyph glyph-name="uni0430" unicode="&#x430;" horiz-adv-x="506" 
d="M421 -12q-68 0 -77 91q-47 -50 -82.5 -71t-81.5 -21q-56 0 -91.5 31.5t-35.5 88.5q0 50 36 85.5t119 64.5q60 20 135 37v28q0 76 -26 104t-84 28q-45 0 -83 -19l-19 -64q-9 -31 -35 -31t-31 28q15 55 62 86t116 31q76 0 112.5 -37t36.5 -119v-221q0 -47 11 -66t34 -19
q19 0 41 19l14 -17q-28 -37 -71 -37zM105 117q0 -43 25 -65.5t68 -22.5q35 0 66 18t79 63v158q-63 -15 -126 -38q-112 -42 -112 -113z" />
    <glyph glyph-name="uni0431" unicode="&#x431;" horiz-adv-x="539" 
d="M490 246q0 -125 -62 -192t-148 -67q-103 0 -159.5 76t-56.5 230q0 119 22.5 208t66.5 128q31 28 67.5 41.5t99.5 25.5q48 8 123 23l21 49l23 -5q-12 -67 -26 -81q-17 -16 -132 -34q-114 -18 -155 -52q-72 -64 -82 -275q48 154 195 154q86 0 144.5 -59.5t58.5 -169.5z
M280 445q-71 0 -116 -54.5t-45 -150.5q0 -101 46 -162t116 -61q69 0 112 61t43 161q0 101 -42 153.5t-114 52.5z" />
    <glyph glyph-name="uni0432" unicode="&#x432;" horiz-adv-x="500" 
d="M45 446v26h238q78 0 118 -31t40 -84q0 -89 -106 -110q128 -17 128 -122q0 -53 -43.5 -89t-133.5 -36h-241v26l80 10q2 102 2 174v52q0 72 -2 174zM177 210q0 -78 2 -180h97q135 0 135 97q0 105 -141 105h-93v-22zM271 442h-92q-2 -98 -2 -183h91q63 0 92.5 23t29.5 72
q0 88 -119 88z" />
    <glyph glyph-name="uni0433" unicode="&#x433;" horiz-adv-x="442" 
d="M45 446v26h358l8 -162h-31l-27 132h-174q-2 -104 -2 -186v-46q0 -72 2 -174l90 -10v-26h-224v26l80 10q2 102 2 174v46q0 78 -2 180z" />
    <glyph glyph-name="uni0434" unicode="&#x434;" horiz-adv-x="563" 
d="M387 262q0 78 -2 180h-126q-20 -215 -139 -412h265q2 102 2 180v52zM69 30q133 187 156 405l-78 11v26h371v-26l-80 -10q-2 -102 -2 -174v-52q0 -78 2 -180h87l-3 -174h-31l-17 144h-397l-17 -144h-31l-3 174h43z" />
    <glyph glyph-name="uni0435" unicode="&#x435;" horiz-adv-x="498" 
d="M267 454q-64 0 -110 -50.5t-53 -132.5h261q20 0 28 10.5t8 33.5q0 57 -37 98t-97 41zM269 485q81 0 131.5 -53t50.5 -134q0 -32 -7 -57l-341 1q1 -106 51.5 -160t127.5 -54q89 0 150 67l16 -14q-62 -94 -177 -94q-95 0 -158 64.5t-63 183.5q0 111 64 180.5t155 69.5z" />
    <glyph glyph-name="uni0436" unicode="&#x436;" horiz-adv-x="741" 
d="M723 0q-33 -7 -54 -7q-38 0 -53 8.5t-24 34.5l-46 120q-17 45 -37.5 58.5t-64.5 13.5h-52q0 -90 2 -192l84 -10v-26h-215v26l84 10q2 104 2 192h-52q-44 0 -64.5 -13.5t-37.5 -58.5l-46 -120q-9 -26 -24 -34.5t-53 -8.5q-21 0 -54 7v25l83 9l39 105q19 50 42 73.5
t61 31.5q-26 11 -43 36t-35 74q-15 41 -32 65q-24 -4 -44 -4q-47 0 -47 35q0 27 34 35q41 -7 66.5 -33t48.5 -87q25 -67 46 -88t61 -21h51q0 80 -2 180l-84 10v26h215v-26l-84 -10q-2 -104 -2 -180h51q39 0 60.5 21t46.5 88q23 61 48.5 87t66.5 33q34 -8 34 -36
q0 -34 -48 -34q-19 0 -43 4q-17 -24 -32 -65q-18 -49 -35 -74t-43 -36q38 -8 61 -31.5t42 -73.5l39 -105l83 -9v-25z" />
    <glyph glyph-name="uni0437" unicode="&#x437;" horiz-adv-x="419" 
d="M382 128q0 -58 -50 -99.5t-137 -41.5q-63 0 -106.5 27.5t-53.5 78.5q8 22 32 22q24 -1 32 -33l17 -55q35 -12 83 -12q61 0 96 30.5t35 84.5q0 107 -126 107h-44v31h40q120 0 120 94q0 92 -120 92q-51 0 -91 -20l-12 -95h-34l-3 106q68 40 149 40q74 0 116.5 -32.5
t42.5 -87.5q0 -42 -26 -71.5t-79 -40.5q58 -10 88.5 -43t30.5 -82z" />
    <glyph glyph-name="uni0438" unicode="&#x438;" horiz-adv-x="640" 
d="M380 446v26h215v-26l-81 -10q-2 -102 -2 -174v-52q0 -72 2 -174l81 -10v-26h-215v26l86 10v338l-291 -312v-26l84 -10v-26h-214v26l80 10q2 102 2 174v52q0 72 -2 174l-80 10v26h214v-26l-84 -10v-333l291 312v21z" />
    <glyph glyph-name="uni0439" unicode="&#x439;" horiz-adv-x="640" 
d="M380 446v26h215v-26l-81 -10q-2 -102 -2 -174v-52q0 -72 2 -174l81 -10v-26h-215v26l86 10v338l-291 -312v-26l84 -10v-26h-214v26l80 10q2 102 2 174v52q0 72 -2 174l-80 10v26h214v-26l-84 -10v-333l291 312v21zM330 576q-66 0 -109 38t-43 100q9 21 29 21
q15 0 24 -11.5t9 -30.5q0 -26 -5 -53q36 -35 95 -35t95 35q-5 27 -5 53q0 19 9 30.5t24 11.5q20 0 29 -21q0 -62 -43 -100t-109 -38z" />
    <glyph glyph-name="uni043A" unicode="&#x43a;" horiz-adv-x="526" 
d="M373 36l-45 120q-18 45 -38.5 59t-64.5 14h-48q0 -93 2 -193l80 -10v-26h-214v26l80 10q2 102 2 174v52q0 72 -2 174l-80 10v26h214v-26l-80 -10q-2 -102 -2 -179h48q40 0 61 21t46 87q23 61 48.5 87t66.5 33q34 -8 34 -35q-2 -35 -48 -35q-19 0 -43 4q-17 -24 -32 -65
q-18 -49 -35.5 -74t-44.5 -35q38 -8 61.5 -31.5t42.5 -74.5l40 -105l83 -9v-25q-33 -7 -55 -7q-37 0 -52 8.5t-25 34.5z" />
    <glyph glyph-name="uni043B" unicode="&#x43b;" horiz-adv-x="567" 
d="M81 -9q-28 0 -43 14t-15 39q13 23 36 23q24 0 52 -25q37 30 59 93q42 115 48 300l-83 11v26h387v-26l-80 -10q-2 -102 -2 -174v-52q0 -72 2 -174l80 -10v-26h-214v26l81 10q2 102 2 174v52q0 78 -2 180h-136q-8 -195 -50 -320q-43 -131 -122 -131z" />
    <glyph glyph-name="uni043C" unicode="&#x43c;" horiz-adv-x="734" 
d="M45 0v26l83 11v398l-83 11v26h146l179 -381l173 381h146v-26l-81 -10q-2 -102 -2 -174v-52q0 -72 2 -174l81 -10v-26h-214v26l82 10l2 174l4 237l-186 -405h-33l-190 405l6 -237v-173l83 -11v-26h-198z" />
    <glyph glyph-name="uni043D" unicode="&#x43d;" horiz-adv-x="628" 
d="M369 446v26h214v-26l-80 -10q-2 -102 -2 -174v-52q0 -72 2 -174l80 -10v-26h-214v26l81 10q2 104 2 196h-275q0 -96 2 -196l80 -10v-26h-214v26l80 10q2 102 2 174v52q0 72 -2 174l-80 10v26h214v-26l-80 -10q-2 -98 -2 -174h275q0 76 -2 174z" />
    <glyph glyph-name="uni043E" unicode="&#x43e;" horiz-adv-x="542" 
d="M271 -13q-90 0 -155.5 64t-65.5 183t65.5 185t155.5 66q89 0 155.5 -66t66.5 -185t-66 -183t-156 -64zM271 17q77 0 121.5 57.5t44.5 159.5q0 103 -45 161.5t-121 58.5q-77 0 -121.5 -58.5t-44.5 -161.5t44.5 -160t121.5 -57z" />
    <glyph glyph-name="uni043F" unicode="&#x43f;" horiz-adv-x="619" 
d="M45 0v26l80 10q2 102 2 174v52q0 72 -2 174l-80 10v26h529v-26l-81 -10q-2 -102 -2 -174v-52q0 -72 2 -174l81 -10v-26h-215v26l81 10q2 102 2 174v52q0 78 -2 180h-261q-2 -102 -2 -180v-52q0 -72 2 -174l81 -10v-26h-215z" />
    <glyph glyph-name="uni0440" unicode="&#x440;" horiz-adv-x="577" 
d="M474 237q0 100 -41.5 155t-109.5 55q-74 0 -145 -71v-287q65 -65 141 -65q67 0 111 53.5t44 159.5zM128 -33v289q0 95 -3 164l-87 4v26l122 32l12 -8l3 -70q70 81 161 81q85 0 138.5 -67.5t53.5 -176.5q0 -116 -55.5 -185t-146.5 -69q-90 0 -150 71v-90q0 -67 2 -175
l98 -10v-26h-236v26l86 10q2 106 2 174z" />
    <glyph glyph-name="uni0441" unicode="&#x441;" horiz-adv-x="487" 
d="M277 454q-77 0 -126.5 -58.5t-49.5 -155.5q0 -96 50 -154t128 -58q91 0 150 71l17 -11q-57 -101 -176 -101q-100 0 -161 68t-61 180q0 113 67.5 181.5t161.5 68.5q58 0 104 -31t63 -84q-6 -27 -32 -27q-27 0 -37 30l-22 63q-36 18 -76 18z" />
    <glyph glyph-name="uni0442" unicode="&#x442;" horiz-adv-x="531" 
d="M33 320l8 152h449l8 -152h-31l-23 122h-152q-2 -102 -2 -180v-52q0 -72 2 -174l90 -10v-26h-234v26l91 10q2 102 2 174v52q0 78 -2 180h-153l-22 -122h-31z" />
    <glyph glyph-name="uni0443" unicode="&#x443;" horiz-adv-x="500" 
d="M67 -253q-29 0 -52 12t-26 33q6 29 46 29q26 0 60 -28l8 -8q74 36 118 156l16 44l-177 454l-67 7v26h212v-27l-88 -7l144 -388l139 387l-88 9v26h188v-26l-62 -8l-180 -480q-79 -211 -191 -211z" />
    <glyph glyph-name="uni0444" unicode="&#x444;" horiz-adv-x="707" 
d="M237 -13q-85 0 -139.5 63t-54.5 182q0 120 55 186.5t139 66.5q51 0 95 -29v209l-89 4v26l121 25l16 -8l-3 -142v-113q46 28 93 28q86 0 140.5 -63t54.5 -182q0 -120 -55 -186.5t-140 -66.5q-51 0 -95 29q0 -105 2 -223l94 -10v-26h-241v26l99 10q2 116 2 222
q-46 -28 -94 -28zM459 454q-44 0 -82 -24v-388q37 -25 82 -25q72 0 113.5 56t41.5 167q0 109 -41 161.5t-114 52.5zM94 232q0 -109 41 -162t113 -53q46 0 83 25v388q-38 24 -83 24q-72 0 -113 -55.5t-41 -166.5z" />
    <glyph glyph-name="uni0445" unicode="&#x445;" horiz-adv-x="510" 
d="M311 444v28h180v-28l-65 -8l-147 -192l150 -209l71 -9v-26h-208v26l78 9l-122 174l-130 -174l75 -9v-26h-183v26l67 9l154 198l-144 203l-70 8v28h197v-28l-72 -8l120 -169l124 168z" />
    <glyph glyph-name="uni0446" unicode="&#x446;" horiz-adv-x="613" 
d="M354 446v26h214v-26l-81 -10q-2 -102 -2 -174v-52q0 -78 2 -180h89l-7 -174h-32l-13 144h-479v26l80 10q2 102 2 174v52q0 72 -2 174l-80 10v26h214v-26l-80 -10q-2 -102 -2 -174v-52q0 -78 2 -180h255q2 102 2 180v52q0 72 -2 174z" />
    <glyph glyph-name="uni0447" unicode="&#x447;" horiz-adv-x="541" 
d="M282 446v26h214v-26l-80 -10q-2 -102 -2 -174v-52q0 -72 2 -174l80 -10v-26h-214v26l81 10q2 96 2 172q-68 -14 -116 -14q-95 0 -130.5 40.5t-34.5 132.5v70l-71 9v26h203v-26l-82 -10q-1 -20 -1 -61q0 -82 25.5 -113.5t103.5 -31.5q61 0 103 6v26q0 72 -2 174z" />
    <glyph glyph-name="uni0448" unicode="&#x448;" horiz-adv-x="863" 
d="M607 446v26h211v-26l-80 -10q-2 -102 -2 -174v-52q0 -72 2 -174l80 -10v-26h-773v26l80 10q2 102 2 174v52q0 71 -2 175l-80 9v26h211v-26l-79 -10q-2 -102 -2 -174v-52q0 -78 2 -180h229q2 102 2 180v52q0 71 -2 175l-79 9v26h209v-26l-79 -10q-2 -102 -2 -174v-52
q0 -78 2 -180h229q2 102 2 180v52q0 72 -2 174z" />
    <glyph glyph-name="uni0449" unicode="&#x449;" horiz-adv-x="863" 
d="M607 446v26h211v-26l-80 -10q-2 -102 -2 -174v-52q0 -78 2 -180h87l-7 -174h-31l-13 144h-729v26l80 10q2 102 2 174v52q0 72 -2 174l-80 10v26h211v-26l-79 -10q-2 -102 -2 -174v-52q0 -78 2 -180h229q2 102 2 180v52q0 72 -2 174l-79 10v26h209v-26l-79 -10
q-2 -102 -2 -174v-52q0 -78 2 -180h229q2 102 2 180v52q0 72 -2 174z" />
    <glyph glyph-name="uni044A" unicode="&#x44a;" horiz-adv-x="595" 
d="M35 320l8 152h334v-26l-89 -10q-2 -90 -2 -155q40 4 87 4q92 0 134.5 -40t42.5 -103t-45.5 -102.5t-140.5 -39.5h-220v26l91 10q2 102 2 174v52q0 78 -2 180h-149l-20 -122h-31zM286 210q0 -79 2 -181h62q77 0 112.5 28t35.5 88q0 109 -132 109q-44 0 -80 -4v-40z" />
    <glyph glyph-name="uni044B" unicode="&#x44b;" horiz-adv-x="748" 
d="M471 446v26h214v-26l-80 -10q-2 -102 -2 -174v-52q0 -72 2 -174l80 -10v-26h-214v26l80 10q2 102 2 174v52q0 72 -2 174zM52 446v26h214v-26l-80 -10q-2 -90 -2 -155q52 4 75 4q91 0 134 -38.5t43 -102.5t-46.5 -104t-138.5 -40h-199v26l81 10q2 102 2 174v52
q0 72 -2 174zM184 210q0 -79 2 -181h50q148 0 148 116q0 109 -136 109q-20 0 -64 -4v-40z" />
    <glyph glyph-name="uni044C" unicode="&#x44c;" horiz-adv-x="483" 
d="M52 446v26h214v-26l-80 -10q-2 -90 -2 -156q53 5 95 5q90 0 133.5 -39.5t43.5 -102.5t-46.5 -103t-138.5 -40h-219v26l81 10q2 102 2 174v52q0 72 -2 174zM184 210q0 -79 2 -181h70q75 0 111.5 27.5t36.5 86.5q0 111 -136 111q-44 0 -84 -4v-40z" />
    <glyph glyph-name="uni044D" unicode="&#x44d;" horiz-adv-x="480" 
d="M147 225v38l231 -4q-9 195 -170 195q-59 0 -100 -24l-12 -93h-35l-2 107q66 41 156 41q98 0 157 -65t59 -178q0 -127 -61 -191t-167 -64q-63 0 -106.5 29.5t-51.5 82.5q9 20 30 20q25 0 34 -37l13 -50q35 -15 81 -15q169 0 175 212z" />
    <glyph glyph-name="uni044E" unicode="&#x44e;" horiz-adv-x="777" 
d="M516 17q75 0 115 59.5t40 157.5t-40 159t-115 61q-76 0 -118.5 -60.5t-42.5 -159.5t41.5 -158t119.5 -59zM516 -13q-93 0 -153.5 67t-60.5 178h-125q0 -96 2 -196l80 -10v-26h-214v26l80 10q2 102 2 174v52q0 72 -2 174l-80 10v26h214v-26l-80 -10q-2 -102 -2 -174h126
q7 99 67 161t146 62q91 0 151 -69.5t60 -181.5t-59.5 -179.5t-151.5 -67.5z" />
    <glyph glyph-name="uni044F" unicode="&#x44f;" horiz-adv-x="519" 
d="M261 239h82v23q0 78 -2 180h-91q-58 0 -87 -25.5t-29 -70.5q0 -52 32.5 -79.5t94.5 -27.5zM16 0v25l75 10l51 101q33 68 82 85q-72 4 -105.5 38.5t-33.5 85.5q0 58 41.5 92.5t120.5 34.5h227v-26l-80 -10q-2 -102 -2 -174v-52q0 -72 2 -174l80 -10v-26h-214v26l81 10
q2 98 2 176h-53q-37 0 -56 -15t-41 -57l-55 -107q-13 -25 -24.5 -32.5t-40.5 -7.5t-57 7z" />
    <glyph glyph-name="uni0450" unicode="&#x450;" horiz-adv-x="498" 
d="M267 454q-64 0 -110 -50.5t-53 -132.5h261q20 0 28 10.5t8 33.5q0 57 -37 98t-97 41zM269 485q81 0 131.5 -53t50.5 -134q0 -32 -7 -57l-341 1q1 -106 51.5 -160t127.5 -54q89 0 150 67l16 -14q-62 -94 -177 -94q-95 0 -158 64.5t-63 183.5q0 111 64 180.5t155 69.5z
M305 574l-17 -13l-116 114q-30 30 -30 46q0 11 7.5 18t17.5 7q16 0 42 -35z" />
    <glyph glyph-name="uni0451" unicode="&#x451;" horiz-adv-x="498" 
d="M267 454q-64 0 -110 -50.5t-53 -132.5h261q20 0 28 10.5t8 33.5q0 57 -37 98t-97 41zM269 485q81 0 131.5 -53t50.5 -134q0 -32 -7 -57l-341 1q1 -106 51.5 -160t127.5 -54q89 0 150 67l16 -14q-62 -94 -177 -94q-95 0 -158 64.5t-63 183.5q0 111 64 180.5t155 69.5z
M169 625q-17 0 -29 11t-12 29t12 29t29 11t29 -11t12 -29t-12 -29t-29 -11zM365 625q-17 0 -29 11t-12 29t12 29t29 11t29 -11t12 -29t-12 -29t-29 -11z" />
    <glyph glyph-name="uni0452" unicode="&#x452;" horiz-adv-x="547" 
d="M43 0v26l84 10q2 102 2 174v356h-86v33h86v90l-88 4v26l124 26l15 -8l-3 -138h196v-33h-196v-186q63 76 148 76q81 0 123 -73.5t42 -237.5q0 -233 -69 -333q-42 -65 -105 -65q-29 0 -46 9.5t-20 22.5q9 28 42 28q25 0 58 -19l7 -4q19 13 35 41q49 88 49 319
q0 275 -129 275q-68 0 -134 -70v-139q0 -71 2 -175l69 -9v-26h-206z" />
    <glyph glyph-name="uni0453" unicode="&#x453;" horiz-adv-x="442" 
d="M45 446v26h358l8 -162h-31l-27 132h-174q-2 -104 -2 -186v-46q0 -72 2 -174l90 -10v-26h-224v26l80 10q2 102 2 174v46q0 78 -2 180zM201 574l96 137q24 35 42 35q10 0 17.5 -7t7.5 -18q0 -15 -31 -46l-116 -114z" />
    <glyph glyph-name="uni0454" unicode="&#x454;" horiz-adv-x="482" 
d="M269 -13q-107 0 -163 64t-56 182q0 128 62 190t169 62q76 0 145 -41l-3 -94h-33l-10 81q-43 23 -100 23q-169 0 -178 -193l260 4v-37l-260 3q2 -104 47.5 -155t127.5 -51q89 0 150 71l16 -13q-61 -96 -174 -96z" />
    <glyph glyph-name="uni0455" unicode="&#x455;" horiz-adv-x="429" 
d="M201 -13q-71 0 -145 34l-4 104h35l16 -88q42 -20 100 -20q63 0 96 25.5t33 67.5q0 35 -22.5 57t-79.5 42l-47 17q-119 43 -119 130q0 56 42.5 92.5t118.5 36.5q67 0 135 -41l-3 -94h-33l-11 80q-41 24 -91 24q-54 0 -82 -24t-28 -62q0 -35 22 -55.5t76 -40.5l42 -16
q70 -26 99 -57.5t29 -77.5q0 -57 -46.5 -95.5t-132.5 -38.5z" />
    <glyph glyph-name="uni0456" unicode="&#x456;" horiz-adv-x="301" 
d="M149 627q-19 0 -32.5 12t-13.5 32t13.5 32.5t32.5 12.5t32.5 -12.5t13.5 -32.5t-13.5 -32t-32.5 -12zM257 26v-26h-214v26l84 10q2 102 2 174v48q0 109 -2 162l-89 4v26l130 32l12 -8l-2 -124v-140q0 -72 2 -174z" />
    <glyph glyph-name="uni0457" unicode="&#x457;" horiz-adv-x="301" 
d="M43 0v26l84 10q2 102 2 174v48q0 93 -3 162l-88 4v26l131 32l12 -8l-3 -124v-140q0 -72 2 -174l77 -10v-26h-214zM42 625q-17 0 -29 11t-12 29t12 29t29 11t29 -11t12 -29t-12 -29t-29 -11zM238 625q-17 0 -29 11t-12 29t12 29t29 11t29 -11t12 -29t-12 -29t-29 -11z" />
    <glyph glyph-name="uni0458" unicode="&#x458;" horiz-adv-x="277" 
d="M146 627q-19 0 -32.5 12t-13.5 32t13.5 32.5t32.5 12.5t32.5 -12.5t13.5 -32.5t-13.5 -32t-32.5 -12zM126 86v172q0 93 -3 162l-88 4v26l129 32l12 -8l-2 -124v-228q0 -152 -10 -215t-43 -103q-47 -57 -116 -57q-32 0 -50 10.5t-21 24.5q9 28 44 28q27 0 60 -19l17 -10
q24 13 39 38q32 54 32 267z" />
    <glyph glyph-name="uni0459" unicode="&#x459;" horiz-adv-x="729" 
d="M81 -9q-28 0 -43 14t-15 39q13 23 36 23q24 0 52 -25q37 30 59 93q42 115 48 300l-83 11v26h388v-26l-81 -10q-2 -90 -2 -155q58 4 85 4q90 0 133.5 -39.5t43.5 -102.5t-46.5 -103t-138.5 -40h-209v26l81 10q2 102 2 174v52q0 78 -2 180h-136q-8 -195 -50 -320
q-43 -131 -122 -131zM440 210q0 -79 2 -181h61q75 0 111 27.5t36 86.5q0 111 -136 111q-39 0 -74 -4v-40z" />
    <glyph glyph-name="uni045A" unicode="&#x45a;" horiz-adv-x="798" 
d="M359 446v26h214v-26l-80 -10q-2 -94 -2 -163q58 4 85 4q90 0 133.5 -37.5t43.5 -98.5q0 -62 -46.5 -101.5t-138.5 -39.5h-209v26l81 10q2 102 2 174v30h-265v-30q0 -72 2 -174l80 -10v-26h-214v26l80 10q2 102 2 174v52q0 72 -2 174l-80 10v26h214v-26l-80 -10
q-2 -96 -2 -166h265q0 70 -2 166zM491 210q0 -79 2 -181h61q76 0 111.5 26.5t35.5 83.5q0 107 -136 107q-39 0 -74 -4v-32z" />
    <glyph glyph-name="uni045B" unicode="&#x45b;" horiz-adv-x="605" 
d="M41 0v26l84 10q2 102 2 174v356h-88v33h88v90l-88 4v26l124 26l15 -8l-3 -138h194v-33h-194v-206q91 104 193 104q61 0 92.5 -41.5t31.5 -134.5v-78q0 -74 2 -174l77 -10v-26h-214v26l84 10q2 102 2 174v76q0 71 -23.5 102t-70.5 31q-86 0 -173 -92v-117q0 -72 2 -174
l77 -10v-26h-214z" />
    <glyph glyph-name="uni045C" unicode="&#x45c;" horiz-adv-x="526" 
d="M252 574l96 137q24 35 42 35q10 0 17.5 -7t7.5 -18q0 -15 -31 -46l-116 -114zM373 36l-45 120q-18 45 -38.5 59t-64.5 14h-48q0 -93 2 -193l80 -10v-26h-214v26l80 10q2 102 2 174v52q0 72 -2 174l-80 10v26h214v-26l-80 -10q-2 -102 -2 -179h48q40 0 61 21t46 87
q23 61 48.5 87t66.5 33q34 -8 34 -35q-2 -35 -48 -35q-19 0 -43 4q-17 -24 -32 -65q-18 -49 -35.5 -74t-44.5 -35q38 -8 61.5 -31.5t42.5 -74.5l40 -105l83 -9v-25q-33 -7 -55 -7q-37 0 -52 8.5t-25 34.5z" />
    <glyph glyph-name="uni045D" unicode="&#x45d;" horiz-adv-x="640" 
d="M380 446v26h215v-26l-81 -10q-2 -102 -2 -174v-52q0 -72 2 -174l81 -10v-26h-215v26l86 10v338l-291 -312v-26l84 -10v-26h-214v26l80 10q2 102 2 174v52q0 72 -2 174l-80 10v26h214v-26l-84 -10v-333l291 312v21zM354 574l-17 -13l-116 114q-30 30 -30 46q0 11 7.5 18
t17.5 7q16 0 42 -35z" />
    <glyph glyph-name="uni045E" unicode="&#x45e;" horiz-adv-x="500" 
d="M67 -253q-29 0 -52 12t-26 33q6 29 46 29q26 0 60 -28l8 -8q74 36 118 156l16 44l-177 454l-67 7v26h212v-27l-88 -7l144 -388l139 387l-88 9v26h188v-26l-62 -8l-180 -480q-79 -211 -191 -211zM271 576q-66 0 -109 38t-43 100q9 21 29 21q15 0 24 -11.5t9 -30.5
q0 -26 -5 -53q36 -35 95 -35t95 35q-5 27 -5 53q0 19 9 30.5t24 11.5q20 0 29 -21q0 -62 -43 -100t-109 -38z" />
    <glyph glyph-name="uni045F" unicode="&#x45f;" horiz-adv-x="619" 
d="M354 446v26h214v-26l-81 -10q-2 -102 -2 -174v-52q0 -72 2 -174l87 -10v-26h-239l-11 -154h-31l-11 154h-237v26l80 10q2 102 2 174v52q0 72 -2 174l-80 10v26h214v-26l-80 -10q-2 -102 -2 -174v-52q0 -78 2 -180h255q2 102 2 180v52q0 72 -2 174z" />
    <glyph glyph-name="uni0462" unicode="&#x462;" horiz-adv-x="687" 
d="M150 707v28h265v-28l-106 -10q-1 -33 -1 -106h271l8 -146h-37l-19 113h-224v-196q65 7 108 7q115 0 177 -50t62 -134q0 -82 -62 -133.5t-179 -51.5h-263v28l102 8q1 91 1 274v103v145h-165l-19 -122h-37l9 155h212q-1 36 -1 107zM307 310q0 -186 2 -278h95q95 0 144 39
t49 110q0 76 -47.5 115.5t-153.5 39.5q-46 0 -89 -6v-20z" />
    <glyph glyph-name="uni0463" unicode="&#x463;" horiz-adv-x="594" 
d="M147 0v26l84 10q2 102 2 174v243h-149l-20 -122h-31l8 152h192v156l-88 4v26l125 26l14 -8l-3 -142v-62h213l7 -144h-31l-19 114h-170v-176q46 6 90 6q92 0 134.5 -38.5t42.5 -100.5q0 -64 -45 -104t-139 -40h-217zM282 210q0 -79 2 -181h63q78 0 113.5 27t35.5 86
q0 56 -33 83t-103 27q-33 0 -78 -5v-37z" />
    <glyph glyph-name="uni0472" unicode="&#x472;" horiz-adv-x="706" 
d="M353 655q-111 0 -170.5 -79.5t-65.5 -209.5h473q-6 130 -66 209.5t-171 79.5zM353 688q134 0 215.5 -92t81.5 -259q0 -168 -81.5 -259.5t-215.5 -91.5q-133 0 -214.5 92.5t-81.5 258.5t82 258.5t214 92.5zM353 20q117 0 176 84.5t61 229.5h-473q2 -145 61 -229.5
t175 -84.5z" />
    <glyph glyph-name="uni0473" unicode="&#x473;" horiz-adv-x="542" 
d="M271 454q-72 0 -117 -51.5t-51 -142.5h336q-6 91 -51.5 142.5t-116.5 51.5zM271 -13q-95 0 -158 61.5t-63 185.5t63 187.5t158 63.5t158.5 -63.5t63.5 -187.5t-63 -185.5t-159 -61.5zM271 17q77 0 123 57t46 156h-338q1 -101 46.5 -157t122.5 -56z" />
    <glyph glyph-name="uni0474" unicode="&#x474;" horiz-adv-x="667" 
d="M320 -7l-227 645l-87 8v28h251v-30l-106 -7l190 -562l128 405q37 120 67 164t83 44q28 0 46.5 -12t18.5 -33q-11 -34 -54 -34q-30 0 -62 19q-30 -41 -66 -155l-154 -480h-28z" />
    <glyph glyph-name="uni0475" unicode="&#x475;" horiz-adv-x="512" 
d="M240 -6l-179 442l-67 7v29h212v-29l-86 -7l143 -375l94 266q30 79 46 100q19 30 38.5 43.5t50.5 14.5q28 -7 28 -32q0 -35 -49 -35q-19 0 -34 4q-27 -38 -49 -100l-121 -328h-27z" />
    <glyph glyph-name="uni0490" unicode="&#x490;" horiz-adv-x="559" 
d="M53 0v28l102 8q1 91 1 274v54q0 183 -1 274l-102 8v28h413l23 138h37l-9 -171h-305q-2 -91 -2 -289v-19q0 -206 2 -297l108 -8v-28h-267z" />
    <glyph glyph-name="uni0491" unicode="&#x491;" horiz-adv-x="444" 
d="M45 0v26l80 10q2 102 2 174v52q0 72 -2 174l-80 10v26h309l26 132h31l-8 -162h-224q-2 -102 -2 -180v-52q0 -72 2 -174l86 -10v-26h-220z" />
    <glyph glyph-name="uni0492" unicode="&#x492;" horiz-adv-x="559" 
d="M53 646v28h464l9 -171h-37l-21 138h-256q-2 -91 -2 -273h160v-31h-160v-27q0 -183 2 -274l108 -8v-28h-267v28l102 8q1 91 1 274v27h-103v31h103q0 184 -1 270z" />
    <glyph glyph-name="uni0493" unicode="&#x493;" horiz-adv-x="446" 
d="M45 446v26h358l8 -162h-31l-27 132h-174q-2 -100 -2 -180h116v-30h-116v-22q0 -72 2 -174l90 -10v-26h-224v26l80 10q2 102 2 174v22h-82v30h82q0 76 -2 174z" />
    <glyph glyph-name="uni0496" unicode="&#x496;" horiz-adv-x="955" 
d="M749 41l-64 178q-21 58 -55.5 81.5t-96.5 23.5h-48q0 -201 1 -288l103 -8v-28h-259v28l103 8q1 91 1 288h-48q-61 0 -96 -23.5t-57 -81.5l-63 -178q-10 -28 -29.5 -38t-62.5 -10q-47 0 -75 7v27l107 8l70 182q36 100 133 124q-31 13 -55.5 46.5t-58.5 108.5
q-41 86 -69 123q-28 -5 -49 -5q-24 0 -36 11t-12 26q0 14 10.5 25t27.5 13q45 -3 79 -40.5t79 -140.5q43 -98 73 -126t87 -28h45q0 198 -1 284l-103 8v28h259v-28l-103 -8q-1 -90 -1 -284h45q56 0 86 28t74 126q46 104 79 141t79 40q17 -2 27.5 -13t10.5 -25
q0 -15 -12.5 -26t-35.5 -11q-21 0 -49 5q-32 -42 -69 -123q-34 -75 -58.5 -108.5t-55.5 -46.5q97 -24 133 -124l69 -180l114 -9l-3 -201h-36l-15 167q-9 -1 -27 -1q-44 0 -63.5 10t-28.5 38z" />
    <glyph glyph-name="uni0497" unicode="&#x497;" horiz-adv-x="749" 
d="M18 0v25l83 9l39 105q19 50 42 73.5t61 31.5q-26 11 -43 36t-35 74q-15 41 -32 65q-24 -4 -44 -4q-47 0 -47 35q0 27 34 35q41 -7 66.5 -33t48.5 -87q25 -67 46 -88t61 -21h51q0 80 -2 180l-84 10v26h215v-26l-84 -10q-2 -104 -2 -180h51q39 0 60.5 21t46.5 88
q23 61 48.5 87t66.5 33q34 -8 34 -36q0 -34 -48 -34q-19 0 -43 4q-17 -24 -32 -65q-18 -49 -35 -74t-43 -36q38 -8 61 -31.5t42 -73.5l39 -104l93 -9l-3 -170h-31l-16 138q-5 -1 -14 -1q-38 0 -53 8.5t-24 34.5l-46 120q-17 45 -37.5 58.5t-64.5 13.5h-52q0 -90 2 -192
l84 -10v-26h-215v26l84 10q2 104 2 192h-52q-44 0 -64.5 -13.5t-37.5 -58.5l-46 -120q-9 -26 -24 -34.5t-53 -8.5q-21 0 -54 7z" />
    <glyph glyph-name="uni0498" unicode="&#x498;" horiz-adv-x="542" 
d="M200 -206l5 21q36 -6 45 -6q31 0 47.5 16t16.5 44q0 53 -41 118q-8 -1 -26 -1q-173 0 -211 131q8 24 33 24q14 0 22 -9t15 -30l21 -59q42 -23 114 -23q90 0 143.5 43.5t53.5 119.5q0 151 -199 151h-33v32h25q92 0 140 40t48 109q0 140 -164 140q-75 0 -129 -24l-14 -115
h-38l-4 126q80 46 191 46q104 0 157.5 -45.5t53.5 -127.5q0 -57 -40.5 -101.5t-113.5 -61.5q90 -11 133.5 -58t43.5 -116q0 -74 -52.5 -125.5t-144.5 -63.5q58 -67 58 -130q0 -33 -26 -54t-71 -21q-29 0 -59 10z" />
    <glyph glyph-name="uni0499" unicode="&#x499;" horiz-adv-x="419" 
d="M142 -206l5 21q36 -6 45 -6q31 0 47.5 16t16.5 44q0 55 -41 119q-6 -1 -20 -1q-63 0 -106.5 27.5t-53.5 78.5q8 22 32 22q24 -1 32 -33l17 -55q35 -12 83 -12q61 0 96 30.5t35 84.5q0 107 -126 107h-44v31h40q120 0 120 94q0 92 -120 92q-51 0 -91 -20l-12 -95h-34
l-3 106q68 40 149 40q74 0 116.5 -32.5t42.5 -87.5q0 -42 -26 -71.5t-79 -40.5q58 -10 88.5 -43t30.5 -82q0 -50 -38 -89t-105 -49q59 -69 59 -131q0 -33 -25.5 -54t-70.5 -21q-30 0 -60 10z" />
    <glyph glyph-name="uni049A" unicode="&#x49a;" horiz-adv-x="691" 
d="M483 41l-63 178q-23 61 -57 85t-96 24h-57q0 -205 2 -292l102 -8v-28h-261v28l102 8q1 91 1 274v54q0 183 -1 274l-102 8v28h261v-28l-102 -8q-2 -90 -2 -279h55q58 0 87 26.5t71 122.5q45 103 79 140.5t81 40.5q37 -5 37 -38q0 -15 -12 -26t-36 -11t-51 6
q-31 -41 -69 -124q-34 -73 -59.5 -105.5t-58.5 -45.5q101 -24 139 -127l69 -181l115 -9l-2 -201h-36l-15 167q-9 -1 -29 -1q-43 0 -62.5 10t-29.5 38z" />
    <glyph glyph-name="uni049B" unicode="&#x49b;" horiz-adv-x="534" 
d="M373 36l-45 120q-18 45 -38.5 59t-64.5 14h-48q0 -93 2 -193l80 -10v-26h-214v26l80 10q2 102 2 174v52q0 72 -2 174l-80 10v26h214v-26l-80 -10q-2 -102 -2 -179h48q40 0 61 21t46 87q23 61 48.5 87t66.5 33q34 -8 34 -35q-2 -35 -48 -35q-19 0 -43 4q-17 -24 -32 -65
q-18 -49 -35.5 -74t-44.5 -35q38 -8 61.5 -31.5t42.5 -74.5l39 -104l94 -9l-3 -170h-31l-15 138q-6 -1 -16 -1q-37 0 -52 8.5t-25 34.5z" />
    <glyph glyph-name="uni04A0" unicode="&#x4a0;" horiz-adv-x="784" 
d="M609 41l-63 178q-23 61 -57 85t-96 24h-57q0 -206 2 -292l102 -8v-28h-261v28l102 8q1 91 1 274v54q0 186 -1 277h-205l-19 -136h-37l9 169h411v-28l-102 -8q-2 -90 -2 -279h55q58 0 87 26.5t71 122.5q45 103 79 140.5t81 40.5q37 -5 37 -38q0 -15 -12 -26t-36 -11t-51 6
q-31 -41 -69 -124q-34 -73 -59.5 -105.5t-58.5 -45.5q101 -24 139 -127l70 -183l107 -8v-27q-30 -7 -75 -7q-43 0 -62.5 10t-29.5 38z" />
    <glyph glyph-name="uni04A1" unicode="&#x4a1;" horiz-adv-x="635" 
d="M614 25v-25q-33 -7 -54 -7q-38 0 -53 8.5t-24 34.5l-46 120q-17 45 -37.5 59t-64.5 14h-49q0 -93 2 -193l81 -10v-26h-215v26l81 10q2 102 2 174v52q0 78 -2 180h-149l-20 -122h-31l8 152h326v-26l-81 -10q-2 -104 -2 -179h48q40 0 61 21t46 87q23 61 48.5 87t66.5 33
q34 -8 34 -35q0 -35 -48 -35q-19 0 -43 4q-17 -24 -32 -65q-33 -91 -79 -109q38 -8 61.5 -31.5t42.5 -74.5l39 -105z" />
    <glyph glyph-name="uni04A2" unicode="&#x4a2;" horiz-adv-x="794" 
d="M156 310v54q0 183 -1 274l-102 8v28h261v-28l-102 -8q-2 -90 -2 -270h372q0 184 -1 270l-102 8v28h261v-28l-102 -8q-2 -90 -2 -274v-54q0 -183 2 -273l107 -8l-2 -202h-36l-15 173h-213v28l102 8q1 91 1 301h-372q0 -214 2 -301l102 -8v-28h-261v28l102 8q1 91 1 274z
" />
    <glyph glyph-name="uni04A3" unicode="&#x4a3;" horiz-adv-x="628" 
d="M369 446v26h214v-26l-80 -10q-2 -102 -2 -174v-52q0 -70 2 -174l87 -8l-3 -172h-31l-16 144h-171v26l81 10q2 104 2 196h-275q0 -96 2 -196l80 -10v-26h-214v26l80 10q2 102 2 174v52q0 72 -2 174l-80 10v26h214v-26l-80 -10q-2 -98 -2 -174h275q0 76 -2 174z" />
    <glyph glyph-name="uni04AA" unicode="&#x4aa;" horiz-adv-x="639" 
d="M388 20q81 0 145 35l18 124h39l-4 -142q-89 -51 -199 -51q-18 0 -27 1q57 -66 57 -128q0 -33 -26 -54t-71 -21q-31 0 -59 10l5 21q36 -6 45 -6q30 0 47 16t17 44q0 54 -43 121q-125 18 -200 112.5t-75 234.5q0 154 93 252.5t237 98.5q104 0 191 -51l4 -141h-39l-18 122
q-60 37 -131 37q-123 0 -199 -86t-76 -232q0 -147 74.5 -232t194.5 -85z" />
    <glyph glyph-name="uni04AB" unicode="&#x4ab;" horiz-adv-x="487" 
d="M277 454q-77 0 -126.5 -58.5t-49.5 -155.5q0 -96 50 -154t128 -58q91 0 150 71l17 -11q-57 -101 -171 -101q58 -66 58 -128q0 -33 -26 -54t-71 -21q-30 0 -60 10l6 21q34 -6 45 -6q30 0 47 16t17 44q0 53 -42 119q-91 8 -146 75t-55 172q0 113 67.5 181.5t161.5 68.5
q58 0 104 -31t63 -84q-6 -27 -32 -27q-27 0 -37 30l-22 63q-36 18 -76 18z" />
    <glyph glyph-name="uni04AE" unicode="&#x4ae;" horiz-adv-x="634" 
d="M389 646v28h226v-28l-87 -9l-183 -369q0 -164 2 -232l112 -8v-28h-282v28l112 8q2 73 2 230l-185 372l-82 8v28h247v-28l-104 -8l162 -335l163 334z" />
    <glyph glyph-name="uni04AF" unicode="&#x4af;" horiz-adv-x="501" 
d="M313 444v28h184v-28l-63 -8l-161 -433q0 -108 2 -210l98 -10v-26h-243v26l93 10q2 102 2 212l-165 432l-66 7v28h208v-28l-83 -8l140 -389l139 388z" />
    <glyph glyph-name="uni04B0" unicode="&#x4b0;" horiz-adv-x="634" 
d="M513 252h-168q0 -151 2 -216l112 -8v-28h-282v28l112 8q2 65 2 216h-169v32h160l-176 354l-82 8v28h247v-28l-104 -8l162 -335l163 334l-103 9v28h226v-28l-87 -9l-175 -353h160v-32z" />
    <glyph glyph-name="uni04B1" unicode="&#x4b1;" horiz-adv-x="501" 
d="M313 444v28h184v-28l-63 -8l-151 -406h139v-30h-149q0 -105 2 -207l98 -10v-26h-243v26l93 10q2 102 2 207h-163v30h153l-155 407l-66 7v28h208v-28l-83 -8l140 -389l139 388z" />
    <glyph glyph-name="uni04B2" unicode="&#x4b2;" horiz-adv-x="666" 
d="M27 646v28h249v-28l-100 -8l153 -255l154 254l-99 9v28h229v-28l-91 -9l-176 -283l190 -317l97 -8l-3 -202h-36l-15 173h-203v28l100 8l-163 273l-167 -272l99 -9v-28h-229v28l89 9l191 300l-180 301z" />
    <glyph glyph-name="uni04B3" unicode="&#x4b3;" horiz-adv-x="520" 
d="M311 444v28h180v-28l-65 -8l-147 -192l149 -208l83 -8l-3 -172h-31l-17 144h-168v26l78 9l-122 174l-130 -174l75 -9v-26h-183v26l67 9l154 198l-144 203l-70 8v28h197v-28l-72 -8l120 -169l124 168z" />
    </font>
</defs>
</svg>
