<?xml version="1.0" standalone="no"?>
<!DOCTYPE svg PUBLIC "-//W3C//DTD SVG 1.1//EN" "http://www.w3.org/Graphics/SVG/1.1/DTD/svg11.dtd" >
<svg>
<metadata>
Created by FontForge 20090622 at Wed Oct 31 17:24:45 2018
 By deploy user
&#194;&#169; 2014 - 2018 Adobe Systems Incorporated (http://www.adobe.com/), with Reserved Font Name &#226;&#128;&#152;Source&#226;&#128;&#153;.
</metadata>
<defs>
<font id="SourceSerifPro-Regular" horiz-adv-x="0" >
  <font-face 
    font-family="Source Serif Pro"
    font-weight="400"
    font-stretch="normal"
    units-per-em="1000"
    panose-1="2 4 6 3 5 4 5 2 2 4"
    ascent="730"
    descent="-270"
    x-height="475"
    cap-height="669"
    bbox="-240 -335 2235 1002"
    underline-thickness="50"
    underline-position="-25"
    unicode-range="U+0021-U+1F16B"
  />
<missing-glyph horiz-adv-x="640" 
d="M80 0v669h480v-669h-480zM174 51h292l-146 234zM141 571v-473l148 237zM351 335l148 -237v473zM174 618l146 -234l146 234h-292z" />
    <glyph glyph-name="f_f" unicode="ff" horiz-adv-x="658" 
d="M36 0v36l79 14q2 106 2 160v212h-83v44l84 11q8 82 23.5 129.5t47.5 81.5q57 61 140 61q82 0 97 -54q-2 -19 -18 -32t-43 -13q-34 0 -72 30l-27 22q-23 -16 -36 -40q-34 -61 -30 -187h206l16 2q8 82 23.5 129.5t47.5 81.5q57 61 141 61q82 0 96 -54q-2 -20 -18 -32.5
t-43 -12.5q-36 0 -72 30l-28 22q-21 -16 -34 -38q-35 -63 -31 -189h138v-53h-136v-212q0 -53 2 -159l90 -15v-36h-258v36l79 14q2 106 2 160v212h-219v-212q0 -53 2 -159l89 -15v-36h-257z" />
    <glyph glyph-name="f_i" unicode="fi" horiz-adv-x="617" 
d="M36 0v36l79 14q2 106 2 160v212h-83v44l84 11q8 83 25.5 131.5t55.5 83.5q64 57 162 57q67 0 111 -27.5t44 -72.5q-9 -39 -50 -39q-34 0 -64 41l-44 61q-69 -5 -111 -48q-51 -53 -47 -189h228l74 13l16 -10l-3 -131v-137q0 -60 2 -160l68 -14v-36h-232v36l75 14
q2 100 2 160v51q0 85 -3 161h-225v-212q0 -53 2 -159l89 -15v-36h-257z" />
    <glyph glyph-name="f_l" unicode="fl" horiz-adv-x="612" 
d="M36 0v36l79 14q2 106 2 160v212h-83v44l84 11q8 85 26 134t58 84q65 54 152 54q70 0 105 -28l36 18l14 -8l-4 -142v-379q0 -52 2 -160l80 -14v-36h-247v36l79 14q2 108 2 160v439q-49 3 -106 49l-8 7q-39 -16 -59 -39q-29 -32 -39.5 -77t-8.5 -114h138v-53h-136v-212
q0 -53 2 -159l89 -15v-36h-257z" />
    <glyph glyph-name="f_f_i" unicode="ffi" horiz-adv-x="920" 
d="M36 0v36l79 14q2 106 2 160v212h-83v44l84 11q8 82 23.5 129.5t47.5 81.5q57 61 140 61q82 0 97 -54q-2 -19 -18 -32t-43 -13q-34 0 -72 30l-27 22q-23 -16 -36 -40q-34 -61 -30 -187h206l16 2q8 83 25.5 131.5t55.5 83.5q64 57 162 57q67 0 111 -27.5t44 -72.5
q-9 -39 -50 -39q-34 0 -64 41l-44 61q-69 -5 -111 -48q-51 -53 -47 -189h228l74 13l16 -10l-3 -131v-137q0 -60 2 -160l68 -14v-36h-232v36l75 14q2 100 2 160v51q0 85 -3 161h-225v-212q0 -53 2 -159l89 -15v-36h-257v36l79 14q2 106 2 160v212h-219v-212q0 -53 2 -159
l89 -15v-36h-257z" />
    <glyph glyph-name="f_f_l" unicode="ffl" horiz-adv-x="915" 
d="M36 0v36l79 14q2 106 2 160v212h-83v44l84 11q8 82 23.5 129.5t47.5 81.5q57 61 140 61q82 0 97 -54q-2 -19 -18 -32t-43 -13q-34 0 -72 30l-27 22q-23 -16 -36 -40q-34 -61 -30 -187h206l16 2q8 85 26 134t58 84q65 54 152 54q70 0 105 -28l36 18l14 -8l-4 -142v-379
q0 -52 2 -160l80 -14v-36h-247v36l79 14q2 108 2 160v439q-49 3 -106 49l-8 7q-39 -16 -59 -39q-29 -32 -39.5 -77t-8.5 -114h138v-53h-136v-212q0 -53 2 -159l89 -15v-36h-257v36l79 14q2 106 2 160v212h-219v-212q0 -53 2 -159l89 -15v-36h-257z" />
    <glyph glyph-name="f_t" unicode="ft" horiz-adv-x="644" 
d="M117 210v212h-83v44l84 11q8 82 23.5 129.5t47.5 81.5q57 61 141 61q82 0 96 -54q-2 -20 -18 -32.5t-43 -12.5q-36 0 -72 30l-28 22q-21 -16 -34 -38q-35 -63 -31 -189h217l27 136h59l-5 -136h134v-53h-136v-310q0 -73 55 -73q29 0 68 27l23 -26q-39 -53 -118 -53
q-54 0 -84 28.5t-30 85.5q0 11 0.5 37.5t0.5 47.5v236h-209v-212q0 -53 2 -159l90 -15v-36h-258v36l79 14q2 106 2 160z" />
    <glyph glyph-name=".notdef" horiz-adv-x="640" 
d="M80 0v669h480v-669h-480zM174 51h292l-146 234zM141 571v-473l148 237zM351 335l148 -237v473zM174 618l146 -234l146 234h-292z" />
    <glyph glyph-name=".null" 
 />
    <glyph glyph-name="nonmarkingreturn" horiz-adv-x="333" 
 />
    <glyph glyph-name="space" unicode="&#xa0;" horiz-adv-x="233" 
 />
    <glyph glyph-name="space" unicode=" " horiz-adv-x="233" 
 />
    <glyph glyph-name="exclam" unicode="!" horiz-adv-x="289" 
d="M145 -13q-27 0 -46 19.5t-19 45.5t19 45.5t46 19.5t45.5 -19t18.5 -46t-18.5 -46t-45.5 -19zM145 684q57 0 57 -63q0 -21 -25 -269l-14 -137h-37l-13 137q-26 241 -26 269q0 63 58 63z" />
    <glyph glyph-name="quotedbl" unicode="&#x22;" horiz-adv-x="356" 
d="M92 737q51 0 51 -63q0 -29 -22 -174l-11 -71h-37l-11 71q-22 145 -22 174q0 63 52 63zM264 737q51 0 51 -63q0 -29 -22 -174l-11 -71h-37l-11 71q-22 145 -22 174q0 63 52 63z" />
    <glyph glyph-name="numbersign" unicode="#" horiz-adv-x="526" 
d="M175 261h158l20 130h-158zM88 0l28 180h-91v81h103l20 130h-91v82h104l27 177h47l-27 -177h158l27 177h47l-27 -177h89v-82h-102l-20 -130h90v-81h-102l-28 -180h-47l28 180h-158l-28 -180h-47z" />
    <glyph glyph-name="dollar" unicode="$" horiz-adv-x="500" 
d="M238 -115v102q-80 2 -132 42t-55 104q14 32 46 32q44 0 59 -67l12 -55q30 -6 70 -8v246l-12 4q-83 29 -125.5 74.5t-42.5 117.5q0 73 51 124.5t131 56.5v91h41v-91q68 -6 114 -45.5t50 -98.5q-10 -32 -44 -32q-45 0 -60 67l-12 54q-23 5 -48 7v-243l6 -2
q97 -34 137 -81.5t40 -112.5q0 -74 -49.5 -123.5t-134.5 -58.5v-104h-42zM383 150q0 43 -24 68.5t-79 46.5v-228q49 8 76 37t27 76zM138 499q0 -82 102 -118v227q-46 -6 -74 -34t-28 -75z" />
    <glyph glyph-name="percent" unicode="%" horiz-adv-x="861" 
d="M220 -25l-31 25l465 669l31 -25zM142 451q0 -174 68 -174q66 0 66 174t-66 174q-68 0 -68 -174zM210 659q58 0 98.5 -52.5t40.5 -155.5q0 -102 -40.5 -154.5t-98.5 -52.5q-59 0 -100 52.5t-41 154.5q0 103 41 155.5t100 52.5zM585 198q0 -174 68 -174q66 0 66 174
t-66 174q-68 0 -68 -174zM653 406q58 0 98.5 -52.5t40.5 -155.5q0 -102 -40.5 -154.5t-98.5 -52.5q-59 0 -100 52.5t-41 154.5q0 103 41 155.5t100 52.5z" />
    <glyph glyph-name="ampersand" unicode="&#x26;" horiz-adv-x="720" 
d="M222 443q14 -18 27 -33q52 36 79 70t27 75q0 43 -24.5 68.5t-62.5 25.5t-64.5 -26.5t-26.5 -66.5q0 -57 45 -113zM670 -3q-43 -10 -76 -10q-40 0 -66 10.5t-51 35.5l-17.5 19.5l-17.5 19.5q-78 -85 -204 -85q-92 0 -151.5 52.5t-59.5 129.5q0 131 151 207q0 1 -2 2.5
t-2 2.5q-69 79 -69 161q0 65 46 103.5t118 38.5t112 -35t40 -93q0 -51 -35 -91t-113 -82l80 -89l115 -124q58 98 83 206l-79 13v40h203v-40l-76 -14q-32 -126 -104 -234l82 -87l97 -13zM311 219l-109 129q-88 -54 -88 -152q0 -58 41 -101.5t110 -43.5q89 0 148 53z" />
    <glyph glyph-name="quotesingle" unicode="'" horiz-adv-x="183" 
d="M92 737q51 0 51 -63q0 -29 -22 -174l-11 -71h-37l-11 71q-22 145 -22 174q0 63 52 63z" />
    <glyph glyph-name="parenleft" unicode="(" horiz-adv-x="339" 
d="M160 278q0 -123 33.5 -222.5t120.5 -224.5l-26 -23q-208 195 -208 470t208 470l26 -23q-87 -125 -120.5 -224.5t-33.5 -222.5z" />
    <glyph glyph-name="parenright" unicode=")" horiz-adv-x="339" 
d="M179 278q0 123 -33.5 222.5t-120.5 224.5l26 23q208 -195 208 -470t-208 -470l-26 23q87 125 120.5 224.5t33.5 222.5z" />
    <glyph glyph-name="asterisk" unicode="*" horiz-adv-x="439" 
d="M220 747q36 0 36 -36q0 -8 -15 -104l-7 -47l43 21q9 4 28 13.5l27.5 13.5l21 9.5t20.5 7.5t14 2q14 0 23 -10t9 -25q0 -6 -1.5 -11t-6 -9.5t-8.5 -7.5t-12.5 -5.5t-14.5 -4.5t-18 -4t-20 -3t-23.5 -3.5t-24.5 -3.5l-48 -8l34 -35q9 -10 25.5 -25.5t23.5 -23t16 -18.5
t12.5 -19t3.5 -16q0 -14 -10 -23t-23 -9q-7 0 -13 2.5t-12 8.5t-10.5 11.5t-11 17t-10.5 19.5l-12.5 24l-13.5 26l-22 42l-23 -42q-4 -7 -10.5 -20.5l-9.5 -19.5t-9 -16.5l-9 -15.5t-8 -12.5t-8.5 -11t-8.5 -7t-10 -5t-10 -1.5q-13 0 -23 9t-10 23q0 8 3.5 16.5t12.5 18.5
l17 18.5t23 23t25 25.5l34 35l-47 8q-90 14 -107 21q-22 11 -22 31q0 15 9 25t24 10q8 0 20.5 -4.5t23 -9t32 -15.5l33.5 -17l43 -21l-7 47q-13 84 -13 104q0 36 35 36z" />
    <glyph glyph-name="plus" unicode="+" horiz-adv-x="531" 
d="M235 77v224h-206v57h206v219h61v-219h206v-57h-206v-224h-61z" />
    <glyph glyph-name="comma" unicode="," horiz-adv-x="300" 
d="M213 29q0 -86 -57.5 -155t-135.5 -98l-14 34q116 58 147 156l-37 29q-38 30 -38 72q0 27 16 45t46 18t62 -29q11 -34 11 -72z" />
    <glyph glyph-name="hyphen" unicode="&#x2010;" horiz-adv-x="312" 
d="M40 218v66h232v-66h-232z" />
    <glyph glyph-name="hyphen" unicode="&#xad;" horiz-adv-x="312" 
d="M40 218v66h232v-66h-232z" />
    <glyph glyph-name="hyphen" unicode="-" horiz-adv-x="312" 
d="M40 218v66h232v-66h-232z" />
    <glyph glyph-name="period" unicode="." horiz-adv-x="300" 
d="M150 -13q-30 0 -50.5 21t-20.5 50q0 30 20.5 51t50.5 21t50.5 -21t20.5 -51q0 -29 -20.5 -50t-50.5 -21z" />
    <glyph glyph-name="slash" unicode="/" horiz-adv-x="330" 
d="M2 -160l267 870h59l-267 -870h-59z" />
    <glyph glyph-name="zero" unicode="0" horiz-adv-x="500" 
d="M133 322q0 -290 118 -290q116 0 116 290q0 292 -116 292q-118 0 -118 -292zM251 659q88 0 148.5 -82t60.5 -255q0 -172 -60.5 -253.5t-148.5 -81.5q-90 0 -150 81.5t-60 253.5q0 173 60 255t150 82z" />
    <glyph glyph-name="one" unicode="1" horiz-adv-x="500" 
d="M85 601l206 53l14 -10l-4 -143v-290q0 -51 2 -151l142 -24v-36h-371v36l141 24q2 100 2 151v360l-132 -11v41z" />
    <glyph glyph-name="two" unicode="2" horiz-adv-x="500" 
d="M49 0v65l147 150q145 152 145 265q0 61 -32.5 97.5t-87.5 36.5q-25 0 -49 -5l-19 -69q-10 -36 -23.5 -52t-34.5 -16q-33 0 -51 32q8 76 64.5 115.5t137.5 39.5q93 0 139 -45.5t46 -124.5q0 -66 -41.5 -129.5t-156.5 -174.5l-108 -103h335v-82h-411z" />
    <glyph glyph-name="three" unicode="3" horiz-adv-x="500" 
d="M170 365h40q68 0 105.5 35t37.5 99q0 55 -32 85t-90 30q-22 0 -46 -4l-13 -50q-9 -33 -21.5 -47.5t-36.5 -14.5q-37 0 -48 35q12 61 61.5 93.5t120.5 32.5q87 0 139.5 -43.5t52.5 -113.5q0 -54 -34.5 -96.5t-96.5 -64.5q76 -15 113.5 -57t37.5 -106q0 -82 -62 -136.5
t-162 -54.5q-77 0 -128 35t-64 107q17 33 51 33q24 0 36 -16t23 -56l13 -52q26 -6 56 -6q73 0 110.5 38t37.5 106q0 66 -39 102.5t-114 36.5h-48v50z" />
    <glyph glyph-name="four" unicode="4" horiz-adv-x="500" 
d="M484 193h-105v-193h-83v193h-272v53l297 408h58v-398h105v-63zM85 256h211v294z" />
    <glyph glyph-name="five" unicode="5" horiz-adv-x="500" 
d="M458 201q0 -96 -64 -155t-169 -59q-155 0 -187 141q13 34 51 34q23 0 35.5 -14.5t22.5 -53.5l14 -54q27 -8 57 -8q72 0 111 43t39 116q0 74 -41.5 114t-114.5 40q-43 0 -92 -11l-28 8l21 304h327v-82h-283l-12 -170q45 12 94 12q100 0 159.5 -53.5t59.5 -151.5z" />
    <glyph glyph-name="six" unicode="6" horiz-adv-x="500" 
d="M254 32q51 0 82.5 44t31.5 121q0 68 -31 103.5t-84 35.5q-68 0 -120 -44q-2 -26 -2 -42q0 -110 32.5 -164t90.5 -54zM457 199q0 -92 -60.5 -152t-140.5 -60q-101 0 -158.5 73.5t-57.5 201.5q0 155 102 266t281 131l6 -32q-254 -66 -291 -292q64 62 145 62q80 0 127 -55.5
t47 -142.5z" />
    <glyph glyph-name="seven" unicode="7" horiz-adv-x="500" 
d="M133 10l264 554h-346v82h413v-51l-238 -595h-83z" />
    <glyph glyph-name="eight" unicode="8" horiz-adv-x="500" 
d="M145 514q0 -43 27 -78.5t97 -70.5q45 34 63 65.5t18 72.5q0 47 -26.5 79t-72.5 32q-44 0 -75 -27.5t-31 -72.5zM44 149q0 52 35 92t106 76q-119 67 -119 175q0 77 53.5 122t133.5 45q78 0 125 -43t47 -111q0 -89 -118 -158q77 -38 112.5 -81.5t35.5 -107.5
q0 -75 -58.5 -123t-145.5 -48q-94 0 -150.5 42t-56.5 120zM127 155q0 -54 35.5 -89t90.5 -35q52 0 85 34.5t33 85.5q0 44 -32.5 76t-116.5 71q-50 -31 -72.5 -63t-22.5 -80z" />
    <glyph glyph-name="nine" unicode="9" horiz-adv-x="500" 
d="M118 461q0 -73 36.5 -109t95.5 -36q63 0 109 40q1 9 1 26q0 117 -32.5 174.5t-89.5 57.5q-51 0 -85.5 -40t-34.5 -113zM450 399q0 -153 -89 -264.5t-275 -154.5l-10 38q134 44 199.5 113t79.5 175q-51 -50 -132 -50q-83 0 -138.5 53.5t-55.5 142.5q0 93 59 150t154 57
q98 0 153 -70t55 -190z" />
    <glyph glyph-name="colon" unicode=":" horiz-adv-x="300" 
d="M150 350q-30 0 -50.5 21t-20.5 50q0 30 20.5 51t50.5 21t50.5 -21t20.5 -51q0 -29 -20.5 -50t-50.5 -21zM150 -13q-30 0 -50.5 21t-20.5 50q0 30 20.5 51t50.5 21t50.5 -21t20.5 -51q0 -29 -20.5 -50t-50.5 -21z" />
    <glyph glyph-name="semicolon" unicode=";" horiz-adv-x="300" 
d="M150 350q-30 0 -50.5 21t-20.5 50q0 30 20.5 51t50.5 21t50.5 -21t20.5 -51q0 -29 -20.5 -50t-50.5 -21zM213 29q0 -86 -57.5 -155t-135.5 -98l-14 34q116 58 147 156l-37 29q-38 30 -38 72q0 27 16 45t46 18t62 -29q11 -34 11 -72z" />
    <glyph glyph-name="less" unicode="&#x3c;" horiz-adv-x="531" 
d="M57 306v47l387 225l30 -54l-347 -194l347 -195l-30 -54z" />
    <glyph glyph-name="equal" unicode="=" horiz-adv-x="531" 
d="M502 201h-473v57h473v-57zM502 401h-473v57h473v-57z" />
    <glyph glyph-name="greater" unicode="&#x3e;" horiz-adv-x="531" 
d="M474 353v-47l-387 -225l-30 54l347 195l-347 194l30 54z" />
    <glyph glyph-name="question" unicode="?" horiz-adv-x="416" 
d="M149 -13q-27 0 -45.5 19t-18.5 46t18.5 46t45.5 19t46 -19.5t19 -45.5t-19 -45.5t-46 -19.5zM350 461q0 -94 -100 -126l-34 -12q-31 -10 -39 -20t-8 -35v-55h-39l-12 42q-16 52 -16 70q0 23 18 38t62 28l57 18q56 19 56 69q0 35 -26 74l-131 23q-42 8 -57 21t-15 33
q0 41 55 55q75 -7 152 -71t77 -152z" />
    <glyph glyph-name="at" unicode="@" horiz-adv-x="835" 
d="M301 202q0 -96 69 -96q43 0 103 52l45 237q-28 33 -61 33q-54 0 -105 -64t-51 -162zM584 47q-45 0 -73 22.5t-34 59.5q-70 -82 -138 -82q-45 0 -76.5 32.5t-31.5 97.5q0 110 74.5 204t159.5 94q37 0 68 -25l47 24l19 -16l-57 -286q-7 -37 7 -57.5t47 -20.5
q58 0 101.5 60.5t43.5 178.5q0 133 -76.5 209.5t-195.5 76.5q-161 0 -266.5 -120.5t-105.5 -285.5q0 -157 92 -242t229 -85q89 0 154 31l13 -30q-81 -42 -188 -42q-158 0 -259.5 94t-101.5 265q0 192 127 324t312 132q151 0 238 -93t87 -243q0 -69 -21 -124t-54.5 -87
t-70 -49t-70.5 -17z" />
    <glyph glyph-name="A" unicode="A" horiz-adv-x="664" 
d="M309 562l-101 -298h201zM5 0v41l84 13l213 620h63l213 -624l75 -9v-41h-272v41l98 12l-55 164h-232l-56 -163l98 -13v-41h-229z" />
    <glyph glyph-name="B" unicode="B" horiz-adv-x="629" 
d="M138 310v49q0 172 -2 258l-92 11v41h290q102 0 160 -45t58 -118q0 -57 -38 -99.5t-117 -58.5q96 -14 142.5 -57.5t46.5 -107.5q0 -76 -66.5 -129.5t-200.5 -53.5h-275v41l92 11q2 84 2 258zM288 323h-55q0 -191 2 -276h61q190 0 190 136q0 71 -48 105.5t-150 34.5z
M304 623h-69q-2 -86 -2 -254h52q91 0 132 31t41 99q0 67 -37.5 95.5t-116.5 28.5z" />
    <glyph glyph-name="C" unicode="C" horiz-adv-x="631" 
d="M391 35q64 0 119 27l20 116h62l-4 -145q-88 -48 -202 -48q-151 0 -245 97.5t-94 252.5q0 151 96 250t242 99q111 0 193 -48l4 -145h-62l-20 116q-49 27 -102 27q-105 0 -173.5 -79t-68.5 -220q0 -143 64.5 -221.5t170.5 -78.5z" />
    <glyph glyph-name="D" unicode="D" horiz-adv-x="710" 
d="M138 322v37q0 172 -2 258l-92 11v41h295q147 0 235.5 -88t88.5 -247q0 -157 -96 -245.5t-247 -88.5h-276v41l92 11q2 85 2 270zM233 322q0 -187 2 -275h79q115 0 177.5 75t62.5 212q0 140 -60.5 214.5t-170.5 74.5h-88q-2 -86 -2 -264v-37z" />
    <glyph glyph-name="E" unicode="E" horiz-adv-x="603" 
d="M138 310v49q0 172 -2 258l-92 11v41h498l7 -177h-57l-22 127h-235q-2 -85 -2 -254h147l14 95h46v-236h-46l-13 94h-148q0 -185 2 -268h255l22 128h57l-7 -178h-518v41l92 11q2 84 2 258z" />
    <glyph glyph-name="F" unicode="F" horiz-adv-x="579" 
d="M138 310v49q0 172 -2 258l-92 11v41h498l7 -177h-57l-22 127h-235q-2 -85 -2 -254h155l14 95h46v-246h-46l-14 104h-155q0 -184 2 -266l93 -11v-41h-284v41l92 11q2 84 2 258z" />
    <glyph glyph-name="G" unicode="G" horiz-adv-x="682" 
d="M604 88v-44q-113 -59 -220 -59q-150 0 -243.5 98.5t-93.5 251.5q0 152 94.5 250.5t246.5 98.5q119 0 201 -47l4 -146h-62l-20 114q-52 29 -114 29q-106 0 -173.5 -79.5t-67.5 -219.5q0 -142 65.5 -220.5t181.5 -78.5q57 0 107 20v32q0 61 -2 181l-104 9v40h263v-40
l-61 -6q-2 -120 -2 -184z" />
    <glyph glyph-name="H" unicode="H" horiz-adv-x="789" 
d="M138 310v49q0 172 -2 258l-92 11v41h282v-41l-91 -10q-2 -85 -2 -252h323q0 170 -2 251l-92 11v41h282v-41l-92 -11q-2 -84 -2 -258v-49q0 -172 2 -258l92 -11v-41h-282v41l92 11q2 85 2 267h-323q0 -186 2 -268l91 -10v-41h-282v41l92 11q2 84 2 258z" />
    <glyph glyph-name="I" unicode="I" horiz-adv-x="371" 
d="M138 310v49q0 172 -2 258l-92 11v41h283v-41l-92 -11q-2 -84 -2 -258v-49q0 -172 2 -258l92 -11v-41h-283v41l92 11q2 84 2 258z" />
    <glyph glyph-name="J" unicode="J" horiz-adv-x="374" 
d="M47 628v41h293v-41l-92 -11q-2 -84 -2 -257v-156q0 -153 -14 -218q-14 -71 -67.5 -110t-120.5 -39q-74 0 -87 49q8 50 62 50q34 0 75 -31l25 -20q39 38 39 122q0 19 -1.5 76.5t-3.5 198t-4 335.5z" />
    <glyph glyph-name="K" unicode="K" horiz-adv-x="667" 
d="M138 310v49q0 172 -2 258l-92 11v41h282v-41l-95 -11q-2 -85 -2 -258v-63l260 318l-72 14v41h230v-41l-97 -13l-167 -201l202 -363l77 -10v-41h-257v41l82 10l-159 297l-99 -119q0 -115 2 -177l95 -11v-41h-282v41l92 11q2 84 2 258z" />
    <glyph glyph-name="L" unicode="L" horiz-adv-x="596" 
d="M138 359q0 174 -2 258l-92 11v41h283v-41l-92 -11q-2 -86 -2 -258v-69q0 -155 2 -240h227l29 138h61l-10 -188h-498v41l92 11q2 86 2 257v50z" />
    <glyph glyph-name="M" unicode="M" horiz-adv-x="902" 
d="M39 0v41l90 13v563l-90 11v41h185l224 -550l212 550h197v-41l-92 -11q-2 -84 -2 -258v-49q0 -172 2 -258l92 -11v-41h-272v41l84 11q2 84 2 257v249l-217 -558h-50l-229 558l6 -189v-315l82 -13v-41h-224z" />
    <glyph glyph-name="N" unicode="N" horiz-adv-x="735" 
d="M454 628v41h241v-41l-85 -13v-622h-35l-400 545v-483l106 -14v-41h-242v41l85 12v555l-9 12l-71 8v41h154l361 -496v442z" />
    <glyph glyph-name="O" unicode="O" horiz-adv-x="707" 
d="M156 335q0 -79 19.5 -145t66 -110.5t112.5 -44.5t112 44.5t65 110t19 145.5q0 125 -49.5 212t-146.5 87q-66 0 -112.5 -44.5t-66 -110t-19.5 -144.5zM354 684q124 0 215 -93.5t91 -255.5q0 -158 -91.5 -254t-214.5 -96q-125 0 -216 93.5t-91 256.5q0 157 92 253t215 96z
" />
    <glyph glyph-name="P" unicode="P" horiz-adv-x="589" 
d="M138 310v49q0 172 -2 258l-92 11v41h269q123 0 188.5 -54t65.5 -145t-68.5 -148.5t-213.5 -57.5h-52q0 -140 2 -212l93 -11v-41h-284v41l92 11q2 84 2 258zM295 623h-60q-2 -86 -2 -264v-48h66q87 0 128 42.5t41 116.5q0 153 -173 153z" />
    <glyph glyph-name="Q" unicode="Q" horiz-adv-x="707" 
d="M156 335q0 -79 19.5 -145t66 -110.5t112.5 -44.5t112 44.5t65 110t19 145.5q0 125 -49.5 212t-146.5 87q-66 0 -112.5 -44.5t-66 -110t-19.5 -144.5zM354 684q124 0 215 -93.5t91 -255.5q0 -144 -77 -237t-187 -110q2 -71 38.5 -109.5t99.5 -38.5q35 0 78 12l11 -36
q-49 -32 -123 -32q-91 0 -144.5 60.5t-53.5 145.5q-109 18 -182 109t-73 236q0 157 92 253t215 96z" />
    <glyph glyph-name="R" unicode="R" horiz-adv-x="651" 
d="M321 623h-86q-2 -88 -2 -268h77q78 0 118 37.5t40 100.5q0 130 -147 130zM138 310v49q0 172 -2 258l-92 11v41h280q115 0 179 -46t64 -129q0 -61 -43.5 -108t-124.5 -61q45 -9 73 -39t45 -88l43 -148l77 -9v-41q-33 -10 -75 -10q-48 0 -71 14t-32 50l-40 160
q-14 58 -43.5 77t-93.5 19h-49q0 -178 2 -258l92 -11v-41h-283v41l92 11q2 84 2 258z" />
    <glyph glyph-name="S" unicode="S" horiz-adv-x="512" 
d="M232 35q71 0 113 32t42 89q0 46 -28 73t-95 53l-39 16q-172 67 -172 201q0 85 63.5 135t161.5 50q94 0 164 -52l-6 -131h-61l-21 113q-37 20 -82 20q-59 0 -97 -29.5t-38 -83.5q0 -45 28.5 -75t84.5 -52l40 -15q98 -38 140 -85.5t42 -118.5q0 -87 -65.5 -138.5
t-171.5 -51.5q-114 0 -195 53l6 140h62l20 -118q46 -25 104 -25z" />
    <glyph glyph-name="T" unicode="T" horiz-adv-x="604" 
d="M255 310v49q0 173 -2 260h-153l-22 -128h-58l8 178h548l8 -178h-58l-22 128h-153q-2 -85 -2 -260v-49q0 -172 2 -258l102 -11v-41h-302v41l102 11q2 85 2 258z" />
    <glyph glyph-name="U" unicode="U" horiz-adv-x="727" 
d="M218 281q0 -122 42.5 -173.5t123.5 -51.5q87 0 129 56t42 186v317l-102 13v41h240v-41l-87 -11v-343q0 -150 -64.5 -219.5t-174.5 -69.5q-114 0 -178.5 66t-64.5 201v108q0 172 -2 258l-83 10v41h283v-41l-102 -12q-2 -84 -2 -256v-79z" />
    <glyph glyph-name="V" unicode="V" horiz-adv-x="674" 
d="M323 -7l-233 626l-75 9v41h273v-45l-96 -9l168 -480l162 479l-88 10v45h231v-41l-87 -12l-211 -623h-44z" />
    <glyph glyph-name="W" unicode="W" horiz-adv-x="962" 
d="M657 -7l-173 519l-163 -519h-43l-180 625l-83 10v41h272v-41l-92 -11l123 -460l152 459l-100 12v41h272v-41l-101 -12l149 -463l127 462l-91 13v41h227v-41l-84 -12l-169 -623h-43z" />
    <glyph glyph-name="X" unicode="X" horiz-adv-x="648" 
d="M19 628v41h281v-41l-88 -10l128 -214l133 212l-85 12v41h229v-41l-88 -11l-164 -254l188 -312l86 -10v-41h-283v41l92 11l-140 232l-147 -232l78 -11v-41h-229v41l95 12l179 271l-177 294z" />
    <glyph glyph-name="Y" unicode="Y" horiz-adv-x="633" 
d="M394 628v41h229v-41l-88 -13l-170 -352q0 -147 2 -211l102 -11v-41h-302v41l102 11q2 62 2 207l-177 360l-79 9v41h282v-41l-95 -11l139 -303l143 302z" />
    <glyph glyph-name="Z" unicode="Z" horiz-adv-x="551" 
d="M91 491h-61l8 178h471v-35l-377 -584h311l27 128h61l-8 -178h-503v36l379 583h-281z" />
    <glyph glyph-name="bracketleft" unicode="[" horiz-adv-x="320" 
d="M103 158v240q0 212 -3 317h191v-41l-113 -13q-2 -86 -2 -263v-240q0 -176 2 -263l113 -13v-41h-191q3 103 3 317z" />
    <glyph glyph-name="backslash" unicode="\" horiz-adv-x="330" 
d="M328 -160h-59l-267 870h59z" />
    <glyph glyph-name="bracketright" unicode="]" horiz-adv-x="320" 
d="M217 398v-240q0 -212 3 -317h-191v41l113 13q2 86 2 263v240q0 176 -2 263l-113 13v41h191q-3 -103 -3 -317z" />
    <glyph glyph-name="asciicircum" unicode="^" horiz-adv-x="531" 
d="M88 242l147 239h64l147 -239l-45 -34l-134 213l-134 -213z" />
    <glyph glyph-name="underscore" unicode="_" horiz-adv-x="512" 
d="M40 -66v66h432v-66h-432z" />
    <glyph glyph-name="grave" unicode="&#x2cb;" horiz-adv-x="400" 
d="M256 576l-26 -19l-121 108q-34 32 -34 55q0 18 11 28t27 10q29 0 54 -41q27 -40 89 -141z" />
    <glyph glyph-name="grave" unicode="`" horiz-adv-x="400" 
d="M256 576l-26 -19l-121 108q-34 32 -34 55q0 18 11 28t27 10q29 0 54 -41q27 -40 89 -141z" />
    <glyph glyph-name="a" unicode="a" horiz-adv-x="509" 
d="M416 -10q-36 0 -60 21t-30 56q-45 -45 -75.5 -62.5t-71.5 -17.5q-58 0 -96 32.5t-38 92.5q0 46 35 81t131 70q58 21 113 33v25q0 70 -21.5 95.5t-72.5 25.5q-29 0 -54 -6l-19 -65q-14 -48 -52 -48q-42 0 -47 41q14 57 66.5 90.5t128.5 33.5q80 0 117.5 -40.5t37.5 -133.5
v-213q0 -59 36 -59q20 0 39 22l20 -22q-32 -52 -87 -52zM134 127q0 -74 80 -74q24 0 44 10t66 42v154q-53 -15 -92 -30q-98 -38 -98 -102z" />
    <glyph glyph-name="b" unicode="b" horiz-adv-x="577" 
d="M310 44q57 0 94.5 49t37.5 141q0 94 -34.5 145.5t-92.5 51.5q-54 0 -124 -58v-274q58 -55 119 -55zM30 0v36l75 13q2 100 2 161v439l-82 10v35l153 45l14 -8l-4 -142v-178q70 77 154 77q82 0 136 -66.5t54 -179.5q0 -114 -58.5 -184.5t-147.5 -70.5q-82 0 -138 70l-8 -67
z" />
    <glyph glyph-name="c" unicode="c" horiz-adv-x="488" 
d="M277 442q-66 0 -106.5 -51.5t-40.5 -144.5q0 -92 44 -143t116 -51q90 0 138 76l25 -13q-43 -128 -186 -128q-103 0 -164 67t-61 182q0 114 68 183t163 69q67 0 117 -37t60 -93q-7 -38 -46 -38q-43 0 -55 48l-18 66q-25 8 -54 8z" />
    <glyph glyph-name="d" unicode="d" horiz-adv-x="567" 
d="M135 235q0 -95 38 -143t101 -48q61 0 112 58v277q-60 52 -113 52q-60 0 -99 -49.5t-39 -146.5zM551 0l-155 -10l-7 70q-54 -73 -140 -73q-91 0 -147.5 68t-56.5 178q0 114 60 184.5t153 70.5q75 0 131 -65v226l-85 10v35l156 45l14 -8l-4 -142v-541l81 -12v-36z" />
    <glyph glyph-name="e" unicode="e" horiz-adv-x="510" 
d="M269 442q-48 0 -86 -39.5t-46 -120.5h182q59 0 59 52q0 44 -31.5 76t-77.5 32zM275 488q80 0 133 -52t53 -140q0 -33 -7 -56h-319q1 -91 45 -139.5t117 -48.5q79 0 139 70l24 -19q-60 -116 -192 -116q-102 0 -162.5 66t-60.5 180q0 112 67 183.5t163 71.5z" />
    <glyph glyph-name="f" unicode="f" horiz-adv-x="354" 
d="M117 210v212h-83v44l84 11q8 82 23.5 129.5t47.5 81.5q57 61 141 61q82 0 96 -54q-2 -20 -18 -32.5t-43 -12.5q-36 0 -72 30l-28 22q-21 -16 -34 -38q-35 -63 -31 -189h138v-53h-136v-212q0 -53 2 -159l90 -15v-36h-258v36l79 14q2 106 2 160z" />
    <glyph glyph-name="g" unicode="g" horiz-adv-x="518" 
d="M241 447q-47 0 -74 -34t-27 -90t25.5 -89.5t71.5 -33.5q47 0 74.5 35t27.5 92q0 54 -26 87t-72 33zM59 324q0 77 50.5 120.5t130.5 43.5q79 0 127 -39l113 39l15 -10v-63h-98q23 -37 23 -91q0 -77 -50.5 -120.5t-130.5 -43.5q-39 0 -74 11q-25 -32 -25 -64
q0 -22 12.5 -33t45.5 -11h131q161 0 161 -129q0 -70 -65.5 -121.5t-181.5 -51.5q-105 0 -156 32.5t-51 88.5q0 34 22 61t76 53q-66 18 -66 76q0 48 68 111q-77 42 -77 141zM247 -193q79 0 123.5 28.5t44.5 72.5q0 35 -24.5 56.5t-75.5 21.5h-117q-15 0 -41 2
q-39 -42 -39 -90q0 -91 129 -91z" />
    <glyph glyph-name="h" unicode="h" horiz-adv-x="601" 
d="M107 210v439l-82 10v35l153 45l14 -8l-4 -142v-194q37 42 86.5 67.5t96.5 25.5q65 0 96.5 -44t31.5 -141v-93q0 -60 2 -160l70 -14v-36h-232v36l73 13q2 100 2 161v85q0 68 -18.5 94.5t-63.5 26.5q-69 0 -141 -65v-141q0 -60 2 -160l69 -14v-36h-232v36l75 14
q2 100 2 160z" />
    <glyph glyph-name="i" unicode="i" horiz-adv-x="298" 
d="M153 598q-29 0 -48 18t-19 46q0 29 19 46.5t48 17.5q28 0 47.5 -17.5t19.5 -46.5q0 -27 -19.5 -45.5t-47.5 -18.5zM267 36v-36h-232v36l75 14q2 100 2 160v47q0 66 -3 126l-80 9v35l154 61l15 -10l-3 -136v-132q0 -60 2 -160z" />
    <glyph glyph-name="j" unicode="j" horiz-adv-x="277" 
d="M152 598q-28 0 -47.5 18.5t-19.5 45.5q0 29 19.5 46.5t47.5 17.5q29 0 48.5 -17.5t19.5 -46.5q0 -28 -19.5 -46t-48.5 -18zM111 102v155q0 66 -3 126l-79 9v35l151 61l15 -10l-3 -136v-242q0 -131 -11 -191.5t-48 -101.5q-53 -56 -127 -56q-42 0 -65 17.5t-24 39.5
q13 41 59 41q36 0 75 -30l23 -18q11 13 16 27q21 56 21 274z" />
    <glyph glyph-name="k" unicode="k" horiz-adv-x="547" 
d="M25 694l156 45l14 -8l-4 -142v-349l171 178l-73 18v39h232v-39l-94 -14l-110 -113l164 -261l66 -12v-36h-136l-154 248l-66 -68q0 -44 2 -130l80 -14v-36h-248v36l80 14q2 106 2 160v439l-82 10v35z" />
    <glyph glyph-name="l" unicode="l" horiz-adv-x="298" 
d="M25 694l156 45l14 -8l-4 -142v-379q0 -54 2 -160l80 -14v-36h-248v36l80 14q2 108 2 160v439l-82 10v35z" />
    <glyph glyph-name="m" unicode="m" horiz-adv-x="901" 
d="M672 488q128 0 128 -175v-103q0 -60 2 -160l70 -14v-36h-232v36l74 14q2 98 2 160v87q0 68 -19.5 93.5t-64.5 25.5q-64 0 -134 -63q2 -30 2 -50v-93q0 -60 2 -160l70 -14v-36h-232v36l74 14q2 98 2 160v85q0 67 -18.5 94t-63.5 27q-63 0 -133 -60v-146q0 -60 2 -160
l69 -14v-36h-232v36l74 14q2 100 2 160v48q0 65 -3 125l-79 9v35l140 61l15 -10l8 -80q37 41 83.5 65.5t91.5 24.5q95 0 118 -94q78 94 182 94z" />
    <glyph glyph-name="n" unicode="n" horiz-adv-x="606" 
d="M376 488q65 0 96.5 -44t31.5 -141v-93q0 -60 2 -160l70 -14v-36h-232v36l74 14q2 98 2 160v85q0 68 -19 94.5t-64 26.5q-63 0 -136 -60v-146q0 -60 2 -160l69 -14v-36h-232v36l74 14q2 100 2 160v48q0 65 -3 125l-79 9v35l140 61l15 -10l8 -81q38 41 85.5 66t93.5 25z
" />
    <glyph glyph-name="o" unicode="o" horiz-adv-x="549" 
d="M274 -13q-94 0 -161.5 65.5t-67.5 182.5q0 118 68 185.5t161 67.5t161.5 -67.5t68.5 -185.5q0 -117 -68 -182.5t-162 -65.5zM274 32q65 0 100 51.5t35 151.5q0 101 -35 154t-100 53t-99.5 -53t-34.5 -154q0 -203 134 -203z" />
    <glyph glyph-name="p" unicode="p" horiz-adv-x="583" 
d="M448 231q0 94 -34.5 147t-90.5 53q-54 0 -121 -55v-281q52 -51 110 -51q60 0 98 47.5t38 139.5zM117 -28v286q0 65 -3 125l-79 9v35l140 61l15 -10l6 -64q68 74 151 74q82 0 136.5 -67.5t54.5 -181.5t-58.5 -183t-147.5 -69q-78 0 -133 66v-80q0 -52 2 -162l91 -15v-35
h-257v35l80 14q2 110 2 162z" />
    <glyph glyph-name="q" unicode="q" horiz-adv-x="557" 
d="M135 234q0 -94 38 -142t101 -48q61 0 116 63v269q-63 55 -117 55q-60 0 -99 -50t-39 -147zM474 -27q0 -53 2 -163l80 -14v-35h-257v35l92 15q2 108 2 162v93q-56 -79 -144 -79q-91 0 -147.5 67.5t-56.5 177.5q0 113 60 184.5t150 71.5q80 0 138 -69l68 69l16 -10l-3 -135
v-370z" />
    <glyph glyph-name="r" unicode="r" horiz-adv-x="423" 
d="M42 0v36l72 13q2 100 2 161v48q0 65 -3 125l-79 9v35l140 61l15 -10l11 -118q24 59 63.5 93.5t80.5 34.5q23 0 43 -10.5t29 -26.5q0 -73 -59 -73q-31 0 -61 25l-12 11q-57 -43 -83 -129v-75q0 -59 2 -159l82 -15v-36h-243z" />
    <glyph glyph-name="s" unicode="s" horiz-adv-x="434" 
d="M200 -13q-75 0 -149 38l-4 110h55l19 -87q35 -16 81 -16q55 0 83.5 20.5t28.5 55.5q0 31 -22 50.5t-71 36.5l-46 17q-121 45 -121 135q0 58 47 99.5t127 41.5q72 0 140 -41l-4 -102h-52l-16 80q-34 17 -69 17q-45 0 -69 -18.5t-24 -49.5q0 -32 19.5 -49t72.5 -37l31 -11
q73 -27 105.5 -62.5t32.5 -84.5q0 -60 -51.5 -101.5t-143.5 -41.5z" />
    <glyph glyph-name="t" unicode="t" horiz-adv-x="325" 
d="M177 112q0 -73 55 -73q30 0 67 27l24 -26q-41 -53 -118 -53q-54 0 -84 28.5t-30 85.5q0 11 0.5 37.5t0.5 47.5v236h-83v44l89 11l26 134h60l-5 -136h134v-53h-136v-310z" />
    <glyph glyph-name="u" unicode="u" horiz-adv-x="583" 
d="M549 0l-139 -8l-10 89q-77 -94 -177 -94q-131 0 -130 180l3 249l-71 15v36l147 14l10 -10l-5 -140v-155q0 -64 19.5 -91t60.5 -27q70 0 140 65l3 294l-71 14v36l145 14l10 -10l-3 -140v-281l68 -14v-36z" />
    <glyph glyph-name="v" unicode="v" horiz-adv-x="505" 
d="M306 436v39h190v-39l-55 -13l-162 -429h-43l-182 432l-54 10v39h242v-39l-88 -13l122 -321l112 320z" />
    <glyph glyph-name="w" unicode="w" horiz-adv-x="764" 
d="M571 436v39h183v-39l-54 -13l-146 -429h-37l-130 354l-132 -354h-37l-161 432l-57 10v39h228v-39l-78 -12l103 -307l112 307l-74 12v39h221v-39l-74 -13l114 -304l93 303z" />
    <glyph glyph-name="x" unicode="x" horiz-adv-x="526" 
d="M316 436v39h187v-39l-59 -11l-143 -176l139 -199l76 -14v-36h-244v36l71 13l-98 143l-110 -143l75 -13v-36h-200v36l64 12l146 181l-134 196l-69 11v39h223v-39l-61 -11l96 -139l107 137z" />
    <glyph glyph-name="y" unicode="y" horiz-adv-x="512" 
d="M92 -249q-38 0 -65 18.5t-27 47.5q5 21 24 32.5t43 11.5q37 0 74 -38l5 -5q56 48 90 144l4 12l-181 457l-55 8v36h240v-37l-88 -10l125 -341l123 340l-87 12v36h195v-36l-54 -11l-161 -425q-51 -135 -97.5 -193.5t-107.5 -58.5z" />
    <glyph glyph-name="z" unicode="z" horiz-adv-x="456" 
d="M43 475h373v-36l-285 -397h218l30 121h52l-10 -163h-392v35l286 397h-201l-27 -111l-52 4z" />
    <glyph glyph-name="braceleft" unicode="{" horiz-adv-x="344" 
d="M40 258v40q119 16 119 92q0 23 -21 91t-21 113q0 59 40 90t112 31h45v-40l-27 -3q-54 -6 -75.5 -23t-21.5 -59t11 -108t11 -81q0 -103 -93 -123q93 -20 93 -123q0 -15 -11 -81t-11 -108t21.5 -59t75.5 -23l27 -3v-40h-45q-72 0 -112 31t-40 90q0 45 21 113t21 91
q0 76 -119 92z" />
    <glyph glyph-name="bar" unicode="|" horiz-adv-x="251" 
d="M96 -250v1000h59v-1000h-59z" />
    <glyph glyph-name="braceright" unicode="}" horiz-adv-x="344" 
d="M304 298v-40q-119 -16 -119 -92q0 -23 21 -91t21 -113q0 -59 -40 -90t-112 -31h-45v40l27 3q54 6 75.5 23t21.5 59t-11 108t-11 81q0 103 93 123q-93 20 -93 123q0 15 11 81t11 108t-21.5 59t-75.5 23l-27 3v40h45q72 0 112 -31t40 -90q0 -45 -21 -113t-21 -91
q0 -76 119 -92z" />
    <glyph glyph-name="asciitilde" unicode="~" horiz-adv-x="531" 
d="M285 367q44 -41 83 -41q52 0 64 91l50 -8q-8 -141 -120 -141q-54 0 -115 55q-45 41 -84 41q-51 0 -63 -91l-51 8q9 141 120 141q53 0 116 -55z" />
    <glyph glyph-name="exclamdown" unicode="&#xa1;" horiz-adv-x="289" 
d="M144 488q27 0 46 -19.5t19 -45.5t-19 -45.5t-46 -19.5t-45.5 19t-18.5 46t18.5 46t45.5 19zM144 -209q-57 0 -57 63q0 21 25 269l14 137h37l13 -137q26 -241 26 -269q0 -63 -58 -63z" />
    <glyph glyph-name="cent" unicode="&#xa2;" horiz-adv-x="500" 
d="M289 -45h-41v108q-93 6 -149 73.5t-56 177.5q0 105 59 173t146 79v94h41v-92q63 -4 109 -40t55 -90q-8 -38 -47 -38q-46 0 -64 76l-9 39q-25 7 -44 8v-397q43 2 81 22t61 56l24 -13q-39 -118 -166 -128v-108zM130 323q0 -80 32 -130.5t86 -62.5v390q-54 -12 -86 -63
t-32 -134z" />
    <glyph glyph-name="sterling" unicode="&#xa3;" horiz-adv-x="500" 
d="M35 0v52q52 29 82 83.5t30 114.5q0 19 -3 34h-103v51h88q-3 9 -12.5 30.5t-13.5 33.5t-8.5 33.5t-4.5 42.5q0 79 52.5 131.5t134.5 52.5q70 0 120.5 -41t54.5 -105q-12 -32 -46 -32q-45 0 -59 67l-14 61q-20 5 -41 5q-50 0 -80 -33t-30 -102q0 -20 2 -41t4 -34.5
l5.5 -35.5t5.5 -33h185v-51h-180q1 -9 1 -27q-1 -116 -76 -175h337v-82h-431z" />
    <glyph glyph-name="currency" unicode="&#xa4;" horiz-adv-x="502" 
d="M143 329q0 -49 31.5 -80.5t76.5 -31.5t76.5 31.5t31.5 80.5t-31.5 80t-76.5 31t-76.5 -31t-31.5 -80zM86 329q0 62 37 105l-36 22q-33 19 -45.5 32t-12.5 27q0 15 10.5 25.5t25.5 10.5q14 0 27 -12.5t32 -45.5l22 -37q45 36 105 36t105 -36l22 37q20 33 32.5 45.5
t26.5 12.5q15 0 26 -10.5t11 -25.5q0 -14 -12.5 -27t-45.5 -32l-37 -22q37 -43 37 -105t-37 -105l37 -22q33 -20 45.5 -32.5t12.5 -26.5q0 -15 -11 -26t-26 -11q-14 0 -26.5 12.5t-32.5 45.5l-22 37q-46 -35 -105 -35t-105 35l-22 -37q-19 -33 -32 -45.5t-27 -12.5
q-15 0 -25.5 10.5t-10.5 26.5q0 14 12.5 26.5t45.5 32.5l36 22q-37 43 -37 105z" />
    <glyph glyph-name="yen" unicode="&#xa5;" horiz-adv-x="500" 
d="M50 148v50h160v72h-160v50h138l-131 278l-68 9v39h243v-39l-77 -10l116 -268l121 267l-73 11v39h192v-39l-71 -12l-126 -275h143v-50h-166l-1 -3v-69h167v-50h-167q0 -29 2 -97l105 -11v-40h-292v40l103 11q0 16 0.5 48.5t1.5 48.5h-160z" />
    <glyph glyph-name="brokenbar" unicode="&#xa6;" horiz-adv-x="251" 
d="M96 -250v450h59v-450h-59zM155 320h-59v430h59v-430z" />
    <glyph glyph-name="section" unicode="&#xa7;" horiz-adv-x="491" 
d="M263 684q68 0 114.5 -32.5t47.5 -77.5q-14 -36 -47 -36q-40 0 -67 55l-22 45q-6 1 -18 1q-51 0 -77.5 -22t-26.5 -54q0 -42 31 -69t91 -54q83 -38 120 -73.5t37 -94.5q0 -81 -80 -131q34 -40 34 -89q0 -62 -47 -107.5t-127 -45.5q-67 0 -113.5 33t-46.5 78q12 35 47 35
q40 0 66 -54l23 -45q5 -1 16 -1q52 0 79 24t27 61q0 38 -27.5 61t-95.5 55q-80 38 -118 74t-38 98q0 80 81 127q-36 43 -36 97q0 57 45 99.5t128 42.5zM239 224q64 -28 100 -58q36 36 36 83q0 20 -8 36t-28.5 30t-37.5 22.5t-52 24.5q-63 29 -98 59q-36 -33 -36 -78
q0 -22 9.5 -39.5t30.5 -32.5t37 -23.5t47 -23.5z" />
    <glyph glyph-name="dieresis" unicode="&#xa8;" horiz-adv-x="400" 
d="M305 596q-25 0 -42.5 16.5t-17.5 40.5t17.5 40.5t42.5 16.5q24 0 41.5 -16.5t17.5 -40.5t-17.5 -40.5t-41.5 -16.5zM95 596q-24 0 -41.5 16.5t-17.5 40.5t17.5 40.5t41.5 16.5q25 0 42.5 -16.5t17.5 -40.5t-17.5 -40.5t-42.5 -16.5z" />
    <glyph glyph-name="copyright" unicode="&#xa9;" horiz-adv-x="755" 
d="M81 337q0 -142 84 -227t213 -85t213 85.5t84 226.5q0 140 -84 223.5t-213 83.5t-213 -83t-84 -224zM30 337q0 159 99 253t249 94q149 0 248 -94t99 -253q0 -160 -99 -256t-248 -96t-248.5 96t-99.5 256zM402 175q28 0 58 11l11 71h44l-3 -95q-53 -28 -118 -28
q-87 0 -141.5 57t-54.5 146q0 88 55.5 146t139.5 58q64 0 114 -28l2 -95h-43l-11 72q-25 12 -53 12q-57 0 -94 -43t-37 -121t35.5 -120.5t95.5 -42.5z" />
    <glyph glyph-name="ordfeminine" unicode="&#xaa;" horiz-adv-x="351" 
d="M284 488q0 -31 20 -31q12 0 26 15l15 -13q-20 -41 -62 -41q-55 0 -65 52q-30 -30 -50.5 -42t-49.5 -12q-39 0 -64.5 22t-25.5 61q0 33 24.5 57.5t91.5 45.5q12 3 39 10.5t33 9.5v18q0 45 -13.5 61.5t-48.5 16.5q-13 0 -31 -3l-10 -38q-7 -44 -41 -44q-30 0 -35 30
q8 39 45 62.5t93 23.5q57 0 83 -27.5t26 -90.5v-143zM98 512q0 -25 14.5 -37t36.5 -12q14 0 25 6t42 27v100q-41 -11 -56 -17q-62 -23 -62 -67z" />
    <glyph glyph-name="guillemotleft" unicode="&#xab;" horiz-adv-x="487" 
d="M235 50l-205 176v53l205 176l24 -27l-150 -175l150 -176zM437 50l-205 176v53l205 176l24 -27l-150 -175l150 -176z" />
    <glyph glyph-name="logicalnot" unicode="&#xac;" horiz-adv-x="531" 
d="M24 343v57h473v-241h-62v184h-411z" />
    <glyph glyph-name="registered" unicode="&#xae;" horiz-adv-x="459" 
d="M65 516q0 -75 47.5 -121.5t116.5 -46.5t117 46.5t48 121.5q0 74 -47.5 119.5t-117.5 45.5q-69 0 -116.5 -45.5t-47.5 -119.5zM30 516q0 89 58 142.5t141 53.5q84 0 142 -53.5t58 -142.5q0 -90 -58 -144.5t-142 -54.5q-85 0 -142 54.5t-57 144.5zM336 434v-15
q-17 -4 -30 -4q-19 0 -27.5 5.5t-11.5 20.5l-9 43q-4 24 -35 24h-14v-71l28 -3v-15h-100v15l29 3v164l-29 3v16h95q35 0 55.5 -14t20.5 -37q0 -40 -49 -52q38 -8 45 -39l8 -41zM222 603h-13v-78h13q40 0 40 40q0 38 -40 38z" />
    <glyph glyph-name="macron" unicode="&#x2c9;" horiz-adv-x="400" 
d="M69 596v63h262v-63h-262z" />
    <glyph glyph-name="macron" unicode="&#xaf;" horiz-adv-x="400" 
d="M69 596v63h262v-63h-262z" />
    <glyph glyph-name="degree" unicode="&#xb0;" horiz-adv-x="328" 
d="M164 464q36 0 60.5 26t24.5 65t-24.5 66.5t-60.5 27.5t-60.5 -27.5t-24.5 -66.5t24.5 -65t60.5 -26zM164 428q-53 0 -90 35t-37 92t37 93t90 36t90 -36t37 -93t-37 -92t-90 -35z" />
    <glyph glyph-name="plusminus" unicode="&#xb1;" horiz-adv-x="531" 
d="M502 0h-473v58h473v-58zM235 98v204h-206v58h206v198h61v-198h206v-58h-206v-204h-61z" />
    <glyph glyph-name="two.sups" unicode="&#xb2;" horiz-adv-x="370" 
d="M54 425v50l93 89q88 85 88 155q0 38 -19.5 58t-55.5 20q-8 0 -26 -2l-10 -39q-6 -28 -15.5 -39t-23.5 -11q-24 0 -37 24q4 49 43 75t96 26q61 0 91 -30t30 -74q0 -41 -28 -79.5t-101 -105.5l-51 -47h195v-70h-269z" />
    <glyph glyph-name="three.sups" unicode="&#xb3;" horiz-adv-x="370" 
d="M129 653h25q82 0 82 72q0 35 -19.5 53.5t-53.5 18.5q-6 0 -24 -2l-7 -36q-7 -42 -39 -42q-23 0 -34 21q6 46 40 69.5t84 23.5q56 0 90 -27t34 -71q0 -35 -20.5 -62t-54.5 -36q93 -17 93 -104q0 -58 -42.5 -86.5t-103.5 -28.5q-118 0 -134 95q9 26 35 26q30 0 39 -48
l8 -36q15 -4 33 -4q44 0 68 22.5t24 62.5q0 79 -93 79h-30v40z" />
    <glyph glyph-name="acute" unicode="&#x2ca;" horiz-adv-x="400" 
d="M140 576q42 70 89 141q25 41 54 41q16 0 27 -10t11 -28q0 -23 -34 -55l-121 -108z" />
    <glyph glyph-name="acute" unicode="&#xb4;" horiz-adv-x="400" 
d="M140 576q42 70 89 141q25 41 54 41q16 0 27 -10t11 -28q0 -23 -34 -55l-121 -108z" />
    <glyph glyph-name="mu" unicode="&#x3bc;" horiz-adv-x="569" 
d="M79 -180l21 282l-15 367l85 19l11 -10l-11 -178.5t-8 -152.5q37 -83 109 -83q41 0 69.5 22.5t52.5 83.5l-6 299l86 19l10 -10l-10 -124.5t-8.5 -99.5t-4 -60t-0.5 -58q1 -47 10.5 -63.5t34.5 -16.5q19 0 41 9l9 -25q-28 -53 -84 -53q-39 0 -55.5 28t-20.5 87
q-47 -115 -134 -115q-31 0 -62 20t-50 57l25 -236l-83 -18z" />
    <glyph glyph-name="mu" unicode="&#xb5;" horiz-adv-x="569" 
d="M79 -180l21 282l-15 367l85 19l11 -10l-11 -178.5t-8 -152.5q37 -83 109 -83q41 0 69.5 22.5t52.5 83.5l-6 299l86 19l10 -10l-10 -124.5t-8.5 -99.5t-4 -60t-0.5 -58q1 -47 10.5 -63.5t34.5 -16.5q19 0 41 9l9 -25q-28 -53 -84 -53q-39 0 -55.5 28t-20.5 87
q-47 -115 -134 -115q-31 0 -62 20t-50 57l25 -236l-83 -18z" />
    <glyph glyph-name="paragraph" unicode="&#xb6;" horiz-adv-x="598" 
d="M316 623v-474q-136 1 -213.5 73.5t-77.5 189.5t89.5 187t240.5 70h199v-41l-92 -11q-2 -84 -2 -258v-178q0 -207 3 -310h-82q3 101 3 310v442h-68z" />
    <glyph glyph-name="periodcentered" unicode="&#xb7;" horiz-adv-x="300" 
d="M150 261q-30 0 -50.5 21t-20.5 50q0 30 20.5 51t50.5 21t50.5 -21t20.5 -51q0 -29 -20.5 -50t-50.5 -21z" />
    <glyph glyph-name="cedilla" unicode="&#xb8;" horiz-adv-x="400" 
d="M146 -86l13 89h37l-8 -61q41 -6 66.5 -27t25.5 -55q0 -36 -29.5 -58t-82.5 -22q-34 0 -63 9l7 31q24 -3 48 -3q58 0 58 45q0 23 -17 35t-55 17z" />
    <glyph glyph-name="one.sups" unicode="&#xb9;" horiz-adv-x="370" 
d="M79 796l139 32l9 -6v-352l88 -16v-29h-249v29l90 16v295l-77 -6v37z" />
    <glyph glyph-name="ordmasculine" unicode="&#xba;" horiz-adv-x="377" 
d="M189 714q-91 0 -91 -132t91 -132q90 0 90 132t-90 132zM189 749q64 0 112 -46t48 -121q0 -76 -47 -121.5t-113 -45.5t-113.5 45.5t-47.5 121.5t47.5 121.5t113.5 45.5z" />
    <glyph glyph-name="guillemotright" unicode="&#xbb;" horiz-adv-x="487" 
d="M50 455l205 -176v-53l-205 -176l-24 27l150 176l-150 175zM252 455l205 -176v-53l-205 -176l-24 27l150 176l-150 175z" />
    <glyph glyph-name="onequarter" unicode="&#xbc;" horiz-adv-x="861" 
d="M238 -25l-31 25l465 669l31 -25zM80 624l139 32l9 -6v-352l88 -16v-29h-249v29l90 16v295l-77 -6v37zM480 101v46l188 256h47v-245h64v-57h-64v-101h-65v101h-170zM529 158h121v173z" />
    <glyph glyph-name="onehalf" unicode="&#xbd;" horiz-adv-x="861" 
d="M206 -25l-31 25l465 669l31 -25zM72 624l139 32l9 -6v-352l88 -16v-29h-249v29l90 16v295l-77 -6v37zM518 0v50l93 89q88 85 88 155q0 38 -19.5 58t-55.5 20q-8 0 -26 -2l-10 -39q-6 -28 -15.5 -39t-23.5 -11q-24 0 -37 24q4 49 43 75t96 26q61 0 91 -30t30 -74
q0 -41 -28 -79.5t-101 -105.5l-51 -47h195v-70h-269z" />
    <glyph glyph-name="threequarters" unicode="&#xbe;" horiz-adv-x="861" 
d="M247 -25l-31 25l465 669l31 -25zM162 481h25q82 0 82 72q0 35 -19.5 53.5t-53.5 18.5q-6 0 -24 -2l-7 -36q-7 -42 -39 -42q-24 0 -34 21q6 46 40 69.5t84 23.5q56 0 90 -27t34 -71q0 -35 -20.5 -62t-54.5 -36q93 -17 93 -104q0 -58 -42.5 -86.5t-103.5 -28.5
q-118 0 -134 95q9 26 35 26q30 0 39 -48l8 -36q15 -4 33 -4q44 0 68 22.5t24 62.5q0 79 -93 79h-30v40zM489 101v46l188 256h47v-245h64v-57h-64v-101h-65v101h-170zM538 158h121v173z" />
    <glyph glyph-name="questiondown" unicode="&#xbf;" horiz-adv-x="416" 
d="M267 489q27 0 45.5 -19t18.5 -46t-18.5 -46t-45.5 -19t-46 19.5t-19 45.5t19 45.5t46 19.5zM66 15q0 94 100 126l34 12q31 10 39 20t8 35v55h39l12 -42q16 -52 16 -70q0 -23 -18 -38t-62 -28l-57 -18q-56 -19 -56 -69q0 -35 26 -74l131 -23q42 -8 57 -21t15 -33
q0 -41 -55 -55q-75 7 -152 71t-77 152z" />
    <glyph glyph-name="Agrave" unicode="&#xc0;" horiz-adv-x="664" 
d="M309 562l-101 -298h201zM5 0v41l84 13l213 620h63l213 -624l75 -9v-41h-272v41l98 12l-55 164h-232l-56 -163l98 -13v-41h-229zM397 745l-18 -25l-126 67q-50 28 -50 56q0 15 11 24.5t27 9.5q24 0 62 -38q49 -46 94 -94z" />
    <glyph glyph-name="Aacute" unicode="&#xc1;" horiz-adv-x="664" 
d="M309 562l-101 -298h201zM5 0v41l84 13l213 620h63l213 -624l75 -9v-41h-272v41l98 12l-55 164h-232l-56 -163l98 -13v-41h-229zM266 745q46 49 94 94q38 38 62 38q16 0 27 -9.5t11 -24.5q0 -27 -50 -55l-126 -68z" />
    <glyph glyph-name="Acircumflex" unicode="&#xc2;" horiz-adv-x="664" 
d="M309 562l-101 -298h201zM5 0v41l84 13l213 620h63l213 -624l75 -9v-41h-272v41l98 12l-55 164h-232l-56 -163l98 -13v-41h-229zM349 837l131 -115l-19 -25l-129 74l-129 -74l-19 25l131 115h34z" />
    <glyph glyph-name="Atilde" unicode="&#xc3;" horiz-adv-x="664" 
d="M309 562l-101 -298h201zM5 0v41l84 13l213 620h63l213 -624l75 -9v-41h-272v41l98 12l-55 164h-232l-56 -163l98 -13v-41h-229zM151 734q20 129 105 129q38 0 81 -34q6 -5 17.5 -15.5t19 -16.5t18 -11t21.5 -5q44 0 68 80l30 -10q-22 -128 -104 -128q-39 0 -82 33
q-5 4 -17.5 15.5t-19 17t-17.5 10.5t-22 5q-44 0 -68 -79z" />
    <glyph glyph-name="Adieresis" unicode="&#xc4;" horiz-adv-x="664" 
d="M309 562l-101 -298h201zM5 0v41l84 13l213 620h63l213 -624l75 -9v-41h-272v41l98 12l-55 164h-232l-56 -163l98 -13v-41h-229zM220 744q-24 0 -41 15.5t-17 39.5t17 39.5t41 15.5t40.5 -15.5t16.5 -39.5t-16.5 -39.5t-40.5 -15.5zM443 744q-24 0 -40.5 15.5t-16.5 39.5
t16.5 39.5t40.5 15.5t41 -15.5t17 -39.5t-17 -39.5t-41 -15.5z" />
    <glyph glyph-name="Aring" unicode="&#xc5;" horiz-adv-x="664" 
d="M309 562l-101 -298h201zM5 0v41l84 13l213 620h63l213 -624l75 -9v-41h-272v41l98 12l-55 164h-232l-56 -163l98 -13v-41h-229zM332 757q24 0 38 17.5t14 39.5q0 23 -14 39.5t-38 16.5t-38 -16.5t-14 -39.5t14 -40t38 -17zM332 722q-39 0 -67.5 25t-28.5 67t28.5 67.5
t67.5 25.5t67.5 -25t28.5 -68q0 -41 -28.5 -66.5t-67.5 -25.5z" />
    <glyph glyph-name="AE" unicode="&#xc6;" horiz-adv-x="920" 
d="M277 295h181v318h-10zM5 0v41l83 11l307 565l-77 11v41h541l7 -177h-58l-22 127h-237q-2 -85 -2 -254h151l14 95h46v-236h-46l-13 94h-152q0 -185 2 -268h257l22 128h58l-7 -178h-511v41l88 11q2 124 2 197h-206l-105 -195l87 -13v-41h-229z" />
    <glyph glyph-name="Ccedilla" unicode="&#xc7;" horiz-adv-x="631" 
d="M391 35q64 0 119 27l20 116h62l-4 -145q-88 -48 -200 -48l-6 -43q41 -6 66.5 -27t25.5 -55q0 -36 -29.5 -58t-82.5 -22q-34 0 -63 9l7 31q24 -3 48 -3q58 0 58 45q0 23 -17 35t-55 17l11 73q-137 11 -220.5 106.5t-83.5 241.5q0 151 96 250t242 99q111 0 193 -48l4 -145
h-62l-20 116q-49 27 -102 27q-105 0 -173.5 -79t-68.5 -220q0 -143 64.5 -221.5t170.5 -78.5z" />
    <glyph glyph-name="Egrave" unicode="&#xc8;" horiz-adv-x="603" 
d="M138 310v49q0 172 -2 258l-92 11v41h498l7 -177h-57l-22 127h-235q-2 -85 -2 -254h147l14 95h46v-236h-46l-13 94h-148q0 -185 2 -268h255l22 128h57l-7 -178h-518v41l92 11q2 84 2 258zM368 745l-18 -25l-126 67q-50 28 -50 56q0 15 11 24.5t27 9.5q24 0 62 -38
q49 -46 94 -94z" />
    <glyph glyph-name="Eacute" unicode="&#xc9;" horiz-adv-x="603" 
d="M138 310v49q0 172 -2 258l-92 11v41h498l7 -177h-57l-22 127h-235q-2 -85 -2 -254h147l14 95h46v-236h-46l-13 94h-148q0 -185 2 -268h255l22 128h57l-7 -178h-518v41l92 11q2 84 2 258zM274 745q46 49 94 94q38 38 62 38q16 0 27 -9.5t11 -24.5q0 -27 -50 -55l-126 -68z
" />
    <glyph glyph-name="Ecircumflex" unicode="&#xca;" horiz-adv-x="603" 
d="M138 310v49q0 172 -2 258l-92 11v41h498l7 -177h-57l-22 127h-235q-2 -85 -2 -254h147l14 95h46v-236h-46l-13 94h-148q0 -185 2 -268h255l22 128h57l-7 -178h-518v41l92 11q2 84 2 258zM358 856l131 -115l-19 -25l-129 74l-129 -74l-19 25l131 115h34z" />
    <glyph glyph-name="Edieresis" unicode="&#xcb;" horiz-adv-x="603" 
d="M138 310v49q0 172 -2 258l-92 11v41h498l7 -177h-57l-22 127h-235q-2 -85 -2 -254h147l14 95h46v-236h-46l-13 94h-148q0 -185 2 -268h255l22 128h57l-7 -178h-518v41l92 11q2 84 2 258zM213 744q-24 0 -41 15.5t-17 39.5t17 39.5t41 15.5t40.5 -15.5t16.5 -39.5
t-16.5 -39.5t-40.5 -15.5zM436 744q-24 0 -40.5 15.5t-16.5 39.5t16.5 39.5t40.5 15.5t41 -15.5t17 -39.5t-17 -39.5t-41 -15.5z" />
    <glyph glyph-name="Igrave" unicode="&#xcc;" horiz-adv-x="371" 
d="M138 310v49q0 172 -2 258l-92 11v41h283v-41l-92 -11q-2 -84 -2 -258v-49q0 -172 2 -258l92 -11v-41h-283v41l92 11q2 84 2 258zM252 745l-18 -25l-126 67q-50 28 -50 56q0 15 11 24.5t27 9.5q24 0 62 -38q49 -46 94 -94z" />
    <glyph glyph-name="Iacute" unicode="&#xcd;" horiz-adv-x="371" 
d="M138 310v49q0 172 -2 258l-92 11v41h283v-41l-92 -11q-2 -84 -2 -258v-49q0 -172 2 -258l92 -11v-41h-283v41l92 11q2 84 2 258zM138 745q46 49 94 94q38 38 62 38q16 0 27 -9.5t11 -24.5q0 -27 -50 -55l-126 -68z" />
    <glyph glyph-name="Icircumflex" unicode="&#xce;" horiz-adv-x="371" 
d="M138 310v49q0 172 -2 258l-92 11v41h283v-41l-92 -11q-2 -84 -2 -258v-49q0 -172 2 -258l92 -11v-41h-283v41l92 11q2 84 2 258zM202 856l131 -115l-19 -25l-129 74l-129 -74l-19 25l131 115h34z" />
    <glyph glyph-name="Idieresis" unicode="&#xcf;" horiz-adv-x="371" 
d="M138 310v49q0 172 -2 258l-92 11v41h283v-41l-92 -11q-2 -84 -2 -258v-49q0 -172 2 -258l92 -11v-41h-283v41l92 11q2 84 2 258zM74 744q-24 0 -41 15.5t-17 39.5t17 39.5t41 15.5t40.5 -15.5t16.5 -39.5t-16.5 -39.5t-40.5 -15.5zM297 744q-24 0 -40.5 15.5t-16.5 39.5
t16.5 39.5t40.5 15.5t41 -15.5t17 -39.5t-17 -39.5t-41 -15.5z" />
    <glyph glyph-name="Eth" unicode="&#xd0;" horiz-adv-x="710" 
d="M44 628v41h295q147 0 235.5 -88t88.5 -247q0 -157 -96 -245.5t-247 -88.5h-276v41l92 11q2 85 2 267h-94v47h94q0 170 -2 251zM386 319h-153q0 -188 2 -272h79q115 0 177.5 75t62.5 212q0 140 -60.5 214.5t-170.5 74.5h-88q-2 -86 -2 -257h153v-47z" />
    <glyph glyph-name="Ntilde" unicode="&#xd1;" horiz-adv-x="735" 
d="M454 628v41h241v-41l-85 -13v-622h-35l-400 545v-483l106 -14v-41h-242v41l85 12v555l-9 12l-71 8v41h154l361 -496v442zM196 724q20 129 105 129q38 0 81 -34q6 -5 17.5 -15.5t19 -16.5t18 -11t21.5 -5q44 0 68 80l30 -10q-22 -128 -104 -128q-39 0 -82 33
q-5 4 -17.5 15.5t-19 17t-17.5 10.5t-22 5q-44 0 -68 -79z" />
    <glyph glyph-name="Ograve" unicode="&#xd2;" horiz-adv-x="707" 
d="M156 335q0 -79 19.5 -145t66 -110.5t112.5 -44.5t112 44.5t65 110t19 145.5q0 125 -49.5 212t-146.5 87q-66 0 -112.5 -44.5t-66 -110t-19.5 -144.5zM354 684q124 0 215 -93.5t91 -255.5q0 -158 -91.5 -254t-214.5 -96q-125 0 -216 93.5t-91 256.5q0 157 92 253t215 96z
M419 745l-18 -25l-126 67q-50 28 -50 56q0 15 11 24.5t27 9.5q24 0 62 -38q49 -46 94 -94z" />
    <glyph glyph-name="Oacute" unicode="&#xd3;" horiz-adv-x="707" 
d="M156 335q0 -79 19.5 -145t66 -110.5t112.5 -44.5t112 44.5t65 110t19 145.5q0 125 -49.5 212t-146.5 87q-66 0 -112.5 -44.5t-66 -110t-19.5 -144.5zM354 684q124 0 215 -93.5t91 -255.5q0 -158 -91.5 -254t-214.5 -96q-125 0 -216 93.5t-91 256.5q0 157 92 253t215 96z
M307 745q46 49 94 94q38 38 62 38q16 0 27 -9.5t11 -24.5q0 -27 -50 -55l-126 -68z" />
    <glyph glyph-name="Ocircumflex" unicode="&#xd4;" horiz-adv-x="707" 
d="M156 335q0 -79 19.5 -145t66 -110.5t112.5 -44.5t112 44.5t65 110t19 145.5q0 125 -49.5 212t-146.5 87q-66 0 -112.5 -44.5t-66 -110t-19.5 -144.5zM354 684q124 0 215 -93.5t91 -255.5q0 -158 -91.5 -254t-214.5 -96q-125 0 -216 93.5t-91 256.5q0 157 92 253t215 96z
M371 856l131 -115l-19 -25l-129 74l-129 -74l-19 25l131 115h34z" />
    <glyph glyph-name="Otilde" unicode="&#xd5;" horiz-adv-x="707" 
d="M156 335q0 -79 19.5 -145t66 -110.5t112.5 -44.5t112 44.5t65 110t19 145.5q0 125 -49.5 212t-146.5 87q-66 0 -112.5 -44.5t-66 -110t-19.5 -144.5zM354 684q124 0 215 -93.5t91 -255.5q0 -158 -91.5 -254t-214.5 -96q-125 0 -216 93.5t-91 256.5q0 157 92 253t215 96z
M174 734q20 129 105 129q38 0 81 -34q6 -5 17.5 -15.5t19 -16.5t18 -11t21.5 -5q44 0 68 80l30 -10q-22 -128 -104 -128q-39 0 -82 33q-5 4 -17.5 15.5t-19 17t-17.5 10.5t-22 5q-44 0 -68 -79z" />
    <glyph glyph-name="Odieresis" unicode="&#xd6;" horiz-adv-x="707" 
d="M156 335q0 -79 19.5 -145t66 -110.5t112.5 -44.5t112 44.5t65 110t19 145.5q0 125 -49.5 212t-146.5 87q-66 0 -112.5 -44.5t-66 -110t-19.5 -144.5zM354 684q124 0 215 -93.5t91 -255.5q0 -158 -91.5 -254t-214.5 -96q-125 0 -216 93.5t-91 256.5q0 157 92 253t215 96z
M242 744q-24 0 -41 15.5t-17 39.5t17 39.5t41 15.5t40.5 -15.5t16.5 -39.5t-16.5 -39.5t-40.5 -15.5zM465 744q-24 0 -40.5 15.5t-16.5 39.5t16.5 39.5t40.5 15.5t41 -15.5t17 -39.5t-17 -39.5t-41 -15.5z" />
    <glyph glyph-name="multiply" unicode="&#xd7;" horiz-adv-x="531" 
d="M447 107l-181 182l-182 -182l-41 41l182 182l-182 181l41 41l182 -181l181 181l41 -41l-181 -181l181 -182z" />
    <glyph glyph-name="Oslash" unicode="&#xd8;" horiz-adv-x="707" 
d="M646 656l-65 -79q79 -95 79 -242q0 -158 -91.5 -254t-214.5 -96q-111 0 -195 73l-64 -79l-43 34l69 85q-74 95 -74 237q0 157 92 253t215 96q108 0 189 -69l61 75zM146 335q0 -93 30 -170l323 396q-56 73 -145 73q-70 0 -118.5 -44.5t-69 -110t-20.5 -144.5zM560 335
q0 102 -33 175l-322 -396q54 -79 149 -79q102 0 154 87.5t52 212.5z" />
    <glyph glyph-name="Ugrave" unicode="&#xd9;" horiz-adv-x="727" 
d="M218 281q0 -122 42.5 -173.5t123.5 -51.5q87 0 129 56t42 186v317l-102 13v41h240v-41l-87 -11v-343q0 -150 -64.5 -219.5t-174.5 -69.5q-114 0 -178.5 66t-64.5 201v108q0 172 -2 258l-83 10v41h283v-41l-102 -12q-2 -84 -2 -256v-79zM431 735l-18 -25l-126 67
q-50 28 -50 56q0 15 11 24.5t27 9.5q24 0 62 -38q49 -46 94 -94z" />
    <glyph glyph-name="Uacute" unicode="&#xda;" horiz-adv-x="727" 
d="M218 281q0 -122 42.5 -173.5t123.5 -51.5q87 0 129 56t42 186v317l-102 13v41h240v-41l-87 -11v-343q0 -150 -64.5 -219.5t-174.5 -69.5q-114 0 -178.5 66t-64.5 201v108q0 172 -2 258l-83 10v41h283v-41l-102 -12q-2 -84 -2 -256v-79zM327 735q46 49 94 94q38 38 62 38
q16 0 27 -9.5t11 -24.5q0 -27 -50 -55l-126 -68z" />
    <glyph glyph-name="Ucircumflex" unicode="&#xdb;" horiz-adv-x="727" 
d="M218 281q0 -122 42.5 -173.5t123.5 -51.5q87 0 129 56t42 186v317l-102 13v41h240v-41l-87 -11v-343q0 -150 -64.5 -219.5t-174.5 -69.5q-114 0 -178.5 66t-64.5 201v108q0 172 -2 258l-83 10v41h283v-41l-102 -12q-2 -84 -2 -256v-79zM400 846l131 -115l-19 -25l-129 74
l-129 -74l-19 25l131 115h34z" />
    <glyph glyph-name="Udieresis" unicode="&#xdc;" horiz-adv-x="727" 
d="M218 281q0 -122 42.5 -173.5t123.5 -51.5q87 0 129 56t42 186v317l-102 13v41h240v-41l-87 -11v-343q0 -150 -64.5 -219.5t-174.5 -69.5q-114 0 -178.5 66t-64.5 201v108q0 172 -2 258l-83 10v41h283v-41l-102 -12q-2 -84 -2 -256v-79zM285 744q-24 0 -41 15.5t-17 39.5
t17 39.5t41 15.5t40.5 -15.5t16.5 -39.5t-16.5 -39.5t-40.5 -15.5zM508 744q-24 0 -40.5 15.5t-16.5 39.5t16.5 39.5t40.5 15.5t41 -15.5t17 -39.5t-17 -39.5t-41 -15.5z" />
    <glyph glyph-name="Yacute" unicode="&#xdd;" horiz-adv-x="633" 
d="M394 628v41h229v-41l-88 -13l-170 -352q0 -147 2 -211l102 -11v-41h-302v41l102 11q2 62 2 207l-177 360l-79 9v41h282v-41l-95 -11l139 -303l143 302zM305 735q46 49 94 94q38 38 62 38q16 0 27 -9.5t11 -24.5q0 -27 -50 -55l-126 -68z" />
    <glyph glyph-name="Thorn" unicode="&#xde;" horiz-adv-x="611" 
d="M138 310v49q0 172 -2 258l-92 11v41h288v-41l-97 -11q-1 -27 -1 -82h92q128 0 194 -51t66 -138q0 -39 -13 -70.5t-43 -60.5t-88.5 -45t-140.5 -16h-68q1 -17 1 -51t1 -51l97 -11v-41h-288v41l92 11q2 84 2 258zM233 310v-109h84q85 0 128 40t43 107q0 140 -174 140h-81
v-127v-51z" />
    <glyph glyph-name="germandbls" unicode="&#xdf;" horiz-adv-x="592" 
d="M107 210v209q0 134 34 208q25 56 77.5 89t119.5 33q77 0 125.5 -38t48.5 -98q0 -77 -86 -139q-57 -41 -57 -93q0 -29 16 -46t62 -45q73 -45 98.5 -78t25.5 -81q0 -67 -42.5 -105.5t-127.5 -38.5q-64 0 -140 28l-4 119h49l24 -90q35 -12 66 -12q94 0 94 81q0 28 -17 50.5
t-70 54.5q-57 33 -81.5 61.5t-24.5 77.5q0 74 68 129q35 29 49.5 54t14.5 60q0 49 -26.5 76.5t-79.5 27.5q-91 0 -119 -87q-13 -40 -13 -185v-222q0 -105 3 -210h-169v36l80 14q2 108 2 160z" />
    <glyph glyph-name="agrave" unicode="&#xe0;" horiz-adv-x="509" 
d="M416 -10q-36 0 -60 21t-30 56q-45 -45 -75.5 -62.5t-71.5 -17.5q-58 0 -96 32.5t-38 92.5q0 46 35 81t131 70q58 21 113 33v25q0 70 -21.5 95.5t-72.5 25.5q-29 0 -54 -6l-19 -65q-14 -48 -52 -48q-42 0 -47 41q14 57 66.5 90.5t128.5 33.5q80 0 117.5 -40.5t37.5 -133.5
v-213q0 -59 36 -59q20 0 39 22l20 -22q-32 -52 -87 -52zM311 576l-26 -19l-121 108q-34 32 -34 55q0 18 11 28t27 10q29 0 54 -41q27 -40 89 -141zM134 127q0 -74 80 -74q24 0 44 10t66 42v154q-53 -15 -92 -30q-98 -38 -98 -102z" />
    <glyph glyph-name="aacute" unicode="&#xe1;" horiz-adv-x="509" 
d="M416 -10q-36 0 -60 21t-30 56q-45 -45 -75.5 -62.5t-71.5 -17.5q-58 0 -96 32.5t-38 92.5q0 46 35 81t131 70q58 21 113 33v25q0 70 -21.5 95.5t-72.5 25.5q-29 0 -54 -6l-19 -65q-14 -48 -52 -48q-42 0 -47 41q14 57 66.5 90.5t128.5 33.5q80 0 117.5 -40.5t37.5 -133.5
v-213q0 -59 36 -59q20 0 39 22l20 -22q-32 -52 -87 -52zM219 576q42 70 89 141q25 41 54 41q16 0 27 -10t11 -28q0 -23 -34 -55l-121 -108zM134 127q0 -74 80 -74q24 0 44 10t66 42v154q-53 -15 -92 -30q-98 -38 -98 -102z" />
    <glyph glyph-name="acircumflex" unicode="&#xe2;" horiz-adv-x="509" 
d="M416 -10q-36 0 -60 21t-30 56q-45 -45 -75.5 -62.5t-71.5 -17.5q-58 0 -96 32.5t-38 92.5q0 46 35 81t131 70q58 21 113 33v25q0 70 -21.5 95.5t-72.5 25.5q-29 0 -54 -6l-19 -65q-14 -48 -52 -48q-42 0 -47 41q14 57 66.5 90.5t128.5 33.5q80 0 117.5 -40.5t37.5 -133.5
v-213q0 -59 36 -59q20 0 39 22l20 -22q-32 -52 -87 -52zM378 546l-126 114l-126 -114l-23 22l132 176h34l132 -176zM134 127q0 -74 80 -74q24 0 44 10t66 42v154q-53 -15 -92 -30q-98 -38 -98 -102z" />
    <glyph glyph-name="atilde" unicode="&#xe3;" horiz-adv-x="509" 
d="M416 -10q-36 0 -60 21t-30 56q-45 -45 -75.5 -62.5t-71.5 -17.5q-58 0 -96 32.5t-38 92.5q0 46 35 81t131 70q58 21 113 33v25q0 70 -21.5 95.5t-72.5 25.5q-29 0 -54 -6l-19 -65q-14 -48 -52 -48q-42 0 -47 41q14 57 66.5 90.5t128.5 33.5q80 0 117.5 -40.5t37.5 -133.5
v-213q0 -59 36 -59q20 0 39 22l20 -22q-32 -52 -87 -52zM80 586q18 129 95 129q35 0 73 -34q6 -5 16.5 -15.5l17 -16.5t16.5 -11t19 -5q39 0 62 80l27 -10q-20 -128 -95 -128q-36 0 -73 33l-16 16t-17.5 16.5t-16.5 10.5t-19 5q-39 0 -62 -79zM134 127q0 -74 80 -74
q24 0 44 10t66 42v154q-53 -15 -92 -30q-98 -38 -98 -102z" />
    <glyph glyph-name="adieresis" unicode="&#xe4;" horiz-adv-x="509" 
d="M416 -10q-36 0 -60 21t-30 56q-45 -45 -75.5 -62.5t-71.5 -17.5q-58 0 -96 32.5t-38 92.5q0 46 35 81t131 70q58 21 113 33v25q0 70 -21.5 95.5t-72.5 25.5q-29 0 -54 -6l-19 -65q-14 -48 -52 -48q-42 0 -47 41q14 57 66.5 90.5t128.5 33.5q80 0 117.5 -40.5t37.5 -133.5
v-213q0 -59 36 -59q20 0 39 22l20 -22q-32 -52 -87 -52zM145 596q-24 0 -41.5 16.5t-17.5 40.5t17.5 40.5t41.5 16.5q25 0 42.5 -16.5t17.5 -40.5t-17.5 -40.5t-42.5 -16.5zM355 596q-25 0 -42.5 16.5t-17.5 40.5t17.5 40.5t42.5 16.5q24 0 41.5 -16.5t17.5 -40.5
t-17.5 -40.5t-41.5 -16.5zM134 127q0 -74 80 -74q24 0 44 10t66 42v154q-53 -15 -92 -30q-98 -38 -98 -102z" />
    <glyph glyph-name="aring" unicode="&#xe5;" horiz-adv-x="509" 
d="M416 -10q-36 0 -60 21t-30 56q-45 -45 -75.5 -62.5t-71.5 -17.5q-58 0 -96 32.5t-38 92.5q0 46 35 81t131 70q58 21 113 33v25q0 70 -21.5 95.5t-72.5 25.5q-29 0 -54 -6l-19 -65q-14 -48 -52 -48q-42 0 -47 41q14 57 66.5 90.5t128.5 33.5q80 0 117.5 -40.5t37.5 -133.5
v-213q0 -59 36 -59q20 0 39 22l20 -22q-32 -52 -87 -52zM257 590q26 0 41.5 18.5t15.5 43.5t-15.5 43t-41.5 18t-41.5 -18t-15.5 -43t15.5 -43.5t41.5 -18.5zM257 550q-43 0 -74 27.5t-31 74.5q0 45 31.5 73t73.5 28q43 0 74 -27t31 -74q0 -46 -31 -74t-74 -28zM134 127
q0 -74 80 -74q24 0 44 10t66 42v154q-53 -15 -92 -30q-98 -38 -98 -102z" />
    <glyph glyph-name="ae" unicode="&#xe6;" horiz-adv-x="782" 
d="M543 442q-48 0 -86 -39.5t-46 -120.5h182q60 0 60 52q0 44 -32 76t-78 32zM542 -13q-127 0 -186 97q-60 -58 -96 -77.5t-81 -19.5q-57 0 -95.5 33.5t-38.5 93.5q0 46 35 79t131 68q55 19 113 34v26q0 70 -21.5 95.5t-69.5 25.5q-30 0 -54 -6l-20 -69q-14 -48 -54 -48
q-42 0 -47 43q14 57 66.5 91.5t128.5 34.5q102 0 135 -78q70 78 160 78q82 0 135 -52t53 -141q0 -32 -7 -55h-320q1 -90 44.5 -139t118.5 -49q79 0 139 70l23 -19q-59 -116 -192 -116zM134 129q0 -37 23 -56.5t57 -19.5q28 0 52 11.5t75 49.5q-21 50 -21 119q0 16 1 24
q-45 -13 -89 -30q-59 -23 -78.5 -46.5t-19.5 -51.5z" />
    <glyph glyph-name="ccedilla" unicode="&#xe7;" horiz-adv-x="488" 
d="M277 442q-66 0 -106.5 -51.5t-40.5 -144.5q0 -92 44 -143t116 -51q90 0 138 76l25 -13q-40 -119 -168 -127l-6 -46q41 -6 66.5 -27t25.5 -55q0 -36 -29.5 -58t-82.5 -22q-34 0 -63 9l7 31q24 -3 48 -3q58 0 58 45q0 23 -17 35t-55 17l11 74q-95 6 -150.5 72t-55.5 176
q0 114 68 183t163 69q67 0 117 -37t60 -93q-7 -38 -46 -38q-43 0 -55 48l-18 66q-25 8 -54 8z" />
    <glyph glyph-name="egrave" unicode="&#xe8;" horiz-adv-x="510" 
d="M269 442q-48 0 -86 -39.5t-46 -120.5h182q59 0 59 52q0 44 -31.5 76t-77.5 32zM275 488q80 0 133 -52t53 -140q0 -33 -7 -56h-319q1 -91 45 -139.5t117 -48.5q79 0 139 70l24 -19q-60 -116 -192 -116q-102 0 -162.5 66t-60.5 180q0 112 67 183.5t163 71.5zM310 576
l-26 -19l-121 108q-34 32 -34 55q0 18 11 28t27 10q29 0 54 -41q27 -40 89 -141z" />
    <glyph glyph-name="eacute" unicode="&#xe9;" horiz-adv-x="510" 
d="M269 442q-48 0 -86 -39.5t-46 -120.5h182q59 0 59 52q0 44 -31.5 76t-77.5 32zM275 488q80 0 133 -52t53 -140q0 -33 -7 -56h-319q1 -91 45 -139.5t117 -48.5q79 0 139 70l24 -19q-60 -116 -192 -116q-102 0 -162.5 66t-60.5 180q0 112 67 183.5t163 71.5zM225 576
q42 70 89 141q25 41 54 41q16 0 27 -10t11 -28q0 -23 -34 -55l-121 -108z" />
    <glyph glyph-name="ecircumflex" unicode="&#xea;" horiz-adv-x="510" 
d="M269 442q-48 0 -86 -39.5t-46 -120.5h182q59 0 59 52q0 44 -31.5 76t-77.5 32zM275 488q80 0 133 -52t53 -140q0 -33 -7 -56h-319q1 -91 45 -139.5t117 -48.5q79 0 139 70l24 -19q-60 -116 -192 -116q-102 0 -162.5 66t-60.5 180q0 112 67 183.5t163 71.5zM397 546
l-126 114l-126 -114l-23 22l132 176h34l132 -176z" />
    <glyph glyph-name="edieresis" unicode="&#xeb;" horiz-adv-x="510" 
d="M269 442q-48 0 -86 -39.5t-46 -120.5h182q59 0 59 52q0 44 -31.5 76t-77.5 32zM275 488q80 0 133 -52t53 -140q0 -33 -7 -56h-319q1 -91 45 -139.5t117 -48.5q79 0 139 70l24 -19q-60 -116 -192 -116q-102 0 -162.5 66t-60.5 180q0 112 67 183.5t163 71.5zM166 596
q-24 0 -41.5 16.5t-17.5 40.5t17.5 40.5t41.5 16.5q25 0 42.5 -16.5t17.5 -40.5t-17.5 -40.5t-42.5 -16.5zM376 596q-25 0 -42.5 16.5t-17.5 40.5t17.5 40.5t42.5 16.5q24 0 41.5 -16.5t17.5 -40.5t-17.5 -40.5t-41.5 -16.5z" />
    <glyph glyph-name="igrave" unicode="&#xec;" horiz-adv-x="298" 
d="M35 0v36l74 14q2 100 2 160v47q0 66 -3 126l-79 9v35l155 61l15 -10l-3 -136v-132q0 -60 2 -160l69 -14v-36h-232zM197 576l-26 -19l-121 108q-34 32 -34 55q0 18 11 28t27 10q29 0 54 -41q27 -40 89 -141z" />
    <glyph glyph-name="iacute" unicode="&#xed;" horiz-adv-x="298" 
d="M35 0v36l74 14q2 100 2 160v47q0 66 -3 126l-79 9v35l155 61l15 -10l-3 -136v-132q0 -60 2 -160l69 -14v-36h-232zM108 576q42 70 89 141q25 41 54 41q16 0 27 -10t11 -28q0 -23 -34 -55l-121 -108z" />
    <glyph glyph-name="icircumflex" unicode="&#xee;" horiz-adv-x="298" 
d="M35 0v36l74 14q2 100 2 160v47q0 66 -3 126l-79 9v35l155 61l15 -10l-3 -136v-132q0 -60 2 -160l69 -14v-36h-232zM278 546l-126 114l-126 -114l-23 22l132 176h34l132 -176z" />
    <glyph glyph-name="idieresis" unicode="&#xef;" horiz-adv-x="298" 
d="M35 0v36l74 14q2 100 2 160v47q0 66 -3 126l-79 9v35l155 61l15 -10l-3 -136v-132q0 -60 2 -160l69 -14v-36h-232zM39 596q-24 0 -41.5 16.5t-17.5 40.5t17.5 40.5t41.5 16.5q25 0 42.5 -16.5t17.5 -40.5t-17.5 -40.5t-42.5 -16.5zM249 596q-25 0 -42.5 16.5t-17.5 40.5
t17.5 40.5t42.5 16.5q24 0 41.5 -16.5t17.5 -40.5t-17.5 -40.5t-41.5 -16.5z" />
    <glyph glyph-name="eth" unicode="&#xf0;" horiz-adv-x="546" 
d="M262 -13q-89 0 -153 66t-64 181q0 111 65.5 176t155.5 65q81 0 126 -50q-31 103 -93 172l-142 -73l-18 37l130 66q-41 40 -118 89l20 33q91 -43 151 -95l152 78l18 -37l-138 -70q141 -139 141 -345q0 -137 -61.5 -215t-171.5 -78zM271 32q69 0 103.5 55t34.5 156
q0 92 -36 139t-102 47q-64 0 -97.5 -51.5t-33.5 -148.5q0 -95 34 -146t97 -51z" />
    <glyph glyph-name="ntilde" unicode="&#xf1;" horiz-adv-x="606" 
d="M376 488q65 0 96.5 -44t31.5 -141v-93q0 -60 2 -160l70 -14v-36h-232v36l74 14q2 98 2 160v85q0 68 -19 94.5t-64 26.5q-63 0 -136 -60v-146q0 -60 2 -160l69 -14v-36h-232v36l74 14q2 100 2 160v48q0 65 -3 125l-79 9v35l140 61l15 -10l8 -81q38 41 85.5 66t93.5 25z
M139 586q18 129 95 129q35 0 73 -34q6 -5 16.5 -15.5l17 -16.5t16.5 -11t19 -5q39 0 62 80l27 -10q-20 -128 -95 -128q-36 0 -73 33l-16 16t-17.5 16.5t-16.5 10.5t-19 5q-39 0 -62 -79z" />
    <glyph glyph-name="ograve" unicode="&#xf2;" horiz-adv-x="549" 
d="M274 -13q-94 0 -161.5 65.5t-67.5 182.5q0 118 68 185.5t161 67.5t161.5 -67.5t68.5 -185.5q0 -117 -68 -182.5t-162 -65.5zM274 32q65 0 100 51.5t35 151.5q0 101 -35 154t-100 53t-99.5 -53t-34.5 -154q0 -203 134 -203zM319 576l-26 -19l-121 108q-34 32 -34 55
q0 18 11 28t27 10q29 0 54 -41q27 -40 89 -141z" />
    <glyph glyph-name="oacute" unicode="&#xf3;" horiz-adv-x="549" 
d="M274 -13q-94 0 -161.5 65.5t-67.5 182.5q0 118 68 185.5t161 67.5t161.5 -67.5t68.5 -185.5q0 -117 -68 -182.5t-162 -65.5zM274 32q65 0 100 51.5t35 151.5q0 101 -35 154t-100 53t-99.5 -53t-34.5 -154q0 -203 134 -203zM236 576q42 70 89 141q25 41 54 41q16 0 27 -10
t11 -28q0 -23 -34 -55l-121 -108z" />
    <glyph glyph-name="ocircumflex" unicode="&#xf4;" horiz-adv-x="549" 
d="M274 32q65 0 100 51.5t35 151.5q0 101 -35 154t-100 53t-99.5 -53t-34.5 -154q0 -203 134 -203zM274 -13q-94 0 -161.5 65.5t-67.5 182.5q0 118 68 185.5t161 67.5t161.5 -67.5t68.5 -185.5q0 -117 -68 -182.5t-162 -65.5zM400 546l-126 114l-126 -114l-23 22l132 176h34
l132 -176z" />
    <glyph glyph-name="otilde" unicode="&#xf5;" horiz-adv-x="549" 
d="M274 -13q-94 0 -161.5 65.5t-67.5 182.5q0 118 68 185.5t161 67.5t161.5 -67.5t68.5 -185.5q0 -117 -68 -182.5t-162 -65.5zM274 32q65 0 100 51.5t35 151.5q0 101 -35 154t-100 53t-99.5 -53t-34.5 -154q0 -203 134 -203zM111 586q18 129 95 129q35 0 73 -34
q6 -5 16.5 -15.5l17 -16.5t16.5 -11t19 -5q39 0 62 80l27 -10q-20 -128 -95 -128q-36 0 -73 33l-16 16t-17.5 16.5t-16.5 10.5t-19 5q-39 0 -62 -79z" />
    <glyph glyph-name="odieresis" unicode="&#xf6;" horiz-adv-x="549" 
d="M274 -13q-94 0 -161.5 65.5t-67.5 182.5q0 118 68 185.5t161 67.5t161.5 -67.5t68.5 -185.5q0 -117 -68 -182.5t-162 -65.5zM274 32q65 0 100 51.5t35 151.5q0 101 -35 154t-100 53t-99.5 -53t-34.5 -154q0 -203 134 -203zM379 596q-25 0 -42.5 16.5t-17.5 40.5
t17.5 40.5t42.5 16.5q24 0 41.5 -16.5t17.5 -40.5t-17.5 -40.5t-41.5 -16.5zM169 596q-24 0 -41.5 16.5t-17.5 40.5t17.5 40.5t41.5 16.5q25 0 42.5 -16.5t17.5 -40.5t-17.5 -40.5t-42.5 -16.5z" />
    <glyph glyph-name="divide" unicode="&#xf7;" horiz-adv-x="531" 
d="M265 68q-28 0 -48 18.5t-20 47.5t19.5 47.5t48.5 18.5t49 -18.5t20 -47.5t-20 -47.5t-49 -18.5zM265 459q-28 0 -48 18.5t-20 47.5t19.5 47.5t48.5 18.5t49 -18.5t20 -47.5t-20 -47.5t-49 -18.5zM502 301h-473v57h473v-57z" />
    <glyph glyph-name="oslash" unicode="&#xf8;" horiz-adv-x="549" 
d="M487 475l-47 -59q64 -69 64 -181q0 -117 -68 -182.5t-162 -65.5q-82 0 -142 48l-45 -56l-33 26l48 59q-57 67 -57 171q0 118 68 185.5t161 67.5q74 0 135 -44l46 57zM135 235q0 -67 16 -111l220 273q-34 45 -97 45q-68 0 -103.5 -53t-35.5 -154zM274 32q67 0 103.5 51.5
t36.5 151.5q0 76 -21 124l-222 -276q34 -51 103 -51z" />
    <glyph glyph-name="ugrave" unicode="&#xf9;" horiz-adv-x="583" 
d="M549 0l-139 -8l-10 89q-77 -94 -177 -94q-131 0 -130 180l3 249l-71 15v36l147 14l10 -10l-5 -140v-155q0 -64 19.5 -91t60.5 -27q70 0 140 65l3 294l-71 14v36l145 14l10 -10l-3 -140v-281l68 -14v-36zM323 576l-26 -19l-121 108q-34 32 -34 55q0 18 11 28t27 10
q29 0 54 -41q27 -40 89 -141z" />
    <glyph glyph-name="uacute" unicode="&#xfa;" horiz-adv-x="583" 
d="M549 0l-139 -8l-10 89q-77 -94 -177 -94q-131 0 -130 180l3 249l-71 15v36l147 14l10 -10l-5 -140v-155q0 -64 19.5 -91t60.5 -27q70 0 140 65l3 294l-71 14v36l145 14l10 -10l-3 -140v-281l68 -14v-36zM237 576q42 70 89 141q25 41 54 41q16 0 27 -10t11 -28
q0 -23 -34 -55l-121 -108z" />
    <glyph glyph-name="ucircumflex" unicode="&#xfb;" horiz-adv-x="583" 
d="M549 0l-139 -8l-10 89q-77 -94 -177 -94q-131 0 -130 180l3 249l-71 15v36l147 14l10 -10l-5 -140v-155q0 -64 19.5 -91t60.5 -27q70 0 140 65l3 294l-71 14v36l145 14l10 -10l-3 -140v-281l68 -14v-36zM409 546l-126 114l-126 -114l-23 22l132 176h34l132 -176z" />
    <glyph glyph-name="udieresis" unicode="&#xfc;" horiz-adv-x="583" 
d="M549 0l-139 -8l-10 89q-77 -94 -177 -94q-131 0 -130 180l3 249l-71 15v36l147 14l10 -10l-5 -140v-155q0 -64 19.5 -91t60.5 -27q70 0 140 65l3 294l-71 14v36l145 14l10 -10l-3 -140v-281l68 -14v-36zM187 596q-24 0 -41.5 16.5t-17.5 40.5t17.5 40.5t41.5 16.5
q25 0 42.5 -16.5t17.5 -40.5t-17.5 -40.5t-42.5 -16.5zM397 596q-25 0 -42.5 16.5t-17.5 40.5t17.5 40.5t42.5 16.5q24 0 41.5 -16.5t17.5 -40.5t-17.5 -40.5t-41.5 -16.5z" />
    <glyph glyph-name="yacute" unicode="&#xfd;" horiz-adv-x="512" 
d="M92 -249q-38 0 -65 18.5t-27 47.5q5 21 24 32.5t43 11.5q37 0 74 -38l5 -5q56 48 90 144l4 12l-181 457l-55 8v36h240v-37l-88 -10l125 -341l123 340l-87 12v36h195v-36l-54 -11l-161 -425q-51 -135 -97.5 -193.5t-107.5 -58.5zM247 576q42 70 89 141q25 41 54 41
q16 0 27 -10t11 -28q0 -23 -34 -55l-121 -108z" />
    <glyph glyph-name="thorn" unicode="&#xfe;" horiz-adv-x="554" 
d="M419 234q0 94 -34.5 145.5t-92.5 51.5q-53 0 -119 -54v-281q56 -52 114 -52q57 0 94.5 49t37.5 141zM263 -204v-35h-257v35l80 14q2 110 2 162v677l-81 10v35l153 45l14 -8l-4 -142v-172q67 71 149 71t136 -66.5t54 -179.5q0 -114 -58.5 -184.5t-147.5 -70.5
q-78 0 -133 66v-81q0 -53 2 -161z" />
    <glyph glyph-name="ydieresis" unicode="&#xff;" horiz-adv-x="512" 
d="M92 -249q-38 0 -65 18.5t-27 47.5q5 21 24 32.5t43 11.5q37 0 74 -38l5 -5q56 48 90 144l4 12l-181 457l-55 8v36h240v-37l-88 -10l125 -341l123 340l-87 12v36h195v-36l-54 -11l-161 -425q-51 -135 -97.5 -193.5t-107.5 -58.5zM179 596q-24 0 -41.5 16.5t-17.5 40.5
t17.5 40.5t41.5 16.5q25 0 42.5 -16.5t17.5 -40.5t-17.5 -40.5t-42.5 -16.5zM389 596q-25 0 -42.5 16.5t-17.5 40.5t17.5 40.5t42.5 16.5q24 0 41.5 -16.5t17.5 -40.5t-17.5 -40.5t-41.5 -16.5z" />
    <glyph glyph-name="Amacron" unicode="&#x100;" horiz-adv-x="664" 
d="M181 758v63h302v-63h-302zM309 562l-101 -298h201zM5 0v41l84 13l213 620h63l213 -624l75 -9v-41h-272v41l98 12l-55 164h-232l-56 -163l98 -13v-41h-229z" />
    <glyph glyph-name="amacron" unicode="&#x101;" horiz-adv-x="509" 
d="M416 -10q-36 0 -60 21t-30 56q-45 -45 -75.5 -62.5t-71.5 -17.5q-58 0 -96 32.5t-38 92.5q0 46 35 81t131 70q58 21 113 33v25q0 70 -21.5 95.5t-72.5 25.5q-29 0 -54 -6l-19 -65q-14 -48 -52 -48q-42 0 -47 41q14 57 66.5 90.5t128.5 33.5q80 0 117.5 -40.5t37.5 -133.5
v-213q0 -59 36 -59q20 0 39 22l20 -22q-32 -52 -87 -52zM126 596v63h262v-63h-262zM134 127q0 -74 80 -74q24 0 44 10t66 42v154q-53 -15 -92 -30q-98 -38 -98 -102z" />
    <glyph glyph-name="Abreve" unicode="&#x102;" horiz-adv-x="664" 
d="M309 562l-101 -298h201zM5 0v41l84 13l213 620h63l213 -624l75 -9v-41h-272v41l98 12l-55 164h-232l-56 -163l98 -13v-41h-229zM191 848l31 11q12 -35 41 -56t72 -21q84 0 113 77l31 -11q-8 -51 -45 -89t-99 -38t-99 38t-45 89z" />
    <glyph glyph-name="abreve" unicode="&#x103;" horiz-adv-x="509" 
d="M416 -10q-36 0 -60 21t-30 56q-45 -45 -75.5 -62.5t-71.5 -17.5q-58 0 -96 32.5t-38 92.5q0 46 35 81t131 70q58 21 113 33v25q0 70 -21.5 95.5t-72.5 25.5q-29 0 -54 -6l-19 -65q-14 -48 -52 -48q-42 0 -47 41q14 57 66.5 90.5t128.5 33.5q80 0 117.5 -40.5t37.5 -133.5
v-213q0 -59 36 -59q20 0 39 22l20 -22q-32 -52 -87 -52zM106 723l30 11q36 -93 121 -93t121 93l30 -11q-7 -62 -46.5 -105t-104.5 -43t-104.5 43t-46.5 105zM134 127q0 -74 80 -74q24 0 44 10t66 42v154q-53 -15 -92 -30q-98 -38 -98 -102z" />
    <glyph glyph-name="Aogonek" unicode="&#x104;" horiz-adv-x="664" 
d="M309 562l-101 -298h201zM5 0v41l84 13l213 620h63l213 -624l75 -9v-41h-92q-48 -40 -48 -96q0 -31 19 -49.5t48 -18.5q28 0 53 15l13 -25q-33 -46 -103 -46q-42 0 -68 23.5t-26 64.5q0 38 22 73t57 59h-147v41l98 12l-55 164h-232l-56 -163l98 -13v-41h-229z" />
    <glyph glyph-name="aogonek" unicode="&#x105;" horiz-adv-x="509" 
d="M329 -132q0 36 24.5 67.5t62.5 53.5q-77 4 -90 78q-45 -45 -75.5 -62.5t-71.5 -17.5q-58 0 -96 32.5t-38 92.5q0 46 35 81t131 70q58 21 113 33v25q0 70 -21.5 95.5t-72.5 25.5q-27 0 -51 -6l-20 -69q-14 -48 -54 -48q-42 0 -47 43q14 57 66.5 91.5t128.5 34.5
q80 0 117.5 -40.5t37.5 -133.5v-211q0 -61 33 -61q20 0 42 22l20 -24q-18 -22 -47 -45q-64 -50 -64 -91q0 -32 19 -50t49 -18q28 0 52 15l12 -23q-34 -48 -104 -48q-41 0 -66 23.5t-25 64.5zM134 127q0 -74 80 -74q24 0 44 10t66 42v154q-53 -15 -92 -30q-98 -38 -98 -102z
" />
    <glyph glyph-name="Cacute" unicode="&#x106;" horiz-adv-x="631" 
d="M391 35q64 0 119 27l20 116h62l-4 -145q-88 -48 -202 -48q-151 0 -245 97.5t-94 252.5q0 151 96 250t242 99q111 0 193 -48l4 -145h-62l-20 116q-49 27 -102 27q-105 0 -173.5 -79t-68.5 -220q0 -143 64.5 -221.5t170.5 -78.5zM320 745q46 49 94 94q38 38 62 38
q16 0 27 -9.5t11 -24.5q0 -27 -50 -55l-126 -68z" />
    <glyph glyph-name="cacute" unicode="&#x107;" horiz-adv-x="488" 
d="M277 442q-66 0 -106.5 -51.5t-40.5 -144.5q0 -92 44 -143t116 -51q90 0 138 76l25 -13q-43 -128 -186 -128q-103 0 -164 67t-61 182q0 114 68 183t163 69q67 0 117 -37t60 -93q-7 -38 -46 -38q-43 0 -55 48l-18 66q-25 8 -54 8zM234 576q42 70 89 141q25 41 54 41
q16 0 27 -10t11 -28q0 -23 -34 -55l-121 -108z" />
    <glyph glyph-name="Ccircumflex" unicode="&#x108;" horiz-adv-x="631" 
d="M391 35q64 0 119 27l20 116h62l-4 -145q-88 -48 -202 -48q-151 0 -245 97.5t-94 252.5q0 151 96 250t242 99q111 0 193 -48l4 -145h-62l-20 116q-49 27 -102 27q-105 0 -173.5 -79t-68.5 -220q0 -143 64.5 -221.5t170.5 -78.5zM395 856l131 -115l-19 -25l-129 74
l-129 -74l-19 25l131 115h34z" />
    <glyph glyph-name="ccircumflex" unicode="&#x109;" horiz-adv-x="488" 
d="M277 442q-66 0 -106.5 -51.5t-40.5 -144.5q0 -92 44 -143t116 -51q90 0 138 76l25 -13q-43 -128 -186 -128q-103 0 -164 67t-61 182q0 114 68 183t163 69q67 0 117 -37t60 -93q-7 -38 -46 -38q-43 0 -55 48l-18 66q-25 8 -54 8zM392 546l-126 114l-126 -114l-23 22
l132 176h34l132 -176z" />
    <glyph glyph-name="Cdotaccent" unicode="&#x10a;" horiz-adv-x="631" 
d="M391 35q64 0 119 27l20 116h62l-4 -145q-88 -48 -202 -48q-151 0 -245 97.5t-94 252.5q0 151 96 250t242 99q111 0 193 -48l4 -145h-62l-20 116q-49 27 -102 27q-105 0 -173.5 -79t-68.5 -220q0 -143 64.5 -221.5t170.5 -78.5zM371 736q-29 0 -48 18t-19 46t19 46t48 18
t48 -18t19 -46t-19 -46t-48 -18z" />
    <glyph glyph-name="cdotaccent" unicode="&#x10b;" horiz-adv-x="488" 
d="M277 442q-66 0 -106.5 -51.5t-40.5 -144.5q0 -92 44 -143t116 -51q90 0 138 76l25 -13q-43 -128 -186 -128q-103 0 -164 67t-61 182q0 114 68 183t163 69q67 0 117 -37t60 -93q-7 -38 -46 -38q-43 0 -55 48l-18 66q-25 8 -54 8zM274 589q-29 0 -48 18t-19 46t19 46t48 18
t48 -18t19 -46t-19 -46t-48 -18z" />
    <glyph glyph-name="Ccaron" unicode="&#x10c;" horiz-adv-x="631" 
d="M391 35q64 0 119 27l20 116h62l-4 -145q-88 -48 -202 -48q-151 0 -245 97.5t-94 252.5q0 151 96 250t242 99q111 0 193 -48l4 -145h-62l-20 116q-49 27 -102 27q-105 0 -173.5 -79t-68.5 -220q0 -143 64.5 -221.5t170.5 -78.5zM271 868l115 -85l115 85l24 -21l-102 -118
h-74l-102 118z" />
    <glyph glyph-name="ccaron" unicode="&#x10d;" horiz-adv-x="488" 
d="M277 442q-66 0 -106.5 -51.5t-40.5 -144.5q0 -92 44 -143t116 -51q90 0 138 76l25 -13q-43 -128 -186 -128q-103 0 -164 67t-61 182q0 114 68 183t163 69q67 0 117 -37t60 -93q-7 -38 -46 -38q-43 0 -55 48l-18 66q-25 8 -54 8zM159 739l115 -105l115 105l24 -20
l-102 -148h-74l-102 148z" />
    <glyph glyph-name="Dcaron" unicode="&#x10e;" horiz-adv-x="710" 
d="M138 322v37q0 172 -2 258l-92 11v41h295q147 0 235.5 -88t88.5 -247q0 -157 -96 -245.5t-247 -88.5h-276v41l92 11q2 85 2 270zM233 322q0 -187 2 -275h79q115 0 177.5 75t62.5 212q0 140 -60.5 214.5t-170.5 74.5h-88q-2 -86 -2 -264v-37zM232 868l115 -85l115 85
l24 -21l-102 -118h-74l-102 118z" />
    <glyph glyph-name="dcaron" unicode="&#x10f;" horiz-adv-x="601" 
d="M608 749q36 0 36 -36q0 -31 -34 -131l-19 -55h-32l3 210q24 12 46 12zM135 235q0 -95 38 -143t101 -48q61 0 112 58v277q-60 52 -113 52q-60 0 -99 -49.5t-39 -146.5zM551 0l-155 -10l-7 70q-54 -73 -140 -73q-91 0 -147.5 68t-56.5 178q0 114 60 184.5t153 70.5
q75 0 131 -65v226l-85 10v35l156 45l14 -8l-4 -142v-541l81 -12v-36z" />
    <glyph glyph-name="Dcroat" unicode="&#x110;" horiz-adv-x="710" 
d="M44 628v41h295q147 0 235.5 -88t88.5 -247q0 -157 -96 -245.5t-247 -88.5h-276v41l92 11q2 85 2 267h-94v47h94q0 170 -2 251zM386 319h-153q0 -188 2 -272h79q115 0 177.5 75t62.5 212q0 140 -60.5 214.5t-170.5 74.5h-88q-2 -86 -2 -257h153v-47z" />
    <glyph glyph-name="dcroat" unicode="&#x111;" horiz-adv-x="567" 
d="M135 225q0 -90 38 -135.5t101 -45.5q60 0 112 58v263q-61 53 -111 53q-60 0 -100 -50t-40 -143zM204 543v46h185v65l-85 5v35l156 45l14 -8l-4 -142h82v-46h-82v-494l81 -13v-36l-155 -10l-7 70q-55 -73 -140 -73q-91 0 -147.5 65.5t-56.5 170.5q0 110 60 181t150 71
q78 0 134 -65v133h-185z" />
    <glyph glyph-name="Emacron" unicode="&#x112;" horiz-adv-x="603" 
d="M138 310v49q0 172 -2 258l-92 11v41h498l7 -177h-57l-22 127h-235q-2 -85 -2 -254h147l14 95h46v-236h-46l-13 94h-148q0 -185 2 -268h255l22 128h57l-7 -178h-518v41l92 11q2 84 2 258zM190 758v63h302v-63h-302z" />
    <glyph glyph-name="emacron" unicode="&#x113;" horiz-adv-x="510" 
d="M269 442q-48 0 -86 -39.5t-46 -120.5h182q59 0 59 52q0 44 -31.5 76t-77.5 32zM275 488q80 0 133 -52t53 -140q0 -33 -7 -56h-319q1 -91 45 -139.5t117 -48.5q79 0 139 70l24 -19q-60 -116 -192 -116q-102 0 -162.5 66t-60.5 180q0 112 67 183.5t163 71.5zM136 596v63
h262v-63h-262z" />
    <glyph glyph-name="Ebreve" unicode="&#x114;" horiz-adv-x="603" 
d="M138 310v49q0 172 -2 258l-92 11v41h498l7 -177h-57l-22 127h-235q-2 -85 -2 -254h147l14 95h46v-236h-46l-13 94h-148q0 -185 2 -268h255l22 128h57l-7 -178h-518v41l92 11q2 84 2 258zM178 858l31 11q12 -35 41 -56t72 -21q84 0 113 77l31 -11q-8 -51 -45 -89t-99 -38
t-99 38t-45 89z" />
    <glyph glyph-name="ebreve" unicode="&#x115;" horiz-adv-x="510" 
d="M269 442q-48 0 -86 -39.5t-46 -120.5h182q59 0 59 52q0 44 -31.5 76t-77.5 32zM275 488q80 0 133 -52t53 -140q0 -33 -7 -56h-319q1 -91 45 -139.5t117 -48.5q79 0 139 70l24 -19q-60 -116 -192 -116q-102 0 -162.5 66t-60.5 180q0 112 67 183.5t163 71.5zM116 723l30 11
q36 -93 121 -93t121 93l30 -11q-7 -62 -46.5 -105t-104.5 -43t-104.5 43t-46.5 105z" />
    <glyph glyph-name="Edotaccent" unicode="&#x116;" horiz-adv-x="603" 
d="M138 310v49q0 172 -2 258l-92 11v41h498l7 -177h-57l-22 127h-235q-2 -85 -2 -254h147l14 95h46v-236h-46l-13 94h-148q0 -185 2 -268h255l22 128h57l-7 -178h-518v41l92 11q2 84 2 258zM331 736q-29 0 -48 18t-19 46t19 46t48 18t48 -18t19 -46t-19 -46t-48 -18z" />
    <glyph glyph-name="edotaccent" unicode="&#x117;" horiz-adv-x="510" 
d="M269 442q-48 0 -86 -39.5t-46 -120.5h182q59 0 59 52q0 44 -31.5 76t-77.5 32zM275 488q80 0 133 -52t53 -140q0 -33 -7 -56h-319q1 -91 45 -139.5t117 -48.5q79 0 139 70l24 -19q-60 -116 -192 -116q-102 0 -162.5 66t-60.5 180q0 112 67 183.5t163 71.5zM273 589
q-29 0 -48 18t-19 46t19 46t48 18t48 -18t19 -46t-19 -46t-48 -18z" />
    <glyph glyph-name="Eogonek" unicode="&#x118;" horiz-adv-x="603" 
d="M138 310v49q0 172 -2 258l-92 11v41h498l7 -177h-57l-22 127h-235q-2 -85 -2 -254h147l14 95h46v-236h-46l-13 94h-148q0 -185 2 -268h255l22 128h57l-7 -178h-77q-48 -40 -48 -96q0 -31 19 -49.5t48 -18.5q28 0 53 15l13 -25q-33 -46 -103 -46q-42 0 -68 23.5t-26 64.5
q0 38 22 73t57 59h-408v41l92 11q2 84 2 258z" />
    <glyph glyph-name="eogonek" unicode="&#x119;" horiz-adv-x="510" 
d="M268 442q-47 0 -85 -39.5t-46 -120.5h182q34 0 46.5 12.5t12.5 39.5q0 44 -32 76t-78 32zM253 -132q0 70 65 123q-23 -4 -50 -4q-102 0 -162.5 66t-60.5 183q0 110 67 181t162 71q81 0 134 -52t53 -141q0 -32 -7 -55h-319q1 -90 44.5 -139t118.5 -49q78 0 138 70l24 -19
q-24 -50 -77 -90q-67 -54 -67 -109q0 -32 19 -50t50 -18q27 0 52 15l12 -23q-35 -48 -105 -48q-41 0 -66 23.5t-25 64.5z" />
    <glyph glyph-name="Ecaron" unicode="&#x11a;" horiz-adv-x="603" 
d="M138 310v49q0 172 -2 258l-92 11v41h498l7 -177h-57l-22 127h-235q-2 -85 -2 -254h147l14 95h46v-236h-46l-13 94h-148q0 -185 2 -268h255l22 128h57l-7 -178h-518v41l92 11q2 84 2 258zM225 868l115 -85l115 85l24 -21l-102 -118h-74l-102 118z" />
    <glyph glyph-name="ecaron" unicode="&#x11b;" horiz-adv-x="510" 
d="M269 442q-48 0 -86 -39.5t-46 -120.5h182q59 0 59 52q0 44 -31.5 76t-77.5 32zM275 488q80 0 133 -52t53 -140q0 -33 -7 -56h-319q1 -91 45 -139.5t117 -48.5q79 0 139 70l24 -19q-60 -116 -192 -116q-102 0 -162.5 66t-60.5 180q0 112 67 183.5t163 71.5zM159 739
l115 -105l115 105l24 -20l-102 -148h-74l-102 148z" />
    <glyph glyph-name="Gcircumflex" unicode="&#x11c;" horiz-adv-x="682" 
d="M604 88v-44q-113 -59 -220 -59q-150 0 -243.5 98.5t-93.5 251.5q0 152 94.5 250.5t246.5 98.5q119 0 201 -47l4 -146h-62l-20 114q-52 29 -114 29q-106 0 -173.5 -79.5t-67.5 -219.5q0 -142 65.5 -220.5t181.5 -78.5q57 0 107 20v32q0 61 -2 181l-104 9v40h263v-40
l-61 -6q-2 -120 -2 -184zM403 856l131 -115l-19 -25l-129 74l-129 -74l-19 25l131 115h34z" />
    <glyph glyph-name="gcircumflex" unicode="&#x11d;" horiz-adv-x="518" 
d="M241 447q-47 0 -74 -34t-27 -90t25.5 -89.5t71.5 -33.5q47 0 74.5 35t27.5 92q0 54 -26 87t-72 33zM59 324q0 77 50.5 120.5t130.5 43.5q79 0 127 -39l113 39l15 -10v-63h-98q23 -37 23 -91q0 -77 -50.5 -120.5t-130.5 -43.5q-39 0 -74 11q-25 -32 -25 -64
q0 -22 12.5 -33t45.5 -11h131q161 0 161 -129q0 -70 -65.5 -121.5t-181.5 -51.5q-105 0 -156 32.5t-51 88.5q0 34 22 61t76 53q-66 18 -66 76q0 48 68 111q-77 42 -77 141zM247 -193q79 0 123.5 28.5t44.5 72.5q0 35 -24.5 56.5t-75.5 21.5h-117q-15 0 -41 2
q-39 -42 -39 -90q0 -91 129 -91zM363 546l-126 114l-126 -114l-23 22l132 176h34l132 -176z" />
    <glyph glyph-name="Gbreve" unicode="&#x11e;" horiz-adv-x="682" 
d="M604 88v-44q-113 -59 -220 -59q-150 0 -243.5 98.5t-93.5 251.5q0 152 94.5 250.5t246.5 98.5q119 0 201 -47l4 -146h-62l-20 114q-52 29 -114 29q-106 0 -173.5 -79.5t-67.5 -219.5q0 -142 65.5 -220.5t181.5 -78.5q57 0 107 20v32q0 61 -2 181l-104 9v40h263v-40
l-61 -6q-2 -120 -2 -184zM238 858l31 11q12 -35 41 -56t72 -21q84 0 113 77l31 -11q-8 -51 -45 -89t-99 -38t-99 38t-45 89z" />
    <glyph glyph-name="gbreve" unicode="&#x11f;" horiz-adv-x="518" 
d="M241 447q-47 0 -74 -34t-27 -90t25.5 -89.5t71.5 -33.5q47 0 74.5 35t27.5 92q0 54 -26 87t-72 33zM59 324q0 77 50.5 120.5t130.5 43.5q79 0 127 -39l113 39l15 -10v-63h-98q23 -37 23 -91q0 -77 -50.5 -120.5t-130.5 -43.5q-39 0 -74 11q-25 -32 -25 -64
q0 -22 12.5 -33t45.5 -11h131q161 0 161 -129q0 -70 -65.5 -121.5t-181.5 -51.5q-105 0 -156 32.5t-51 88.5q0 34 22 61t76 53q-66 18 -66 76q0 48 68 111q-77 42 -77 141zM247 -193q79 0 123.5 28.5t44.5 72.5q0 35 -24.5 56.5t-75.5 21.5h-117q-15 0 -41 2
q-39 -42 -39 -90q0 -91 129 -91zM97 723l30 11q36 -93 121 -93t121 93l30 -11q-7 -62 -46.5 -105t-104.5 -43t-104.5 43t-46.5 105z" />
    <glyph glyph-name="Gdotaccent" unicode="&#x120;" horiz-adv-x="682" 
d="M604 88v-44q-113 -59 -220 -59q-150 0 -243.5 98.5t-93.5 251.5q0 152 94.5 250.5t246.5 98.5q119 0 201 -47l4 -146h-62l-20 114q-52 29 -114 29q-106 0 -173.5 -79.5t-67.5 -219.5q0 -142 65.5 -220.5t181.5 -78.5q57 0 107 20v32q0 61 -2 181l-104 9v40h263v-40
l-61 -6q-2 -120 -2 -184zM388 736q-29 0 -48 18t-19 46t19 46t48 18t48 -18t19 -46t-19 -46t-48 -18z" />
    <glyph glyph-name="gdotaccent" unicode="&#x121;" horiz-adv-x="518" 
d="M241 447q-47 0 -74 -34t-27 -90t25.5 -89.5t71.5 -33.5q47 0 74.5 35t27.5 92q0 54 -26 87t-72 33zM59 324q0 77 50.5 120.5t130.5 43.5q79 0 127 -39l113 39l15 -10v-63h-98q23 -37 23 -91q0 -77 -50.5 -120.5t-130.5 -43.5q-39 0 -74 11q-25 -32 -25 -64
q0 -22 12.5 -33t45.5 -11h131q161 0 161 -129q0 -70 -65.5 -121.5t-181.5 -51.5q-105 0 -156 32.5t-51 88.5q0 34 22 61t76 53q-66 18 -66 76q0 48 68 111q-77 42 -77 141zM245 589q-29 0 -48 18t-19 46t19 46t48 18t48 -18t19 -46t-19 -46t-48 -18zM247 -193
q79 0 123.5 28.5t44.5 72.5q0 35 -24.5 56.5t-75.5 21.5h-117q-15 0 -41 2q-39 -42 -39 -90q0 -91 129 -91z" />
    <glyph glyph-name="uni0122" unicode="&#x122;" horiz-adv-x="682" 
d="M604 88v-44q-113 -59 -220 -59q-150 0 -243.5 98.5t-93.5 251.5q0 152 94.5 250.5t246.5 98.5q119 0 201 -47l4 -146h-62l-20 114q-52 29 -114 29q-106 0 -173.5 -79.5t-67.5 -219.5q0 -142 65.5 -220.5t181.5 -78.5q57 0 107 20v32q0 61 -2 181l-104 9v40h263v-40
l-61 -6q-2 -120 -2 -184zM449 -118q0 -89 -134 -133l-10 29q58 23 84 57q-47 24 -47 64q0 21 15.5 35t36.5 14q24 0 46 -19q9 -27 9 -47z" />
    <glyph glyph-name="uni0123" unicode="&#x123;" horiz-adv-x="518" 
d="M195 637q0 91 134 134l10 -29q-57 -22 -84 -57q46 -24 46 -64q0 -21 -15 -35t-36 -14q-24 0 -46 19q-9 27 -9 46zM241 447q-47 0 -74 -34t-27 -90t25.5 -89.5t71.5 -33.5q47 0 74.5 35t27.5 92q0 54 -26 87t-72 33zM59 324q0 77 50.5 120.5t130.5 43.5q79 0 127 -39
l113 39l15 -10v-63h-98q23 -37 23 -91q0 -77 -50.5 -120.5t-130.5 -43.5q-39 0 -74 11q-25 -32 -25 -64q0 -22 12.5 -33t45.5 -11h131q161 0 161 -129q0 -70 -65.5 -121.5t-181.5 -51.5q-105 0 -156 32.5t-51 88.5q0 34 22 61t76 53q-66 18 -66 76q0 48 68 111
q-77 42 -77 141zM247 -193q79 0 123.5 28.5t44.5 72.5q0 35 -24.5 56.5t-75.5 21.5h-117q-15 0 -41 2q-39 -42 -39 -90q0 -91 129 -91z" />
    <glyph glyph-name="Hcircumflex" unicode="&#x124;" horiz-adv-x="789" 
d="M138 310v49q0 172 -2 258l-92 11v41h282v-41l-91 -10q-2 -85 -2 -252h323q0 170 -2 251l-92 11v41h282v-41l-92 -11q-2 -84 -2 -258v-49q0 -172 2 -258l92 -11v-41h-282v41l92 11q2 85 2 267h-323q0 -186 2 -268l91 -10v-41h-282v41l92 11q2 84 2 258zM411 856l131 -115
l-19 -25l-129 74l-129 -74l-19 25l131 115h34z" />
    <glyph glyph-name="hcircumflex" unicode="&#x125;" horiz-adv-x="601" 
d="M107 210v439l-82 10v35l153 45l14 -8l-4 -142v-194q37 42 86.5 67.5t96.5 25.5q65 0 96.5 -44t31.5 -141v-93q0 -60 2 -160l70 -14v-36h-232v36l73 13q2 100 2 161v85q0 68 -18.5 94.5t-63.5 26.5q-69 0 -141 -65v-141q0 -60 2 -160l69 -14v-36h-232v36l75 14
q2 100 2 160zM299 899l131 -115l-19 -25l-129 74l-129 -74l-19 25l131 115h34z" />
    <glyph glyph-name="Hbar" unicode="&#x126;" horiz-adv-x="788" 
d="M138 310v49v107h-108v46h108q0 17 -1 52t-1 53l-92 11v41h282v-41l-91 -10q-1 -18 -1 -53.5t-1 -52.5h323q0 18 -1 53t-1 52l-92 11v41h282v-41l-92 -11q-1 -17 -1.5 -52.5t-0.5 -52.5h109v-46h-109v-107v-49q0 -172 2 -258l92 -11v-41h-282v41l92 11q2 76 2 247h-323
q0 -170 2 -248l91 -10v-41h-282v41l92 11q2 84 2 258zM233 360v-14h323v14v106h-323v-106z" />
    <glyph glyph-name="hbar" unicode="&#x127;" horiz-adv-x="601" 
d="M30 0v36l75 14q2 100 2 160v328h-82v46h82v65l-82 10v35l153 45l14 -8l-4 -147h184v-46h-184v-166q38 41 87.5 67t95.5 26q65 0 96.5 -44t31.5 -141v-70q0 -60 2 -160l70 -14v-36h-232v36l73 13q2 100 2 161v62q0 67 -18.5 94t-63.5 27q-69 0 -141 -65v-118q0 -60 2 -160
l69 -14v-36h-232z" />
    <glyph glyph-name="Itilde" unicode="&#x128;" horiz-adv-x="371" 
d="M138 310v49q0 172 -2 258l-92 11v41h283v-41l-92 -11q-2 -84 -2 -258v-49q0 -172 2 -258l92 -11v-41h-283v41l92 11q2 84 2 258zM5 734q20 129 105 129q38 0 81 -34q6 -5 17.5 -15.5t19 -16.5t18 -11t21.5 -5q44 0 68 80l30 -10q-22 -128 -104 -128q-39 0 -82 33
q-5 4 -17.5 15.5t-19 17t-17.5 10.5t-22 5q-44 0 -68 -79z" />
    <glyph glyph-name="itilde" unicode="&#x129;" horiz-adv-x="298" 
d="M35 0v36l74 14q2 100 2 160v47q0 66 -3 126l-79 9v35l155 61l15 -10l-3 -136v-132q0 -60 2 -160l69 -14v-36h-232zM-14 586q18 129 95 129q35 0 73 -34q6 -5 16.5 -15.5l17 -16.5t16.5 -11t19 -5q39 0 62 80l27 -10q-20 -128 -95 -128q-36 0 -73 33l-16 16t-17.5 16.5
t-16.5 10.5t-19 5q-39 0 -62 -79z" />
    <glyph glyph-name="Imacron" unicode="&#x12a;" horiz-adv-x="371" 
d="M138 310v49q0 172 -2 258l-92 11v41h283v-41l-92 -11q-2 -84 -2 -258v-49q0 -172 2 -258l92 -11v-41h-283v41l92 11q2 84 2 258zM35 758v63h302v-63h-302z" />
    <glyph glyph-name="imacron" unicode="&#x12b;" horiz-adv-x="298" 
d="M35 0v36l74 14q2 100 2 160v47q0 66 -3 126l-79 9v35l155 61l15 -10l-3 -136v-132q0 -60 2 -160l69 -14v-36h-232zM11 596v63h262v-63h-262z" />
    <glyph glyph-name="Iogonek" unicode="&#x12e;" horiz-adv-x="371" 
d="M110 -132q0 38 22 73t57 59h-145v41l92 11q2 84 2 258v49q0 172 -2 258l-92 11v41h283v-41l-92 -11q-2 -84 -2 -258v-49q0 -172 2 -258l92 -11v-41h-105q-48 -40 -48 -96q0 -31 19 -49.5t48 -18.5q28 0 53 15l13 -25q-33 -46 -103 -46q-42 0 -68 23.5t-26 64.5z" />
    <glyph glyph-name="iogonek" unicode="&#x12f;" horiz-adv-x="298" 
d="M153 598q-29 0 -48 18t-19 46q0 29 19 46.5t48 17.5q28 0 47.5 -17.5t19.5 -46.5q0 -27 -19.5 -45.5t-47.5 -18.5zM73 -132q0 38 22 73t57 59h-117v36l75 14q2 100 2 160v47q0 66 -3 126l-80 9v35l154 61l15 -10l-3 -136v-132q0 -60 2 -160l70 -14v-36h-82
q-48 -40 -48 -96q0 -31 19 -49.5t48 -18.5q28 0 53 15l13 -25q-33 -46 -103 -46q-42 0 -68 23.5t-26 64.5z" />
    <glyph glyph-name="Idotaccent" unicode="&#x130;" horiz-adv-x="371" 
d="M138 310v49q0 172 -2 258l-92 11v41h283v-41l-92 -11q-2 -84 -2 -258v-49q0 -172 2 -258l92 -11v-41h-283v41l92 11q2 84 2 258zM186 736q-29 0 -48 18t-19 46t19 46t48 18t48 -18t19 -46t-19 -46t-48 -18z" />
    <glyph glyph-name="dotlessi" unicode="&#x131;" horiz-adv-x="298" 
d="M35 0v36l74 14q2 100 2 160v47q0 66 -3 126l-79 9v35l155 61l15 -10l-3 -136v-132q0 -60 2 -160l69 -14v-36h-232z" />
    <glyph glyph-name="Jcircumflex" unicode="&#x134;" horiz-adv-x="374" 
d="M47 628v41h293v-41l-92 -11q-2 -84 -2 -257v-156q0 -153 -14 -218q-14 -71 -67.5 -110t-120.5 -39q-74 0 -87 49q8 50 62 50q34 0 75 -31l25 -20q39 38 39 122q0 19 -1.5 76.5t-3.5 198t-4 335.5zM216 856l131 -115l-19 -25l-129 74l-129 -74l-19 25l131 115h34z" />
    <glyph glyph-name="jcircumflex" unicode="&#x135;" horiz-adv-x="277" 
d="M111 77v180q0 66 -3 126l-79 9v35l152 61l15 -10l-3 -136v-251q0 -130 -11.5 -189.5t-48.5 -99.5q-48 -51 -117 -51q-49 0 -73.5 17t-25.5 40q13 42 59 42q33 0 75 -31l17 -13q6 8 12 17q22 42 26.5 81t4.5 173zM265 546l-126 114l-126 -114l-23 22l132 176h34l132 -176z
" />
    <glyph glyph-name="uni0136" unicode="&#x136;" horiz-adv-x="667" 
d="M138 310v49q0 172 -2 258l-92 11v41h282v-41l-95 -11q-2 -85 -2 -258v-63l260 318l-72 14v41h230v-41l-97 -13l-167 -201l202 -363l77 -10v-41h-257v41l82 10l-159 297l-99 -119q0 -115 2 -177l95 -11v-41h-282v41l92 11q2 84 2 258zM415 -118q0 -89 -134 -133l-10 29
q58 23 84 57q-47 24 -47 64q0 21 15.5 35t36.5 14q24 0 46 -19q9 -27 9 -47z" />
    <glyph glyph-name="uni0137" unicode="&#x137;" horiz-adv-x="547" 
d="M25 694l156 45l14 -8l-4 -142v-349l171 178l-73 18v39h232v-39l-94 -14l-110 -113l164 -261l66 -12v-36h-136l-154 248l-66 -68q0 -44 2 -130l80 -14v-36h-248v36l80 14q2 106 2 160v439l-82 10v35zM346 -118q0 -89 -134 -133l-10 29q58 23 84 57q-47 24 -47 64
q0 21 15.5 35t36.5 14q24 0 46 -19q9 -27 9 -47z" />
    <glyph glyph-name="kgreenlandic" unicode="&#x138;" horiz-adv-x="557" 
d="M40 0v36l74 14q2 100 2 160v48q0 65 -3 125l-79 9v35l154 61l16 -10l-3 -116v-121l172 178l-74 17v39h232v-39l-94 -14l-111 -113l165 -261l65 -12v-36h-136l-153 248l-66 -67q0 -51 2 -131l69 -14v-36h-232z" />
    <glyph glyph-name="Lacute" unicode="&#x139;" horiz-adv-x="596" 
d="M138 359q0 174 -2 258l-92 11v41h283v-41l-92 -11q-2 -86 -2 -258v-69q0 -155 2 -240h227l29 138h61l-10 -188h-498v41l92 11q2 86 2 257v50zM186 745q46 49 94 94q38 38 62 38q16 0 27 -9.5t11 -24.5q0 -27 -50 -55l-126 -68z" />
    <glyph glyph-name="lacute" unicode="&#x13a;" horiz-adv-x="298" 
d="M25 694l156 45l14 -8l-4 -142v-379q0 -54 2 -160l80 -14v-36h-248v36l80 14q2 108 2 160v439l-82 10v35zM93 786q46 49 94 94q38 38 62 38q16 0 27 -9.5t11 -24.5q0 -27 -50 -55l-126 -68z" />
    <glyph glyph-name="uni013B" unicode="&#x13b;" horiz-adv-x="596" 
d="M138 359q0 174 -2 258l-92 11v41h283v-41l-92 -11q-2 -86 -2 -258v-69q0 -155 2 -240h227l29 138h61l-10 -188h-498v41l92 11q2 86 2 257v50zM365 -118q0 -89 -134 -133l-10 29q58 23 84 57q-47 24 -47 64q0 21 15.5 35t36.5 14q24 0 46 -19q9 -27 9 -47z" />
    <glyph glyph-name="uni013C" unicode="&#x13c;" horiz-adv-x="298" 
d="M25 694l156 45l14 -8l-4 -142v-379q0 -54 2 -160l80 -14v-36h-248v36l80 14q2 108 2 160v439l-82 10v35zM203 -118q0 -89 -134 -133l-10 29q58 23 84 57q-47 24 -47 64q0 21 15.5 35t36.5 14q24 0 46 -19q9 -27 9 -47z" />
    <glyph glyph-name="Lcaron" unicode="&#x13d;" horiz-adv-x="596" 
d="M479 739q36 0 36 -37t-34 -131l-19 -54h-32l3 210q24 12 46 12zM138 359q0 174 -2 258l-92 11v41h283v-41l-92 -11q-2 -86 -2 -258v-69q0 -155 2 -240h227l29 138h61l-10 -188h-498v41l92 11q2 86 2 257v50z" />
    <glyph glyph-name="lcaron" unicode="&#x13e;" horiz-adv-x="322" 
d="M329 749q36 0 36 -36q0 -31 -34 -131l-19 -55h-32l3 210q24 12 46 12zM25 694l156 45l14 -8l-4 -142v-379q0 -54 2 -160l80 -14v-36h-248v36l80 14q2 108 2 160v439l-82 10v35z" />
    <glyph glyph-name="Ldot" unicode="&#x13f;" horiz-adv-x="596" 
d="M138 359q0 174 -2 258l-92 11v41h283v-41l-92 -11q-2 -86 -2 -258v-69q0 -155 2 -240h227l29 138h61l-10 -188h-498v41l92 11q2 86 2 257v50zM471 310q-30 0 -50.5 21t-20.5 50q0 30 20.5 51t50.5 21t50.5 -21t20.5 -51q0 -29 -20.5 -50t-50.5 -21z" />
    <glyph glyph-name="ldot" unicode="&#x140;" horiz-adv-x="313" 
d="M25 694l156 45l14 -8l-4 -142v-379q0 -54 2 -160l80 -14v-36h-248v36l80 14q2 108 2 160v439l-82 10v35zM305 299q-30 0 -50.5 21t-20.5 50q0 30 20.5 51t50.5 21t50.5 -21t20.5 -51q0 -29 -20.5 -50t-50.5 -21z" />
    <glyph glyph-name="Lslash" unicode="&#x141;" horiz-adv-x="596" 
d="M138 359q0 174 -2 258l-92 11v41h283v-41l-92 -11q-2 -86 -2 -250l163 93v-51l-163 -94v-25q0 -155 2 -240h227l29 138h61l-10 -188h-498v41l92 11q2 71 2 215l-94 -53v51l94 53v41z" />
    <glyph glyph-name="lslash" unicode="&#x142;" horiz-adv-x="298" 
d="M25 694l156 45l14 -8l-4 -142v-158l82 43v-50l-82 -43v-171q0 -54 2 -160l80 -14v-36h-248v36l80 14q2 108 2 160v133l-82 -43v50l82 43v256l-82 10v35z" />
    <glyph glyph-name="Nacute" unicode="&#x143;" horiz-adv-x="735" 
d="M454 628v41h241v-41l-85 -13v-622h-35l-400 545v-483l106 -14v-41h-242v41l85 12v555l-9 12l-71 8v41h154l361 -496v442zM310 731q46 49 94 94q38 38 62 38q16 0 27 -9.5t11 -24.5q0 -27 -50 -55l-126 -68z" />
    <glyph glyph-name="nacute" unicode="&#x144;" horiz-adv-x="606" 
d="M376 488q65 0 96.5 -44t31.5 -141v-93q0 -60 2 -160l70 -14v-36h-232v36l74 14q2 98 2 160v85q0 68 -19 94.5t-64 26.5q-63 0 -136 -60v-146q0 -60 2 -160l69 -14v-36h-232v36l74 14q2 100 2 160v48q0 65 -3 125l-79 9v35l140 61l15 -10l8 -81q38 41 85.5 66t93.5 25z
M284 576q42 70 89 141q25 41 54 41q16 0 27 -10t11 -28q0 -23 -34 -55l-121 -108z" />
    <glyph glyph-name="uni0145" unicode="&#x145;" horiz-adv-x="735" 
d="M454 628v41h241v-41l-85 -13v-622h-35l-400 545v-483l106 -14v-41h-242v41l85 12v555l-9 12l-71 8v41h154l361 -496v442zM446 -108q0 -89 -134 -133l-10 29q58 23 84 57q-47 24 -47 64q0 21 15.5 35t36.5 14q24 0 46 -19q9 -27 9 -47z" />
    <glyph glyph-name="uni0146" unicode="&#x146;" horiz-adv-x="606" 
d="M376 488q65 0 96.5 -44t31.5 -141v-93q0 -60 2 -160l70 -14v-36h-232v36l74 14q2 98 2 160v85q0 68 -19 94.5t-64 26.5q-63 0 -136 -60v-146q0 -60 2 -160l69 -14v-36h-232v36l74 14q2 100 2 160v48q0 65 -3 125l-79 9v35l140 61l15 -10l8 -81q38 41 85.5 66t93.5 25z
M369 -118q0 -89 -134 -133l-10 29q58 23 84 57q-47 24 -47 64q0 21 15.5 35t36.5 14q24 0 46 -19q9 -27 9 -47z" />
    <glyph glyph-name="Ncaron" unicode="&#x147;" horiz-adv-x="735" 
d="M454 628v41h241v-41l-85 -13v-622h-35l-400 545v-483l106 -14v-41h-242v41l85 12v555l-9 12l-71 8v41h154l361 -496v442zM258 858l115 -85l115 85l24 -21l-102 -118h-74l-102 118z" />
    <glyph glyph-name="ncaron" unicode="&#x148;" horiz-adv-x="606" 
d="M376 488q65 0 96.5 -44t31.5 -141v-93q0 -60 2 -160l70 -14v-36h-232v36l74 14q2 98 2 160v85q0 68 -19 94.5t-64 26.5q-63 0 -136 -60v-146q0 -60 2 -160l69 -14v-36h-232v36l74 14q2 100 2 160v48q0 65 -3 125l-79 9v35l140 61l15 -10l8 -81q38 41 85.5 66t93.5 25z
M198 739l115 -105l115 105l24 -20l-102 -148h-74l-102 148z" />
    <glyph glyph-name="napostrophe" unicode="&#x149;" horiz-adv-x="772" 
d="M542 488q65 0 96.5 -44t31.5 -141v-93q0 -60 2 -160l70 -14v-36h-232v36l74 14q2 98 2 160v85q0 68 -19 94.5t-64 26.5q-63 0 -136 -60v-146q0 -60 2 -160l69 -14v-36h-232v36l74 14q2 100 2 160v48q0 65 -3 125l-79 9v35l140 61l15 -10l8 -81q38 41 85.5 66t93.5 25z
M175 658q0 -62 -39 -119.5t-99 -95.5l-19 27q39 32 60.5 57.5t37.5 62.5l-29 26q-39 34 -39 74q0 59 59 59q33 0 54 -20q14 -34 14 -71z" />
    <glyph glyph-name="Omacron" unicode="&#x14c;" horiz-adv-x="707" 
d="M156 335q0 -79 19.5 -145t66 -110.5t112.5 -44.5t112 44.5t65 110t19 145.5q0 125 -49.5 212t-146.5 87q-66 0 -112.5 -44.5t-66 -110t-19.5 -144.5zM354 684q124 0 215 -93.5t91 -255.5q0 -158 -91.5 -254t-214.5 -96q-125 0 -216 93.5t-91 256.5q0 157 92 253t215 96z
M203 758v63h302v-63h-302z" />
    <glyph glyph-name="omacron" unicode="&#x14d;" horiz-adv-x="549" 
d="M274 -13q-94 0 -161.5 65.5t-67.5 182.5q0 118 68 185.5t161 67.5t161.5 -67.5t68.5 -185.5q0 -117 -68 -182.5t-162 -65.5zM274 32q65 0 100 51.5t35 151.5q0 101 -35 154t-100 53t-99.5 -53t-34.5 -154q0 -203 134 -203zM143 596v63h262v-63h-262z" />
    <glyph glyph-name="uni014E" unicode="&#x14e;" horiz-adv-x="707" 
d="M156 335q0 -79 19.5 -145t66 -110.5t112.5 -44.5t112 44.5t65 110t19 145.5q0 125 -49.5 212t-146.5 87q-66 0 -112.5 -44.5t-66 -110t-19.5 -144.5zM354 684q124 0 215 -93.5t91 -255.5q0 -158 -91.5 -254t-214.5 -96q-125 0 -216 93.5t-91 256.5q0 157 92 253t215 96z
M210 868l31 11q12 -35 41 -56t72 -21q84 0 113 77l31 -11q-8 -51 -45 -89t-99 -38t-99 38t-45 89z" />
    <glyph glyph-name="uni014F" unicode="&#x14f;" horiz-adv-x="549" 
d="M274 -13q-94 0 -161.5 65.5t-67.5 182.5q0 118 68 185.5t161 67.5t161.5 -67.5t68.5 -185.5q0 -117 -68 -182.5t-162 -65.5zM274 32q65 0 100 51.5t35 151.5q0 101 -35 154t-100 53t-99.5 -53t-34.5 -154q0 -203 134 -203zM123 723l30 11q36 -93 121 -93t121 93l30 -11
q-7 -62 -46.5 -105t-104.5 -43t-104.5 43t-46.5 105z" />
    <glyph glyph-name="Ohungarumlaut" unicode="&#x150;" horiz-adv-x="707" 
d="M156 335q0 -79 19.5 -145t66 -110.5t112.5 -44.5t112 44.5t65 110t19 145.5q0 125 -49.5 212t-146.5 87q-66 0 -112.5 -44.5t-66 -110t-19.5 -144.5zM354 684q124 0 215 -93.5t91 -255.5q0 -158 -91.5 -254t-214.5 -96q-125 0 -216 93.5t-91 256.5q0 157 92 253t215 96z
M257 729l56 117q20 42 52 42q15 0 25.5 -9.5t10.5 -24.5q0 -21 -22 -44l-96 -99zM409 729l56 117q20 42 53 42q15 0 25 -9.5t10 -24.5q0 -21 -22 -44l-96 -99z" />
    <glyph glyph-name="ohungarumlaut" unicode="&#x151;" horiz-adv-x="549" 
d="M274 -13q-94 0 -161.5 65.5t-67.5 182.5q0 118 68 185.5t161 67.5t161.5 -67.5t68.5 -185.5q0 -117 -68 -182.5t-162 -65.5zM274 32q65 0 100 51.5t35 151.5q0 101 -35 154t-100 53t-99.5 -53t-34.5 -154q0 -203 134 -203zM182 567l55 142q17 47 53 47q15 0 25 -10
t10 -27q0 -23 -22 -51l-93 -117zM324 567l55 142q17 47 53 47q15 0 25.5 -10t10.5 -27q0 -22 -23 -51l-93 -117z" />
    <glyph glyph-name="OE" unicode="&#x152;" horiz-adv-x="938" 
d="M156 335q0 -82 22 -147t76 -109t135 -44q49 0 81 10q2 87 2 265v49q0 177 -2 265q-33 10 -80 10q-119 0 -176.5 -85.5t-57.5 -213.5zM846 178h57l-7 -178h-386q-80 -15 -128 -15q-143 0 -239 94t-96 256q0 161 96 255t239 94q48 0 128 -15h366l7 -177h-57l-22 127h-235
q-2 -85 -2 -254h146l14 95h46v-236h-46l-13 94h-147q0 -185 2 -268h255z" />
    <glyph glyph-name="oe" unicode="&#x153;" horiz-adv-x="868" 
d="M274 442q-65 0 -99.5 -52.5t-34.5 -153.5q0 -100 34.5 -152t99.5 -52q135 0 135 201q0 101 -35 155t-100 54zM629 442q-48 0 -86 -39.5t-46 -120.5h182q33 0 46.5 13t13.5 39q0 44 -31.5 76t-78.5 32zM820 103q-59 -116 -192 -116q-120 0 -176 94q-31 -45 -79 -69.5
t-99 -24.5q-94 0 -161.5 66t-67.5 183q0 118 68 185t161 67q52 0 102 -26.5t80 -72.5q30 46 78 72.5t100 26.5q82 0 135 -52t53 -141q0 -32 -7 -55h-320q1 -90 44.5 -139t118.5 -49q85 0 139 70z" />
    <glyph glyph-name="Racute" unicode="&#x154;" horiz-adv-x="651" 
d="M283 745q46 49 94 94q38 38 62 38q16 0 27 -9.5t11 -24.5q0 -27 -50 -55l-126 -68zM138 310v49q0 172 -2 258l-92 11v41h280q115 0 179 -46t64 -129q0 -61 -43.5 -108t-124.5 -61q45 -9 73 -39t45 -88l43 -148l77 -9v-41q-33 -10 -75 -10q-48 0 -71 14t-32 50l-40 160
q-14 58 -43.5 77t-93.5 19h-49q0 -178 2 -258l92 -11v-41h-283v41l92 11q2 84 2 258zM321 623h-86q-2 -88 -2 -268h77q78 0 118 37.5t40 100.5q0 130 -147 130z" />
    <glyph glyph-name="racute" unicode="&#x155;" horiz-adv-x="423" 
d="M42 0v36l72 13q2 100 2 161v48q0 65 -3 125l-79 9v35l140 61l15 -10l11 -118q24 59 63.5 93.5t80.5 34.5q23 0 43 -10.5t29 -26.5q0 -73 -59 -73q-31 0 -61 25l-12 11q-57 -43 -83 -129v-75q0 -59 2 -159l82 -15v-36h-243zM213 576q42 70 89 141q25 41 54 41q16 0 27 -10
t11 -28q0 -23 -34 -55l-121 -108z" />
    <glyph glyph-name="uni0156" unicode="&#x156;" horiz-adv-x="651" 
d="M138 310v49q0 172 -2 258l-92 11v41h280q115 0 179 -46t64 -129q0 -61 -43.5 -108t-124.5 -61q45 -9 73 -39t45 -88l43 -148l77 -9v-41q-33 -10 -75 -10q-48 0 -71 14t-32 50l-40 160q-14 58 -43.5 77t-93.5 19h-49q0 -178 2 -258l92 -11v-41h-283v41l92 11q2 84 2 258z
M321 623h-86q-2 -88 -2 -268h77q78 0 118 37.5t40 100.5q0 130 -147 130zM413 -108q0 -89 -134 -133l-10 29q58 23 84 57q-47 24 -47 64q0 21 15.5 35t36.5 14q24 0 46 -19q9 -27 9 -47z" />
    <glyph glyph-name="uni0157" unicode="&#x157;" horiz-adv-x="423" 
d="M42 0v36l72 13q2 100 2 161v48q0 65 -3 125l-79 9v35l140 61l15 -10l11 -118q24 59 63.5 93.5t80.5 34.5q23 0 43 -10.5t29 -26.5q0 -73 -59 -73q-31 0 -61 25l-12 11q-57 -43 -83 -129v-75q0 -59 2 -159l82 -15v-36h-243zM214 -118q0 -89 -134 -133l-10 29q58 23 84 57
q-47 24 -47 64q0 21 15.5 35t36.5 14q24 0 46 -19q9 -27 9 -47z" />
    <glyph glyph-name="Rcaron" unicode="&#x158;" horiz-adv-x="651" 
d="M138 310v49q0 172 -2 258l-92 11v41h280q115 0 179 -46t64 -129q0 -61 -43.5 -108t-124.5 -61q45 -9 73 -39t45 -88l43 -148l77 -9v-41q-33 -10 -75 -10q-48 0 -71 14t-32 50l-40 160q-14 58 -43.5 77t-93.5 19h-49q0 -178 2 -258l92 -11v-41h-283v41l92 11q2 84 2 258z
M321 623h-86q-2 -88 -2 -268h77q78 0 118 37.5t40 100.5q0 130 -147 130zM206 868l115 -85l115 85l24 -21l-102 -118h-74l-102 118z" />
    <glyph glyph-name="rcaron" unicode="&#x159;" horiz-adv-x="423" 
d="M42 0v36l72 13q2 100 2 161v48q0 65 -3 125l-79 9v35l140 61l15 -10l11 -118q24 59 63.5 93.5t80.5 34.5q23 0 43 -10.5t29 -26.5q0 -73 -59 -73q-31 0 -61 25l-12 11q-57 -43 -83 -129v-75q0 -59 2 -159l82 -15v-36h-243zM111 739l115 -105l115 105l24 -20l-102 -148
h-74l-102 148z" />
    <glyph glyph-name="Sacute" unicode="&#x15a;" horiz-adv-x="512" 
d="M232 35q71 0 113 32t42 89q0 46 -28 73t-95 53l-39 16q-172 67 -172 201q0 85 63.5 135t161.5 50q94 0 164 -52l-6 -131h-61l-21 113q-37 20 -82 20q-59 0 -97 -29.5t-38 -83.5q0 -45 28.5 -75t84.5 -52l40 -15q98 -38 140 -85.5t42 -118.5q0 -87 -65.5 -138.5
t-171.5 -51.5q-114 0 -195 53l6 140h62l20 -118q46 -25 104 -25zM220 745q46 49 94 94q38 38 62 38q16 0 27 -9.5t11 -24.5q0 -27 -50 -55l-126 -68z" />
    <glyph glyph-name="sacute" unicode="&#x15b;" horiz-adv-x="434" 
d="M200 -13q-75 0 -149 38l-4 110h55l19 -87q35 -16 81 -16q55 0 83.5 20.5t28.5 55.5q0 31 -22 50.5t-71 36.5l-46 17q-121 45 -121 135q0 58 47 99.5t127 41.5q72 0 140 -41l-4 -102h-52l-16 80q-34 17 -69 17q-45 0 -69 -18.5t-24 -49.5q0 -32 19.5 -49t72.5 -37l31 -11
q73 -27 105.5 -62.5t32.5 -84.5q0 -60 -51.5 -101.5t-143.5 -41.5zM188 576q42 70 89 141q25 41 54 41q16 0 27 -10t11 -28q0 -23 -34 -55l-121 -108z" />
    <glyph glyph-name="Scircumflex" unicode="&#x15c;" horiz-adv-x="512" 
d="M232 35q71 0 113 32t42 89q0 46 -28 73t-95 53l-39 16q-172 67 -172 201q0 85 63.5 135t161.5 50q94 0 164 -52l-6 -131h-61l-21 113q-37 20 -82 20q-59 0 -97 -29.5t-38 -83.5q0 -45 28.5 -75t84.5 -52l40 -15q98 -38 140 -85.5t42 -118.5q0 -87 -65.5 -138.5
t-171.5 -51.5q-114 0 -195 53l6 140h62l20 -118q46 -25 104 -25zM285 856l131 -115l-19 -25l-129 74l-129 -74l-19 25l131 115h34z" />
    <glyph glyph-name="scircumflex" unicode="&#x15d;" horiz-adv-x="434" 
d="M200 -13q-75 0 -149 38l-4 110h55l19 -87q35 -16 81 -16q55 0 83.5 20.5t28.5 55.5q0 31 -22 50.5t-71 36.5l-46 17q-121 45 -121 135q0 58 47 99.5t127 41.5q72 0 140 -41l-4 -102h-52l-16 80q-34 17 -69 17q-45 0 -69 -18.5t-24 -49.5q0 -32 19.5 -49t72.5 -37l31 -11
q73 -27 105.5 -62.5t32.5 -84.5q0 -60 -51.5 -101.5t-143.5 -41.5zM354 546l-126 114l-126 -114l-23 22l132 176h34l132 -176z" />
    <glyph glyph-name="uni015E" unicode="&#x15e;" horiz-adv-x="512" 
d="M232 35q71 0 113 32t42 89q0 46 -28 73t-95 53l-39 16q-172 67 -172 201q0 85 63.5 135t161.5 50q94 0 164 -52l-6 -131h-61l-21 113q-37 20 -82 20q-59 0 -97 -29.5t-38 -83.5q0 -45 28.5 -75t84.5 -52l40 -15q98 -38 140 -85.5t42 -118.5q0 -80 -55 -130t-146 -58
l-6 -45q41 -6 66.5 -27t25.5 -55q0 -36 -29.5 -58t-82.5 -22q-34 0 -63 9l7 31q24 -3 48 -3q58 0 58 45q0 23 -17 35t-55 17l10 71q-112 0 -193 53l6 140h62l20 -118q46 -25 104 -25z" />
    <glyph glyph-name="uni015F" unicode="&#x15f;" horiz-adv-x="434" 
d="M183 -86l11 73q-71 1 -143 38l-4 110h55l19 -87q35 -16 81 -16q55 0 83.5 20.5t28.5 55.5q0 31 -22 50.5t-71 36.5l-46 17q-121 45 -121 135q0 58 47 99.5t127 41.5q72 0 140 -41l-4 -102h-52l-16 80q-34 17 -69 17q-45 0 -69 -18.5t-24 -49.5q0 -32 19.5 -49t72.5 -37
l31 -11q73 -27 105.5 -62.5t32.5 -84.5q0 -55 -42.5 -95t-121.5 -47l-6 -46q41 -6 66.5 -27t25.5 -55q0 -36 -29.5 -58t-82.5 -22q-34 0 -63 9l7 31q24 -3 48 -3q58 0 58 45q0 23 -17 35t-55 17z" />
    <glyph glyph-name="Scaron" unicode="&#x160;" horiz-adv-x="512" 
d="M232 35q71 0 113 32t42 89q0 46 -28 73t-95 53l-39 16q-172 67 -172 201q0 85 63.5 135t161.5 50q94 0 164 -52l-6 -131h-61l-21 113q-37 20 -82 20q-59 0 -97 -29.5t-38 -83.5q0 -45 28.5 -75t84.5 -52l40 -15q98 -38 140 -85.5t42 -118.5q0 -87 -65.5 -138.5
t-171.5 -51.5q-114 0 -195 53l6 140h62l20 -118q46 -25 104 -25zM156 868l115 -85l115 85l24 -21l-102 -118h-74l-102 118z" />
    <glyph glyph-name="scaron" unicode="&#x161;" horiz-adv-x="434" 
d="M200 -13q-75 0 -149 38l-4 110h55l19 -87q35 -16 81 -16q55 0 83.5 20.5t28.5 55.5q0 31 -22 50.5t-71 36.5l-46 17q-121 45 -121 135q0 58 47 99.5t127 41.5q72 0 140 -41l-4 -102h-52l-16 80q-34 17 -69 17q-45 0 -69 -18.5t-24 -49.5q0 -32 19.5 -49t72.5 -37l31 -11
q73 -27 105.5 -62.5t32.5 -84.5q0 -60 -51.5 -101.5t-143.5 -41.5zM112 739l115 -105l115 105l24 -20l-102 -148h-74l-102 148z" />
    <glyph glyph-name="uni0162" unicode="&#x162;" horiz-adv-x="604" 
d="M268 -86l13 86h-130v41l102 11q2 85 2 258v49q0 173 -2 260h-153l-22 -128h-58l8 178h548l8 -178h-58l-22 128h-153q-2 -85 -2 -260v-49q0 -172 2 -258l102 -11v-41h-135l-8 -58q41 -6 66.5 -27t25.5 -55q0 -36 -29.5 -58t-82.5 -22q-34 0 -63 9l7 31q24 -3 48 -3
q58 0 58 45q0 23 -17 35t-55 17z" />
    <glyph glyph-name="uni0163" unicode="&#x163;" horiz-adv-x="325" 
d="M177 112q0 -73 55 -73q30 0 67 27l24 -26q-39 -50 -111 -53l-6 -45q41 -6 66.5 -27t25.5 -55q0 -36 -29.5 -58t-82.5 -22q-34 0 -63 9l7 31q24 -3 48 -3q58 0 58 45q0 23 -17 35t-55 17l11 76q-84 15 -84 111q0 11 0.5 37.5t0.5 47.5v236h-83v44l89 11l26 134h60l-5 -136
h134v-53h-136v-310z" />
    <glyph glyph-name="Tcaron" unicode="&#x164;" horiz-adv-x="604" 
d="M255 310v49q0 173 -2 260h-153l-22 -128h-58l8 178h548l8 -178h-58l-22 128h-153q-2 -85 -2 -260v-49q0 -172 2 -258l102 -11v-41h-302v41l102 11q2 85 2 258zM187 868l115 -85l115 85l24 -21l-102 -118h-74l-102 118z" />
    <glyph glyph-name="tcaron" unicode="&#x165;" horiz-adv-x="325" 
d="M310 750q36 0 36 -37q0 -31 -34 -131l-20 -54h-32l3 209q23 13 47 13zM177 112q0 -73 55 -73q30 0 67 27l24 -26q-41 -53 -118 -53q-54 0 -84 28.5t-30 85.5q0 11 0.5 37.5t0.5 47.5v236h-83v44l89 11l26 134h60l-5 -136h134v-53h-136v-310z" />
    <glyph glyph-name="Utilde" unicode="&#x168;" horiz-adv-x="727" 
d="M218 281q0 -122 42.5 -173.5t123.5 -51.5q87 0 129 56t42 186v317l-102 13v41h240v-41l-87 -11v-343q0 -150 -64.5 -219.5t-174.5 -69.5q-114 0 -178.5 66t-64.5 201v108q0 172 -2 258l-83 10v41h283v-41l-102 -12q-2 -84 -2 -256v-79zM198 734q20 129 105 129
q38 0 81 -34q6 -5 17.5 -15.5t19 -16.5t18 -11t21.5 -5q44 0 68 80l30 -10q-22 -128 -104 -128q-39 0 -82 33q-5 4 -17.5 15.5t-19 17t-17.5 10.5t-22 5q-44 0 -68 -79z" />
    <glyph glyph-name="utilde" unicode="&#x169;" horiz-adv-x="583" 
d="M549 0l-139 -8l-10 89q-77 -94 -177 -94q-131 0 -130 180l3 249l-71 15v36l147 14l10 -10l-5 -140v-155q0 -64 19.5 -91t60.5 -27q70 0 140 65l3 294l-71 14v36l145 14l10 -10l-3 -140v-281l68 -14v-36zM129 586q18 129 95 129q35 0 73 -34q6 -5 16.5 -15.5l17 -16.5
t16.5 -11t19 -5q39 0 62 80l27 -10q-20 -128 -95 -128q-36 0 -73 33l-16 16t-17.5 16.5t-16.5 10.5t-19 5q-39 0 -62 -79z" />
    <glyph glyph-name="Umacron" unicode="&#x16a;" horiz-adv-x="727" 
d="M218 281q0 -122 42.5 -173.5t123.5 -51.5q87 0 129 56t42 186v317l-102 13v41h240v-41l-87 -11v-343q0 -150 -64.5 -219.5t-174.5 -69.5q-114 0 -178.5 66t-64.5 201v108q0 172 -2 258l-83 10v41h283v-41l-102 -12q-2 -84 -2 -256v-79zM231 758v63h302v-63h-302z" />
    <glyph glyph-name="umacron" unicode="&#x16b;" horiz-adv-x="583" 
d="M549 0l-139 -8l-10 89q-77 -94 -177 -94q-131 0 -130 180l3 249l-71 15v36l147 14l10 -10l-5 -140v-155q0 -64 19.5 -91t60.5 -27q70 0 140 65l3 294l-71 14v36l145 14l10 -10l-3 -140v-281l68 -14v-36zM158 596v63h262v-63h-262z" />
    <glyph glyph-name="Ubreve" unicode="&#x16c;" horiz-adv-x="727" 
d="M218 281q0 -122 42.5 -173.5t123.5 -51.5q87 0 129 56t42 186v317l-102 13v41h240v-41l-87 -11v-343q0 -150 -64.5 -219.5t-174.5 -69.5q-114 0 -178.5 66t-64.5 201v108q0 172 -2 258l-83 10v41h283v-41l-102 -12q-2 -84 -2 -256v-79zM241 858l31 11q12 -35 41 -56
t72 -21q84 0 113 77l31 -11q-8 -51 -45 -89t-99 -38t-99 38t-45 89z" />
    <glyph glyph-name="ubreve" unicode="&#x16d;" horiz-adv-x="583" 
d="M549 0l-139 -8l-10 89q-77 -94 -177 -94q-131 0 -130 180l3 249l-71 15v36l147 14l10 -10l-5 -140v-155q0 -64 19.5 -91t60.5 -27q70 0 140 65l3 294l-71 14v36l145 14l10 -10l-3 -140v-281l68 -14v-36zM141 723l30 11q36 -93 121 -93t121 93l30 -11q-7 -62 -46.5 -105
t-104.5 -43t-104.5 43t-46.5 105z" />
    <glyph glyph-name="Uring" unicode="&#x16e;" horiz-adv-x="727" 
d="M218 281q0 -122 42.5 -173.5t123.5 -51.5q87 0 129 56t42 186v317l-102 13v41h240v-41l-87 -11v-343q0 -150 -64.5 -219.5t-174.5 -69.5q-114 0 -178.5 66t-64.5 201v108q0 172 -2 258l-83 10v41h283v-41l-102 -12q-2 -84 -2 -256v-79zM385 757q24 0 38 17.5t14 39.5
q0 23 -14 39.5t-38 16.5t-38 -16.5t-14 -39.5t14 -40t38 -17zM385 722q-39 0 -67.5 25t-28.5 67t28.5 67.5t67.5 25.5t67.5 -25t28.5 -68q0 -41 -28.5 -66.5t-67.5 -25.5z" />
    <glyph glyph-name="uring" unicode="&#x16f;" horiz-adv-x="583" 
d="M549 0l-139 -8l-10 89q-77 -94 -177 -94q-131 0 -130 180l3 249l-71 15v36l147 14l10 -10l-5 -140v-155q0 -64 19.5 -91t60.5 -27q70 0 140 65l3 294l-71 14v36l145 14l10 -10l-3 -140v-281l68 -14v-36zM287 590q26 0 41.5 18.5t15.5 43.5t-15.5 43t-41.5 18t-41.5 -18
t-15.5 -43t15.5 -43.5t41.5 -18.5zM287 550q-43 0 -74 27.5t-31 74.5q0 45 31.5 73t73.5 28q43 0 74 -27t31 -74q0 -46 -31 -74t-74 -28z" />
    <glyph glyph-name="Uhungarumlaut" unicode="&#x170;" horiz-adv-x="727" 
d="M218 281q0 -122 42.5 -173.5t123.5 -51.5q87 0 129 56t42 186v317l-102 13v41h240v-41l-87 -11v-343q0 -150 -64.5 -219.5t-174.5 -69.5q-114 0 -178.5 66t-64.5 201v108q0 172 -2 258l-83 10v41h283v-41l-102 -12q-2 -84 -2 -256v-79zM283 729l56 117q20 42 52 42
q15 0 25.5 -9.5t10.5 -24.5q0 -21 -22 -44l-96 -99zM435 729l56 117q20 42 53 42q15 0 25 -9.5t10 -24.5q0 -21 -22 -44l-96 -99z" />
    <glyph glyph-name="uhungarumlaut" unicode="&#x171;" horiz-adv-x="583" 
d="M549 0l-139 -8l-10 89q-77 -94 -177 -94q-131 0 -130 180l3 249l-71 15v36l147 14l10 -10l-5 -140v-155q0 -64 19.5 -91t60.5 -27q70 0 140 65l3 294l-71 14v36l145 14l10 -10l-3 -140v-281l68 -14v-36zM190 567l55 142q17 47 53 47q15 0 25 -10t10 -27q0 -23 -22 -51
l-93 -117zM332 567l55 142q17 47 53 47q15 0 25.5 -10t10.5 -27q0 -22 -23 -51l-93 -117z" />
    <glyph glyph-name="Uogonek" unicode="&#x172;" horiz-adv-x="727" 
d="M453 628v41h240v-41l-87 -12v-342q0 -183 -110 -256q-75 -51 -75 -114q0 -32 19 -50t49 -18q28 0 52 15l12 -23q-34 -48 -99 -48q-44 0 -70 23.5t-26 64.5q0 68 65 121q-32 -4 -49 -4q-118 0 -184 65.5t-66 201.5v108q0 173 -2 258l-83 10v41h283v-41l-102 -12
q-2 -84 -2 -256v-79q0 -122 41.5 -173.5t120.5 -51.5q90 0 132.5 56t42.5 186v318z" />
    <glyph glyph-name="uogonek" unicode="&#x173;" horiz-adv-x="583" 
d="M549 0l-39 -2q-63 -45 -63 -94q0 -32 19 -50t50 -18q27 0 52 15l12 -23q-35 -48 -105 -48q-41 0 -66 23.5t-25 64.5q0 38 25.5 71.5t65.5 56.5l-65 -4l-10 89q-77 -94 -177 -94q-131 0 -130 180l3 249l-71 15v36l147 14l10 -10l-5 -140v-155q0 -64 19.5 -91t60.5 -27
q70 0 140 65l3 294l-71 14v36l145 14l10 -10l-3 -140v-281l68 -14v-36z" />
    <glyph glyph-name="Wcircumflex" unicode="&#x174;" horiz-adv-x="962" 
d="M657 -7l-173 519l-163 -519h-43l-180 625l-83 10v41h272v-41l-92 -11l123 -460l152 459l-100 12v41h272v-41l-101 -12l149 -463l127 462l-91 13v41h227v-41l-84 -12l-169 -623h-43zM522 856l131 -115l-19 -25l-129 74l-129 -74l-19 25l131 115h34z" />
    <glyph glyph-name="wcircumflex" unicode="&#x175;" horiz-adv-x="764" 
d="M571 436v39h183v-39l-54 -13l-146 -429h-37l-130 354l-132 -354h-37l-161 432l-57 10v39h228v-39l-78 -12l103 -307l112 307l-74 12v39h221v-39l-74 -13l114 -304l93 303zM529 546l-126 114l-126 -114l-23 22l132 176h34l132 -176z" />
    <glyph glyph-name="Ycircumflex" unicode="&#x176;" horiz-adv-x="633" 
d="M394 628v41h229v-41l-88 -13l-170 -352q0 -147 2 -211l102 -11v-41h-302v41l102 11q2 62 2 207l-177 360l-79 9v41h282v-41l-95 -11l139 -303l143 302zM358 856l131 -115l-19 -25l-129 74l-129 -74l-19 25l131 115h34z" />
    <glyph glyph-name="ycircumflex" unicode="&#x177;" horiz-adv-x="512" 
d="M92 -249q-38 0 -65 18.5t-27 47.5q5 21 24 32.5t43 11.5q37 0 74 -38l5 -5q56 48 90 144l4 12l-181 457l-55 8v36h240v-37l-88 -10l125 -341l123 340l-87 12v36h195v-36l-54 -11l-161 -425q-51 -135 -97.5 -193.5t-107.5 -58.5zM410 546l-126 114l-126 -114l-23 22
l132 176h34l132 -176z" />
    <glyph glyph-name="Ydieresis" unicode="&#x178;" horiz-adv-x="633" 
d="M394 628v41h229v-41l-88 -13l-170 -352q0 -147 2 -211l102 -11v-41h-302v41l102 11q2 62 2 207l-177 360l-79 9v41h282v-41l-95 -11l139 -303l143 302zM235 744q-24 0 -41 15.5t-17 39.5t17 39.5t41 15.5t40.5 -15.5t16.5 -39.5t-16.5 -39.5t-40.5 -15.5zM458 744
q-24 0 -40.5 15.5t-16.5 39.5t16.5 39.5t40.5 15.5t41 -15.5t17 -39.5t-17 -39.5t-41 -15.5z" />
    <glyph glyph-name="Zacute" unicode="&#x179;" horiz-adv-x="551" 
d="M91 491h-61l8 178h471v-35l-377 -584h311l27 128h61l-8 -178h-503v36l379 583h-281zM240 745q46 49 94 94q38 38 62 38q16 0 27 -9.5t11 -24.5q0 -27 -50 -55l-126 -68z" />
    <glyph glyph-name="zacute" unicode="&#x17a;" horiz-adv-x="456" 
d="M43 475h373v-36l-285 -397h218l30 121h52l-10 -163h-392v35l286 397h-201l-27 -111l-52 4zM200 576q42 70 89 141q25 41 54 41q16 0 27 -10t11 -28q0 -23 -34 -55l-121 -108z" />
    <glyph glyph-name="Zdotaccent" unicode="&#x17b;" horiz-adv-x="551" 
d="M91 491h-61l8 178h471v-35l-377 -584h311l27 128h61l-8 -178h-503v36l379 583h-281zM286 736q-29 0 -48 18t-19 46t19 46t48 18t48 -18t19 -46t-19 -46t-48 -18z" />
    <glyph glyph-name="zdotaccent" unicode="&#x17c;" horiz-adv-x="456" 
d="M43 475h373v-36l-285 -397h218l30 121h52l-10 -163h-392v35l286 397h-201l-27 -111l-52 4zM236 589q-29 0 -48 18t-19 46t19 46t48 18t48 -18t19 -46t-19 -46t-48 -18z" />
    <glyph glyph-name="Zcaron" unicode="&#x17d;" horiz-adv-x="551" 
d="M91 491h-61l8 178h471v-35l-377 -584h311l27 128h61l-8 -178h-503v36l379 583h-281zM162 868l115 -85l115 85l24 -21l-102 -118h-74l-102 118z" />
    <glyph glyph-name="zcaron" unicode="&#x17e;" horiz-adv-x="456" 
d="M43 475h373v-36l-285 -397h218l30 121h52l-10 -163h-392v35l286 397h-201l-27 -111l-52 4zM124 739l115 -105l115 105l24 -20l-102 -148h-74l-102 148z" />
    <glyph glyph-name="longs" unicode="&#x17f;" horiz-adv-x="344" 
d="M107 210v212q0 185 71 266q57 61 141 61q81 0 96 -54q-1 -20 -17 -32.5t-43 -12.5q-37 0 -72 30l-29 22q-21 -17 -35 -41q-28 -52 -28 -229v-222q0 -53 2 -159l90 -15v-36h-258v36l80 14q2 108 2 160z" />
    <glyph glyph-name="uni018F" unicode="&#x18f;" horiz-adv-x="657" 
d="M47 278q0 55 7 88h451q-8 128 -67 193t-143 65q-110 0 -185 -81l-28 30q83 111 233 111q126 0 210.5 -92t84.5 -252t-81.5 -257.5t-201.5 -97.5q-128 0 -204 77.5t-76 215.5zM328 35q175 0 178 284h-352q-6 -38 -6 -79q0 -83 51 -144t129 -61z" />
    <glyph glyph-name="uni0192" unicode="&#x192;" horiz-adv-x="500" 
d="M103 345v50h117q16 147 72 209q52 55 128 55q40 0 67.5 -15t35.5 -39q-7 -45 -57 -45q-37 0 -69 33l-22 23q-26 -17 -39 -40q-16 -27 -22.5 -64t-12.5 -117h125v-50h-129l-10 -112q-11 -117 -27.5 -178t-52.5 -100q-51 -55 -126 -55q-40 0 -68.5 15t-36.5 39q8 45 57 45
q40 0 70 -33l23 -23q25 15 39 40q8 14 13.5 29t9.5 40.5t5.5 41t5 59t5.5 64.5l11 128h-112z" />
    <glyph glyph-name="Ohorn" unicode="&#x1a0;" horiz-adv-x="707" 
d="M156 335q0 -79 19.5 -145t66 -110.5t112.5 -44.5t112 44.5t65 110t19 145.5q0 125 -49.5 212t-146.5 87q-66 0 -112.5 -44.5t-66 -110t-19.5 -144.5zM354 684q111 0 192 -72q50 21 50 71q0 15 -12.5 39.5t-12.5 38.5q0 13 11 24.5t28 11.5q22 0 36 -12q14 -30 14 -55
q0 -49 -24.5 -85t-66.5 -55q91 -98 91 -255q0 -158 -91.5 -254t-214.5 -96q-125 0 -216 93.5t-91 256.5q0 157 92 253t215 96z" />
    <glyph glyph-name="ohorn" unicode="&#x1a1;" horiz-adv-x="549" 
d="M274 32q65 0 100 51.5t35 151.5q0 101 -35 154t-100 53t-99.5 -53t-34.5 -154q0 -203 134 -203zM274 -13q-94 0 -161.5 65.5t-67.5 182.5q0 118 68 185.5t161 67.5q99 0 165 -71q46 19 46 69q0 15 -12.5 39.5t-12.5 38.5q0 13 11 24.5t28 11.5q22 0 36 -12q14 -30 14 -55
q0 -49 -24.5 -85t-66.5 -55q46 -66 46 -158q0 -117 -68 -182.5t-162 -65.5z" />
    <glyph glyph-name="Uhorn" unicode="&#x1af;" horiz-adv-x="727" 
d="M218 281q0 -122 42.5 -173.5t123.5 -51.5q87 0 129 56t42 186v317l-102 13v41h138q89 0 89 31q0 11 -12.5 33.5t-12.5 37.5q0 13 11 25t28 12q21 0 36 -13q14 -30 14 -55q0 -106 -138 -122v-344q0 -150 -64.5 -219.5t-174.5 -69.5q-114 0 -178.5 66t-64.5 201v108
q0 172 -2 258l-83 10v41h283v-41l-102 -12q-2 -84 -2 -256v-79z" />
    <glyph glyph-name="uhorn" unicode="&#x1b0;" horiz-adv-x="583" 
d="M177 331v-155q0 -64 19.5 -91t60.5 -27q70 0 140 65l3 294l-71 14v36l145 14l10 -10l-1 -64q79 16 79 79q0 15 -12.5 39.5t-12.5 38.5q0 13 11 24.5t28 11.5q22 0 36 -12q14 -30 14 -55q0 -64 -40.5 -105t-103.5 -49l-1 -48v-281l68 -14v-36l-139 -8l-10 89
q-77 -94 -177 -94q-131 0 -130 180l3 249l-71 15v36l147 14l10 -10z" />
    <glyph glyph-name="uni01CD" unicode="&#x1cd;" horiz-adv-x="664" 
d="M309 562l-101 -298h201zM5 0v41l84 13l213 620h63l213 -624l75 -9v-41h-272v41l98 12l-55 164h-232l-56 -163l98 -13v-41h-229zM215 868l115 -85l115 85l24 -21l-102 -118h-74l-102 118z" />
    <glyph glyph-name="uni01CE" unicode="&#x1ce;" horiz-adv-x="509" 
d="M416 -10q-36 0 -60 21t-30 56q-45 -45 -75.5 -62.5t-71.5 -17.5q-58 0 -96 32.5t-38 92.5q0 46 35 81t131 70q58 21 113 33v25q0 70 -21.5 95.5t-72.5 25.5q-29 0 -54 -6l-19 -65q-14 -48 -52 -48q-42 0 -47 41q14 57 66.5 90.5t128.5 33.5q80 0 117.5 -40.5t37.5 -133.5
v-213q0 -59 36 -59q20 0 39 22l20 -22q-32 -52 -87 -52zM134 739l115 -105l115 105l24 -20l-102 -148h-74l-102 148zM134 127q0 -74 80 -74q24 0 44 10t66 42v154q-53 -15 -92 -30q-98 -38 -98 -102z" />
    <glyph glyph-name="uni01CF" unicode="&#x1cf;" horiz-adv-x="371" 
d="M138 310v49q0 172 -2 258l-92 11v41h283v-41l-92 -11q-2 -84 -2 -258v-49q0 -172 2 -258l92 -11v-41h-283v41l92 11q2 84 2 258zM70 868l115 -85l115 85l24 -21l-102 -118h-74l-102 118z" />
    <glyph glyph-name="uni01D0" unicode="&#x1d0;" horiz-adv-x="298" 
d="M35 0v36l74 14q2 100 2 160v47q0 66 -3 126l-79 9v35l155 61l15 -10l-3 -136v-132q0 -60 2 -160l69 -14v-36h-232zM34 739l115 -105l115 105l24 -20l-102 -148h-74l-102 148z" />
    <glyph glyph-name="uni01D1" unicode="&#x1d1;" horiz-adv-x="707" 
d="M156 335q0 -79 19.5 -145t66 -110.5t112.5 -44.5t112 44.5t65 110t19 145.5q0 125 -49.5 212t-146.5 87q-66 0 -112.5 -44.5t-66 -110t-19.5 -144.5zM354 684q124 0 215 -93.5t91 -255.5q0 -158 -91.5 -254t-214.5 -96q-125 0 -216 93.5t-91 256.5q0 157 92 253t215 96z
M239 868l115 -85l115 85l24 -21l-102 -118h-74l-102 118z" />
    <glyph glyph-name="uni01D2" unicode="&#x1d2;" horiz-adv-x="549" 
d="M274 32q65 0 100 51.5t35 151.5q0 101 -35 154t-100 53t-99.5 -53t-34.5 -154q0 -203 134 -203zM274 -13q-94 0 -161.5 65.5t-67.5 182.5q0 118 68 185.5t161 67.5t161.5 -67.5t68.5 -185.5q0 -117 -68 -182.5t-162 -65.5zM159 739l115 -105l115 105l24 -20l-102 -148
h-74l-102 148z" />
    <glyph glyph-name="uni01D3" unicode="&#x1d3;" horiz-adv-x="727" 
d="M218 281q0 -122 42.5 -173.5t123.5 -51.5q87 0 129 56t42 186v317l-102 13v41h240v-41l-87 -11v-343q0 -150 -64.5 -219.5t-174.5 -69.5q-114 0 -178.5 66t-64.5 201v108q0 172 -2 258l-83 10v41h283v-41l-102 -12q-2 -84 -2 -256v-79zM276 868l115 -85l115 85l24 -21
l-102 -118h-74l-102 118z" />
    <glyph glyph-name="uni01D4" unicode="&#x1d4;" horiz-adv-x="583" 
d="M549 0l-139 -8l-10 89q-77 -94 -177 -94q-131 0 -130 180l3 249l-71 15v36l147 14l10 -10l-5 -140v-155q0 -64 19.5 -91t60.5 -27q70 0 140 65l3 294l-71 14v36l145 14l10 -10l-3 -140v-281l68 -14v-36zM177 739l115 -105l115 105l24 -20l-102 -148h-74l-102 148z" />
    <glyph glyph-name="uni01D5" unicode="&#x1d5;" horiz-adv-x="727" 
d="M218 281q0 -122 42.5 -173.5t123.5 -51.5q87 0 129 56t42 186v317l-102 13v41h240v-41l-87 -11v-343q0 -150 -64.5 -219.5t-174.5 -69.5q-114 0 -178.5 66t-64.5 201v108q0 172 -2 258l-83 10v41h283v-41l-102 -12q-2 -84 -2 -256v-79zM285 744q-24 0 -41 15.5t-17 39.5
t17 39.5t41 15.5t40.5 -15.5t16.5 -39.5t-16.5 -39.5t-40.5 -15.5zM508 744q-24 0 -40.5 15.5t-16.5 39.5t16.5 39.5t40.5 15.5t41 -15.5t17 -39.5t-17 -39.5t-41 -15.5zM246 912v63h302v-63h-302z" />
    <glyph glyph-name="uni01D6" unicode="&#x1d6;" horiz-adv-x="583" 
d="M549 0l-139 -8l-10 89q-77 -94 -177 -94q-131 0 -130 180l3 249l-71 15v36l147 14l10 -10l-5 -140v-155q0 -64 19.5 -91t60.5 -27q70 0 140 65l3 294l-71 14v36l145 14l10 -10l-3 -140v-281l68 -14v-36zM187 576q-24 0 -41.5 16.5t-17.5 40.5t17.5 40.5t41.5 16.5
q25 0 42.5 -16.5t17.5 -40.5t-17.5 -40.5t-42.5 -16.5zM397 576q-25 0 -42.5 16.5t-17.5 40.5t17.5 40.5t42.5 16.5q24 0 41.5 -16.5t17.5 -40.5t-17.5 -40.5t-41.5 -16.5zM161 737v63h262v-63h-262z" />
    <glyph glyph-name="uni01D7" unicode="&#x1d7;" horiz-adv-x="727" 
d="M218 281q0 -122 42.5 -173.5t123.5 -51.5q87 0 129 56t42 186v317l-102 13v41h240v-41l-87 -11v-343q0 -150 -64.5 -219.5t-174.5 -69.5q-114 0 -178.5 66t-64.5 201v108q0 172 -2 258l-83 10v41h283v-41l-102 -12q-2 -84 -2 -256v-79zM227 799q0 24 17 39.5t41 15.5
t40.5 -15.5t16.5 -39.5t-16.5 -39.5t-40.5 -15.5t-41 15.5t-17 39.5zM451 799q0 24 16.5 39.5t40.5 15.5t41 -15.5t17 -39.5t-17 -39.5t-41 -15.5t-40.5 15.5t-16.5 39.5zM385 848l-23 24l67 89q25 34 52 34q15 0 26 -10t11 -26q0 -28 -37 -52z" />
    <glyph glyph-name="uni01D8" unicode="&#x1d8;" horiz-adv-x="583" 
d="M549 0l-139 -8l-10 89q-77 -94 -177 -94q-131 0 -130 180l3 249l-71 15v36l147 14l10 -10l-5 -140v-155q0 -64 19.5 -91t60.5 -27q70 0 140 65l3 294l-71 14v36l145 14l10 -10l-3 -140v-281l68 -14v-36zM134 621q0 24 16.5 39.5t40.5 15.5t41 -15.5t17 -39.5t-17 -39.5
t-41 -15.5t-40.5 15.5t-16.5 39.5zM335 621q0 24 17 39.5t41 15.5t40.5 -15.5t16.5 -39.5t-16.5 -39.5t-40.5 -15.5t-41 15.5t-17 39.5zM266 690l49 97q23 46 54 46q14 0 25 -10t11 -27q0 -25 -30 -52l-83 -73z" />
    <glyph glyph-name="uni01D9" unicode="&#x1d9;" horiz-adv-x="727" 
d="M218 281q0 -122 42.5 -173.5t123.5 -51.5q87 0 129 56t42 186v317l-102 13v41h240v-41l-87 -11v-343q0 -150 -64.5 -219.5t-174.5 -69.5q-114 0 -178.5 66t-64.5 201v108q0 172 -2 258l-83 10v41h283v-41l-102 -12q-2 -84 -2 -256v-79zM285 744q-24 0 -41 15.5t-17 39.5
t17 39.5t41 15.5t40.5 -15.5t16.5 -39.5t-16.5 -39.5t-40.5 -15.5zM508 744q-24 0 -40.5 15.5t-16.5 39.5t16.5 39.5t40.5 15.5t41 -15.5t17 -39.5t-17 -39.5t-41 -15.5zM282 1002l115 -85l115 85l24 -21l-102 -118h-74l-102 118z" />
    <glyph glyph-name="uni01DA" unicode="&#x1da;" horiz-adv-x="583" 
d="M549 0l-139 -8l-10 89q-77 -94 -177 -94q-131 0 -130 180l3 249l-71 15v36l147 14l10 -10l-5 -140v-155q0 -64 19.5 -91t60.5 -27q70 0 140 65l3 294l-71 14v36l145 14l10 -10l-3 -140v-281l68 -14v-36zM187 576q-24 0 -41.5 16.5t-17.5 40.5t17.5 40.5t41.5 16.5
q25 0 42.5 -16.5t17.5 -40.5t-17.5 -40.5t-42.5 -16.5zM397 576q-25 0 -42.5 16.5t-17.5 40.5t17.5 40.5t42.5 16.5q24 0 41.5 -16.5t17.5 -40.5t-17.5 -40.5t-41.5 -16.5zM177 840l115 -85l115 85l24 -21l-102 -118h-74l-102 118z" />
    <glyph glyph-name="uni01DB" unicode="&#x1db;" horiz-adv-x="727" 
d="M218 281q0 -122 42.5 -173.5t123.5 -51.5q87 0 129 56t42 186v317l-102 13v41h240v-41l-87 -11v-343q0 -150 -64.5 -219.5t-174.5 -69.5q-114 0 -178.5 66t-64.5 201v108q0 172 -2 258l-83 10v41h283v-41l-102 -12q-2 -84 -2 -256v-79zM227 799q0 24 17 39.5t41 15.5
t40.5 -15.5t16.5 -39.5t-16.5 -39.5t-40.5 -15.5t-41 15.5t-17 39.5zM451 799q0 24 16.5 39.5t40.5 15.5t41 -15.5t17 -39.5t-17 -39.5t-41 -15.5t-40.5 15.5t-16.5 39.5zM315 907q-37 24 -37 50q0 17 11 27.5t27 10.5q26 0 52 -34l67 -89l-22 -23z" />
    <glyph glyph-name="uni01DC" unicode="&#x1dc;" horiz-adv-x="583" 
d="M549 0l-139 -8l-10 89q-77 -94 -177 -94q-131 0 -130 180l3 249l-71 15v36l147 14l10 -10l-5 -140v-155q0 -64 19.5 -91t60.5 -27q70 0 140 65l3 294l-71 14v36l145 14l10 -10l-3 -140v-281l68 -14v-36zM134 621q0 24 16.5 39.5t40.5 15.5t41 -15.5t17 -39.5t-17 -39.5
t-41 -15.5t-40.5 15.5t-16.5 39.5zM335 621q0 24 17 39.5t41 15.5t40.5 -15.5t16.5 -39.5t-16.5 -39.5t-40.5 -15.5t-41 15.5t-17 39.5zM294 671l-83 73q-30 27 -30 52q0 17 11 27t25 10q31 0 54 -46l47 -95z" />
    <glyph glyph-name="Gcaron" unicode="&#x1e6;" horiz-adv-x="682" 
d="M604 88v-44q-113 -59 -220 -59q-150 0 -243.5 98.5t-93.5 251.5q0 152 94.5 250.5t246.5 98.5q119 0 201 -47l4 -146h-62l-20 114q-52 29 -114 29q-106 0 -173.5 -79.5t-67.5 -219.5q0 -142 65.5 -220.5t181.5 -78.5q57 0 107 20v32q0 61 -2 181l-104 9v40h263v-40
l-61 -6q-2 -120 -2 -184zM272 868l115 -85l115 85l24 -21l-102 -118h-74l-102 118z" />
    <glyph glyph-name="gcaron" unicode="&#x1e7;" horiz-adv-x="518" 
d="M241 447q-47 0 -74 -34t-27 -90t25.5 -89.5t71.5 -33.5q47 0 74.5 35t27.5 92q0 54 -26 87t-72 33zM59 324q0 77 50.5 120.5t130.5 43.5q79 0 127 -39l113 39l15 -10v-63h-98q23 -37 23 -91q0 -77 -50.5 -120.5t-130.5 -43.5q-39 0 -74 11q-25 -32 -25 -64
q0 -22 12.5 -33t45.5 -11h131q161 0 161 -129q0 -70 -65.5 -121.5t-181.5 -51.5q-105 0 -156 32.5t-51 88.5q0 34 22 61t76 53q-66 18 -66 76q0 48 68 111q-77 42 -77 141zM247 -193q79 0 123.5 28.5t44.5 72.5q0 35 -24.5 56.5t-75.5 21.5h-117q-15 0 -41 2
q-39 -42 -39 -90q0 -91 129 -91zM127 739l115 -105l115 105l24 -20l-102 -148h-74l-102 148z" />
    <glyph glyph-name="uni01F8" unicode="&#x1f8;" horiz-adv-x="735" 
d="M454 628v41h241v-41l-85 -13v-622h-35l-400 545v-483l106 -14v-41h-242v41l85 12v555l-9 12l-71 8v41h154l361 -496v442zM404 745l-18 -25l-126 67q-50 28 -50 56q0 15 11 24.5t27 9.5q24 0 62 -38q49 -46 94 -94z" />
    <glyph glyph-name="uni01F9" unicode="&#x1f9;" horiz-adv-x="606" 
d="M376 488q65 0 96.5 -44t31.5 -141v-93q0 -60 2 -160l70 -14v-36h-232v36l74 14q2 98 2 160v85q0 68 -19 94.5t-64 26.5q-63 0 -136 -60v-146q0 -60 2 -160l69 -14v-36h-232v36l74 14q2 100 2 160v48q0 65 -3 125l-79 9v35l140 61l15 -10l8 -81q38 41 85.5 66t93.5 25z
M347 576l-26 -19l-121 108q-34 32 -34 55q0 18 11 28t27 10q29 0 54 -41q27 -40 89 -141z" />
    <glyph glyph-name="uni0218" unicode="&#x218;" horiz-adv-x="512" 
d="M232 35q71 0 113 32t42 89q0 46 -28 73t-95 53l-39 16q-172 67 -172 201q0 85 63.5 135t161.5 50q94 0 164 -52l-6 -131h-61l-21 113q-37 20 -82 20q-59 0 -97 -29.5t-38 -83.5q0 -45 28.5 -75t84.5 -52l40 -15q98 -38 140 -85.5t42 -118.5q0 -87 -65.5 -138.5
t-171.5 -51.5q-114 0 -195 53l6 140h62l20 -118q46 -25 104 -25zM317 -118q0 -89 -134 -133l-10 29q58 23 84 57q-47 24 -47 64q0 21 15.5 35t36.5 14q24 0 46 -19q9 -27 9 -47z" />
    <glyph glyph-name="uni0219" unicode="&#x219;" horiz-adv-x="434" 
d="M200 -13q-75 0 -149 38l-4 110h55l19 -87q35 -16 81 -16q55 0 83.5 20.5t28.5 55.5q0 31 -22 50.5t-71 36.5l-46 17q-121 45 -121 135q0 58 47 99.5t127 41.5q72 0 140 -41l-4 -102h-52l-16 80q-34 17 -69 17q-45 0 -69 -18.5t-24 -49.5q0 -32 19.5 -49t72.5 -37l31 -11
q73 -27 105.5 -62.5t32.5 -84.5q0 -60 -51.5 -101.5t-143.5 -41.5zM272 -118q0 -89 -134 -133l-10 29q58 23 84 57q-47 24 -47 64q0 21 15.5 35t36.5 14q24 0 46 -19q9 -27 9 -47z" />
    <glyph glyph-name="uni021A" unicode="&#x21a;" horiz-adv-x="604" 
d="M255 310v49q0 173 -2 260h-153l-22 -128h-58l8 178h548l8 -178h-58l-22 128h-153q-2 -85 -2 -260v-49q0 -172 2 -258l102 -11v-41h-302v41l102 11q2 85 2 258zM358 -118q0 -89 -134 -133l-10 29q58 23 84 57q-47 24 -47 64q0 21 15.5 35t36.5 14q24 0 46 -19q9 -27 9 -47
z" />
    <glyph glyph-name="uni021B" unicode="&#x21b;" horiz-adv-x="325" 
d="M177 112q0 -73 55 -73q30 0 67 27l24 -26q-41 -53 -118 -53q-54 0 -84 28.5t-30 85.5q0 11 0.5 37.5t0.5 47.5v236h-83v44l89 11l26 134h60l-5 -136h134v-53h-136v-310zM263 -118q0 -89 -134 -133l-10 29q58 23 84 57q-47 24 -47 64q0 21 15.5 35t36.5 14q24 0 46 -19
q9 -27 9 -47z" />
    <glyph glyph-name="uni0237" unicode="&#x237;" horiz-adv-x="277" 
d="M111 77v180q0 66 -3 126l-79 9v35l152 61l15 -10l-3 -136v-251q0 -130 -11.5 -189.5t-48.5 -99.5q-48 -51 -117 -51q-49 0 -73.5 17t-25.5 40q13 42 59 42q33 0 75 -31l17 -13q6 8 12 17q22 42 26.5 81t4.5 173z" />
    <glyph glyph-name="uni0251" unicode="&#x251;" horiz-adv-x="557" 
d="M135 232q0 -91 38.5 -139.5t100.5 -48.5q61 0 116 62v272q-52 53 -108 53q-65 0 -106 -49.5t-41 -149.5zM244 -13q-90 0 -144.5 63.5t-54.5 175.5q0 117 63 189.5t165 72.5q71 0 122 -67l66 67l16 -10l-3 -135v-242q0 -59 36 -59q20 0 39 22l20 -22q-32 -52 -87 -52
q-68 0 -86 80q-57 -83 -152 -83z" />
    <glyph glyph-name="uni0259" unicode="&#x259;" horiz-adv-x="519" 
d="M250 -13q-93 0 -148 57t-55 162q0 33 7 56h327q-9 76 -51 118.5t-107 42.5q-79 0 -139 -70l-24 19q62 116 190 116q103 0 162.5 -65t59.5 -180q0 -112 -65.5 -184t-156.5 -72zM248 32q54 0 94.5 47t40.5 141h-194q-35 0 -47 -12.5t-12 -39.5q0 -55 34 -95.5t84 -40.5z
" />
    <glyph glyph-name="uni0261" unicode="&#x261;" horiz-adv-x="560" 
d="M135 232q0 -91 38.5 -139.5t100.5 -48.5q61 0 116 62v272q-52 53 -108 53q-65 0 -106 -50t-41 -149zM244 -13q-90 0 -144.5 63t-54.5 176q0 117 63 189.5t165 72.5q71 0 122 -67l66 67l16 -10l-3 -135v-239q0 -117 -11.5 -175.5t-42.5 -97.5q-63 -80 -185 -80
q-73 0 -122 35t-61 106q18 34 51 34q23 0 35.5 -16.5t23.5 -56.5l14 -51q28 -6 70 -6q32 0 63.5 16t49.5 48q30 50 31 202q-55 -75 -146 -75z" />
    <glyph glyph-name="h.sups" unicode="&#x2b0;" horiz-adv-x="412" 
d="M255 749q92 0 92 -115v-170l45 -9v-30h-160v30l47 8v157q0 41 -11.5 58t-40.5 17q-39 0 -90 -45v-186l46 -9v-30h-162v30l48 9v370l-53 6v28l111 30l10 -5v-206q49 62 118 62z" />
    <glyph glyph-name="j.sups" unicode="&#x2b2;" horiz-adv-x="193" 
d="M104 809q-20 0 -34 13t-14 33t13.5 32.5t34.5 12.5t35 -12.5t14 -32.5t-14 -33t-35 -13zM71 475v202l-53 6v24l110 41l11 -7v-267q0 -74 -8.5 -109.5t-33.5 -60.5q-33 -38 -87 -38q-65 0 -73 41q9 36 44 36q28 0 55 -28l10 -10q5 7 5 8q13 22 16.5 54t3.5 108z" />
    <glyph glyph-name="r.sups" unicode="&#x2b3;" horiz-adv-x="293" 
d="M199 455v-30h-170v30l46 8v211l-52 6v28l100 41l11 -6l9 -81q17 40 44 63.5t55 23.5q39 0 46 -38q0 -20 -12 -32t-31 -12q-21 0 -43 23l-4 5q-38 -30 -55 -76v-154z" />
    <glyph glyph-name="w.sups" unicode="&#x2b7;" horiz-adv-x="527" 
d="M395 706v31h126v-31l-40 -7l-101 -281h-27l-90 224l-87 -224h-27l-109 283l-40 5v31h159v-31l-46 -6l66 -175l70 175l-47 6v31h152v-31l-45 -6l72 -174l61 173z" />
    <glyph glyph-name="y.sups" unicode="&#x2b8;" horiz-adv-x="348" 
d="M211 706v31h133v-31l-41 -7l-104 -285q-53 -145 -138 -145q-27 0 -45.5 13t-18.5 34q7 29 43 29q28 0 54 -22l7 -7q36 26 61 87l-123 296l-40 7v31h173v-31l-59 -8l83 -201l70 202z" />
    <glyph glyph-name="quoteleft" unicode="&#x2018;" horiz-adv-x="212" 
d="M37 534q0 62 39 119.5t99 95.5l19 -27q-39 -32 -60.5 -57.5t-37.5 -62.5l29 -26q39 -34 39 -74q0 -59 -59 -59q-33 0 -54 20q-14 34 -14 71z" />
    <glyph glyph-name="quoteleft" unicode="&#x2bb;" horiz-adv-x="212" 
d="M37 534q0 62 39 119.5t99 95.5l19 -27q-39 -32 -60.5 -57.5t-37.5 -62.5l29 -26q39 -34 39 -74q0 -59 -59 -59q-33 0 -54 20q-14 34 -14 71z" />
    <glyph glyph-name="quoteright" unicode="&#x2019;" horiz-adv-x="212" 
d="M175 658q0 -62 -39 -119.5t-99 -95.5l-19 27q39 32 60.5 57.5t37.5 62.5l-29 26q-39 34 -39 74q0 59 59 59q33 0 54 -20q14 -34 14 -71z" />
    <glyph glyph-name="quoteright" unicode="&#x2bc;" horiz-adv-x="212" 
d="M175 658q0 -62 -39 -119.5t-99 -95.5l-19 27q39 32 60.5 57.5t37.5 62.5l-29 26q-39 34 -39 74q0 59 59 59q33 0 54 -20q14 -34 14 -71z" />
    <glyph glyph-name="uni02BE" unicode="&#x2be;" horiz-adv-x="167" 
d="M26 550v40q29 0 46 18.5t17 43.5t-17 43t-46 18v40q54 0 84.5 -27t30.5 -74q0 -49 -30.5 -75.5t-84.5 -26.5z" />
    <glyph glyph-name="uni02BF" unicode="&#x2bf;" horiz-adv-x="167" 
d="M26 652q0 47 30.5 74t84.5 27v-40q-29 0 -46 -18t-17 -43t17 -43.5t46 -18.5v-40q-55 0 -85 26.5t-30 75.5z" />
    <glyph glyph-name="circumflex" unicode="&#x2c6;" horiz-adv-x="400" 
d="M326 546l-126 114l-126 -114l-23 22l132 176h34l132 -176z" />
    <glyph glyph-name="caron" unicode="&#x2c7;" horiz-adv-x="400" 
d="M85 739l115 -105l115 105l24 -20l-102 -148h-74l-102 148z" />
    <glyph glyph-name="uni02C8" unicode="&#x2c8;" horiz-adv-x="116" 
d="M28 552l-6 196h72l-6 -196h-60z" />
    <glyph glyph-name="uni02CC" unicode="&#x2cc;" horiz-adv-x="116" 
d="M22 -266l6 195h60l6 -195h-72z" />
    <glyph glyph-name="breve" unicode="&#x2d8;" horiz-adv-x="400" 
d="M49 723l30 11q36 -93 121 -93t121 93l30 -11q-7 -62 -46.5 -105t-104.5 -43t-104.5 43t-46.5 105z" />
    <glyph glyph-name="dotaccent" unicode="&#x2d9;" horiz-adv-x="400" 
d="M200 589q-29 0 -48 18t-19 46t19 46t48 18t48 -18t19 -46t-19 -46t-48 -18z" />
    <glyph glyph-name="ring" unicode="&#x2da;" horiz-adv-x="400" 
d="M200 590q26 0 41.5 18.5t15.5 43.5t-15.5 43t-41.5 18t-41.5 -18t-15.5 -43t15.5 -43.5t41.5 -18.5zM200 550q-43 0 -74 27.5t-31 74.5q0 45 31.5 73t73.5 28q43 0 74 -27t31 -74q0 -46 -31 -74t-74 -28z" />
    <glyph glyph-name="ogonek" unicode="&#x2db;" horiz-adv-x="400" 
d="M98 -132q0 44 29 84t72 61h29q-31 -20 -48.5 -49.5t-17.5 -59.5q0 -31 19 -49.5t48 -18.5q28 0 53 15l13 -25q-33 -46 -103 -46q-42 0 -68 23.5t-26 64.5z" />
    <glyph glyph-name="tilde" unicode="&#x2dc;" horiz-adv-x="400" 
d="M39 586q18 129 95 129q35 0 73 -34q6 -5 16.5 -15.5l17 -16.5t16.5 -11t19 -5q39 0 62 80l27 -10q-20 -128 -95 -128q-36 0 -73 33l-16 16t-17.5 16.5t-16.5 10.5t-19 5q-39 0 -62 -79z" />
    <glyph glyph-name="hungarumlaut" unicode="&#x2dd;" horiz-adv-x="400" 
d="M69 567l55 142q17 47 53 47q15 0 25 -10t10 -27q0 -23 -22 -51l-93 -117zM211 567l55 142q17 47 53 47q15 0 25.5 -10t10.5 -27q0 -22 -23 -51l-93 -117z" />
    <glyph glyph-name="l.sups" unicode="&#x2e1;" horiz-adv-x="204" 
d="M16 868l111 30l10 -5v-429l51 -9v-30h-170v30l51 9v370l-53 6v28z" />
    <glyph glyph-name="s.sups" unicode="&#x2e2;" horiz-adv-x="301" 
d="M140 415q-54 0 -105 30l-2 74h40l11 -55q27 -14 60 -14q71 0 71 43q0 19 -15 31.5t-50 24.5l-31 11q-82 31 -82 94q0 41 33 68t89 27q49 0 97 -25l-4 -70h-37l-10 50q-23 10 -46 10q-63 0 -63 -40q0 -17 13.5 -28t50.5 -24l21 -7q93 -33 93 -100q0 -44 -35.5 -72
t-98.5 -28z" />
    <glyph glyph-name="x.sups" unicode="&#x2e3;" horiz-adv-x="350" 
d="M209 706v31h121v-31l-41 -7l-84 -107l90 -128l48 -9v-30h-163v30l40 7l-63 89l-63 -88l45 -8v-30h-132v30l48 8l85 113l-87 124l-43 6v31h150v-31l-34 -5l62 -84l61 83z" />
    <glyph glyph-name="uni0300" unicode="&#x300;" 
d="M55 576l-26 -19l-121 108q-34 32 -34 55q0 18 11 28t27 10q29 0 54 -41q27 -40 89 -141z" />
    <glyph glyph-name="uni0301" unicode="&#x301;" 
d="M-59 576q42 70 89 141q25 41 54 41q16 0 27 -10t11 -28q0 -23 -34 -55l-121 -108z" />
    <glyph glyph-name="uni0302" unicode="&#x302;" 
d="M126 546l-126 114l-126 -114l-23 22l132 176h34l132 -176z" />
    <glyph glyph-name="uni0303" unicode="&#x303;" 
d="M-163 586q18 129 95 129q35 0 73 -34q6 -5 16.5 -15.5l17 -16.5t16.5 -11t19 -5q39 0 62 80l27 -10q-20 -128 -95 -128q-36 0 -73 33l-16 16t-17.5 16.5t-16.5 10.5t-19 5q-39 0 -62 -79z" />
    <glyph glyph-name="uni0304" unicode="&#x304;" 
d="M-131 596v63h262v-63h-262z" />
    <glyph glyph-name="uni0306" unicode="&#x306;" 
d="M-151 723l30 11q36 -93 121 -93t121 93l30 -11q-7 -62 -46.5 -105t-104.5 -43t-104.5 43t-46.5 105z" />
    <glyph glyph-name="uni0307" unicode="&#x307;" 
d="M0 589q-29 0 -48 18t-19 46t19 46t48 18t48 -18t19 -46t-19 -46t-48 -18z" />
    <glyph glyph-name="uni0308" unicode="&#x308;" 
d="M105 596q-25 0 -42.5 16.5t-17.5 40.5t17.5 40.5t42.5 16.5q24 0 41.5 -16.5t17.5 -40.5t-17.5 -40.5t-41.5 -16.5zM-105 596q-24 0 -41.5 16.5t-17.5 40.5t17.5 40.5t41.5 16.5q25 0 42.5 -16.5t17.5 -40.5t-17.5 -40.5t-42.5 -16.5z" />
    <glyph glyph-name="uni0309" unicode="&#x309;" 
d="M-19 553l-9 31q53 11 53 48q0 20 -18 30t-65 18l10 67q122 -11 122 -100q0 -38 -25 -63.5t-68 -30.5z" />
    <glyph glyph-name="uni030A" unicode="&#x30a;" 
d="M0 590q26 0 41.5 18.5t15.5 43.5t-15.5 43t-41.5 18t-41.5 -18t-15.5 -43t15.5 -43.5t41.5 -18.5zM0 550q-43 0 -74 27.5t-31 74.5q0 45 31.5 73t73.5 28q43 0 74 -27t31 -74q0 -46 -31 -74t-74 -28z" />
    <glyph glyph-name="uni030B" unicode="&#x30b;" 
d="M-112 567l55 142q17 47 53 47q15 0 25 -10t10 -27q0 -23 -22 -51l-93 -117zM30 567l55 142q17 47 53 47q15 0 25.5 -10t10.5 -27q0 -22 -23 -51l-93 -117z" />
    <glyph glyph-name="uni030C" unicode="&#x30c;" 
d="M-115 739l115 -105l115 105l24 -20l-102 -148h-74l-102 148z" />
    <glyph glyph-name="uni031B" unicode="&#x31b;" 
d="M-6 378l-4 27q46 8 68 27t22 54q0 15 -12.5 39.5t-12.5 38.5q0 13 11 24.5t28 11.5q22 0 36 -12q14 -30 14 -55q0 -65 -42 -107t-108 -48z" />
    <glyph glyph-name="uni0323" unicode="&#x323;" 
d="M0 -203q-29 0 -48 18t-19 46t19 46t48 18t48 -18t19 -46t-19 -46t-48 -18z" />
    <glyph glyph-name="uni0324" unicode="&#x324;" 
d="M105 -193q-25 0 -42.5 16.5t-17.5 40.5t17.5 40.5t42.5 16.5q24 0 41.5 -16.5t17.5 -40.5t-17.5 -40.5t-41.5 -16.5zM-105 -193q-24 0 -41.5 16.5t-17.5 40.5t17.5 40.5t41.5 16.5q25 0 42.5 -16.5t17.5 -40.5t-17.5 -40.5t-42.5 -16.5z" />
    <glyph glyph-name="uni0326" unicode="&#x326;" 
d="M62 -118q0 -89 -134 -133l-10 29q58 23 84 57q-47 24 -47 64q0 21 15.5 35t36.5 14q24 0 46 -19q9 -27 9 -47z" />
    <glyph glyph-name="uni0327" unicode="&#x327;" 
d="M-26 -86l13 89h37l-8 -61q41 -6 66.5 -27t25.5 -55q0 -36 -29.5 -58t-82.5 -22q-34 0 -63 9l7 31q24 -3 48 -3q58 0 58 45q0 23 -17 35t-55 17z" />
    <glyph glyph-name="uni0328" unicode="&#x328;" 
d="M-97 -132q0 44 29 84t72 61h29q-31 -20 -48.5 -49.5t-17.5 -59.5q0 -31 19 -49.5t48 -18.5q28 0 53 15l13 -25q-33 -46 -103 -46q-42 0 -68 23.5t-26 64.5z" />
    <glyph glyph-name="uni0329" unicode="&#x329;" 
d="M-36 -266l6 195h60l6 -195h-72z" />
    <glyph glyph-name="uni032E" unicode="&#x32e;" 
d="M-151 -79l30 11q36 -93 121 -93t121 93l30 -11q-7 -62 -46.5 -105t-104.5 -43t-104.5 43t-46.5 105z" />
    <glyph glyph-name="uni0331" unicode="&#x331;" 
d="M-131 -176v63h262v-63h-262z" />
    <glyph glyph-name="uni0374" unicode="&#x374;" horiz-adv-x="249" 
d="M65 435l16 287q22 15 49 15q22 0 36 -15t14 -37q0 -36 -51 -185q-5 -13 -13.5 -37.5t-12.5 -33.5z" />
    <glyph glyph-name="uni0375" unicode="&#x375;" horiz-adv-x="249" 
d="M185 162l-16 -287q-22 -15 -49 -15q-22 0 -36 15t-14 37q0 36 51 185q5 13 13.5 37.5t12.5 33.5z" />
    <glyph glyph-name="uni037E" unicode="&#x37e;" horiz-adv-x="315" 
d="M155 350q-30 0 -50.5 21t-20.5 50q0 30 20.5 51t50.5 21t50.5 -21t20.5 -51q0 -29 -20.5 -50t-50.5 -21zM218 29q0 -86 -57.5 -155t-135.5 -98l-14 34q116 58 147 156l-37 29q-38 30 -38 72q0 27 16 45t46 18t62 -29q11 -34 11 -72z" />
    <glyph glyph-name="tonos" unicode="&#x384;" horiz-adv-x="400" 
d="M165 557q7 20 15 46l13.5 43l7.5 23q18 55 32.5 73t32.5 18q34 0 34 -35q0 -25 -37 -86q-8 -14 -62 -98z" />
    <glyph glyph-name="dieresistonos" unicode="&#x385;" horiz-adv-x="400" 
d="M174 564l-31 13l15 46l15 47t10 30q17 47 30 63.5t29 16.5q31 0 31 -31q0 -23 -39 -88q-25 -45 -60 -97zM329 602q-21 0 -36 14t-15 35t15 34.5t36 13.5q22 0 36.5 -13.5t14.5 -34.5t-14.5 -35t-36.5 -14zM72 602q-21 0 -36 14t-15 35t15 34.5t36 13.5t36 -13.5t15 -34.5
t-15 -35t-36 -14z" />
    <glyph glyph-name="Alphatonos" unicode="&#x386;" horiz-adv-x="686" 
d="M36 445q9 56 23 127q10 51 23.5 69.5t32.5 18.5q15 0 26 -9.5t11 -28.5q0 -20 -11 -42q-31 -73 -67 -146zM27 0v41l84 13l213 620h63l213 -624l75 -9v-41h-272v41l98 12l-55 164h-232l-56 -163l98 -13v-41h-229zM331 562l-101 -298h201z" />
    <glyph glyph-name="anoteleia" unicode="&#x387;" horiz-adv-x="300" 
d="M150 345q-30 0 -50.5 21t-20.5 50q0 30 20.5 51t50.5 21t50.5 -21t20.5 -51q0 -29 -20.5 -50t-50.5 -21z" />
    <glyph glyph-name="Epsilontonos" unicode="&#x388;" horiz-adv-x="710" 
d="M-9 445q7 54 22 127q11 52 24.5 70t31.5 18q15 0 26 -9.5t11 -28.5q0 -18 -10 -42l-67 -146zM244 310v49q0 172 -2 258l-92 11v41h498l7 -177h-57l-22 127h-235q-2 -85 -2 -254h147l14 95h46v-236h-46l-13 94h-148q0 -185 2 -268h255l22 128h57l-7 -178h-518v41l92 11
q2 84 2 258z" />
    <glyph glyph-name="Etatonos" unicode="&#x389;" horiz-adv-x="894" 
d="M-9 445q7 54 22 127q11 52 24.5 70t31.5 18q15 0 26 -9.5t11 -28.5q0 -18 -10 -42l-67 -146zM244 310v49q0 172 -2 258l-92 11v41h282v-41l-91 -10q-2 -85 -2 -252h323q0 170 -2 251l-92 11v41h282v-41l-92 -11q-2 -84 -2 -258v-49q0 -172 2 -258l92 -11v-41h-282v41
l92 11q2 85 2 267h-323q0 -186 2 -268l91 -10v-41h-282v41l92 11q2 84 2 258z" />
    <glyph glyph-name="Iotatonos" unicode="&#x38a;" horiz-adv-x="477" 
d="M-9 445q7 54 22 127q11 52 24.5 70t31.5 18q15 0 26 -9.5t11 -28.5q0 -18 -10 -42l-67 -146zM244 310v49q0 172 -2 258l-92 11v41h283v-41l-92 -11q-2 -84 -2 -258v-49q0 -172 2 -258l92 -11v-41h-283v41l92 11q2 84 2 258z" />
    <glyph glyph-name="Omicrontonos" unicode="&#x38c;" horiz-adv-x="775" 
d="M-9 445q7 54 22 127q11 52 24.5 70t31.5 18q15 0 26 -9.5t11 -28.5q0 -18 -10 -42l-67 -146zM225 335q0 -79 19.5 -145t66 -110.5t112.5 -44.5t112 44.5t65 110t19 145.5q0 125 -49.5 212t-146.5 87q-66 0 -112.5 -44.5t-66 -110t-19.5 -144.5zM423 684q124 0 215 -93.5
t91 -255.5q0 -158 -91.5 -254t-214.5 -96q-125 0 -216 93.5t-91 256.5q0 157 92 253t215 96z" />
    <glyph glyph-name="Upsilontonos" unicode="&#x38e;" horiz-adv-x="769" 
d="M-9 445q7 54 22 127q11 52 24.5 70t31.5 18q15 0 26 -9.5t11 -28.5q0 -18 -10 -42l-67 -146zM530 628v41h229v-41l-88 -13l-170 -352q0 -147 2 -211l102 -11v-41h-302v41l102 11q2 62 2 207l-177 360l-79 9v41h282v-41l-95 -11l139 -303l143 302z" />
    <glyph glyph-name="Omegatonos" unicode="&#x38f;" horiz-adv-x="786" 
d="M-13 445q7 54 22 127q11 52 24.5 70t31.5 18q37 0 37 -38q0 -18 -10 -42l-67 -146zM422 634q-92 0 -144 -72.5t-52 -183.5q0 -90 40.5 -174.5t107.5 -136.5v-67h-268l-9 171h60l23 -99h125v3q-79 57 -127.5 134.5t-48.5 167.5q0 143 85 225t208 82q124 0 209 -81.5
t85 -224.5q0 -90 -48.5 -168.5t-127.5 -134.5v-3h125l23 99h60l-9 -171h-268v67q67 52 107.5 136.5t40.5 174.5q0 111 -52.5 183.5t-144.5 72.5z" />
    <glyph glyph-name="iotadieresistonos" unicode="&#x390;" horiz-adv-x="287" 
d="M191 -13q-46 0 -67.5 33t-22.5 105l-3 344l87 18l10 -10q-23 -300 -22 -341q1 -46 12.5 -63t35.5 -17q18 0 43 9l8 -25q-28 -53 -81 -53zM140 564l-31 13l15 46l15 47t10 30q17 47 30 63.5t29 16.5q31 0 31 -31q0 -23 -39 -88q-25 -45 -60 -97zM295 602q-21 0 -36 14
t-15 35t15 34.5t36 13.5q22 0 36.5 -13.5t14.5 -34.5t-14.5 -35t-36.5 -14zM38 602q-21 0 -36 14t-15 35t15 34.5t36 13.5t36 -13.5t15 -34.5t-15 -35t-36 -14z" />
    <glyph glyph-name="Alpha" unicode="&#x391;" horiz-adv-x="664" 
d="M309 562l-101 -298h201zM5 0v41l84 13l213 620h63l213 -624l75 -9v-41h-272v41l98 12l-55 164h-232l-56 -163l98 -13v-41h-229z" />
    <glyph glyph-name="Beta" unicode="&#x392;" horiz-adv-x="629" 
d="M138 310v49q0 172 -2 258l-92 11v41h290q102 0 160 -45t58 -118q0 -57 -38 -99.5t-117 -58.5q96 -14 142.5 -57.5t46.5 -107.5q0 -76 -66.5 -129.5t-200.5 -53.5h-275v41l92 11q2 84 2 258zM288 323h-55q0 -191 2 -276h61q190 0 190 136q0 71 -48 105.5t-150 34.5z
M304 623h-69q-2 -86 -2 -254h52q91 0 132 31t41 99q0 67 -37.5 95.5t-116.5 28.5z" />
    <glyph glyph-name="Gamma" unicode="&#x393;" horiz-adv-x="560" 
d="M44 628v41h479l7 -198h-57l-27 148h-211q-2 -85 -2 -260v-50q0 -171 2 -257l93 -11v-41h-284v41l92 11q2 84 2 257v50q0 172 -2 258z" />
    <glyph glyph-name="Delta" unicode="&#x2206;" horiz-adv-x="638" 
d="M25 0v42l266 632h62l255 -632v-42h-583zM92 82h400l-195 485z" />
    <glyph glyph-name="Delta" unicode="&#x394;" horiz-adv-x="638" 
d="M25 0v42l266 632h62l255 -632v-42h-583zM92 82h400l-195 485z" />
    <glyph glyph-name="Epsilon" unicode="&#x395;" horiz-adv-x="603" 
d="M138 310v49q0 172 -2 258l-92 11v41h498l7 -177h-57l-22 127h-235q-2 -85 -2 -254h147l14 95h46v-236h-46l-13 94h-148q0 -185 2 -268h255l22 128h57l-7 -178h-518v41l92 11q2 84 2 258z" />
    <glyph glyph-name="Zeta" unicode="&#x396;" horiz-adv-x="551" 
d="M91 491h-61l8 178h471v-35l-377 -584h311l27 128h61l-8 -178h-503v36l379 583h-281z" />
    <glyph glyph-name="Eta" unicode="&#x397;" horiz-adv-x="789" 
d="M138 310v49q0 172 -2 258l-92 11v41h282v-41l-91 -10q-2 -85 -2 -252h323q0 170 -2 251l-92 11v41h282v-41l-92 -11q-2 -84 -2 -258v-49q0 -172 2 -258l92 -11v-41h-282v41l92 11q2 85 2 267h-323q0 -186 2 -268l91 -10v-41h-282v41l92 11q2 84 2 258z" />
    <glyph glyph-name="Theta" unicode="&#x398;" horiz-adv-x="707" 
d="M444 253l-11 57h-158l-11 -57h-46v178h46l11 -58h158l11 58h45v-178h-45zM354 35q53 0 93 25t63 68.5t34 95.5t11 111q0 80 -19 145t-66 109.5t-116 44.5t-116.5 -44.5t-66.5 -109.5t-19 -145t19 -145.5t66.5 -110t116.5 -44.5zM354 -15q-125 0 -216 93.5t-91 256.5
q0 157 92 253t215 96q124 0 215 -93.5t91 -255.5q0 -158 -91.5 -254t-214.5 -96z" />
    <glyph glyph-name="Iota" unicode="&#x399;" horiz-adv-x="371" 
d="M138 310v49q0 172 -2 258l-92 11v41h283v-41l-92 -11q-2 -84 -2 -258v-49q0 -172 2 -258l92 -11v-41h-283v41l92 11q2 84 2 258z" />
    <glyph glyph-name="Kappa" unicode="&#x39a;" horiz-adv-x="667" 
d="M138 310v49q0 172 -2 258l-92 11v41h282v-41l-95 -11q-2 -85 -2 -258v-63l260 318l-72 14v41h230v-41l-97 -13l-167 -201l202 -363l77 -10v-41h-257v41l82 10l-159 297l-99 -119q0 -115 2 -177l95 -11v-41h-282v41l92 11q2 84 2 258z" />
    <glyph glyph-name="Lambda" unicode="&#x39b;" horiz-adv-x="663" 
d="M302 674h62l213 -624l76 -9v-41h-273v41l99 12l-170 506l-172 -505l97 -13v-41h-229v41l83 13z" />
    <glyph glyph-name="Mu" unicode="&#x39c;" horiz-adv-x="902" 
d="M39 0v41l90 13v563l-90 11v41h185l224 -550l212 550h197v-41l-92 -11q-2 -84 -2 -258v-49q0 -172 2 -258l92 -11v-41h-272v41l84 11q2 84 2 257v249l-217 -558h-50l-229 558l6 -189v-315l82 -13v-41h-224z" />
    <glyph glyph-name="Nu" unicode="&#x39d;" horiz-adv-x="735" 
d="M454 628v41h241v-41l-85 -13v-622h-35l-400 545v-483l106 -14v-41h-242v41l85 12v555l-9 12l-71 8v41h154l361 -496v442z" />
    <glyph glyph-name="Xi" unicode="&#x39e;" horiz-adv-x="585" 
d="M414 244l-11 66h-221l-11 -66h-45v193h45l11 -60h221l11 60h45v-193h-45zM57 669h471l7 -181h-53l-18 104h-343l-18 -104h-53zM542 0h-500l-7 181h53l18 -103h373l18 103h52z" />
    <glyph glyph-name="Omicron" unicode="&#x39f;" horiz-adv-x="707" 
d="M156 335q0 -79 19.5 -145t66 -110.5t112.5 -44.5t112 44.5t65 110t19 145.5q0 125 -49.5 212t-146.5 87q-66 0 -112.5 -44.5t-66 -110t-19.5 -144.5zM354 684q124 0 215 -93.5t91 -255.5q0 -158 -91.5 -254t-214.5 -96q-125 0 -216 93.5t-91 256.5q0 157 92 253t215 96z
" />
    <glyph glyph-name="Pi" unicode="&#x3a0;" horiz-adv-x="769" 
d="M138 310v49q0 172 -2 259l-91 10v41h680v-41l-92 -11q-2 -84 -2 -258v-49q0 -172 2 -258l92 -11v-41h-282v41l92 11q2 85 2 277v30q0 173 -2 259h-300q-2 -85 -2 -259v-30q0 -191 2 -278l91 -10v-41h-282v41l92 11q2 84 2 258z" />
    <glyph glyph-name="Rho" unicode="&#x3a1;" horiz-adv-x="589" 
d="M138 310v49q0 172 -2 258l-92 11v41h269q123 0 188.5 -54t65.5 -145t-68.5 -148.5t-213.5 -57.5h-52q0 -140 2 -212l93 -11v-41h-284v41l92 11q2 84 2 258zM295 623h-60q-2 -86 -2 -264v-48h66q87 0 128 42.5t41 116.5q0 153 -173 153z" />
    <glyph glyph-name="Sigma" unicode="&#x3a3;" horiz-adv-x="541" 
d="M503 0h-483v57l224 276l-214 300v36h456l8 -179h-61l-27 129h-264l187 -264l-217 -273h311l27 130h61z" />
    <glyph glyph-name="Tau" unicode="&#x3a4;" horiz-adv-x="604" 
d="M255 310v49q0 173 -2 260h-153l-22 -128h-58l8 178h548l8 -178h-58l-22 128h-153q-2 -85 -2 -260v-49q0 -172 2 -258l102 -11v-41h-302v41l102 11q2 85 2 258z" />
    <glyph glyph-name="Upsilon" unicode="&#x3a5;" horiz-adv-x="633" 
d="M394 628v41h229v-41l-88 -13l-170 -352q0 -147 2 -211l102 -11v-41h-302v41l102 11q2 62 2 207l-177 360l-79 9v41h282v-41l-95 -11l139 -303l143 302z" />
    <glyph glyph-name="Phi" unicode="&#x3a6;" horiz-adv-x="717" 
d="M218 640v41h281v-41l-97 -12q0 -39 -1 -59q130 -1 205 -66.5t75 -160.5q0 -101 -70 -168t-210 -67q0 -11 0.5 -33.5t0.5 -32.5l97 -12v-41h-281v41l96 11q1 22 1 67q-140 1 -209.5 67.5t-69.5 167.5q0 95 75 161t204 66q0 40 -1 60zM134 343q0 -85 47.5 -137.5
t134.5 -52.5v157v49v164q-88 -1 -135 -49t-47 -131zM400 310q0 -103 1 -157q87 1 134.5 53.5t47.5 136.5t-47 132t-135 48q-1 -54 -1 -162v-51z" />
    <glyph glyph-name="Chi" unicode="&#x3a7;" horiz-adv-x="648" 
d="M19 628v41h281v-41l-88 -10l128 -214l133 212l-85 12v41h229v-41l-88 -11l-164 -254l188 -312l86 -10v-41h-283v41l92 11l-140 232l-147 -232l78 -11v-41h-229v41l95 12l179 271l-177 294z" />
    <glyph glyph-name="Psi" unicode="&#x3a8;" horiz-adv-x="770" 
d="M89 506l-11 70q-4 24 -13 35t-29 14l-27 3v41h51q61 0 83.5 -25.5t31.5 -94.5l5 -42q12 -106 42.5 -151.5t115.5 -53.5v8v49q0 173 -2 259l-82 10v41h261v-41l-81 -10q-2 -85 -2 -259v-49v-8q85 8 115.5 53.5t42.5 151.5l5 42q8 69 30.5 94.5t84.5 25.5h50v-41l-26 -3
q-21 -3 -30 -14t-13 -35l-11 -70q-21 -134 -72.5 -189t-175.5 -62q0 -136 2 -203l92 -11v-41h-282v41l92 11q2 67 2 203q-124 7 -176 62t-73 189z" />
    <glyph glyph-name="Omega" unicode="&#x2126;" horiz-adv-x="727" 
d="M363 634q-92 0 -144 -72.5t-52 -183.5q0 -90 40.5 -174.5t107.5 -136.5v-67h-268l-9 171h60l23 -99h125v3q-79 57 -127.5 134.5t-48.5 167.5q0 143 85 225t208 82q124 0 209 -81.5t85 -224.5q0 -90 -48.5 -168.5t-127.5 -134.5v-3h125l23 99h60l-9 -171h-268v67
q67 52 107.5 136.5t40.5 174.5q0 111 -52.5 183.5t-144.5 72.5z" />
    <glyph glyph-name="Omega" unicode="&#x3a9;" horiz-adv-x="727" 
d="M363 634q-92 0 -144 -72.5t-52 -183.5q0 -90 40.5 -174.5t107.5 -136.5v-67h-268l-9 171h60l23 -99h125v3q-79 57 -127.5 134.5t-48.5 167.5q0 143 85 225t208 82q124 0 209 -81.5t85 -224.5q0 -90 -48.5 -168.5t-127.5 -134.5v-3h125l23 99h60l-9 -171h-268v67
q67 52 107.5 136.5t40.5 174.5q0 111 -52.5 183.5t-144.5 72.5z" />
    <glyph glyph-name="Iotadieresis" unicode="&#x3aa;" horiz-adv-x="371" 
d="M138 310v49q0 172 -2 258l-92 11v41h283v-41l-92 -11q-2 -84 -2 -258v-49q0 -172 2 -258l92 -11v-41h-283v41l92 11q2 84 2 258zM74 744q-24 0 -41 15.5t-17 39.5t17 39.5t41 15.5t40.5 -15.5t16.5 -39.5t-16.5 -39.5t-40.5 -15.5zM297 744q-24 0 -40.5 15.5t-16.5 39.5
t16.5 39.5t40.5 15.5t41 -15.5t17 -39.5t-17 -39.5t-41 -15.5z" />
    <glyph glyph-name="Upsilondieresis" unicode="&#x3ab;" horiz-adv-x="633" 
d="M394 628v41h229v-41l-88 -13l-170 -352q0 -147 2 -211l102 -11v-41h-302v41l102 11q2 62 2 207l-177 360l-79 9v41h282v-41l-95 -11l139 -303l143 302zM235 744q-24 0 -41 15.5t-17 39.5t17 39.5t41 15.5t40.5 -15.5t16.5 -39.5t-16.5 -39.5t-40.5 -15.5zM458 744
q-24 0 -40.5 15.5t-16.5 39.5t16.5 39.5t40.5 15.5t41 -15.5t17 -39.5t-17 -39.5t-41 -15.5z" />
    <glyph glyph-name="alphatonos" unicode="&#x3ac;" horiz-adv-x="558" 
d="M127 252q0 -105 34.5 -160.5t93.5 -55.5q47 0 83.5 42t38.5 107l5 135q-15 58 -49 89.5t-78 31.5q-62 0 -95 -53.5t-33 -135.5zM237 -13q-86 0 -142 64.5t-56 180.5q0 115 66.5 185.5t151.5 70.5q89 0 129 -84l5 60l76 19l15 -10q-33 -233 -33 -346q0 -40 10 -55.5
t33 -15.5q18 0 43 9l8 -25q-27 -53 -81 -53q-59 0 -74 85q-48 -85 -151 -85zM254 557q7 20 15 46l13.5 43l7.5 23q18 55 32.5 73t32.5 18q34 0 34 -35q0 -25 -37 -86q-8 -14 -62 -98z" />
    <glyph glyph-name="epsilontonos" unicode="&#x3ad;" horiz-adv-x="418" 
d="M40 117q0 49 37.5 82.5t105.5 44.5q-60 12 -91 43.5t-31 72.5q0 57 48 92.5t134 35.5q108 0 143 -51q0 -20 -13 -34.5t-34 -14.5q-29 0 -73 33l-40 30q-37 -2 -62 -22.5t-25 -56.5q0 -41 33.5 -66t100.5 -25q18 0 38 2v-66q-13 2 -28 2q-155 0 -155 -85q0 -38 29.5 -61.5
t80.5 -23.5q78 0 152 53l20 -24q-67 -91 -190 -91q-77 0 -128.5 34.5t-51.5 95.5zM202 557q7 20 15 46l13.5 43l7.5 23q18 55 32.5 73t32.5 18q34 0 34 -35q0 -25 -37 -86q-8 -14 -62 -98z" />
    <glyph glyph-name="etatonos" unicode="&#x3ae;" horiz-adv-x="550" 
d="M389 -180l13 191l10 293q3 112 -93 112q-38 0 -76.5 -29t-61.5 -70l5 -317l-82 -10l-10 10l13 181l3 189q0 48 -37 48q-13 0 -39 -4l-11 30q34 42 74 42t59.5 -28t23.5 -88q26 53 73 85.5t90 32.5q63 0 96 -40.5t34 -134.5l8 -485l-82 -18zM258 557q7 20 15 46l13.5 43
l7.5 23q18 55 32.5 73t32.5 18q34 0 34 -35q0 -25 -37 -86q-8 -14 -62 -98z" />
    <glyph glyph-name="iotatonos" unicode="&#x3af;" horiz-adv-x="287" 
d="M191 -13q-46 0 -67.5 33t-22.5 105l-3 344l87 18l10 -10q-23 -300 -22 -341q1 -46 12.5 -63t35.5 -17q18 0 43 9l8 -25q-28 -53 -81 -53zM115 557q7 20 15 46l13.5 43l7.5 23q18 55 32.5 73t32.5 18q34 0 34 -35q0 -25 -37 -86q-8 -14 -62 -98z" />
    <glyph glyph-name="upsilondieresistonos" unicode="&#x3b0;" horiz-adv-x="542" 
d="M97 165q0 39 6.5 100t6.5 87q0 37 -7 51t-32 14q-13 0 -37 -4l-11 30q32 42 88 42q45 0 62 -27t17 -94q0 -28 -7.5 -88t-7.5 -99q0 -66 32.5 -100.5t88.5 -34.5q64 0 105 49t41 134q0 33 -2 55q-37 78 -47.5 105.5t-10.5 47.5q0 26 15 40.5t38 14.5q21 0 37 -14
q20 -80 20 -221q0 -138 -59 -202t-157 -64q-81 0 -130 44.5t-49 133.5zM243 565l-31 13l15 46l15 47t10 30q17 47 30 63.5t29 16.5q31 0 31 -31q0 -23 -39 -88q-25 -45 -60 -97zM141 603q-21 0 -36 14t-15 35t15 34.5t36 13.5t36 -13.5t15 -34.5t-15 -35t-36 -14zM398 603
q-21 0 -36 14t-15 35t15 34.5t36 13.5q22 0 36.5 -13.5t14.5 -34.5t-14.5 -35t-36.5 -14z" />
    <glyph glyph-name="alpha" unicode="&#x3b1;" horiz-adv-x="558" 
d="M127 252q0 -105 34.5 -160.5t93.5 -55.5q47 0 83.5 42t38.5 107l5 135q-15 58 -49 89.5t-78 31.5q-62 0 -95 -53.5t-33 -135.5zM237 -13q-86 0 -142 64.5t-56 180.5q0 115 66.5 185.5t151.5 70.5q89 0 129 -84l5 60l76 19l15 -10q-33 -233 -33 -346q0 -40 10 -55.5
t33 -15.5q18 0 43 9l8 -25q-27 -53 -81 -53q-59 0 -74 85q-48 -85 -151 -85z" />
    <glyph glyph-name="beta" unicode="&#x3b2;" horiz-adv-x="567" 
d="M167 522v-417q62 -49 133 -49q70 0 107 39.5t37 106.5q0 69 -44.5 112.5t-145.5 39.5l-11 56q71 13 110.5 53.5t39.5 105.5q0 57 -28 91t-78 34q-55 0 -87.5 -45.5t-32.5 -126.5zM79 -180l6 192l1 484q0 110 59.5 176.5t152.5 66.5q77 0 127.5 -45t50.5 -122
q0 -58 -38.5 -112.5t-115.5 -75.5q205 -17 205 -188q0 -98 -61 -153.5t-145 -55.5q-102 0 -161 80l15 -239l-84 -18z" />
    <glyph glyph-name="gamma" unicode="&#x3b3;" horiz-adv-x="491" 
d="M196 -180l19 188q-9 37 -21.5 79.5t-21.5 69.5l-26.5 78t-23.5 70q-22 64 -37.5 87t-40.5 23q-16 0 -32 -4l-12 30q38 42 82 42q34 0 59 -26t52 -109q38 -115 74 -279q63 120 107 238q-11 84 -11 113q0 68 52 68q22 0 36 -12q5 -18 5 -44q0 -128 -176 -421l4 -183
l-79 -18z" />
    <glyph glyph-name="delta" unicode="&#x3b4;" horiz-adv-x="519" 
d="M39 226q0 89 50.5 156.5t143.5 84.5q-67 44 -103.5 81.5t-36.5 83.5q0 51 49 79t125 28q56 0 107 -20t80 -60q0 -24 -14 -38.5t-36 -14.5q-31 0 -72 36l-64 57q-56 -2 -81.5 -15.5t-25.5 -47.5q0 -40 61 -87q19 -15 84 -59q103 -71 138.5 -126.5t35.5 -142.5
q0 -54 -26 -107t-79 -90t-121 -37q-94 0 -154.5 68.5t-60.5 170.5zM127 234q0 -87 39 -144t98 -57q61 0 94.5 48.5t33.5 128.5q0 85 -25.5 133t-97.5 98q-77 -22 -109.5 -72.5t-32.5 -134.5z" />
    <glyph glyph-name="epsilon" unicode="&#x3b5;" horiz-adv-x="418" 
d="M40 117q0 49 37.5 82.5t105.5 44.5q-60 12 -91 43.5t-31 72.5q0 57 48 92.5t134 35.5q108 0 143 -51q0 -20 -13 -34.5t-34 -14.5q-29 0 -73 33l-40 30q-37 -2 -62 -22.5t-25 -56.5q0 -41 33.5 -66t100.5 -25q18 0 38 2v-66q-13 2 -28 2q-155 0 -155 -85q0 -38 29.5 -61.5
t80.5 -23.5q78 0 152 53l20 -24q-67 -91 -190 -91q-77 0 -128.5 34.5t-51.5 95.5z" />
    <glyph glyph-name="zeta" unicode="&#x3b6;" horiz-adv-x="420" 
d="M197 -191l-4 66q158 15 158 63q0 19 -18 31.5t-71 25.5l-93 22q-124 29 -124 147q0 77 73.5 200.5t215.5 304.5l-273 -9v78l335 -9l4 -54q-147 -200 -209 -306t-62 -185q0 -38 22.5 -63.5t81.5 -39.5l61 -14q114 -29 114 -115q0 -59 -55 -101t-156 -42z" />
    <glyph glyph-name="eta" unicode="&#x3b7;" horiz-adv-x="550" 
d="M389 -180l13 191l10 293q3 112 -93 112q-38 0 -76.5 -29t-61.5 -70l5 -317l-82 -10l-10 10l13 181l3 189q0 48 -37 48q-13 0 -39 -4l-11 30q34 42 74 42t59.5 -28t23.5 -88q26 53 73 85.5t90 32.5q63 0 96 -40.5t34 -134.5l8 -485l-82 -18z" />
    <glyph glyph-name="theta" unicode="&#x3b8;" horiz-adv-x="511" 
d="M257 -13q-43 0 -78.5 18t-65.5 58t-47 113.5t-17 174.5q0 106 16.5 183.5t46.5 121t66 63.5t80 20q91 0 147.5 -93.5t56.5 -292.5q0 -366 -205 -366zM253 694q-61 0 -91 -66t-32 -235h251q-5 150 -41 225.5t-87 75.5zM268 32q38 0 61.5 25t37.5 92t15 184h-251
q4 -153 42 -227t95 -74z" />
    <glyph glyph-name="iota" unicode="&#x3b9;" horiz-adv-x="287" 
d="M191 -13q-46 0 -67.5 33t-22.5 105l-3 344l87 18l10 -10q-23 -300 -22 -341q1 -46 12.5 -63t35.5 -17q18 0 43 9l8 -25q-28 -53 -81 -53z" />
    <glyph glyph-name="kappa" unicode="&#x3ba;" horiz-adv-x="530" 
d="M93 0l14 179l3 191q0 48 -37 48q-13 0 -39 -4l-11 30q33 41 75 41q43 0 63 -33.5t20 -105.5v-133q36 69 84.5 130t93.5 97q56 44 103 49q39 -9 39 -45q0 -53 -80 -56l-56 -3q-41 -35 -93 -92l25 -46l23 -41.5l20 -35.5t19 -31.5l16.5 -24.5t17 -20.5t16.5 -13.5t18 -9.5
t19 -2.5q33 0 50 7l8 -26q-11 -29 -32 -45.5t-44 -16.5q-24 0 -44.5 17t-55 75t-87.5 170l-62 -101l-6 -74t-5 -74l-66 -10z" />
    <glyph glyph-name="lambda" unicode="&#x3bb;" horiz-adv-x="533" 
d="M356 135l-67 258l-171 -403l-84 6l-7 13l230 479l-28 77q-18 51 -41 69t-63 18q-45 0 -84 -24l-21 43q41 68 110 68q101 0 142 -130l144 -453q17 -51 33.5 -69.5t40.5 -18.5q17 0 43 8l10 -25q-12 -28 -33 -46t-44 -18q-35 0 -61 30t-49 118z" />
    <glyph glyph-name="nu" unicode="&#x3bd;" horiz-adv-x="491" 
d="M220 -3q-24 95 -107 333q-16 46 -31.5 65.5t-38.5 19.5q-14 0 -32 -4l-11 30q39 42 85 42q34 0 60.5 -33t49.5 -109q54 -179 71 -272q60 112 107 235q-10 76 -10 116q0 68 52 68q22 0 36 -12q5 -18 5 -44q0 -138 -186 -432z" />
    <glyph glyph-name="xi" unicode="&#x3be;" horiz-adv-x="438" 
d="M215 -191l-4 66q158 16 158 63q0 20 -17.5 33t-69.5 24l-87 18q-142 29 -142 166q0 69 52.5 118.5t137.5 63.5q-74 14 -109.5 55t-35.5 95q0 60 44 102t115 61l-217 -11v71l379 -5l-4 -57q-116 0 -178.5 -41.5t-62.5 -105.5q0 -48 39.5 -84t122.5 -35h53v-78q-30 3 -62 3
q-101 0 -148.5 -39.5t-47.5 -98.5q0 -46 25 -74t94 -41l64 -12q112 -22 112 -114q0 -59 -55 -101t-156 -42z" />
    <glyph glyph-name="omicron" unicode="&#x3bf;" horiz-adv-x="520" 
d="M252 -13q-91 0 -152 64.5t-61 180.5t68.5 186t161.5 70q90 0 150.5 -65.5t60.5 -178.5q0 -116 -68 -186.5t-160 -70.5zM265 33q62 0 95 52.5t33 134.5q0 105 -39 163.5t-100 58.5q-62 0 -94.5 -53.5t-32.5 -136.5q0 -105 39 -162t99 -57z" />
    <glyph glyph-name="pi" unicode="&#x3c0;" horiz-adv-x="593" 
d="M27 385l-8 37q39 30 78 41.5t114 11.5h350l4 -72l-129 4l8 -267q1 -48 15.5 -66t45.5 -18q19 0 44 9l8 -25q-35 -53 -89 -53q-52 0 -76.5 30t-24.5 93q0 109 11 298h-161q-2 -204 -9 -301q-10 -120 -101 -120q-27 0 -44 13.5t-17 36.5q0 29 21 47q38 7 88 12
q11 118 17 310z" />
    <glyph glyph-name="rho" unicode="&#x3c1;" horiz-adv-x="543" 
d="M157 259l-4 -158q66 -59 133 -59q65 0 97.5 48.5t32.5 128.5q0 114 -42.5 168.5t-95.5 54.5q-116 0 -121 -183zM69 -180l3 192l1 207q1 131 61.5 200t163.5 69q87 0 146.5 -67t59.5 -178q0 -119 -64 -187.5t-150 -68.5t-142 77l17 -236l-84 -18z" />
    <glyph glyph-name="uni03C2" unicode="&#x3c2;" horiz-adv-x="457" 
d="M197 -191l-5 66q159 15 159 63q0 19 -18 31t-72 26l-65 17q-73 19 -112.5 69.5t-39.5 149.5q0 117 66 187t176 70q94 0 136 -65q1 -23 -12.5 -37.5t-35.5 -14.5q-28 0 -58 29l-53 50q-136 -20 -136 -195q0 -79 26 -119t79 -55l64 -16q61 -16 86.5 -42t25.5 -71
q0 -59 -55 -101t-156 -42z" />
    <glyph glyph-name="sigma" unicode="&#x3c3;" horiz-adv-x="595" 
d="M260 -13q-100 0 -160.5 65t-60.5 172q0 121 72 186.5t182 66.5l278 1l4 -79l-221 18q59 -29 93 -83.5t34 -114.5q0 -98 -63 -165t-158 -67zM127 243q0 -96 39.5 -153t96.5 -57q61 0 98 49.5t37 143.5q0 64 -33.5 121t-97.5 79q-140 -18 -140 -183z" />
    <glyph glyph-name="tau" unicode="&#x3c4;" horiz-adv-x="492" 
d="M27 385l-8 37q39 31 85 42t127 11h229l4 -72l-191 4l4 -267q1 -48 15.5 -66t45.5 -18q19 0 44 9l8 -25q-35 -53 -89 -53q-101 0 -101 123q0 78 19 295z" />
    <glyph glyph-name="upsilon" unicode="&#x3c5;" horiz-adv-x="542" 
d="M97 165q0 39 6.5 100t6.5 87q0 37 -7 51t-32 14q-13 0 -37 -4l-11 30q32 42 88 42q45 0 62 -27t17 -94q0 -28 -7.5 -88t-7.5 -99q0 -66 32.5 -100.5t88.5 -34.5q64 0 105 49t41 134q0 33 -2 55q-37 78 -47.5 105.5t-10.5 47.5q0 26 15 40.5t38 14.5q21 0 37 -14
q20 -80 20 -221q0 -138 -59 -202t-157 -64q-81 0 -130 44.5t-49 133.5z" />
    <glyph glyph-name="phi" unicode="&#x3c6;" horiz-adv-x="700" 
d="M128 240q0 -99 49 -151t137 -57l8 410q-99 -2 -146.5 -55.5t-47.5 -146.5zM572 237q0 98 -50 149.5t-139 55.5l2 -410q91 4 139 57t48 148zM300 -193l12 180q-131 5 -202 70.5t-71 176.5q0 100 73 176t211 78l3 135h56l1 -135q135 -4 206.5 -69.5t71.5 -178.5
q0 -99 -70 -174t-205 -79l9 -169l-85 -18z" />
    <glyph glyph-name="chi" unicode="&#x3c7;" horiz-adv-x="488" 
d="M16 409l-11 35q35 42 75 42t67 -30t52 -97l47 -134l131 257l73 -5l8 -13l-181 -317l64 -154q26 -63 50.5 -88t57.5 -25q19 0 46 9l8 -27q-27 -53 -82 -53q-46 0 -73 35.5t-51 110.5l-45 146l-150 -289l-69 9l-7 13l197 347l-63 141q-29 65 -44.5 80.5t-49.5 15.5
q-25 0 -50 -9z" />
    <glyph glyph-name="psi" unicode="&#x3c8;" horiz-adv-x="724" 
d="M344 -192l6 179q-115 2 -179 51t-64 141q0 31 1.5 88.5t1.5 84.5q0 37 -7 51t-32 14q-13 0 -37 -4l-11 30q32 42 79 42q48 0 68 -26.5t20 -94.5q0 -31 -2.5 -89.5t-2.5 -96.5q0 -132 166 -139l8 574h57l9 -574q88 7 132.5 60t51.5 172q-51 137 -51 160q0 27 17 42t41 15
q25 0 42 -20q7 -55 7 -151q0 -157 -58.5 -237t-181.5 -91l3 -171l-74 -17z" />
    <glyph glyph-name="omega" unicode="&#x3c9;" horiz-adv-x="733" 
d="M226 -13q-77 0 -132 61.5t-55 173.5t65 183t181 82l4 -41q-162 -30 -162 -227q0 -88 30 -132t78 -44q94 0 94 124q0 22 -4 83.5t-5 100.5l83 10l9 -6q-1 -33 -5.5 -99t-4.5 -88q0 -62 26.5 -93.5t73.5 -31.5t75.5 42t28.5 134q0 197 -162 227l4 41q115 -11 180.5 -81.5
t65.5 -179.5q0 -116 -55.5 -177.5t-134.5 -61.5q-112 0 -141 120q-27 -120 -137 -120z" />
    <glyph glyph-name="iotadieresis" unicode="&#x3ca;" horiz-adv-x="287" 
d="M191 -13q-46 0 -67.5 33t-22.5 105l-3 344l87 18l10 -10q-23 -300 -22 -341q1 -46 12.5 -63t35.5 -17q18 0 43 9l8 -25q-28 -53 -81 -53zM248 596q-25 0 -42.5 16.5t-17.5 40.5t17.5 40.5t42.5 16.5q24 0 41.5 -16.5t17.5 -40.5t-17.5 -40.5t-41.5 -16.5zM38 596
q-24 0 -41.5 16.5t-17.5 40.5t17.5 40.5t41.5 16.5q25 0 42.5 -16.5t17.5 -40.5t-17.5 -40.5t-42.5 -16.5z" />
    <glyph glyph-name="upsilondieresis" unicode="&#x3cb;" horiz-adv-x="542" 
d="M97 165q0 39 6.5 100t6.5 87q0 37 -7 51t-32 14q-13 0 -37 -4l-11 30q32 42 88 42q45 0 62 -27t17 -94q0 -28 -7.5 -88t-7.5 -99q0 -66 32.5 -100.5t88.5 -34.5q64 0 105 49t41 134q0 33 -2 55q-37 78 -47.5 105.5t-10.5 47.5q0 26 15 40.5t38 14.5q21 0 37 -14
q20 -80 20 -221q0 -138 -59 -202t-157 -64q-81 0 -130 44.5t-49 133.5zM157 596q-24 0 -41.5 16.5t-17.5 40.5t17.5 40.5t41.5 16.5q25 0 42.5 -16.5t17.5 -40.5t-17.5 -40.5t-42.5 -16.5zM367 596q-25 0 -42.5 16.5t-17.5 40.5t17.5 40.5t42.5 16.5q24 0 41.5 -16.5
t17.5 -40.5t-17.5 -40.5t-41.5 -16.5z" />
    <glyph glyph-name="omicrontonos" unicode="&#x3cc;" horiz-adv-x="520" 
d="M252 -13q-91 0 -152 64.5t-61 180.5t68.5 186t161.5 70q90 0 150.5 -65.5t60.5 -178.5q0 -116 -68 -186.5t-160 -70.5zM265 33q62 0 95 52.5t33 134.5q0 105 -39 163.5t-100 58.5q-62 0 -94.5 -53.5t-32.5 -136.5q0 -105 39 -162t99 -57zM242 557q7 20 15 46l13.5 43
l7.5 23q18 55 32.5 73t32.5 18q34 0 34 -35q0 -25 -37 -86q-8 -14 -62 -98z" />
    <glyph glyph-name="upsilontonos" unicode="&#x3cd;" horiz-adv-x="542" 
d="M97 165q0 39 6.5 100t6.5 87q0 37 -7 51t-32 14q-13 0 -37 -4l-11 30q32 42 88 42q45 0 62 -27t17 -94q0 -28 -7.5 -88t-7.5 -99q0 -66 32.5 -100.5t88.5 -34.5q64 0 105 49t41 134q0 33 -2 55q-37 78 -47.5 105.5t-10.5 47.5q0 26 15 40.5t38 14.5q21 0 37 -14
q20 -80 20 -221q0 -138 -59 -202t-157 -64q-81 0 -130 44.5t-49 133.5zM239 557q7 20 15 46l13.5 43l7.5 23q18 55 32.5 73t32.5 18q34 0 34 -35q0 -25 -37 -86q-8 -14 -62 -98z" />
    <glyph glyph-name="omegatonos" unicode="&#x3ce;" horiz-adv-x="733" 
d="M226 -13q-77 0 -132 61.5t-55 173.5t65 183t181 82l4 -41q-162 -30 -162 -227q0 -88 30 -132t78 -44q94 0 94 124q0 22 -4 83.5t-5 100.5l83 10l9 -6q-1 -33 -5.5 -99t-4.5 -88q0 -62 26.5 -93.5t73.5 -31.5t75.5 42t28.5 134q0 197 -162 227l4 41q115 -11 180.5 -81.5
t65.5 -179.5q0 -116 -55.5 -177.5t-134.5 -61.5q-112 0 -141 120q-27 -120 -137 -120zM348 557q7 20 15 46l13.5 43l7.5 23q18 55 32.5 73t32.5 18q34 0 34 -35q0 -25 -37 -86q-8 -14 -62 -98z" />
    <glyph glyph-name="uni03D7" unicode="&#x3d7;" horiz-adv-x="642" 
d="M152 -10l-10 10l15 179l3 191q0 48 -37 48q-13 0 -39 -4l-11 30q31 41 75 41q43 0 63.5 -33.5t20.5 -105.5q0 -69 -3 -138q35 70 84.5 132.5t95.5 99.5q56 44 102 49q40 -9 40 -45q0 -53 -80 -56l-54 -2q-41 -37 -96 -96q54 -101 113 -166.5t107 -65.5q16 0 43 6l8 -24
q-58 -128 -137 -192.5t-200 -64.5q-112 0 -176 66.5t-64 170.5l33 6q30 -165 216 -165q79 0 148.5 32t112.5 94h-4q-35 0 -68 22.5t-61.5 63.5t-51 83.5t-46.5 98.5l-68 -113q-6 -92 -8 -142z" />
    <glyph glyph-name="uni03D9" unicode="&#x3d9;" horiz-adv-x="516" 
d="M265 33q62 0 95 52.5t33 134.5q0 105 -39 163.5t-100 58.5q-62 0 -94.5 -53.5t-32.5 -136.5q0 -105 39 -162t99 -57zM312 -172l-82 -18l-12 10l13 168q-83 7 -137.5 71t-54.5 173q0 116 68.5 186t161.5 70q90 0 150.5 -65.5t60.5 -178.5q0 -101 -53.5 -169t-132.5 -84z
" />
    <glyph glyph-name="uni03DB" unicode="&#x3db;" horiz-adv-x="443" 
d="M190 -191l-4 66q158 15 158 63q0 19 -17 31t-72 26l-58 15q-78 20 -118.5 66.5t-40.5 147.5q0 107 59 171t146 73l63 7q32 3 48.5 17.5t27.5 46.5l14 41l40 -6l-19 -74q-14 -59 -39.5 -80t-78.5 -26l-64 -6q-141 -14 -141 -155q0 -59 29 -93.5t100 -55.5l72 -20
q56 -17 81 -41.5t25 -67.5q0 -61 -54.5 -103.5t-156.5 -42.5z" />
    <glyph glyph-name="uni03DD" unicode="&#x3dd;" horiz-adv-x="413" 
d="M79 -180l21 292l-17 356l326 12v-63l-233 9l-12 -220l225 5v-63l-227 13q-1 -20 -1 -57l13 -276l-83 -18z" />
    <glyph glyph-name="uni03E1" unicode="&#x3e1;" horiz-adv-x="579" 
d="M359 -164q69 168 69 339q0 26 -1 38l-294 -121l-23 66l312 101q-11 93 -53 178l-311 -124l-16 67l305 95q-51 85 -128 141.5t-167 76.5l6 37q134 -11 238 -88.5t157.5 -192.5t53.5 -246q0 -203 -105 -384z" />
    <glyph glyph-name="uni0400" unicode="&#x400;" horiz-adv-x="603" 
d="M138 310v49q0 172 -2 258l-92 11v41h498l7 -177h-57l-22 127h-235q-2 -85 -2 -254h147l14 95h46v-236h-46l-13 94h-148q0 -185 2 -268h255l22 128h57l-7 -178h-518v41l92 11q2 84 2 258zM368 745l-18 -25l-126 67q-50 28 -50 56q0 15 11 24.5t27 9.5q24 0 62 -38
q49 -46 94 -94z" />
    <glyph glyph-name="uni0401" unicode="&#x401;" horiz-adv-x="603" 
d="M138 310v49q0 172 -2 258l-92 11v41h498l7 -177h-57l-22 127h-235q-2 -85 -2 -254h147l14 95h46v-236h-46l-13 94h-148q0 -185 2 -268h255l22 128h57l-7 -178h-518v41l92 11q2 84 2 258zM213 744q-24 0 -41 15.5t-17 39.5t17 39.5t41 15.5t40.5 -15.5t16.5 -39.5
t-16.5 -39.5t-40.5 -15.5zM436 744q-24 0 -40.5 15.5t-16.5 39.5t16.5 39.5t40.5 15.5t41 -15.5t17 -39.5t-17 -39.5t-41 -15.5z" />
    <glyph glyph-name="uni0402" unicode="&#x402;" horiz-adv-x="710" 
d="M20 491l8 178h548l7 -177h-57l-23 127h-162q-2 -78 -2 -236q57 5 99 5q123 0 187.5 -60.5t64.5 -159.5q0 -88 -59.5 -153.5t-181.5 -73.5l-13 39q155 28 155 188q0 84 -41 127t-134 43q-42 0 -77 -3v-25q0 -207 3 -310h-202v41l102 11q2 84 2 258v49q0 173 -2 260h-142
l-22 -128h-58z" />
    <glyph glyph-name="uni0403" unicode="&#x403;" horiz-adv-x="560" 
d="M44 628v41h479l7 -198h-57l-27 148h-211q-2 -85 -2 -260v-50q0 -171 2 -257l93 -11v-41h-284v41l92 11q2 84 2 257v50q0 172 -2 258zM253 745q46 49 94 94q38 38 62 38q16 0 27 -9.5t11 -24.5q0 -27 -50 -55l-126 -68z" />
    <glyph glyph-name="uni0404" unicode="&#x404;" horiz-adv-x="615" 
d="M369 -15q-148 0 -235 96.5t-87 253.5q0 153 89 251t232 98q111 0 193 -48l4 -145h-62l-20 118q-49 25 -103 25q-109 0 -168.5 -64.5t-64.5 -206.5h187l14 95h45v-236h-45l-13 94h-189q4 -149 60 -215t168 -66q62 0 119 27l20 116h62l-4 -145q-88 -48 -202 -48z" />
    <glyph glyph-name="uni0405" unicode="&#x405;" horiz-adv-x="512" 
d="M232 35q71 0 113 32t42 89q0 46 -28 73t-95 53l-39 16q-172 67 -172 201q0 85 63.5 135t161.5 50q94 0 164 -52l-6 -131h-61l-21 113q-37 20 -82 20q-59 0 -97 -29.5t-38 -83.5q0 -45 28.5 -75t84.5 -52l40 -15q98 -38 140 -85.5t42 -118.5q0 -87 -65.5 -138.5
t-171.5 -51.5q-114 0 -195 53l6 140h62l20 -118q46 -25 104 -25z" />
    <glyph glyph-name="uni0406" unicode="&#x406;" horiz-adv-x="371" 
d="M138 310v49q0 172 -2 258l-92 11v41h283v-41l-92 -11q-2 -84 -2 -258v-49q0 -172 2 -258l92 -11v-41h-283v41l92 11q2 84 2 258z" />
    <glyph glyph-name="uni0407" unicode="&#x407;" horiz-adv-x="371" 
d="M138 310v49q0 172 -2 258l-92 11v41h283v-41l-92 -11q-2 -84 -2 -258v-49q0 -172 2 -258l92 -11v-41h-283v41l92 11q2 84 2 258zM74 744q-24 0 -41 15.5t-17 39.5t17 39.5t41 15.5t40.5 -15.5t16.5 -39.5t-16.5 -39.5t-40.5 -15.5zM297 744q-24 0 -40.5 15.5t-16.5 39.5
t16.5 39.5t40.5 15.5t41 -15.5t17 -39.5t-17 -39.5t-41 -15.5z" />
    <glyph glyph-name="uni0408" unicode="&#x408;" horiz-adv-x="374" 
d="M47 628v41h293v-41l-92 -11q-2 -84 -2 -257v-156q0 -153 -14 -218q-14 -71 -67.5 -110t-120.5 -39q-74 0 -87 49q8 50 62 50q34 0 75 -31l25 -20q39 38 39 122q0 19 -1.5 76.5t-3.5 198t-4 335.5z" />
    <glyph glyph-name="uni0409" unicode="&#x409;" horiz-adv-x="894" 
d="M155 628v41h492v-41l-92 -11q-2 -75 -2 -227q48 4 69 4q123 0 187.5 -53.5t64.5 -142.5q0 -81 -65 -139.5t-206 -58.5h-238v41l91 11q2 84 2 258v49q0 173 -2 260h-162q-11 -282 -48 -423q-57 -211 -167 -211q-35 0 -52.5 17.5t-17.5 59.5q16 36 62 36q33 0 64 -23
q35 53 57 134q38 149 51 406zM553 310q0 -175 2 -263h36q184 0 184 148q0 76 -39 112t-136 36q-19 0 -47 -2v-31z" />
    <glyph glyph-name="uni040A" unicode="&#x40a;" horiz-adv-x="972" 
d="M443 628v41h291v-41l-101 -12q-2 -74 -2 -226q36 3 70 3q123 0 187 -53t64 -141q0 -82 -65 -140.5t-206 -58.5h-238v41l91 11q2 85 2 277v11h-303v-11q0 -191 2 -278l91 -10v-41h-282v41l92 11q2 84 2 258v49q0 172 -2 258l-92 11v41h282v-41l-91 -10q-2 -76 -2 -232h303
q0 155 -2 231zM631 310q0 -175 2 -263h35q185 0 185 146q0 78 -39 114t-136 36q-33 0 -47 -1v-32z" />
    <glyph glyph-name="uni040B" unicode="&#x40b;" horiz-adv-x="775" 
d="M20 491l8 178h558l8 -177h-58l-22 127h-163q-2 -77 -2 -232q56 7 139 7q87 0 140 -41t53 -131v-171l74 -10v-41h-167q3 104 3 209q0 135 -140 135q-57 0 -102 -4v-30q0 -172 2 -258l102 -11v-41h-302v41l102 11q2 85 2 258v49q0 173 -2 260h-153l-22 -128h-58z" />
    <glyph glyph-name="uni040C" unicode="&#x40c;" horiz-adv-x="653" 
d="M310 745q46 49 94 94q38 38 62 38q16 0 27 -9.5t11 -24.5q0 -27 -50 -55l-126 -68zM451 54l-53 178q-13 42 -42 60t-81 18h-42q0 -178 2 -259l91 -10v-41h-282v41l92 11q2 84 2 258v49q0 172 -2 258l-92 11v41h282v-41l-91 -10q-2 -85 -2 -263h31q56 0 84 24t61 110
q43 110 79.5 150.5t84.5 46.5q24 -1 38.5 -17t14.5 -37q0 -22 -18.5 -39t-52.5 -17q-18 0 -48 4q-20 -32 -55 -112q-25 -58 -47.5 -88t-52.5 -44q111 -24 144 -124l54 -161l102 -10v-41q-32 -10 -89 -10q-50 0 -76 14t-36 50z" />
    <glyph glyph-name="uni040D" unicode="&#x40d;" horiz-adv-x="797" 
d="M471 628v41h282v-41l-92 -11q-2 -84 -2 -258v-49q0 -172 2 -258l92 -11v-41h-282v41l92 11q2 85 2 277v173l-333 -408v-42l94 -11v-41h-282v41l92 11q2 84 2 258v49q0 172 -2 258l-92 11v41h282v-41l-92 -11q-2 -84 -2 -258v-193l333 410v41zM445 745l-18 -25l-126 67
q-50 28 -50 56q0 15 11 24.5t27 9.5q24 0 62 -38q49 -46 94 -94z" />
    <glyph glyph-name="uni040E" unicode="&#x40e;" horiz-adv-x="632" 
d="M14 628v41h259v-41l-87 -10l155 -357l144 355l-82 12v41h220v-41l-80 -11l-224 -512q-25 -59 -56.5 -89.5t-81.5 -30.5q-75 0 -75 81q20 31 63 31q36 0 74 -37q25 30 54 95l-214 464zM348 721q-76 0 -123.5 41t-47.5 103q13 28 42 28q21 0 34 -16t13 -49q0 -21 -2 -43
q33 -23 84 -23t84 23q-2 22 -2 43q0 33 13 49t34 16q29 0 42 -28q0 -62 -47.5 -103t-123.5 -41z" />
    <glyph glyph-name="uni040F" unicode="&#x40f;" horiz-adv-x="769" 
d="M443 628v41h282v-41l-92 -11q-2 -86 -2 -258v-49q0 -174 2 -258l92 -11v-41h-297l-13 -212h-61l-13 212h-297v41l92 11q2 86 2 258v49q0 174 -2 258l-92 11v41h282v-41l-91 -10q-2 -87 -2 -259v-49q0 -174 2 -259h299q2 86 2 259v49q0 174 -2 258z" />
    <glyph glyph-name="uni0410" unicode="&#x410;" horiz-adv-x="664" 
d="M309 562l-101 -298h201zM5 0v41l84 13l213 620h63l213 -624l75 -9v-41h-272v41l98 12l-55 164h-232l-56 -163l98 -13v-41h-229z" />
    <glyph glyph-name="uni0411" unicode="&#x411;" horiz-adv-x="618" 
d="M44 628v41h484l7 -178h-58l-22 128h-221q-2 -78 -2 -236q58 5 100 5q123 0 187.5 -52.5t64.5 -137.5q0 -84 -63.5 -141t-207.5 -57h-269v41l92 11q2 84 2 258v49q0 172 -2 258zM232 310q0 -175 2 -263h66q98 0 141.5 36t43.5 113q0 73 -39 107.5t-136 34.5q-44 0 -78 -3
v-25z" />
    <glyph glyph-name="uni0412" unicode="&#x412;" horiz-adv-x="629" 
d="M138 310v49q0 172 -2 258l-92 11v41h290q102 0 160 -45t58 -118q0 -57 -38 -99.5t-117 -58.5q96 -14 142.5 -57.5t46.5 -107.5q0 -76 -66.5 -129.5t-200.5 -53.5h-275v41l92 11q2 84 2 258zM288 323h-55q0 -191 2 -276h61q190 0 190 136q0 71 -48 105.5t-150 34.5z
M304 623h-69q-2 -86 -2 -254h52q91 0 132 31t41 99q0 67 -37.5 95.5t-116.5 28.5z" />
    <glyph glyph-name="uni0413" unicode="&#x413;" horiz-adv-x="560" 
d="M44 628v41h479l7 -198h-57l-27 148h-211q-2 -85 -2 -260v-50q0 -171 2 -257l93 -11v-41h-284v41l92 11q2 84 2 257v50q0 172 -2 258z" />
    <glyph glyph-name="uni0414" unicode="&#x414;" horiz-adv-x="691" 
d="M164 628v41h482v-41l-91 -11q-2 -86 -2 -258v-49q0 -174 2 -259h102l-5 -229h-58l-22 178h-477l-27 -178h-57l-6 229h55q171 196 195 565zM458 359q0 175 -2 260h-139q-26 -382 -183 -568h322q2 86 2 259v49z" />
    <glyph glyph-name="uni0415" unicode="&#x415;" horiz-adv-x="603" 
d="M138 310v49q0 172 -2 258l-92 11v41h498l7 -177h-57l-22 127h-235q-2 -85 -2 -254h147l14 95h46v-236h-46l-13 94h-148q0 -185 2 -268h255l22 128h57l-7 -178h-518v41l92 11q2 84 2 258z" />
    <glyph glyph-name="uni0416" unicode="&#x416;" horiz-adv-x="918" 
d="M714 54l-54 177q-25 79 -122 79h-35q0 -177 2 -258l92 -11v-41h-276v41l92 11q2 85 2 258h-36q-97 0 -121 -79l-54 -177q-10 -36 -36 -50t-76 -14q-58 0 -90 10v41l103 10l55 160q18 51 49.5 81t89.5 43q-30 15 -53 45.5t-48 87.5q-30 70 -54 111q-21 -3 -43 -3
q-34 0 -52 17t-18 39q0 21 15 37t40 17q44 -7 78.5 -47.5t77.5 -149.5q34 -83 64.5 -108.5t84.5 -25.5h24q0 181 -2 262l-92 11v41h276v-41l-92 -11q-2 -85 -2 -262h23q55 0 86 25.5t63 108.5q44 109 78.5 149.5t78.5 47.5q25 -1 40 -17.5t15 -36.5q0 -22 -18 -39t-53 -17
q-22 0 -42 3q-21 -33 -54 -111q-25 -57 -48 -87.5t-53 -45.5q58 -13 89.5 -43t49.5 -81l55 -160l102 -10v-41q-32 -10 -89 -10q-50 0 -76 14t-36 50z" />
    <glyph glyph-name="uni0417" unicode="&#x417;" horiz-adv-x="550" 
d="M506 182q0 -88 -69 -142.5t-186 -54.5q-90 0 -149 36.5t-72 111.5q19 34 52 34q26 0 38 -16.5t23 -58.5l13 -47q39 -10 81 -10q83 0 126 39.5t43 115.5q0 130 -164 130h-39v51h36q154 0 154 134q0 63 -38.5 96t-103.5 33q-51 0 -92 -14l-21 -114h-62l-6 136q76 42 193 42
q103 0 163.5 -46t60.5 -129q0 -53 -39 -97.5t-108 -62.5q84 -14 125 -57.5t41 -109.5z" />
    <glyph glyph-name="uni0418" unicode="&#x418;" horiz-adv-x="797" 
d="M471 628v41h282v-41l-92 -11q-2 -84 -2 -258v-49q0 -172 2 -258l92 -11v-41h-282v41l92 11q2 85 2 277v173l-333 -408v-42l94 -11v-41h-282v41l92 11q2 84 2 258v49q0 172 -2 258l-92 11v41h282v-41l-92 -11q-2 -84 -2 -258v-193l333 410v41z" />
    <glyph glyph-name="uni0419" unicode="&#x419;" horiz-adv-x="797" 
d="M471 628v41h282v-41l-92 -11q-2 -84 -2 -258v-49q0 -172 2 -258l92 -11v-41h-282v41l92 11q2 85 2 277v173l-333 -408v-42l94 -11v-41h-282v41l92 11q2 84 2 258v49q0 172 -2 258l-92 11v41h282v-41l-92 -11q-2 -84 -2 -258v-193l333 410v41zM399 721q-76 0 -123.5 41
t-47.5 103q13 28 42 28q21 0 34 -16t13 -49q0 -21 -2 -43q33 -23 84 -23t84 23q-2 22 -2 43q0 33 13 49t34 16q29 0 42 -28q0 -62 -47.5 -103t-123.5 -41z" />
    <glyph glyph-name="uni041A" unicode="&#x41a;" horiz-adv-x="653" 
d="M451 54l-53 178q-13 42 -42 60t-81 18h-42q0 -178 2 -259l91 -10v-41h-282v41l92 11q2 84 2 258v49q0 172 -2 258l-92 11v41h282v-41l-91 -10q-2 -85 -2 -263h31q56 0 84 24t61 110q43 110 79.5 150.5t84.5 46.5q24 -1 38.5 -17t14.5 -37q0 -22 -18.5 -39t-52.5 -17
q-18 0 -48 4q-20 -32 -55 -112q-25 -58 -47.5 -88t-52.5 -44q111 -24 144 -124l54 -161l102 -10v-41q-32 -10 -89 -10q-50 0 -76 14t-36 50z" />
    <glyph glyph-name="uni041B" unicode="&#x41b;" horiz-adv-x="691" 
d="M155 628v41h492v-41l-92 -11q-2 -86 -2 -258v-49q0 -174 2 -258l92 -11v-41h-283v41l92 11q2 86 2 258v49q0 175 -2 260h-162q-11 -282 -48 -423q-57 -211 -163 -211q-34 0 -54 19t-20 58q16 36 62 36q33 0 64 -23q35 53 57 134q38 149 51 406z" />
    <glyph glyph-name="uni041C" unicode="&#x41c;" horiz-adv-x="902" 
d="M39 0v41l90 13v563l-90 11v41h185l224 -550l212 550h197v-41l-92 -11q-2 -84 -2 -258v-49q0 -172 2 -258l92 -11v-41h-272v41l84 11q2 84 2 257v249l-217 -558h-50l-229 558l6 -189v-315l82 -13v-41h-224z" />
    <glyph glyph-name="uni041D" unicode="&#x41d;" horiz-adv-x="789" 
d="M138 310v49q0 172 -2 258l-92 11v41h282v-41l-91 -10q-2 -85 -2 -252h323q0 170 -2 251l-92 11v41h282v-41l-92 -11q-2 -84 -2 -258v-49q0 -172 2 -258l92 -11v-41h-282v41l92 11q2 85 2 267h-323q0 -186 2 -268l91 -10v-41h-282v41l92 11q2 84 2 258z" />
    <glyph glyph-name="uni041E" unicode="&#x41e;" horiz-adv-x="707" 
d="M156 335q0 -79 19.5 -145t66 -110.5t112.5 -44.5t112 44.5t65 110t19 145.5q0 125 -49.5 212t-146.5 87q-66 0 -112.5 -44.5t-66 -110t-19.5 -144.5zM354 684q124 0 215 -93.5t91 -255.5q0 -158 -91.5 -254t-214.5 -96q-125 0 -216 93.5t-91 256.5q0 157 92 253t215 96z
" />
    <glyph glyph-name="uni041F" unicode="&#x41f;" horiz-adv-x="775" 
d="M44 0v41l92 11q2 84 2 258v49q0 172 -2 258l-92 11v41h686v-41l-91 -11q-2 -84 -2 -258v-49q0 -172 2 -258l91 -11v-41h-282v41l92 11q2 84 2 258v49q0 176 -2 264h-305q-2 -86 -2 -264v-49q0 -172 2 -259l91 -10v-41h-282z" />
    <glyph glyph-name="uni0420" unicode="&#x420;" horiz-adv-x="589" 
d="M138 310v49q0 172 -2 258l-92 11v41h269q123 0 188.5 -54t65.5 -145t-68.5 -148.5t-213.5 -57.5h-52q0 -140 2 -212l93 -11v-41h-284v41l92 11q2 84 2 258zM295 623h-60q-2 -86 -2 -264v-48h66q87 0 128 42.5t41 116.5q0 153 -173 153z" />
    <glyph glyph-name="uni0421" unicode="&#x421;" horiz-adv-x="631" 
d="M391 35q64 0 119 27l20 116h62l-4 -145q-88 -48 -202 -48q-151 0 -245 97.5t-94 252.5q0 151 96 250t242 99q111 0 193 -48l4 -145h-62l-20 116q-49 27 -102 27q-105 0 -173.5 -79t-68.5 -220q0 -143 64.5 -221.5t170.5 -78.5z" />
    <glyph glyph-name="uni0422" unicode="&#x422;" horiz-adv-x="604" 
d="M255 310v49q0 173 -2 260h-153l-22 -128h-58l8 178h548l8 -178h-58l-22 128h-153q-2 -85 -2 -260v-49q0 -172 2 -258l102 -11v-41h-302v41l102 11q2 85 2 258z" />
    <glyph glyph-name="uni0423" unicode="&#x423;" horiz-adv-x="632" 
d="M14 628v41h259v-41l-87 -10l155 -357l144 355l-82 12v41h220v-41l-80 -11l-224 -512q-25 -59 -56.5 -89.5t-81.5 -30.5q-75 0 -75 81q20 31 63 31q36 0 74 -37q25 30 54 95l-214 464z" />
    <glyph glyph-name="uni0424" unicode="&#x424;" horiz-adv-x="721" 
d="M219 640v41h282v-41l-97 -11q-1 -21 -1 -65h21q131 0 199.5 -62t68.5 -167t-69.5 -167.5t-198.5 -62.5h-21q0 -42 1 -63l97 -13v-41h-282v41l97 13q1 21 1 63h-20q-129 0 -198.5 62t-69.5 168t68.5 167.5t199.5 61.5h20q0 44 -1 65zM301 148h17v155v54v164h-17
q-95 0 -136.5 -53t-41.5 -133q0 -51 14.5 -90.5t56 -68t107.5 -28.5zM402 303v-155h18q66 0 107.5 28.5t56 68t14.5 90.5q0 80 -41.5 133t-136.5 53h-18v-164v-54z" />
    <glyph glyph-name="uni0425" unicode="&#x425;" horiz-adv-x="648" 
d="M19 628v41h281v-41l-88 -10l128 -214l133 212l-85 12v41h229v-41l-88 -11l-164 -254l188 -312l86 -10v-41h-283v41l92 11l-140 232l-147 -232l78 -11v-41h-229v41l95 12l179 271l-177 294z" />
    <glyph glyph-name="uni0426" unicode="&#x426;" horiz-adv-x="770" 
d="M443 628v41h282v-41l-92 -11q-2 -86 -2 -258v-49q0 -174 2 -259h102l-10 -229h-57l-19 178h-605v41l92 11q2 86 2 258v49q0 174 -2 258l-92 11v41h282v-41l-91 -10q-2 -87 -2 -259v-49q0 -174 2 -259h299q2 86 2 259v49q0 174 -2 258z" />
    <glyph glyph-name="uni0427" unicode="&#x427;" horiz-adv-x="701" 
d="M24 628v41h273v-41l-92 -10q-2 -96 -2 -145q0 -83 31 -114.5t109 -31.5q61 0 125 10v22q0 172 -2 258l-91 11v41h282v-41l-92 -11q-2 -84 -2 -258v-49q0 -172 2 -258l92 -11v-41h-283v41l92 11q2 76 2 236q-82 -18 -152 -18q-102 0 -155 41t-53 150v157z" />
    <glyph glyph-name="uni0428" unicode="&#x428;" horiz-adv-x="1043" 
d="M727 628v41h274v-41l-94 -11q-2 -84 -2 -258v-49q0 -172 2 -258l94 -11v-41h-959v41l94 11q2 86 2 258v49q0 174 -2 258l-94 11v41h275v-41l-82 -10q-2 -86 -2 -259v-49q0 -174 2 -259h237q2 85 2 259v49q0 173 -2 259l-81 10v41h262v-41l-82 -10q-2 -85 -2 -259v-49
q0 -173 2 -259h238q2 85 2 259v49q0 173 -2 259z" />
    <glyph glyph-name="uni0429" unicode="&#x429;" horiz-adv-x="1044" 
d="M727 628v41h274v-41l-94 -11q-2 -86 -2 -258v-49q0 -174 2 -259h103l-10 -229h-58l-19 178h-881v41l94 11q2 86 2 258v49q0 174 -2 258l-94 11v41h275v-41l-82 -10q-2 -86 -2 -259v-49q0 -174 2 -259h237q2 85 2 259v49q0 173 -2 259l-81 10v41h262v-41l-82 -10
q-2 -85 -2 -259v-49q0 -173 2 -259h238q2 86 2 259v49q0 174 -2 259z" />
    <glyph glyph-name="uni042A" unicode="&#x42a;" horiz-adv-x="727" 
d="M20 491l7 178h426v-41l-92 -11q-2 -75 -2 -228q53 5 95 5q117 0 185 -54t68 -144q0 -86 -68 -141t-205 -55h-263v41l92 11q2 84 2 258v49q0 173 -2 260h-163l-22 -128h-58zM359 310q0 -175 2 -263h61q93 0 139.5 35.5t46.5 112.5q0 76 -44 112t-142 36q-33 0 -63 -3v-30z
" />
    <glyph glyph-name="uni042B" unicode="&#x42b;" horiz-adv-x="914" 
d="M44 628v41h292v-41l-101 -12q-2 -75 -2 -227q53 5 93 5q110 0 174.5 -53.5t64.5 -140.5q0 -90 -63 -145t-195 -55h-263v41l92 11q2 84 2 258v49q0 172 -2 258zM587 628v41h283v-41l-92 -11q-2 -84 -2 -258v-49q0 -172 2 -258l92 -11v-41h-283v41l92 11q2 84 2 258v49
q0 172 -2 258zM233 310q0 -176 2 -263h59q172 0 172 143q0 79 -38.5 116t-121.5 37q-42 0 -73 -3v-30z" />
    <glyph glyph-name="uni042C" unicode="&#x42c;" horiz-adv-x="609" 
d="M44 628v41h292v-41l-101 -12q-2 -75 -2 -227q60 5 104 5q123 0 187.5 -53.5t64.5 -142.5q0 -81 -65 -139.5t-206 -58.5h-274v41l92 11q2 84 2 258v49q0 172 -2 258zM233 310q0 -175 2 -263h70q185 0 185 148q0 75 -39.5 111.5t-135.5 36.5q-46 0 -82 -3v-30z" />
    <glyph glyph-name="uni042D" unicode="&#x42d;" horiz-adv-x="612" 
d="M45 33l-4 145h62l20 -116q57 -27 124 -27q211 0 218 281h-202l-13 -94h-46v236h46l14 -95h201q-5 141 -61.5 206t-162.5 65q-62 0 -112 -25l-20 -118h-62l4 145q84 48 195 48q151 0 234.5 -92.5t83.5 -256.5t-84 -257t-235 -93q-111 0 -200 48z" />
    <glyph glyph-name="uni042E" unicode="&#x42e;" horiz-adv-x="995" 
d="M661 35q61 0 104 44.5t61 110t18 145.5q0 79 -18 144.5t-61 110t-104 44.5t-103.5 -44.5t-61 -110t-18.5 -144.5t18.5 -145t61 -110.5t103.5 -44.5zM661 -15q-119 0 -201 89t-86 245h-146q0 -186 2 -267l92 -11v-41h-278v41l92 11q2 84 2 258v49q0 172 -2 258l-92 11v41
h278v-41l-92 -11q-2 -84 -2 -251h147q9 149 90 233.5t196 84.5q123 0 205 -90.5t82 -258.5q0 -169 -81.5 -259.5t-205.5 -90.5z" />
    <glyph glyph-name="uni042F" unicode="&#x42f;" horiz-adv-x="642" 
d="M0 0v41l86 10l48 138q22 61 45.5 91.5t62.5 42.5q-77 16 -115.5 61t-38.5 105q0 84 64.5 132t178.5 48h277v-41l-92 -11q-2 -86 -2 -258v-49q0 -174 2 -258l92 -11v-41h-283v41l92 11q2 86 2 251h-59q-60 0 -85.5 -18.5t-46.5 -80.5l-51 -144q-14 -39 -33 -54.5
t-63 -15.5q-49 0 -81 10zM336 349h83q0 191 -2 274h-72q-78 0 -118 -34t-40 -96q0 -63 38.5 -103.5t110.5 -40.5z" />
    <glyph glyph-name="uni0430" unicode="&#x430;" horiz-adv-x="509" 
d="M416 -10q-36 0 -60 21t-30 56q-45 -45 -75.5 -62.5t-71.5 -17.5q-58 0 -96 32.5t-38 92.5q0 46 35 81t131 70q58 21 113 33v25q0 70 -21.5 95.5t-72.5 25.5q-29 0 -54 -6l-19 -65q-14 -48 -52 -48q-42 0 -47 41q14 57 66.5 90.5t128.5 33.5q80 0 117.5 -40.5t37.5 -133.5
v-213q0 -59 36 -59q20 0 39 22l20 -22q-32 -52 -87 -52zM134 127q0 -74 80 -74q24 0 44 10t66 42v154q-53 -15 -92 -30q-98 -38 -98 -102z" />
    <glyph glyph-name="uni0431" unicode="&#x431;" horiz-adv-x="543" 
d="M498 239q0 -115 -65.5 -183.5t-155.5 -68.5q-222 0 -222 314q0 246 80 322q35 32 74.5 47t114.5 26q39 6 117 20l23 44l27 -9q-15 -82 -32 -101q-10 -11 -30 -18.5t-35.5 -10l-59.5 -9.5l-73 -10t-50 -13t-47 -25q-27 -22 -44.5 -86t-21.5 -145q48 141 196 141
q87 0 145.5 -60t58.5 -175zM277 428q-59 0 -95.5 -49.5t-36.5 -144.5q0 -98 37 -150t96 -52t95 51.5t36 148.5t-36 146.5t-96 49.5z" />
    <glyph glyph-name="uni0432" unicode="&#x432;" horiz-adv-x="517" 
d="M44 439v36h260q75 0 116.5 -32t41.5 -84q0 -40 -26.5 -70.5t-81.5 -41.5q67 -9 99 -40.5t32 -78.5q0 -53 -47.5 -90.5t-144.5 -37.5h-249v36l70 13q2 100 2 161v55q0 61 -2 161zM200 210q0 -67 2 -167h74q121 0 121 86q0 97 -127 97h-70v-16zM282 432h-80q-2 -94 -2 -167
h68q57 0 83.5 21t26.5 66q0 80 -96 80z" />
    <glyph glyph-name="uni0433" unicode="&#x433;" horiz-adv-x="447" 
d="M44 439v36h375l8 -172h-47l-31 129h-146q-2 -102 -2 -167v-55q0 -62 2 -160l80 -14v-36h-239v36l70 14q2 100 2 160v55q0 61 -2 161z" />
    <glyph glyph-name="uni0434" unicode="&#x434;" horiz-adv-x="567" 
d="M365 265q0 65 -2 167h-97q-20 -194 -125 -389h222q2 100 2 167v55zM137 439v36h386v-36l-72 -14q-2 -100 -2 -160v-55q0 -67 2 -167h82l-6 -193h-46l-23 150h-364l-23 -150h-47l-5 193h51q119 174 144 379z" />
    <glyph glyph-name="uni0435" unicode="&#x435;" horiz-adv-x="510" 
d="M269 442q-48 0 -86 -39.5t-46 -120.5h182q59 0 59 52q0 44 -31.5 76t-77.5 32zM275 488q80 0 133 -52t53 -140q0 -33 -7 -56h-319q1 -91 45 -139.5t117 -48.5q79 0 139 70l24 -19q-60 -116 -192 -116q-102 0 -162.5 66t-60.5 180q0 112 67 183.5t163 71.5z" />
    <glyph glyph-name="uni0436" unicode="&#x436;" horiz-adv-x="758" 
d="M744 0q-42 -11 -63 -11q-41 0 -61.5 13t-32.5 50l-34 104q-12 34 -32.5 46.5t-59.5 12.5h-44q0 -68 2 -164l74 -15v-36h-228v36l74 14q2 96 2 165h-44q-39 0 -59.5 -12.5t-31.5 -46.5l-34 -104q-12 -37 -32.5 -50t-62.5 -13q-20 0 -62 11v36l74 12l28 83q16 48 45.5 72.5
t80.5 34.5q-52 23 -78 102q-9 27 -21 51q-22 -3 -47 -3q-61 0 -63 49q0 40 43 51q47 -4 76 -34.5t52 -97.5q19 -57 40 -78t56 -21h40q0 70 -2 168l-74 14v36h228v-36l-74 -15q-2 -102 -2 -167h40q36 0 56.5 21t39.5 78q23 67 52 97.5t76 34.5q43 -11 43 -51q0 -49 -63 -49
q-25 0 -47 3q-13 -25 -20 -51q-14 -43 -32 -66t-47 -36q51 -10 80.5 -34.5t46.5 -72.5l29 -83l73 -12v-36z" />
    <glyph glyph-name="uni0437" unicode="&#x437;" horiz-adv-x="430" 
d="M399 129q0 -60 -55 -101t-147 -41q-71 0 -116.5 34t-45.5 90q13 28 45 28t48 -52l17 -56q23 -4 57 -4q51 0 81 26t30 77q0 98 -98 98h-47v46h40q101 0 101 83q0 42 -27 63.5t-74 21.5q-45 0 -75 -10l-18 -104h-54l-3 121q65 39 166 39q72 0 118.5 -35t46.5 -89
q0 -87 -109 -112q58 -11 88.5 -43t30.5 -80z" />
    <glyph glyph-name="uni0438" unicode="&#x438;" horiz-adv-x="645" 
d="M373 439v36h228v-36l-70 -14q-2 -100 -2 -160v-55q0 -62 2 -160l70 -14v-36h-228v36l76 15v292l-252 -269v-23l75 -15v-36h-228v36l70 14q2 98 2 160v55q0 61 -2 161l-70 13v36h228v-36l-75 -15v-291l252 268v23z" />
    <glyph glyph-name="uni0439" unicode="&#x439;" horiz-adv-x="645" 
d="M373 439v36h228v-36l-70 -14q-2 -100 -2 -160v-55q0 -62 2 -160l70 -14v-36h-228v36l76 15v292l-252 -269v-23l75 -15v-36h-228v36l70 14q2 98 2 160v55q0 61 -2 161l-70 13v36h228v-36l-75 -15v-291l252 268v23zM332 564q-77 0 -122 45t-45 109q13 28 42 28
q21 0 34.5 -16t13.5 -49q0 -31 -3 -54q31 -22 80 -22t80 22q-3 23 -3 54q0 33 13.5 49t34.5 16q29 0 42 -28q0 -64 -45 -109t-122 -45z" />
    <glyph glyph-name="uni043A" unicode="&#x43a;" horiz-adv-x="538" 
d="M366 52l-34 104q-12 34 -32.5 48t-58.5 14h-40q0 -70 2 -168l69 -14v-36h-228v36l70 13q2 100 2 161v55q0 61 -2 161l-70 13v36h228v-36l-69 -14q-2 -100 -2 -165h35q36 0 57 20t39 76q24 68 52.5 98t75.5 34q44 -11 44 -51q-2 -49 -63 -49q-25 0 -47 3q-12 -24 -21 -51
q-14 -42 -32 -65t-46 -34q50 -10 79.5 -36t46.5 -74l29 -83l73 -12v-36q-42 -11 -62 -11q-42 0 -62.5 13t-32.5 50z" />
    <glyph glyph-name="uni043B" unicode="&#x43b;" horiz-adv-x="576" 
d="M83 -13q-67 0 -67 70q17 38 46 38q32 0 62 -32q34 36 55 106q29 94 37 252l-85 18v36h400v-36l-70 -14q-2 -100 -2 -160v-55q0 -60 2 -160l70 -14v-36h-228v36l70 13q2 100 2 161v55q0 65 -2 167h-106q-10 -179 -43 -288q-50 -157 -141 -157z" />
    <glyph glyph-name="uni043C" unicode="&#x43c;" horiz-adv-x="742" 
d="M44 0v36l70 15v372l-70 16v36h175l153 -348l151 348h175v-36l-70 -14q-2 -100 -2 -160v-55q0 -60 2 -160l70 -14v-36h-229v36l76 14v160l4 227l-172 -397h-50l-175 395l9 -225v-158l68 -16v-36h-185z" />
    <glyph glyph-name="uni043D" unicode="&#x43d;" horiz-adv-x="633" 
d="M360 439v36h229v-36l-70 -14q-2 -100 -2 -160v-55q0 -60 2 -160l70 -14v-36h-229v36l70 13q2 98 2 178h-231q0 -79 2 -177l69 -14v-36h-228v36l70 13q2 100 2 161v55q0 61 -2 161l-70 13v36h228v-36l-69 -14q-2 -96 -2 -155h231q0 60 -2 156z" />
    <glyph glyph-name="uni043E" unicode="&#x43e;" horiz-adv-x="549" 
d="M274 -13q-94 0 -161.5 65.5t-67.5 182.5q0 118 68 185.5t161 67.5t161.5 -67.5t68.5 -185.5q0 -117 -68 -182.5t-162 -65.5zM274 32q65 0 100 51.5t35 151.5q0 101 -35 154t-100 53t-99.5 -53t-34.5 -154q0 -203 134 -203z" />
    <glyph glyph-name="uni043F" unicode="&#x43f;" horiz-adv-x="626" 
d="M44 0v36l70 13q2 100 2 161v55q0 61 -2 161l-70 13v36h538v-36l-70 -14q-2 -100 -2 -160v-55q0 -60 2 -160l70 -14v-36h-228v36l70 13q2 100 2 161v55q0 65 -2 167h-221q-2 -102 -2 -167v-55q0 -60 2 -160l69 -14v-36h-228z" />
    <glyph glyph-name="uni0440" unicode="&#x440;" horiz-adv-x="583" 
d="M448 231q0 94 -34.5 147t-90.5 53q-54 0 -121 -55v-281q52 -51 110 -51q60 0 98 47.5t38 139.5zM117 -28v286q0 65 -3 125l-79 9v35l140 61l15 -10l6 -64q68 74 151 74q82 0 136.5 -67.5t54.5 -181.5t-58.5 -183t-147.5 -69q-78 0 -133 66v-80q0 -52 2 -162l91 -15v-35
h-257v35l80 14q2 110 2 162z" />
    <glyph glyph-name="uni0441" unicode="&#x441;" horiz-adv-x="488" 
d="M277 442q-66 0 -106.5 -51.5t-40.5 -144.5q0 -92 44 -143t116 -51q90 0 138 76l25 -13q-43 -128 -186 -128q-103 0 -164 67t-61 182q0 114 68 183t163 69q67 0 117 -37t60 -93q-7 -38 -46 -38q-43 0 -55 48l-18 66q-25 8 -54 8z" />
    <glyph glyph-name="uni0442" unicode="&#x442;" horiz-adv-x="528" 
d="M25 313l8 162h462l8 -162h-46l-28 119h-121q-2 -102 -2 -167v-55q0 -60 2 -160l80 -14v-36h-248v36l80 14q2 100 2 160v55q0 65 -2 167h-121l-28 -119h-46z" />
    <glyph glyph-name="uni0443" unicode="&#x443;" horiz-adv-x="512" 
d="M92 -249q-38 0 -65 18.5t-27 47.5q5 21 24 32.5t43 11.5q37 0 74 -38l5 -5q56 48 90 144l4 12l-181 457l-55 8v36h240v-37l-88 -10l125 -341l123 340l-87 12v36h195v-36l-54 -11l-161 -425q-51 -135 -97.5 -193.5t-107.5 -58.5z" />
    <glyph glyph-name="uni0444" unicode="&#x444;" horiz-adv-x="735" 
d="M246 -13q-93 0 -150 65t-57 182q0 119 57 186.5t150 67.5q44 0 86 -22v167l-85 10v35l148 45l14 -8l-4 -142v-106q40 21 83 21q93 0 150 -65t57 -183t-57 -185.5t-150 -67.5q-44 0 -86 22q0 -87 2 -197l96 -16v-35h-268v35l95 15q2 108 2 196q-40 -20 -83 -20zM469 442
q-36 0 -64 -14v-382q28 -14 64 -14q141 0 141 208q0 100 -36.5 151t-104.5 51zM124 234q0 -100 37 -151t105 -51q35 0 63 14v383q-29 13 -63 13q-142 0 -142 -208z" />
    <glyph glyph-name="uni0445" unicode="&#x445;" horiz-adv-x="526" 
d="M316 436v39h187v-39l-59 -11l-143 -176l139 -199l76 -14v-36h-244v36l71 13l-98 143l-110 -143l75 -13v-36h-200v36l64 12l146 181l-134 196l-69 11v39h223v-39l-61 -11l96 -139l107 137z" />
    <glyph glyph-name="uni0446" unicode="&#x446;" horiz-adv-x="621" 
d="M348 439v36h228v-36l-70 -14q-2 -100 -2 -160v-55q0 -67 2 -167h84l-10 -193h-47l-19 150h-470v36l70 13q2 100 2 161v55q0 61 -2 161l-70 13v36h228v-36l-69 -14q-2 -100 -2 -160v-55q0 -67 2 -167h215q2 100 2 167v55q0 61 -2 161z" />
    <glyph glyph-name="uni0447" unicode="&#x447;" horiz-adv-x="554" 
d="M282 439v36h228v-36l-70 -14q-2 -100 -2 -160v-55q0 -61 2 -161l70 -13v-36h-229v36l70 14q2 92 2 149q-57 -13 -107 -13q-98 0 -136.5 43.5t-38.5 141.5v55l-61 13v36h215v-36l-70 -14v-53q0 -78 24 -106t100 -28q31 0 74 5v22q0 61 -2 161z" />
    <glyph glyph-name="uni0448" unicode="&#x448;" horiz-adv-x="856" 
d="M593 439v36h219v-36l-70 -14q-2 -100 -2 -160v-55q0 -60 2 -160l70 -14v-36h-768v36l70 14q2 98 2 160v55q0 61 -2 161l-70 13v36h220v-36l-66 -14q-2 -100 -2 -160v-55q0 -67 2 -167h188q2 100 2 167v55q0 61 -2 161l-65 13v36h215v-36l-66 -14q-2 -100 -2 -160v-55
q0 -67 2 -167h188q2 100 2 167v55q0 61 -2 161z" />
    <glyph glyph-name="uni0449" unicode="&#x449;" horiz-adv-x="857" 
d="M593 439v36h219v-36l-70 -14q-2 -100 -2 -160v-55q0 -67 2 -167h82l-10 -193h-47l-19 150h-704v36l70 13q2 100 2 161v55q0 61 -2 161l-70 13v36h220v-36l-66 -14q-2 -100 -2 -160v-55q0 -67 2 -167h188q2 100 2 167v55q0 61 -2 161l-65 13v36h215v-36l-66 -14
q-2 -100 -2 -160v-55q0 -67 2 -167h188q2 100 2 167v55q0 61 -2 161z" />
    <glyph glyph-name="uni044A" unicode="&#x44a;" horiz-adv-x="610" 
d="M30 313l7 162h347v-36l-71 -14q-2 -84 -2 -136q41 3 82 3q93 0 138 -42.5t45 -105.5t-47.5 -103.5t-145.5 -40.5h-239v36l80 14q2 98 2 160v55q0 65 -2 167h-124l-24 -119h-46zM311 210q0 -68 2 -168h58q117 0 117 104q0 99 -109 99q-37 0 -68 -3v-32z" />
    <glyph glyph-name="uni044B" unicode="&#x44b;" horiz-adv-x="750" 
d="M477 439v36h229v-36l-70 -14q-2 -100 -2 -160v-55q0 -60 2 -160l70 -14v-36h-229v36l70 13q2 100 2 161v55q0 61 -2 161zM44 439v36h228v-36l-69 -14q-2 -82 -2 -136q33 3 67 3q91 0 137 -39.5t46 -104.5t-49.5 -106.5t-141.5 -41.5h-216v36l70 13q2 100 2 161v55
q0 61 -2 161zM201 210q0 -68 2 -168h45q56 0 85.5 27t29.5 78q0 52 -27.5 75t-89.5 23q-15 0 -45 -2v-33z" />
    <glyph glyph-name="uni044C" unicode="&#x44c;" horiz-adv-x="504" 
d="M44 439v36h228v-36l-69 -14q-2 -84 -2 -137q39 4 86 4q89 0 136 -41t47 -105q0 -63 -49.5 -104.5t-140.5 -41.5h-236v36l70 13q2 100 2 161v55q0 61 -2 161zM201 210q0 -68 2 -168h64q116 0 116 100q0 55 -27.5 79t-90.5 24q-31 0 -64 -3v-32z" />
    <glyph glyph-name="uni044D" unicode="&#x44d;" horiz-adv-x="480" 
d="M154 217v53l193 -3q-4 97 -41.5 136t-101.5 39q-47 0 -74 -15l-19 -100h-56l-3 119q69 42 164 42t157 -64.5t62 -181.5q0 -123 -61.5 -189t-176.5 -66q-67 0 -111 34.5t-45 86.5q12 31 43 31q38 0 48 -46l13 -56q20 -5 53 -5q71 0 108.5 43.5t41.5 146.5z" />
    <glyph glyph-name="uni044E" unicode="&#x44e;" horiz-adv-x="799" 
d="M535 32q63 0 94.5 52.5t31.5 150.5t-32.5 152.5t-93.5 54.5q-62 0 -96.5 -54t-34.5 -153q0 -203 131 -203zM535 -13q-91 0 -154 64.5t-66 175.5h-114q0 -79 2 -177l69 -14v-36h-228v36l70 13q2 100 2 161v55q0 61 -2 161l-70 13v36h228v-36l-69 -14q-2 -96 -2 -155h116
q9 101 71 159.5t147 58.5q93 0 156 -68.5t63 -184.5q0 -115 -62.5 -181.5t-156.5 -66.5z" />
    <glyph glyph-name="uni044F" unicode="&#x44f;" horiz-adv-x="532" 
d="M265 242h67v23q0 65 -2 167h-75q-102 0 -102 -90q0 -54 27.5 -77t84.5 -23zM10 0v36l74 13l34 76q30 66 90 91q-72 6 -106 40t-34 85q0 61 45 97.5t134 36.5h241v-36l-70 -13q-2 -100 -2 -161v-55q0 -60 2 -160l70 -14v-36h-228v36l70 13q2 94 2 152h-46q-8 0 -14 -1
t-11 -1.5t-10 -3.5t-7.5 -4t-7 -6t-6 -6.5t-6 -9.5t-5.5 -10.5t-6 -13t-7 -13.5l-52 -105q-10 -21 -26 -29.5t-50 -8.5q-32 0 -68 11z" />
    <glyph glyph-name="uni0450" unicode="&#x450;" horiz-adv-x="510" 
d="M269 442q-48 0 -86 -39.5t-46 -120.5h182q59 0 59 52q0 44 -31.5 76t-77.5 32zM275 488q80 0 133 -52t53 -140q0 -33 -7 -56h-319q1 -91 45 -139.5t117 -48.5q79 0 139 70l24 -19q-60 -116 -192 -116q-102 0 -162.5 66t-60.5 180q0 112 67 183.5t163 71.5zM310 576
l-26 -19l-121 108q-34 32 -34 55q0 18 11 28t27 10q29 0 54 -41q27 -40 89 -141z" />
    <glyph glyph-name="uni0451" unicode="&#x451;" horiz-adv-x="510" 
d="M269 442q-48 0 -86 -39.5t-46 -120.5h182q59 0 59 52q0 44 -31.5 76t-77.5 32zM275 488q80 0 133 -52t53 -140q0 -33 -7 -56h-319q1 -91 45 -139.5t117 -48.5q79 0 139 70l24 -19q-60 -116 -192 -116q-102 0 -162.5 66t-60.5 180q0 112 67 183.5t163 71.5zM166 596
q-24 0 -41.5 16.5t-17.5 40.5t17.5 40.5t41.5 16.5q25 0 42.5 -16.5t17.5 -40.5t-17.5 -40.5t-42.5 -16.5zM376 596q-25 0 -42.5 16.5t-17.5 40.5t17.5 40.5t42.5 16.5q24 0 41.5 -16.5t17.5 -40.5t-17.5 -40.5t-41.5 -16.5z" />
    <glyph glyph-name="uni0452" unicode="&#x452;" horiz-adv-x="535" 
d="M35 0v36l74 14q2 100 2 160v328h-77v46h77v65l-81 10v35l153 45l14 -8l-4 -142v-5h189v-46h-189v-151q60 67 139 67q80 0 121.5 -69t41.5 -232q0 -251 -86 -352q-42 -50 -102 -50q-40 0 -62 16t-23 36q12 38 55 38q34 0 68 -28l12 -9q8 12 11 19q25 50 34 124.5t9 202.5
q0 247 -111 247q-51 0 -104 -48v-139q0 -60 2 -162l49 -12v-36h-212z" />
    <glyph glyph-name="uni0453" unicode="&#x453;" horiz-adv-x="447" 
d="M44 439v36h375l8 -172h-47l-31 129h-146q-2 -102 -2 -167v-55q0 -62 2 -160l80 -14v-36h-239v36l70 14q2 100 2 160v55q0 61 -2 161zM196 576q42 70 89 141q25 41 54 41q16 0 27 -10t11 -28q0 -23 -34 -55l-121 -108z" />
    <glyph glyph-name="uni0454" unicode="&#x454;" horiz-adv-x="488" 
d="M273 -13q-111 0 -168.5 63t-57.5 181q0 132 62 194.5t174 62.5q82 0 150 -41l-4 -102h-52l-17 82q-29 15 -74 15q-70 0 -108.5 -41t-42.5 -135l236 6v-53l-237 4q4 -94 43 -135t109 -41q88 0 149 75l24 -19q-59 -116 -186 -116z" />
    <glyph glyph-name="uni0455" unicode="&#x455;" horiz-adv-x="434" 
d="M200 -13q-75 0 -149 38l-4 110h55l19 -87q35 -16 81 -16q55 0 83.5 20.5t28.5 55.5q0 31 -22 50.5t-71 36.5l-46 17q-121 45 -121 135q0 58 47 99.5t127 41.5q72 0 140 -41l-4 -102h-52l-16 80q-34 17 -69 17q-45 0 -69 -18.5t-24 -49.5q0 -32 19.5 -49t72.5 -37l31 -11
q73 -27 105.5 -62.5t32.5 -84.5q0 -60 -51.5 -101.5t-143.5 -41.5z" />
    <glyph glyph-name="uni0456" unicode="&#x456;" horiz-adv-x="298" 
d="M153 598q-29 0 -48 18t-19 46q0 29 19 46.5t48 17.5q28 0 47.5 -17.5t19.5 -46.5q0 -27 -19.5 -45.5t-47.5 -18.5zM267 36v-36h-232v36l75 14q2 100 2 160v47q0 66 -3 126l-80 9v35l154 61l15 -10l-3 -136v-132q0 -60 2 -160z" />
    <glyph glyph-name="uni0457" unicode="&#x457;" horiz-adv-x="298" 
d="M35 0v36l74 14q2 100 2 160v47q0 66 -3 126l-79 9v35l155 61l15 -10l-3 -136v-132q0 -60 2 -160l69 -14v-36h-232zM39 596q-24 0 -41.5 16.5t-17.5 40.5t17.5 40.5t41.5 16.5q25 0 42.5 -16.5t17.5 -40.5t-17.5 -40.5t-42.5 -16.5zM249 596q-25 0 -42.5 16.5t-17.5 40.5
t17.5 40.5t42.5 16.5q24 0 41.5 -16.5t17.5 -40.5t-17.5 -40.5t-41.5 -16.5z" />
    <glyph glyph-name="uni0458" unicode="&#x458;" horiz-adv-x="277" 
d="M152 598q-28 0 -47.5 18.5t-19.5 45.5q0 29 19.5 46.5t47.5 17.5q29 0 48.5 -17.5t19.5 -46.5q0 -28 -19.5 -46t-48.5 -18zM111 102v155q0 66 -3 126l-79 9v35l151 61l15 -10l-3 -136v-242q0 -131 -11 -191.5t-48 -101.5q-53 -56 -127 -56q-42 0 -65 17.5t-24 39.5
q13 41 59 41q36 0 75 -30l23 -18q11 13 16 27q21 56 21 274z" />
    <glyph glyph-name="uni0459" unicode="&#x459;" horiz-adv-x="753" 
d="M83 -13q-67 0 -67 70q17 38 46 38q32 0 62 -32q34 36 55 106q29 94 37 252l-85 18v36h401v-36l-71 -14q-2 -84 -2 -136q39 3 77 3q89 0 136 -41t47 -105q0 -63 -49.5 -104.5t-140.5 -41.5h-226v36l70 13q2 100 2 161v55q0 65 -2 167h-106q-10 -179 -43 -288
q-50 -157 -141 -157zM459 210q0 -68 2 -168h55q116 0 116 100q0 55 -27.5 79t-90.5 24q-26 0 -55 -3v-32z" />
    <glyph glyph-name="uni045A" unicode="&#x45a;" horiz-adv-x="800" 
d="M350 439v36h229v-36l-70 -14q-2 -88 -2 -144q35 4 76 4q90 0 136.5 -39t46.5 -100q0 -63 -49.5 -104.5t-140.5 -41.5h-226v36l70 13q2 100 2 161v25h-221v-25q0 -60 2 -160l69 -14v-36h-228v36l70 13q2 100 2 161v55q0 61 -2 161l-70 13v36h228v-36l-69 -14
q-2 -90 -2 -147h221q0 56 -2 148zM507 210q0 -68 2 -168h55q115 0 115 95q0 54 -27 77.5t-90 23.5q-26 0 -55 -3v-25z" />
    <glyph glyph-name="uni045B" unicode="&#x45b;" horiz-adv-x="601" 
d="M30 0v36l75 14q2 100 2 160v328h-82v46h82v65l-82 10v35l153 45l14 -8l-4 -147h184v-46h-184v-166q38 41 87.5 67t95.5 26q65 0 96.5 -44t31.5 -141v-70q0 -60 2 -160l70 -14v-36h-232v36l73 13q2 100 2 161v62q0 67 -18.5 94t-63.5 27q-69 0 -141 -65v-118q0 -60 2 -160
l69 -14v-36h-232z" />
    <glyph glyph-name="uni045C" unicode="&#x45c;" horiz-adv-x="538" 
d="M241 576q42 70 89 141q25 41 54 41q16 0 27 -10t11 -28q0 -23 -34 -55l-121 -108zM366 52l-34 104q-12 34 -32.5 48t-58.5 14h-40q0 -70 2 -168l69 -14v-36h-228v36l70 13q2 100 2 161v55q0 61 -2 161l-70 13v36h228v-36l-69 -14q-2 -100 -2 -165h35q36 0 57 20t39 76
q24 68 52.5 98t75.5 34q44 -11 44 -51q-2 -49 -63 -49q-25 0 -47 3q-12 -24 -21 -51q-14 -42 -32 -65t-46 -34q50 -10 79.5 -36t46.5 -74l29 -83l73 -12v-36q-42 -11 -62 -11q-42 0 -62.5 13t-32.5 50z" />
    <glyph glyph-name="uni045D" unicode="&#x45d;" horiz-adv-x="645" 
d="M373 439v36h228v-36l-70 -14q-2 -100 -2 -160v-55q0 -62 2 -160l70 -14v-36h-228v36l76 15v292l-252 -269v-23l75 -15v-36h-228v36l70 14q2 98 2 160v55q0 61 -2 161l-70 13v36h228v-36l-75 -15v-291l252 268v23zM367 576l-26 -19l-121 108q-34 32 -34 55q0 18 11 28
t27 10q29 0 54 -41q27 -40 89 -141z" />
    <glyph glyph-name="uni045E" unicode="&#x45e;" horiz-adv-x="512" 
d="M92 -249q-38 0 -65 18.5t-27 47.5q5 21 24 32.5t43 11.5q37 0 74 -38l5 -5q56 48 90 144l4 12l-181 457l-55 8v36h240v-37l-88 -10l125 -341l123 340l-87 12v36h195v-36l-54 -11l-161 -425q-51 -135 -97.5 -193.5t-107.5 -58.5zM285 564q-77 0 -122 45t-45 109
q13 28 42 28q21 0 34.5 -16t13.5 -49q0 -31 -3 -54q31 -22 80 -22t80 22q-3 23 -3 54q0 33 13.5 49t34.5 16q29 0 42 -28q0 -64 -45 -109t-122 -45z" />
    <glyph glyph-name="uni045F" unicode="&#x45f;" horiz-adv-x="634" 
d="M348 439v36h228v-36l-70 -14q-2 -100 -2 -160v-55q0 -109 1 -158l85 -16v-36h-236l-15 -160h-48l-15 160h-232v36l70 13q2 100 2 161v55q0 61 -2 161l-70 13v36h228v-36l-69 -14q-2 -100 -2 -160v-55q0 -67 2 -167h215q2 100 2 167v55q0 61 -2 161z" />
    <glyph glyph-name="uni0462" unicode="&#x462;" horiz-adv-x="706" 
d="M145 688v41h292v-41l-101 -12q-1 -25 -1 -78h256l7 -159h-58l-21 109h-185v-175q57 5 101 5q115 0 181 -53t66 -134t-67 -136t-206 -55h-264v41l92 11q2 84 2 258v108v130h-139l-23 -124h-57l7 174h211q0 53 -1 79zM334 310q0 -175 2 -263h61q186 0 186 141
q0 69 -42.5 104.5t-138.5 35.5q-35 0 -68 -3v-15z" />
    <glyph glyph-name="uni0463" unicode="&#x463;" horiz-adv-x="605" 
d="M136 0v36l80 14q2 98 2 160v235h-123l-24 -119h-46l7 162h186v111l-82 10v36l153 45l14 -8l-4 -142v-52h211l5 -142h-46l-21 99h-149v-164q36 6 89 6q93 0 138 -39t45 -102q0 -64 -46 -105t-143 -41h-246zM302 210q0 -68 2 -168h61q63 0 90.5 24t27.5 75q0 53 -28 76
t-89 23q-22 0 -64 -4v-26z" />
    <glyph glyph-name="uni0472" unicode="&#x472;" horiz-adv-x="707" 
d="M354 634q-192 0 -202 -268h403q-10 268 -201 268zM354 684q134 0 220 -89t86 -260t-86 -260.5t-220 -89.5q-133 0 -220 92t-87 258q0 165 87 257t220 92zM354 35q103 0 151.5 76.5t50.5 207.5h-405q5 -284 203 -284z" />
    <glyph glyph-name="uni0473" unicode="&#x473;" horiz-adv-x="549" 
d="M274 442q-62 0 -97.5 -44t-41.5 -128h279q-7 84 -43 128t-97 44zM274 -13q-98 0 -163.5 63.5t-65.5 185.5t66 187t163 65t163.5 -65t66.5 -187t-65.5 -185.5t-164.5 -63.5zM274 32q66 0 103 49.5t38 145.5h-281q1 -96 37.5 -145.5t102.5 -49.5z" />
    <glyph glyph-name="uni0474" unicode="&#x474;" horiz-adv-x="682" 
d="M323 -7l-233 626l-75 9v41h273v-45l-96 -9l168 -479l105 339q39 125 69 167t84 42q35 0 56 -17t21 -46q-14 -48 -67 -48q-35 0 -63 15q-26 -46 -52 -132l-146 -463h-44z" />
    <glyph glyph-name="uni0475" unicode="&#x475;" horiz-adv-x="532" 
d="M236 -6l-181 432l-55 8v41h242v-41l-88 -11l122 -321l69 201q41 117 69 147q32 34 74 38q49 -9 49 -45q0 -45 -63 -45q-19 0 -34 4q-31 -46 -52 -106l-108 -302h-44z" />
    <glyph glyph-name="uni0490" unicode="&#x490;" horiz-adv-x="560" 
d="M44 0v41l92 11q2 84 2 258v49q0 172 -2 258l-92 11v41h398l31 148h57l-7 -198h-288q-2 -85 -2 -260v-37q0 -184 2 -270l93 -11v-41h-284z" />
    <glyph glyph-name="uni0491" unicode="&#x491;" horiz-adv-x="452" 
d="M44 0v36l70 14q2 100 2 160v55q0 61 -2 161l-70 13v36h305l31 128h47l-8 -171h-216q-2 -102 -2 -167v-55q0 -61 2 -161l70 -13v-36h-229z" />
    <glyph glyph-name="uni0492" unicode="&#x492;" horiz-adv-x="560" 
d="M44 628v41h479l7 -198h-57l-27 148h-211q-2 -85 -2 -253h153v-47h-153v-10q0 -171 2 -257l93 -11v-41h-284v41l92 11q2 84 2 257v10h-94v47h94q0 170 -2 251z" />
    <glyph glyph-name="uni0493" unicode="&#x493;" horiz-adv-x="456" 
d="M44 439v36h375l8 -172h-47l-31 129h-146q-2 -98 -2 -162h111v-43h-111v-17q0 -62 2 -160l80 -14v-36h-239v36l70 14q2 100 2 160v17h-72v43h72q0 60 -2 156z" />
    <glyph glyph-name="uni0496" unicode="&#x496;" horiz-adv-x="948" 
d="M714 54l-54 177q-25 79 -122 79h-35q0 -177 2 -258l92 -11v-41h-276v41l92 11q2 85 2 258h-36q-97 0 -121 -79l-54 -177q-10 -36 -36 -50t-76 -14q-58 0 -90 10v41l103 10l55 160q18 51 49.5 81t89.5 43q-30 15 -53 45.5t-48 87.5q-30 70 -54 111q-21 -3 -43 -3
q-34 0 -52 17t-18 39q0 21 15 37t40 17q44 -7 78.5 -47.5t77.5 -149.5q34 -83 64.5 -108.5t84.5 -25.5h24q0 181 -2 262l-92 11v41h276v-41l-92 -11q-2 -85 -2 -262h23q55 0 86 25.5t63 108.5q44 109 78.5 149.5t78.5 47.5q25 -1 40 -17.5t15 -36.5q0 -22 -18 -39t-53 -17
q-22 0 -42 3q-21 -33 -54 -111q-25 -57 -48 -87.5t-53 -45.5q58 -13 89.5 -43t49.5 -81l54 -158l110 -11l-5 -220h-58l-21 168h-12q-50 0 -76 14t-36 50z" />
    <glyph glyph-name="uni0497" unicode="&#x497;" horiz-adv-x="780" 
d="M15 0v36l74 12l28 83q16 48 45.5 72.5t80.5 34.5q-52 23 -78 102q-9 27 -21 51q-22 -3 -47 -3q-61 0 -63 49q0 40 43 51q47 -4 76 -34.5t52 -97.5q19 -57 40 -78t56 -21h40q0 70 -2 168l-74 14v36h228v-36l-74 -15q-2 -102 -2 -167h40q36 0 56.5 21t39.5 78
q23 67 52 97.5t76 34.5q43 -11 43 -51q0 -49 -63 -49q-25 0 -47 3q-13 -25 -20 -51q-14 -43 -32 -66t-47 -36q51 -10 80.5 -34.5t46.5 -72.5l28 -82l85 -11l-6 -188h-46l-21 139h-1q-41 0 -61.5 13t-32.5 50l-34 104q-12 34 -32.5 46.5t-59.5 12.5h-44q0 -68 2 -164l74 -15
v-36h-228v36l74 14q2 96 2 165h-44q-39 0 -59.5 -12.5t-31.5 -46.5l-34 -104q-12 -37 -32.5 -50t-62.5 -13q-20 0 -62 11z" />
    <glyph glyph-name="uni0498" unicode="&#x498;" horiz-adv-x="550" 
d="M182 -211l7 31q24 -3 42 -3q64 0 64 61q0 50 -38 107h-6q-90 0 -149 36.5t-72 111.5q19 34 52 34q26 0 38 -16.5t23 -58.5l13 -47q39 -10 81 -10q83 0 126 39.5t43 115.5q0 130 -164 130h-39v51h36q154 0 154 134q0 63 -38.5 96t-103.5 33q-51 0 -92 -14l-21 -114h-62
l-6 136q76 42 193 42q103 0 163.5 -46t60.5 -129q0 -53 -39 -97.5t-108 -62.5q84 -14 125 -57.5t41 -109.5q0 -80 -57.5 -132.5t-156.5 -62.5q65 -62 65 -129q0 -33 -30 -55.5t-81 -22.5q-32 0 -64 9z" />
    <glyph glyph-name="uni0499" unicode="&#x499;" horiz-adv-x="430" 
d="M133 -211l7 31q24 -3 41 -3q65 0 65 61q0 50 -41 109h-8q-71 0 -116.5 34t-45.5 90q13 28 45 28t48 -52l17 -56q23 -4 57 -4q51 0 81 26t30 77q0 98 -98 98h-47v46h40q101 0 101 83q0 42 -27 63.5t-74 21.5q-45 0 -75 -10l-18 -104h-54l-3 121q65 39 166 39
q72 0 118.5 -35t46.5 -89q0 -87 -109 -112q58 -11 88.5 -43t30.5 -80q0 -52 -43 -91t-117 -48q69 -63 69 -132q0 -33 -30 -55.5t-82 -22.5q-34 0 -63 9z" />
    <glyph glyph-name="uni049A" unicode="&#x49a;" horiz-adv-x="689" 
d="M451 54l-53 178q-13 42 -42 60t-81 18h-42q0 -178 2 -259l91 -10v-41h-282v41l92 11q2 84 2 258v49q0 172 -2 258l-92 11v41h282v-41l-91 -10q-2 -85 -2 -263h31q56 0 84 24t61 110q43 110 79.5 150.5t84.5 46.5q24 -1 38.5 -17t14.5 -37q0 -22 -18.5 -39t-52.5 -17
q-18 0 -48 4q-20 -32 -55 -112q-25 -58 -47.5 -88t-52.5 -44q111 -24 144 -124l53 -158l114 -12l-6 -220h-57l-21 168h-16q-50 0 -76 14t-36 50z" />
    <glyph glyph-name="uni049B" unicode="&#x49b;" horiz-adv-x="561" 
d="M366 52l-34 104q-12 34 -32.5 48t-58.5 14h-40q0 -70 2 -168l69 -14v-36h-228v36l70 13q2 100 2 161v55q0 61 -2 161l-70 13v36h228v-36l-69 -14q-2 -100 -2 -165h35q36 0 57 20t39 76q24 68 52.5 98t75.5 34q44 -11 44 -51q-2 -49 -63 -49q-25 0 -47 3q-12 -24 -21 -51
q-14 -42 -32 -65t-46 -34q50 -10 79.5 -36t46.5 -74l28 -82l87 -11l-6 -188h-46l-21 139h-2q-42 0 -62.5 13t-32.5 50z" />
    <glyph glyph-name="uni04A0" unicode="&#x4a0;" horiz-adv-x="779" 
d="M577 54l-52 178q-13 42 -42 60t-81 18h-42q0 -178 2 -259l91 -10v-41h-282v41l92 11q2 84 2 258v49q0 173 -2 260h-163l-22 -128h-58l7 178h426v-41l-91 -10q-2 -86 -2 -263h30q57 0 85 24t61 110q43 110 79.5 150.5t84.5 46.5q24 -1 38.5 -17t14.5 -37
q0 -22 -18.5 -39.5t-53.5 -16.5q-19 0 -47 4q-20 -32 -55 -112q-25 -57 -48 -87.5t-52 -44.5q111 -23 143 -124l55 -161l102 -10v-41q-32 -10 -90 -10q-50 0 -75.5 14t-36.5 50z" />
    <glyph glyph-name="uni04A1" unicode="&#x4a1;" horiz-adv-x="649" 
d="M634 36v-36q-42 -11 -62 -11q-42 0 -62.5 13t-32.5 50l-34 104q-11 34 -31.5 48t-59.5 14h-40q0 -72 2 -168l70 -14v-36h-229v36l70 13q2 100 2 161v55q0 65 -2 167h-125l-24 -119h-46l7 162h347v-36l-70 -14q-2 -96 -2 -165h35q36 0 57 20t40 76q23 67 51.5 97.5
t75.5 34.5q44 -11 44 -51q-2 -49 -63 -49q-24 0 -47 3q-12 -24 -21 -51q-14 -42 -32 -65t-46 -34q50 -10 79.5 -36t46.5 -74l28 -83z" />
    <glyph glyph-name="uni04A2" unicode="&#x4a2;" horiz-adv-x="793" 
d="M138 310v49q0 172 -2 258l-92 11v41h282v-41l-91 -10q-2 -85 -2 -252h323q0 170 -2 251l-92 11v41h282v-41l-92 -11q-2 -84 -2 -258v-49q0 -172 2 -257l107 -11l-6 -220h-57l-22 178h-212v41l92 11q2 85 2 267h-323q0 -186 2 -268l91 -10v-41h-282v41l92 11q2 84 2 258z
" />
    <glyph glyph-name="uni04A3" unicode="&#x4a3;" horiz-adv-x="634" 
d="M360 439v36h229v-36l-70 -14q-2 -100 -2 -160v-55q0 -59 2 -159l81 -11l-6 -190h-47l-22 150h-165v36l70 13q2 98 2 178h-231q0 -79 2 -177l69 -14v-36h-228v36l70 13q2 100 2 161v55q0 61 -2 161l-70 13v36h228v-36l-69 -14q-2 -96 -2 -155h231q0 60 -2 156z" />
    <glyph glyph-name="uni04AA" unicode="&#x4aa;" horiz-adv-x="631" 
d="M391 35q64 0 119 27l20 116h62l-4 -145q-88 -48 -202 -48q-15 0 -23 1q64 -62 64 -128q0 -33 -30 -55.5t-81 -22.5q-32 0 -64 9l7 31q25 -3 42 -3q65 0 65 61q0 51 -43 112q-126 20 -201 113.5t-75 231.5q0 151 96 250t242 99q111 0 193 -48l4 -145h-62l-20 116
q-49 27 -102 27q-105 0 -173.5 -79t-68.5 -220q0 -143 64.5 -221.5t170.5 -78.5z" />
    </font>
</defs>
</svg>
